<svg width="54" height="54" viewBox="0 0 54 54" fill="none" xmlns="http://www.w3.org/2000/svg">
<path fill-rule="evenodd" clip-rule="evenodd" d="M31.3681 49.7024C31.3681 49.9129 31.3475 50.1183 31.3157 50.3201C31.3119 50.3457 31.3088 50.3707 31.3044 50.3956C30.9747 52.2898 29.3229 53.7349 27.3363 53.7349C25.5646 53.7349 24.0601 52.5845 23.5199 50.9933L6.74376 41.3084C5.08007 40.3479 4.05588 38.5724 4.05588 36.6527V20.3399C4.67727 20.5504 5.33987 20.6696 6.03245 20.6696C6.65384 20.6696 7.25336 20.5753 7.81917 20.4042V36.6527C7.81917 37.2266 8.12767 37.7612 8.62603 38.0485L24.2756 47.0839C25.0156 46.2202 26.1116 45.67 27.3363 45.67C28.6684 45.67 29.8474 46.3213 30.5825 47.3199C30.5956 47.338 30.6093 47.3555 30.6225 47.3736C30.6737 47.4467 30.7224 47.521 30.7692 47.5978C30.7873 47.6272 30.8054 47.6559 30.8229 47.6859C30.8641 47.7565 30.9022 47.8289 30.9391 47.902C30.9591 47.9413 30.9778 47.9807 30.9959 48.0206C31.0278 48.0887 31.0571 48.1574 31.0852 48.2273C31.1052 48.2773 31.1227 48.3273 31.1408 48.3778C31.1633 48.4415 31.1851 48.5059 31.2039 48.5708C31.2226 48.6333 31.2364 48.6957 31.252 48.7575C31.2663 48.8162 31.2813 48.8743 31.2926 48.9337C31.3082 49.0117 31.3182 49.0904 31.3294 49.1697C31.335 49.2178 31.3444 49.2634 31.3488 49.3109C31.3606 49.4401 31.3681 49.57 31.3681 49.7024ZM52 14.487C52 15.6967 51.4629 16.7808 50.6161 17.5202V36.6527C50.6161 38.5724 49.5925 40.3479 47.9282 41.3084L33.5152 49.6294C33.4989 48.2679 33.0387 47.0145 32.2755 45.9991L46.0466 38.0485C46.5443 37.7612 46.8528 37.2266 46.8528 36.6527V18.359C45.171 17.8743 43.9357 16.3237 43.9357 14.487C43.9357 13.5927 44.2324 12.7684 44.727 12.0995C44.7338 12.0889 44.742 12.0783 44.7501 12.0677C44.8431 11.944 44.9431 11.8247 45.0498 11.7123L45.0642 11.6967C45.2853 11.4663 45.5326 11.2639 45.8024 11.0909C45.8305 11.0728 45.8598 11.0566 45.8886 11.0385C45.9954 10.9748 46.1046 10.9142 46.2171 10.8599C46.2502 10.8443 46.2833 10.8274 46.317 10.8124C46.4575 10.7487 46.6024 10.69 46.7516 10.6438C46.7523 10.6438 46.7523 10.6438 46.7523 10.6432C47.1363 10.5214 47.5441 10.4546 47.9682 10.4546C50.192 10.4546 52 12.2631 52 14.487ZM4.05588 17.998C2.8306 17.3054 2 15.9921 2 14.487C2 12.2631 3.80858 10.4546 6.03245 10.4546C6.60887 10.4546 7.15594 10.5788 7.65242 10.7974L24.6478 0.985134C25.479 0.504887 26.4083 0.265076 27.3357 0.265076C28.2643 0.265076 29.193 0.504887 30.0242 0.985134L44.5221 9.35605C43.4555 10.0755 42.6293 11.1209 42.1759 12.3456L28.1425 4.24444C27.8977 4.10268 27.6186 4.02836 27.3357 4.02836C27.0534 4.02836 26.7749 4.10268 26.5294 4.24444L9.99995 13.7882C10.0399 14.0155 10.0643 14.2478 10.0643 14.487C10.0643 16.2219 8.96077 17.7001 7.42073 18.2678C7.40887 18.2722 7.39638 18.2772 7.38513 18.2809C7.26211 18.324 7.13908 18.3621 7.0123 18.3939C6.9867 18.4002 6.96172 18.4077 6.93611 18.4127C6.81995 18.4395 6.7013 18.4608 6.58202 18.4776C6.54954 18.482 6.51769 18.4882 6.48459 18.492C6.33596 18.5088 6.18545 18.5195 6.03245 18.5195C5.8682 18.5195 5.70646 18.5063 5.54658 18.487C5.50412 18.482 5.46227 18.4745 5.41918 18.4676C5.29678 18.4489 5.17687 18.4252 5.05759 18.3952C5.02137 18.3858 4.98452 18.3777 4.94768 18.3671C4.63355 18.2784 4.33441 18.1554 4.05588 17.998Z" fill="#FF00E5"/>
<path d="M39.1467 18.722C39.0137 18.589 38.8704 18.4703 38.7176 18.3665C38.7757 17.5558 38.4741 16.7406 37.8668 16.1332C37.2594 15.5258 36.4443 15.2243 35.6335 15.2824C35.5297 15.1296 35.411 14.9862 35.278 14.8533C34.2916 13.867 32.7487 13.7187 31.664 14.4973C31.4108 14.6579 31.3383 14.9307 31.3072 15.0478C31.2891 15.1161 30.6495 17.7301 30.4223 18.6761C29.7546 18.4779 29.0546 18.375 28.3386 18.375C26.3924 18.375 24.5627 19.133 23.1865 20.5092L20.5092 23.1865C19.133 24.5627 18.3751 26.3924 18.3751 28.3386C18.3751 29.0546 18.478 29.7547 18.6762 30.4223C17.7303 30.6495 15.1162 31.2891 15.0479 31.3072C14.9307 31.3383 14.6579 31.4108 14.4973 31.6641C13.7187 32.7488 13.867 34.2916 14.8533 35.278C14.9863 35.4109 15.1296 35.5296 15.2824 35.6335C15.2243 36.4442 15.5259 37.2594 16.1333 37.8668C16.7406 38.4741 17.5559 38.7757 18.3666 38.7176C18.4704 38.8704 18.5891 39.0137 18.7221 39.1467C19.2854 39.71 20.0303 40 20.7678 40C21.3214 40 21.8709 39.8366 22.336 39.5026C22.5892 39.342 22.6617 39.0692 22.6928 38.9522C22.7109 38.8839 23.3505 36.2698 23.5777 35.3238C24.2454 35.522 24.9454 35.6249 25.6614 35.6249C27.6076 35.6249 29.4373 34.867 30.8135 33.4908L33.4908 30.8135C34.867 29.4373 35.6249 27.6076 35.6249 25.6613C35.6249 24.9454 35.522 24.2453 35.3238 23.5777C36.2697 23.3505 38.8838 22.7109 38.9521 22.6927C39.0693 22.6616 39.342 22.5892 39.5026 22.336C40.2813 21.2513 40.133 19.7083 39.1467 18.722V18.722ZM25.774 20.498C26.5283 20.1224 27.3615 19.9166 28.2261 19.9002V33.502C27.4718 33.8776 26.6386 34.0834 25.774 34.0999V20.498ZM21.5866 24.2638L24.2502 21.6003V33.9281C23.2508 33.6776 22.3341 33.1608 21.5866 32.4134C20.4982 31.325 19.8988 29.8779 19.8988 28.3386C19.8988 26.7994 20.4983 25.3523 21.5866 24.2638V24.2638ZM21.27 38.3689C20.8032 38.5877 20.2065 38.4763 19.7995 38.0693C19.6607 37.9304 19.5544 37.7689 19.4836 37.5893L19.2225 36.9271L18.544 37.1427C18.0924 37.2864 17.5691 37.1476 17.2108 36.7893C16.8525 36.431 16.7138 35.9077 16.8574 35.456L17.073 34.7776L16.4108 34.5165C16.2312 34.4457 16.0697 34.3394 15.9309 34.2005C15.5238 33.7935 15.4124 33.1969 15.6312 32.7301C16.1997 32.5864 17.617 32.2435 19.2718 31.8462C19.6002 32.4425 20.0145 32.9961 20.5093 33.4908C21.004 33.9855 21.5575 34.3998 22.1538 34.7283C21.7566 36.3831 21.4137 37.8004 21.27 38.3689V38.3689ZM32.4135 29.7361L29.7499 32.3997V20.0719C30.7494 20.3223 31.666 20.8391 32.4135 21.5866C33.5019 22.675 34.1013 24.1221 34.1013 25.6613C34.1013 27.2006 33.5018 28.6477 32.4135 29.7361V29.7361ZM38.3689 21.2699C37.8004 21.4136 36.3832 21.7565 34.7283 22.1537C34.3999 21.5574 33.9856 21.0039 33.4908 20.5091C32.9961 20.0144 32.4426 19.6001 31.8463 19.2717C32.2435 17.6169 32.5864 16.1995 32.7301 15.631C33.1969 15.4123 33.7936 15.5237 34.2006 15.9307C34.3395 16.0696 34.4458 16.231 34.5166 16.4106L34.7777 17.0728L35.4561 16.8572C35.9078 16.7137 36.4311 16.8524 36.7893 17.2107C37.1476 17.569 37.2864 18.0923 37.1428 18.5439L36.9272 19.2223L37.5894 19.4835C37.769 19.5543 37.9305 19.6606 38.0693 19.7994C38.4763 20.2065 38.5877 20.8031 38.3689 21.2699V21.2699Z" fill="#FF00E5"/>
</svg>
