<svg width="51" height="54" viewBox="0 0 51 54" fill="none" xmlns="http://www.w3.org/2000/svg">
<path fill-rule="evenodd" clip-rule="evenodd" d="M2.04612 17.8814C0.800649 17.1697 0 15.8352 0 14.3229C0 12.0988 1.86824 10.2307 4.09229 10.2307C4.71503 10.2307 5.24879 10.3196 5.6936 10.5865L22.8633 0.711741C23.664 0.26693 24.6425 0 25.5322 0C26.5107 0 27.4004 0.26693 28.201 0.711741L42.7908 9.16315C41.7233 9.87485 40.9226 10.9423 40.3889 12.1878L26.2438 4.0033C25.977 3.82537 25.7101 3.82542 25.4432 3.82542C25.1763 3.82542 24.9094 3.91434 24.6425 4.0033L7.91766 13.6113C7.91766 13.8781 8.0066 14.056 8.0066 14.3229C8.0066 16.1021 6.85009 17.5256 5.33773 18.1483C5.24877 18.1483 5.07088 18.2372 4.98191 18.2372H4.89292C4.80396 18.2372 4.62607 18.3262 4.5371 18.3262H4.44811C4.27018 18.3262 4.18122 18.3262 4.0033 18.3262C3.82537 18.3262 3.64747 18.3262 3.46955 18.3262H3.38055C3.29159 18.3262 3.1137 18.3262 3.02474 18.2372H2.93574C2.66885 18.1483 2.31301 18.0593 2.04612 17.8814ZM50.4416 14.3229C50.4416 15.5684 49.9078 16.6359 49.0182 17.3476V36.6524C49.0182 38.6095 47.9506 40.3888 46.3493 41.3674L31.7595 49.7299C31.7595 48.3954 31.3147 47.061 30.514 46.0825L44.3921 38.0759C44.9259 37.809 45.1928 37.2751 45.1928 36.6524V18.2372C43.5025 17.7035 42.257 16.1911 42.257 14.3229C42.257 13.4333 42.5239 12.6327 43.0577 11.921C43.1467 11.832 43.2356 11.654 43.3246 11.5651C43.5915 11.2982 43.7694 11.1203 44.0363 10.9424C44.0363 10.9424 44.1253 10.9423 44.1253 10.8533C44.2142 10.7644 44.3032 10.7644 44.4811 10.6755C44.4811 10.6755 44.5701 10.6755 44.5701 10.5865C44.748 10.4976 44.837 10.4975 45.0149 10.4085C45.3707 10.3196 45.8155 10.2307 46.2603 10.2307C48.5733 10.2307 50.4416 12.0988 50.4416 14.3229ZM29.6244 49.9078C29.6244 50.0857 29.6244 50.3526 29.5355 50.5306V50.6195C29.1796 52.4877 27.5783 54 25.5322 54C23.7529 54 22.2406 52.8435 21.7068 51.2422L4.80398 41.4564C3.1137 40.4778 2.13511 38.6986 2.13511 36.7414V20.2834C2.75785 20.4613 3.46956 20.6392 4.09229 20.6392C4.71503 20.6392 5.33776 20.5503 5.87154 20.3724V36.7414C5.87154 37.3642 6.22735 37.8979 6.67216 38.1648L22.5074 47.3278C23.2191 46.4382 24.3756 45.9045 25.6211 45.9045C26.9555 45.9045 28.112 46.5272 28.9127 47.5948C28.9127 47.5948 28.9127 47.5947 28.9127 47.6837C29.0017 47.7727 29.0017 47.8617 29.0906 47.9506C29.0906 47.9506 29.0906 48.0396 29.1796 48.0396C29.1796 48.1285 29.2686 48.2175 29.2686 48.2175C29.2686 48.2175 29.2686 48.3065 29.3575 48.3065C29.3575 48.3955 29.4465 48.4844 29.4465 48.4844C29.4465 48.5733 29.4465 48.5733 29.5355 48.6623C29.5355 48.7512 29.6244 48.7513 29.6244 48.8403C29.6244 48.9292 29.6244 48.9292 29.7134 49.0181C29.7134 49.1071 29.7134 49.1072 29.7134 49.1961C29.7134 49.2851 29.7134 49.374 29.7134 49.463C29.7134 49.5519 29.7134 49.552 29.7134 49.6409C29.6244 49.6409 29.6244 49.7298 29.6244 49.9078Z" fill="#5639CA"/>
<path d="M9.82819 26.2438L17.5912 12.7978L33.1172 12.7978L40.8802 26.2438L33.1172 39.6897L17.5912 39.6897L9.82819 26.2438Z" stroke="#5639CA" stroke-width="3" stroke-linecap="round" stroke-linejoin="round"/>
<path d="M18.7647 22.4394L25.3542 18.6349L31.9438 22.4394V30.0484L25.3542 33.8528L18.7647 30.0484L18.7647 22.4394Z" stroke="#5639CA" stroke-width="3" stroke-linecap="round" stroke-linejoin="round"/>
<circle cx="25.3542" cy="18.2372" r="2.22405" fill="#5639CA"/>
<circle cx="25.3542" cy="34.2504" r="2.22405" fill="#5639CA"/>
<circle cx="32.4712" cy="21.7957" r="2.22405" fill="#5639CA"/>
<circle cx="32.4712" cy="30.6919" r="2.22405" fill="#5639CA"/>
<circle cx="18.2372" cy="21.7957" r="2.22405" fill="#5639CA"/>
<circle cx="18.2372" cy="30.6919" r="2.22405" fill="#5639CA"/>
</svg>
