<svg width="54" height="54" viewBox="0 0 54 54" fill="none" xmlns="http://www.w3.org/2000/svg">
<path fill-rule="evenodd" clip-rule="evenodd" d="M3.82541 17.8814C2.57994 17.1697 1.7793 15.8353 1.7793 14.3229C1.7793 12.0989 3.6475 10.2307 5.87154 10.2307C6.49428 10.2307 7.02804 10.3197 7.47284 10.5866L24.6425 0.71186C25.4431 0.267051 26.4217 0.00012207 27.3113 0.00012207C28.2899 0.00012207 29.1795 0.267051 29.9802 0.71186L44.5699 9.16323C43.5024 9.87492 42.7017 10.9424 42.1679 12.1878L28.023 4.0034C27.7561 3.82548 27.4893 3.82552 27.2224 3.82552C26.9555 3.82552 26.6886 3.91444 26.4217 4.0034L9.69689 13.6113C9.69689 13.8782 9.78586 14.0561 9.78586 14.3229C9.78586 16.1022 8.62935 17.5256 7.117 18.1483C7.02804 18.1483 6.85012 18.2373 6.76116 18.2373H6.67219C6.58323 18.2373 6.40531 18.3262 6.31635 18.3262H6.22739C6.04946 18.3262 5.9605 18.3262 5.78258 18.3262C5.60465 18.3262 5.42672 18.3262 5.2488 18.3262H5.15983C5.07087 18.3262 4.89295 18.3262 4.80399 18.2373H4.71502C4.35918 18.1483 4.09229 18.0593 3.82541 17.8814ZM52.2206 14.3229C52.2206 15.5684 51.6869 16.636 50.7972 17.3477V36.6523C50.7972 38.6095 49.7297 40.3888 48.1284 41.3673L33.5387 49.7298C33.5387 48.3954 33.0938 47.0609 32.2932 46.0824L46.1712 38.0758C46.705 37.8089 46.9719 37.2751 46.9719 36.6523V18.2373C45.2816 17.7035 44.0361 16.1911 44.0361 14.3229C44.0361 13.4333 44.303 12.6327 44.8368 11.921C44.9258 11.8321 45.0147 11.6541 45.1037 11.5652C45.3706 11.2983 45.5485 11.1204 45.8154 10.9425C45.8154 10.9425 45.9043 10.9424 45.9043 10.8534C45.9933 10.7645 46.0823 10.7645 46.2602 10.6755C46.2602 10.6755 46.3492 10.6756 46.3492 10.5866C46.5271 10.4976 46.616 10.4976 46.794 10.4086C47.1498 10.3196 47.5946 10.2307 48.0394 10.2307C50.3524 10.2307 52.2206 12.0989 52.2206 14.3229ZM31.4036 49.9077C31.4036 50.0856 31.4036 50.3525 31.3146 50.5305V50.6194C30.9588 52.4876 29.3575 53.9999 27.3113 53.9999C25.5321 53.9999 24.0197 52.8434 23.486 51.2421L6.58323 41.4563C4.89295 40.4777 3.91437 38.6985 3.91437 36.7414V20.2835C4.53711 20.4614 5.24881 20.6392 5.87154 20.6392C6.49428 20.6392 7.11701 20.5503 7.65078 20.3724V36.7414C7.65078 37.3641 8.00662 37.8979 8.45143 38.1647L24.2866 47.3277C24.9983 46.4381 26.1548 45.9044 27.4003 45.9044C28.7347 45.9044 29.8912 46.5271 30.6919 47.5947C30.6919 47.5947 30.6919 47.5947 30.6919 47.6836C30.7808 47.7726 30.7808 47.8616 30.8698 47.9505C30.8698 47.9505 30.8698 48.0395 30.9587 48.0395C30.9587 48.1284 31.0477 48.2174 31.0477 48.2174C31.0477 48.2174 31.0477 48.3064 31.1367 48.3064C31.1367 48.3954 31.2256 48.4843 31.2256 48.4843C31.2256 48.5733 31.2257 48.5732 31.3146 48.6622C31.3146 48.7511 31.4036 48.7512 31.4036 48.8402C31.4036 48.9291 31.4036 48.9291 31.4925 49.018C31.4925 49.107 31.4925 49.1071 31.4925 49.196C31.4925 49.285 31.4925 49.3739 31.4925 49.4629C31.4925 49.5518 31.4925 49.5519 31.4925 49.6408C31.4036 49.6408 31.4036 49.7297 31.4036 49.9077Z" fill="#59F79D"/>
<path d="M43.5023 29.465L40.2997 22.526L41.1893 22.7928C41.4562 22.8818 41.7231 22.7929 41.901 22.7039C42.1679 22.6149 42.2569 22.3481 42.3458 22.1702C42.4348 21.9033 42.3458 21.6363 42.2569 21.4584C42.1679 21.1915 41.901 21.1026 41.7231 21.0136L31.1366 17.989C31.1366 16.5656 30.1581 15.4091 28.8236 15.0532C27.4892 14.6974 26.1548 15.2312 25.4431 16.2987L14.8567 13.274C14.5898 13.185 14.3229 13.274 14.1449 13.3629C13.8781 13.4519 13.7891 13.7187 13.7001 13.8967C13.5222 14.4304 13.8781 14.9642 14.3229 15.0532L16.1021 15.587L12.4547 23.4156C12.1878 23.5936 11.9209 23.8605 11.9209 24.2163C11.9209 26.4404 13.2553 28.3975 15.3015 29.2871C17.3476 30.1767 19.6606 29.6429 21.2619 28.1305C22.3294 27.152 22.8632 25.7286 22.8632 24.3053C22.8632 23.9494 22.6853 23.5936 22.3294 23.4156L19.1268 16.4766L24.9093 18.1669C24.9093 19.5013 25.7989 20.6578 27.0444 21.0136V33.2014H25.621C24.0197 33.2014 22.6853 34.4469 22.6853 36.0482V36.1371C21.5288 36.493 20.6392 37.6495 20.6392 38.895V39.7846C20.6392 40.3184 21.084 40.7632 21.6178 40.7632H34.4282C34.962 40.7632 35.4068 40.3184 35.4068 39.7846V38.895C35.4068 37.6495 34.5172 36.493 33.3607 36.1371V36.0482C33.3607 34.4469 32.0263 33.2014 30.425 33.2014H29.0016V21.0136C29.7133 20.8357 30.247 20.391 30.6029 19.7682L37.275 21.7253L33.6276 29.554C33.3607 29.7319 33.0938 29.9987 33.0938 30.3546C33.0938 32.5786 34.4282 34.5359 36.4744 35.4255C38.5205 36.3151 40.8335 35.7813 42.4348 34.2689C43.5023 33.2904 44.0361 31.867 44.0361 30.4436C44.0361 29.9099 43.8582 29.6429 43.5023 29.465ZM41.99 31.2442C41.5452 32.7566 40.1218 33.8241 38.5205 33.8241C36.9192 33.8241 35.4958 32.7566 35.1399 31.2442H41.99ZM35.7627 29.2871L38.5205 23.3267L41.2783 29.2871H35.7627ZM22.5963 38.806C22.5963 38.2722 23.0411 37.9163 23.5749 37.9163H32.4711C33.0048 37.9163 33.4497 38.3612 33.4497 38.806H22.5963ZM26.8665 18.3448C26.6886 17.8999 26.8665 17.2772 27.2223 17.0103C27.4003 16.8324 27.6671 16.7435 27.934 16.7435C28.2009 16.7435 28.3788 16.8324 28.5568 16.9214C29.0016 17.1883 29.1795 17.7221 29.0905 18.1669C29.0905 18.2558 29.0905 18.2558 29.0905 18.3448C28.9126 18.8785 28.4678 19.1454 27.934 19.1454C27.4892 19.2344 27.0444 18.8785 26.8665 18.3448ZM24.6424 35.9592C24.6424 35.4255 25.0873 34.9807 25.621 34.9807H30.425C30.9587 34.9807 31.4035 35.4255 31.4035 35.9592H24.6424ZM20.8171 25.1059C20.3723 26.6183 18.9489 27.6857 17.3476 27.6857C15.7463 27.6857 14.3229 26.6183 13.967 25.1059H20.8171ZM14.5898 23.2377L17.3476 17.2773L20.1054 23.2377H14.5898Z" fill="#59F79D"/>
</svg>
