<svg xmlns="http://www.w3.org/2000/svg" viewBox="0 0 70 70">
  <g fill="none" fill-rule="evenodd">
    <path
      fill="#505050"
      d="M63.127 56.125c-2.208 9.61-11.79 15.613-21.401 13.405L13.86 63.127C4.251 60.92-1.75 51.337.457 41.727L6.86 13.86C9.068 4.251 18.65-1.75 28.26.458l27.865 6.401c9.61 2.209 15.612 11.79 13.404 21.402l-6.402 27.864z"
    />
    <path
      fill="#8C8A8B"
      d="M15.634 62.91l-1.215.139-.577 2.512 11.954 2.19.176-2.883-1.124-.258 2.464-12.24L49.167 56l6.697-35.209-31.151-7.088z"
    />
    <path
      fill="#FFF"
      d="M24.076 22.988l1.487.341-.775 3.371-14.372-5.599.797-3.47 1.686.387S14.222 5.9 25.403 7.216l30.563 5.56s9.063 2.813 7.516 12.271l-1.82 10.648-3.291 3.42s-.381.747.07 1.06c.45.311 1.398 3.453 1.398 3.453L57.73 55.984s-2.28 8.558-11.196 6.928c-8.917-1.632-31.234-5.82-31.234-5.82S5.675 55.82 8.27 43.158l-2.15-.181.667-3.813 16.068.037-.653 3.296-1.876-.014s-2.124 3.793 2.727 4.49l20.113 3.785 3.159 1.248 1.943-9.366-3.08.231-13.677-2.725s-2.524-.37-2.275-2.82l1.313-6.17s.57-2.479 3.27-1.963l13.326 2.435 2.594 1.432 2.134-9.74-3.776.071-19.274-3.802s-5.202-.986-4.748 3.399"
    />
  </g>
</svg>
