<svg xmlns="http://www.w3.org/2000/svg" width="189" height="18" viewBox="0 0 189 18"><g fill="none"><path fill="#F00" d="M178.209.666l-8.44 12.398c-1.11 1.63-2.913 3.202-5.09 3.369v.381h9.387c2.492 0 4.31-1.647 5.54-3.461L188.273.666H178.21z"/><path fill="#051039" d="M22.779 16.814V2.028h4.249v14.786h-4.25zm97.997 0l-10.21-8.78v8.78h-3.588V2.028h3.048L120.1 10.67V2.028h3.588v14.786h-2.912zM142.98 6.798c-1.92-.96-4.083-1.737-6.95-1.737-3.424 0-5.977 1.798-5.977 4.298 0 2.561 2.599 4.376 5.946 4.376 2.764 0 4.954-.717 7.116-1.983v3.659c-1.907.96-4.443 1.676-7.296 1.676-5.825 0-10.406-3.017-10.406-7.728 0-4.634 4.67-7.607 10.39-7.607 2.703 0 5.15.518 7.177 1.358v3.688zM50.675 16.814V2.028h14.203v3.17h-9.954v3.674h9.73v3.171h-9.73v4.772h-4.249zm94.874 0V2.028h14.743v3.17h-10.495V7.76h10.33v3.17h-10.33v2.714h10.45v3.17h-14.698zm-65.912-5.549l5.87 5.55h-4.534c-1.006 0-1.666-.32-2.192-.84l-3.994-3.933a.475.475 0 0 0-.344-.121h-2.718v4.893h-4.249V2.028h9.204c4.774 0 6.786 2.18 6.786 4.588 0 2.805-2.463 4.145-3.829 4.65zm-3.392-2.439c1.68 0 2.491-.868 2.491-1.844 0-.976-.72-1.784-2.491-1.784h-4.52v3.628h4.52zm-33.078 2.44l5.87 5.548h-4.533c-1.006 0-1.667-.32-2.192-.839l-3.994-3.933a.476.476 0 0 0-.345-.121h-2.717v4.893h-4.25V2.028h9.204c4.774 0 6.787 2.18 6.787 4.588 0 2.805-2.463 4.145-3.83 4.65zm-3.392-2.44c1.682 0 2.493-.868 2.493-1.844 0-.976-.721-1.784-2.493-1.784h-4.519v3.628h4.519zm-23.648 7.988l-1.861-3.247H6.129l-1.697 3.247H.378L8.486 2.043h3.694l9.189 14.771h-5.242zM7.75 10.487h4.745l-2.463-4.512-2.282 4.512zm93.222 6.327l-1.817-3.247H91.23l-1.637 3.247h-3.95L93.54 2.043h3.588l8.934 14.771h-5.09zm-8.152-6.327h4.624l-2.402-4.512-2.222 4.512z"/></g></svg>