<svg
  xmlns="http://www.w3.org/2000/svg"
  viewBox="-1.19424786 -1.19424786 266.27490572 42.19675772"
>
  <path
    d="m 259.57347,16.011948 c -2.51125,-0.0913 -4.49875,0.88375 -5.485,1.4925 -0.6225,-0.715 -1.645,-1.55375 -4.4925,-1.57875 -2.875,-0.025 -4.84,0.84625 -5.45,1.135 l 0.0737,-0.9125 -4.62625,-0.0412 -3.08375,16.83875 5.57625,0.0475 2.54125,-13.58375 c 0.3125,-1.10625 1.32375,-1.09625 2.2275,-1.08875 1.20875,0.01 2.1425,0.825 1.7875,3.03875 -0.355,2.21375 -1.9975,11.67375 -1.9975,11.67375 l 5.2225,0.045 c 0.49375,-2.61625 2.38875,-12.14 2.60125,-13.28125 0.0513,-0.28125 0.12125,-0.64 0.10625,-1.0225 3.4025,-1.0375 3.955,0.59625 3.75,1.7625 -0.1175,0.67 -0.2375,1.555 -0.32,2.21125 l -1.80375,10.3675 1.23125,0.0113 c 1.94375,0.0175 2.2175,0.0187 3.01125,0.0263 0.93,0.007 1.38875,-0.8125 1.635,-2.42625 0.17875,-1.1675 0.74375,-4.6675 1.68875,-10.24375 0.74375,-4.3275 -2.15375,-4.39625 -4.19375,-4.47125 m -66.75375,3.955 c -0.2125,1.2075 -1.06625,6.74375 -1.48375,8.3525 -0.4175,1.60875 -1.33625,2.91125 -2.44375,2.90125 -1.10875,-0.009 -1.7025,-1.325 -1.5925,-2.33125 0.10875,-1.0075 1.2725,-7.245 1.58875,-8.855 0.31625,-1.61 1.33375,-2.71 2.5425,-2.7 1.21,0.0113 1.6,1.425 1.38875,2.6325 m -0.72,-4.87625 c -2.11625,-0.0188 -7.7025,-0.135 -9.5925,8.6175 -1.89125,8.75125 3.8475,9.50625 5.8625,9.52375 2.01625,0.0175 7.90375,0.27125 9.49625,-8.9875 1.5925,-9.25875 -3.75125,-9.13625 -5.76625,-9.15375 m -16.92126,5.24874 c -0.075,0.8725 -1.26625,6.62 -1.62,8.565 -0.3525,1.945 -1.4975,2.27125 -3.0425,2.2575 -0.8025,-0.006 -1.36375,-0.44625 -1.72,-0.8675 l 2.26625,-12.255 c 0.41625,-0.28125 1.13,-0.625 2.12625,-0.6175 1.68,0.015 2.065,2.045 1.99,2.9175 m 0.52375,-4.865 c -2.70125,-0.0238 -4.30125,0.7275 -4.9925,1.155 l 0.0775,-1.1875 -4.63625,-0.04 -4.23375,23.345 5.3075,0.0463 1.2175,-6.58875 c 2.16875,0.82375 6.105,1.1325 8.51875,-0.515 3.11,-2.12375 3.02375,-7.70125 3.45875,-11.39375 0.435,-3.69125 -0.955,-4.78875 -4.7175,-4.82125 m -36.62624,-0.38624 c -2.28625,-0.0187 -4.335,0.4125 -5.53875,0.73375 l 1.25125,-6.5375004 -5.85625,-0.0512 -4.22875,22.7400004 5.7325,0.05 2.7725,-14.4825 c 0.52,-0.17 1.26375,-0.33125 2.22125,-0.3225 2.015,0.0175 2.21625,1.29625 1.86125,3.4425 -0.35375,2.1475 -2.095,11.40375 -2.095,11.40375 0,0 3.51375,0.0312 4.09875,0.0362 0.585,0.005 1.385,-0.45875 1.59625,-1.59875 0.21125,-1.14 2.04875,-11.53875 2.12125,-12.21 0.0737,-0.67125 -0.3075,-3.17125 -3.93625,-3.20375 m -22.56875,16.81374 -6.5875,-9.5975 c 0,0 5.9,-6.265 6.17125,-6.53125 0.27125,-0.26625 0.74625,-0.8 0.27625,-0.80375 l -4.8375,-0.0425 c 0,0 0.60375,0.0725 -0.41375,1.13875 -0.80875,0.84875 -4.14,4.38625 -5.47,5.79875 1.0675,-5.8075 2.31625,-12.8137504 2.31625,-12.8137504 l -5.66375,-0.0488 -4.18375,22.7412504 1.305,0.0113 c 2.06125,0.0175 2.35125,0.02 3.1925,0.0275 0.9875,0.009 1.17625,-0.845 1.58875,-2.42625 0.15625,-0.6025 0.6525,-3.20625 1.23625,-6.35875 l 5.62875,8.85875 5.44125,0.0462 z m 92.985,-1.54249 c -0.07,0.335 -1.2175,1.06375 -2.36,1.05375 -1.1425,-0.01 -2.685,-0.29125 -1.97625,-4.58625 0.70875,-4.29375 2.78875,-3.99625 3.39375,-3.99 1.34375,0.0113 2.07375,1.08125 2.07375,1.08125 0,0 -1.06125,6.105 -1.13125,6.44125 m 0.06,-14.6475 c -4.8375,-0.0125 -5.58625,1.16125 -5.58625,1.16125 l -0.015,1.67875 c 0,0 2.0925,-1.05625 4.37625,-1.03625 2.285,0.0187 2.9475,1.1675 2.94,1.90625 -0.006,0.73875 -0.225,2.82 -0.225,2.82 0,0 -1.13,-1.555 -3.34625,-1.57375 -3.89625,-0.0338 -7.6075,1.6125 -8.12375,6.91625 -0.51625,5.30375 3.8125,5.0725 4.8025,5.08125 0,0 7.58375,0.0663 8.6775,0.0763 1.09375,0.009 1.5,-1.22 1.7575,-2.135 0.30125,-1.0725 1.4675,-7.715 1.895,-10.6 0.42875,-2.88625 -1.77625,-4.2825 -7.1525,-4.295 m -55.28625,14.1675 c -0.07,0.335 -1.2175,1.06375 -2.36,1.05375 -1.1425,-0.01 -2.685,-0.29125 -1.97625,-4.58625 0.71,-4.29375 2.79,-3.99625 3.39375,-3.99 1.345,0.0112 2.075,1.08125 2.075,1.08125 0,0 -1.06125,6.10625 -1.1325,6.44125 m 0.0613,-14.6475 c -4.8375,-0.0425 -5.5875,1.16125 -5.5875,1.16125 l -0.015,1.67875 c 0,0 2.0925,-1.05625 4.3775,-1.03625 2.28375,0.02 2.94625,1.1675 2.94,1.90625 -0.008,0.73875 -0.22625,2.82 -0.22625,2.82 0,0 -1.12875,-1.555 -3.34625,-1.57375 -3.89625,-0.0338 -7.6075,1.61375 -8.1225,6.9175 -0.51625,5.30375 3.81125,5.07125 4.80125,5.08 0,0 7.58375,0.0663 8.6775,0.0763 1.09375,0.009 1.46875,-1.1975 1.6125,-2.13625 0.1425,-0.94 1.6125,-7.7125 2.04,-10.59875 0.42875,-2.885 -2.315,-4.2525 -7.15125,-4.295 m -62.82,-0.41125 c -2.875,-0.025 -4.5025,0.58125 -5.11125,0.86875 l 0.0725,-0.9125 -4.625,-0.04 -3.08375,16.8375 5.57625,0.0487 2.68375,-14.54375 c 0.43875,-0.0913 1.4175,-0.27 2.32125,-0.26125 1.20875,0.01 2.14625,0.35375 1.79125,2.5675 -0.355,2.215 -2.2375,12.2775 -2.2375,12.2775 0,0 3.5125,0.03 4.03125,0.035 0.5175,0.004 1.32,0.48125 1.8125,-2.135 0.49375,-2.61625 1.7675,-9.99625 1.97875,-11.13625 0.21125,-1.14 0.7025,-3.555 -5.21,-3.60625 m -21.35624,14.3275 c -0.07,0.335 -1.21875,1.06375 -2.36,1.05375 -1.1425,-0.009 -2.685,-0.29125 -1.97625,-4.585 0.70875,-4.295 2.78875,-3.99625 3.39375,-3.99125 1.34375,0.0113 2.07375,1.0825 2.07375,1.0825 0,0 -1.06125,6.105 -1.13125,6.44 m 0.06,-14.6475 c -4.8375,-0.0412 -5.58625,1.16125 -5.58625,1.16125 l -0.015,1.68 c 0,0 2.0925,-1.0575 4.37625,-1.0375 2.28375,0.02 2.94625,1.16875 2.94,1.9075 -0.006,0.73875 -0.22625,2.82 -0.22625,2.82 0,0 -1.12875,-1.555 -3.345,-1.575 -3.8975,-0.0337 -7.6075,1.61375 -8.12375,6.9175 -0.51625,5.30375 3.8125,5.0725 4.8025,5.08125 0,0 7.5825,0.065 8.67625,0.075 1.09375,0.01 1.47,-1.19625 1.6125,-2.13625 0.1425,-0.93875 1.6125,-7.7125 2.04125,-10.59875 0.4275,-2.885 -2.315,-4.2525 -7.1525,-4.295 m 161.2575,-4.23126 -0.8125,4.41625 5.68375,0.05 c 0.4,-2.23125 0.70625,-3.93125 0.79375,-4.4175 l -5.665,-0.0488 z m -1.04752,5.69126 -3.11,16.905 1.30625,0.0113 c 2.06,0.0175 2.35125,0.02 3.1925,0.0275 0.98625,0.009 1.4725,-0.81125 1.7325,-2.425 0.1875,-1.16875 1.57,-8.89375 2.56875,-14.47 l -5.69,-0.0487 z m -177.08374,3.52375 c -0.21125,1.08375 -1.1675,6.71875 -1.3775,7.725 -0.21,1.00625 -0.62625,2.51375 -3.14625,2.4925 -0.40375,-0.004 -1.06375,-0.16375 -1.5575,-0.3 l 2.18125,-12.56 c 0.575,-0.23 1.415,-0.52625 1.91125,-0.5225 0.80625,0.007 2.5175,0.44875 1.98875,3.165 m 0.55,-5.30375 c -0.89375,-0.007 -2.61125,0.2225 -4.145,0.905 l 1.13375,-6.5312504 -5.51875,-0.0475 c 0,0 -3.61375,18.9837504 -3.89625,20.5937504 -0.2825,1.61 0.5625,2.155 1.54875,2.16375 0.57,0.005 1.7875,0.015 2.71625,0.0225 0.6775,0.006 1.20125,0.0113 1.20125,0.0113 1.05625,0.009 2.53125,0.0213 3.2325,0.0275 1.15875,0.01 6.19,0.96125 7.55375,-5.175 1.36375,-6.13625 3.02625,-11.91 -3.82625,-11.97 m 165.39126,18.615 c 2.06,0.0175 2.35,0.02 3.19125,0.0275 0.9875,0.009 1.4725,-0.81125 1.73375,-2.425 0.3,-1.8575 3.61625,-20.30625 3.61625,-20.30625 l -5.66375,-0.0487 -4.18375,22.74125"
    fill="#003366"
  />
  <path
    d="m 16.10473,1.1981976 c -2.43125,1.39 -11.3437605,6.35125 -13.3700105,7.5425 -2.02499998,1.1925 -4.27625,5.0025004 -1.28875,9.2612504 2.98625,4.25875 11.1450105,16.42375 12.3362605,18.45 1.1925,2.02625 4.18375,5.68125 8.0525,1.28 3.8675,-4.40125 11.8075,-13.4025 13.02875,-14.80375 1.22125,-1.4 3.12625,-2.5925 -0.14375,-6.6525 -3.7725,-4.6825 -8.77625,-10.7600004 -10.57,-12.9925004 -1.795,-2.2325 -3.18375,-4.865 -8.045,-2.085"
    fill="#cc0000"
  />
</svg>
