<svg xmlns="http://www.w3.org/2000/svg" viewBox="0 0 173.04 57.84"><defs><style>.cls-1{fill:#4226c9;}</style></defs><title>Asset 2</title><g id="Layer_2" data-name="Layer 2"><g id="Layer_1-2" data-name="Layer 1"><path class="cls-1" d="M107.21,42.4q-3.52,5.18-10.53,5.18a13.3,13.3,0,0,1-10.35-4.42A15.57,15.57,0,0,1,82.44,32.4a15.58,15.58,0,0,1,3.89-10.77A13.66,13.66,0,0,1,97,17.22a11.68,11.68,0,0,1,10.23,5.23V17.69h4.42V47.11h-4.42Zm-9.94,1.18a9.3,9.3,0,0,0,7.53-3.3,11.72,11.72,0,0,0,2.65-7.88,11.75,11.75,0,0,0-2.65-7.89,9.32,9.32,0,0,0-7.53-3.29,9.79,9.79,0,0,0-7.65,3.29,11.47,11.47,0,0,0-2.76,7.89,11.44,11.44,0,0,0,2.76,7.88A9.77,9.77,0,0,0,97.27,43.58Z"/><path class="cls-1" d="M121.74,47.11h-4.41V6.6h4.41Z"/><path class="cls-1" d="M142.36,43.58q5.94,0,8.53-4.95h4.82a14.26,14.26,0,0,1-4.85,6.48,14,14,0,0,1-8.56,2.47,14.22,14.22,0,0,1-10.83-4.42,15.07,15.07,0,0,1-4.06-10.76,15.36,15.36,0,0,1,3.88-10.77,15.21,15.21,0,0,1,21.42,0,15.32,15.32,0,0,1,3.88,10.77v1.76H131.94a10.69,10.69,0,0,0,3.24,6.71A10,10,0,0,0,142.36,43.58ZM142,21.22a9.71,9.71,0,0,0-6.82,2.53A10.44,10.44,0,0,0,132,30h20a10.48,10.48,0,0,0-3.17-6.29A9.74,9.74,0,0,0,142,21.22Z"/><path class="cls-1" d="M161.86,47.11V6.6h4.41V17.69H173v3.88h-6.77V47.11Z"/><path class="cls-1" d="M74.38,42.45q-3.52,5.17-10.53,5.18A13.33,13.33,0,0,1,53.5,43.22a15.62,15.62,0,0,1-3.89-10.77A15.6,15.6,0,0,1,53.5,21.68a13.66,13.66,0,0,1,10.65-4.41,11.67,11.67,0,0,1,10.23,5.24V4.2H78.8v43H74.38Zm-9.94,1.18A9.3,9.3,0,0,0,72,40.33a11.72,11.72,0,0,0,2.65-7.88A11.7,11.7,0,0,0,72,24.57a9.3,9.3,0,0,0-7.53-3.3,9.77,9.77,0,0,0-7.65,3.3A11.43,11.43,0,0,0,54,32.45a11.44,11.44,0,0,0,2.76,7.88A9.77,9.77,0,0,0,64.44,43.63Z"/><path class="cls-1" d="M28.6,29.41c0,3.48-1.64,6.72-4.48,9.46,6.63-4.09,10.78-9.95,10.78-16.45C34.9,10,19.86,0,1.32,0L0,0V14.36C15.9,14.73,28.6,19.74,28.6,29.41Z"/><path class="cls-1" d="M7.32,45.91V57.84C22.07,54.9,33,43.09,34.06,32.56,30.27,39.62,19.77,44.68,7.32,45.91Z"/></g></g></svg>