<svg width="154" height="54" viewBox="0 0 154 54" fill="#002B45" xmlns="http://www.w3.org/2000/svg">
  <path
    fill-rule="evenodd"
    clip-rule="evenodd"
    d="M74 38.4C74 38.9 74.2 39 74.6 39V38.9H85.9C90.3 38.9 92.8 36.5 92.8 32.4V20.9C92.8 16.8 90.3 14.4 85.9 14.4H74.6C74.1 14.4 74 14.6 74 15V38.4ZM87.5 31.5C87.5 33.3 86.9 34 85.2 34V33.9H79.3V19.3H85.2C86.8 19.3 87.5 20 87.5 21.8V31.5ZM101 39C101.5 39 101.6 38.8 101.6 38.4V29.7H110.6C111.1 29.7 111.2 29.5 111.2 29.1V25.3C111.2 24.8 111 24.7 110.6 24.7H101.6V19.4H111.9C112.4 19.4 112.5 19.2 112.5 18.8V15C112.5 14.5 112.3 14.4 111.9 14.4H96.8C96.3 14.4 96.2 14.6 96.2 15V38.4C96.2 38.9 96.4 39 96.8 39H101ZM115.3 38.4C115.3 38.9 115.5 39 115.9 39V38.9H127.2C131.6 38.9 134.1 36.5 134.1 32.4V20.9C134.1 16.8 131.6 14.4 127.2 14.4H115.9C115.4 14.4 115.3 14.6 115.3 15V38.4ZM128.8 31.5C128.8 33.3 128.2 34 126.5 34V33.9H120.6V19.3H126.5C128.1 19.3 128.8 20 128.8 21.8V31.5ZM137 38.4C137 38.9 137.2 39 137.6 39H147.1C151.5 39 154 37 154 32.9V31C154 26.6 151.5 25.8 149.2 25.1L143.8 23.3C142.6 22.9 142.3 22.7 142.3 21.4V20.9C142.3 19.1 142.9 19.1 144.6 19.1L152.1 19.2C152.6 19.2 152.7 19 152.7 18.6V14.8C152.7 14.3 152.5 14.2 152.1 14.2L143.9 14.1C139.5 14.1 137 15.9 137 20V21.9C137 26.3 139.4 27.1 141.8 27.8L147.2 29.6C148.4 29.9 148.7 30.3 148.7 31.6V32.2C148.7 34 148.1 34.1 146.4 34.1L137.6 34C137.1 34 137 34.2 137 34.6V38.4ZM74 0.7L43.5 53.2C43.4 53.3 43.3 53.4 43.1 53.3H0.400007C0.100007 53.3 -0.0999931 53 0.100007 52.7L30.6 0.3L30.9 0.0999999H73.7C74 0.0999999 74.2 0.4 74 0.7ZM39.2 28.8L49.1 34.7C49.2 34.8 49.3 34.7 49.2 34.7V18.8L49 18.7L39.2 24.6C39.1 24.7 39.1 24.6 39.1 24.5L45 14.6L44.9 14.4H29.1L29 14.6L34.9 24.5C35 24.6 34.9 24.6 34.8 24.6L25 18.7L24.8 18.8V34.6L25 34.7L34.9 28.8C35 28.7 35 28.8 35 28.9L29 38.8L29.1 39H44.9L45 38.8L39.1 28.9C39 28.8 39.1 28.8 39.2 28.8Z"
  />
</svg>
