<svg xmlns="http://www.w3.org/2000/svg" viewBox="0 0 150 150" fill="#f04d21">
  <path
    d="M112.3,57.46l11.55-20.2c.37-.64,.37-1.43,0-2.07l-12.15-21.21v-.05s-.09-.09-.09-.18l-.05-.05s-.09-.14-.14-.18h0s-.14-.09-.18-.14l-.05-.05s-.09-.09-.14-.09c0,0-.05,0-.05-.05-.14-.09-.28-.14-.46-.18h-.05s-.14-.05-.18-.05H41.22s-.14,0-.18,.05h-.05c-.14,.05-.32,.09-.46,.18,0,0-.05,0-.05,.05-.05,.05-.09,.05-.14,.09l-.05,.05s-.14,.09-.18,.14h0s-.09,.14-.14,.18l-.05,.05s-.09,.09-.09,.18v.05l-12.15,21.21c-.37,.64-.37,1.43,0,2.07l11.87,20.75V126.34s0,.14,.05,.18v.05c.05,.14,.09,.32,.18,.46,0,0,0,.05,.05,.05,.05,.05,.05,.09,.09,.14l.05,.05s.09,.14,.14,.18h0s.14,.09,.18,.14l.05,.05s.09,.09,.18,.09h.05l21.21,12.15c.32,.18,.69,.28,1.01,.28,.37,0,.69-.09,1.01-.28l21.21-12.15h.05s.09-.09,.18-.09l.05-.05s.14-.09,.18-.14h0s.09-.14,.14-.18l.05-.05s.09-.09,.09-.14c0,0,0-.05,.05-.05,.09-.14,.14-.28,.18-.46v-.05s.05-.14,.05-.18v-24.39h24.34s.14,0,.18-.05h.05c.14-.05,.32-.09,.46-.18,0,0,.05,0,.05-.05,.05-.05,.09-.05,.14-.09l.05-.05s.14-.09,.18-.14h0s.09-.09,.14-.18l.05-.05s.09-.09,.09-.18v-.05l12.15-21.21c.37-.64,.37-1.43,0-2.07l-11.59-20.2Zm-15.74,19.14H62.66c-.51-.05-1.01,.14-1.43,.46l-.05,.05s-.05,.05-.09,.09h0c-.37,.37-.6,.87-.6,1.47v34.05l-17.12,9.8V59.49h62.94l-9.75,17.12Zm-14.82,45.92l-17.12-9.8v-29.08l17.12,17.12v21.76Zm14.82-88.39H54.7l-9.8-17.12h61.47l-9.8,17.12Zm-41.87,4.14h41.87l9.8,17.12H44.9l9.8-17.12Zm55.21,15l-9.75-17.07,9.75-17.07,9.75,17.07-9.75,17.07ZM41.36,19.13l9.75,17.07-9.75,17.07-9.75-17.07,9.75-17.07Zm21.21,116.68l-17.07-9.75,17.07-9.75,17.07,9.75-17.07,9.75Zm22.09-37.96l-17.12-17.12h29.03l9.8,17.12h-21.72Zm25.26-2.12l-9.75-17.07,9.75-17.07,9.75,17.07-9.75,17.07Z"
  />
</svg>
