<svg viewBox="0 0 90 21" fill="#FFB3C7" xmlns="http://www.w3.org/2000/svg">
  <path
    fill-rule="evenodd"
    clip-rule="evenodd"
    d="M11.3439 0.5H15.7509C15.7509 4.7494 14.0927 8.70274 11.1467 11.6423L17.3672 20.1292H11.81L5.04875 10.9037L6.79359 9.59688C9.68872 7.42583 11.3439 4.11243 11.3439 0.5ZM71.2299 13.3379C71.2299 15.2697 72.8761 16.8307 74.9078 16.8307C76.9394 16.8307 78.5857 15.2697 78.5857 13.3379C78.5857 11.4121 76.9394 9.8481 74.9078 9.8481C72.8761 9.8481 71.2299 11.4121 71.2299 13.3379ZM78.5976 7.42287V6.54966H82.661V20.1262H78.5976V19.259C77.4533 20.0395 76.07 20.5 74.5761 20.5C70.6234 20.5 67.4205 17.2943 67.4205 13.3379C67.4205 9.38459 70.6234 6.17586 74.5761 6.17586C76.07 6.17586 77.4533 6.63938 78.5976 7.42287ZM0 20.1295H4.5115V0.500365H0V20.1295ZM22.9283 20.1235H18.6767V0.500365H22.9283V20.1235ZM60.2051 6.18599C58.5858 6.18599 57.05 6.69137 56.0253 8.08192V6.55381H51.9828V20.1244H56.0731V12.9922C56.0731 10.9288 57.4564 9.91804 59.1235 9.91804C60.9042 9.91804 61.932 10.9826 61.932 12.9653V20.1244H65.9864V11.491C65.9864 8.33611 63.4767 6.18599 60.2051 6.18599ZM28.4003 13.3379C28.4003 15.2697 30.0465 16.8307 32.0782 16.8307C34.1099 16.8307 35.7561 15.2697 35.7561 13.3379C35.7561 11.4121 34.1099 9.8481 32.0782 9.8481C30.0465 9.8481 28.4003 11.4121 28.4003 13.3379ZM35.7681 7.42287V6.54966H39.8314V20.1262H35.7681V19.259C34.6238 20.0395 33.2404 20.5 31.7466 20.5C27.7938 20.5 24.5909 17.2943 24.5909 13.3379C24.5909 9.38459 27.7938 6.17586 31.7466 6.17586C33.2404 6.17586 34.6238 6.63938 35.7681 7.42287ZM46.1098 8.32093V6.55359H41.9539V20.1241H46.1188V13.7874C46.1188 11.6493 48.4343 10.5009 50.0387 10.5009H50.0895V6.55359C48.4403 6.55359 46.9225 7.26232 46.1098 8.32093ZM84.4209 17.863C84.4209 16.4516 85.5623 15.3092 86.9695 15.3092C88.3767 15.3092 89.518 16.4516 89.518 17.863C89.518 19.2685 88.3767 20.4109 86.9695 20.4109C85.5623 20.4109 84.4209 19.2685 84.4209 17.863Z"
  />
</svg>
