<?xml version="1.0" encoding="UTF-8"?>
<svg width="350" height="203.53" version="1.1" viewBox="0 0 350 203.53" xmlns="http://www.w3.org/2000/svg">
 <g fill="#00a1e4">
  <path d="m109.16 96.38c-0.28-7.64-0.15-15.3-0.07-22.94 43.97 0.13 87.94 0.03 131.91 0.05 0.01 7.61 0.01 15.21 0 22.81-43.95 0.05-87.9-0.1-131.84 0.08zm59.602-96.38h10.98c0.09 3.73 0.08 7.45 0.06 11.18 3.67-0.01 7.35 0.01 11.02-0.02 0.03 3.66 0.03 7.32-0.08 10.98-3.64 0-7.29 0.02-10.93 0 0 3.6-0.01 7.21 0.02 10.82-3.62 0.23-7.24 0.18-10.86 0.15-0.02-3.66-0.02-7.33-0.04-11-3.68 0.05-7.35 0.03-11.02 0.04-0.06-3.65-0.05-7.31-0.06-10.96 3.7-0.01 7.4-0.02 11.09 0-0.08-3.73 0.25-7.48-0.18-11.19zm91.286 49.597a19.125 19.125 0 0 1-19.125 19.125 19.125 19.125 0 0 1-19.125-19.125 19.125 19.125 0 0 1 19.125-19.125 19.125 19.125 0 0 1 19.125 19.125zm-43.95 0a19.125 19.125 0 0 1-19.125 19.125 19.125 19.125 0 0 1-19.125-19.125 19.125 19.125 0 0 1 19.125-19.125 19.125 19.125 0 0 1 19.125 19.125zm-43.95 3.43e-4a19.125 19.125 0 0 1-19.125 19.125 19.125 19.125 0 0 1-19.125-19.125 19.125 19.125 0 0 1 19.125-19.125 19.125 19.125 0 0 1 19.125 19.125zm-43.95 0a19.125 19.125 0 0 1-19.125 19.125 19.125 19.125 0 0 1-19.125-19.125 19.125 19.125 0 0 1 19.125-19.125 19.125 19.125 0 0 1 19.125 19.125z"/>
  <path d="m206.63 115.75c18.28-0.06 36.56 0.12 54.84-0.09 5.77 15.69 10.82 31.65 16.27 47.46 0.45-0.71 1.09-1.31 1.32-2.14 5.21-15.09 10.54-30.14 15.8-45.22 18.38-0.02 36.76-0.03 55.14 0.01v87.66c-11.25 0.14-22.51 0.05-33.76 0.05-0.02-20.18 0.1-40.37-0.06-60.56-1.57 0.88-1.73 2.87-2.4 4.36-6.53 18.75-13.23 37.44-19.76 56.19-10.58 0-21.17 0.14-31.74-0.07-6.63-19.17-13.49-38.25-20.18-57.39-0.24-1.07-0.84-1.85-1.78-2.35-0.03 19.94 0.01 39.89-0.01 59.84-11.23 0-22.46 0-33.69-0.01 0.02-29.24-0.01-58.49 0.01-87.74zm-206.63 0c11.1 0 22.2-0.01 33.31 0.01 0.02 10.62-0.02 21.25 0.01 31.88 11.01-10.54 21.77-21.33 32.78-31.87 11.19-0.03 22.38-0.03 33.57 0-12.9 13.11-26.15 25.88-38.95 39.08 16.13 15.64 31.71 31.86 47.98 47.33 0.14-28.8 0.02-57.61 0.06-86.42 11.35-0.02 22.7-0.02 34.05 0 0 21.85-0.02 43.7 0 65.55 18.13-0.05 36.25 0.06 54.37-0.06 0.25 7.41 0.04 14.83 0.12 22.24-44.06 0-88.13 0.04-132.19-0.02-10.42-10.55-20.98-20.96-31.45-31.46-0.15 10.51 0.02 21.01-0.09 31.52-11.19-0.08-22.38 0.01-33.57-0.05z"/>
 </g>
</svg>
