<svg xmlns="http://www.w3.org/2000/svg" width="300px" height="87px">
<path
    fill="none"
    stroke="#FFCC00"
    stroke-width="9.1393"
    stroke-miterlimit="10"
    d="M56.81,56.88V5.34H5.57v51.55c0,3.85-0.14,6.56,3.71,10.85c4.57,5,21.98,13.42,21.98,13.42s17.41-8.43,21.83-13.42C57.09,63.45,56.81,60.73,56.81,56.88z"
  />
  <path
    fill="none"
    stroke="#FFFFFF"
    stroke-width="5.1487"
    stroke-miterlimit="10"
    d="M56.81,56.88V5.34H5.57v51.55c0,3.85-0.14,6.56,3.71,10.85c4.57,5,21.98,13.42,21.98,13.42s17.41-8.43,21.83-13.42C57.09,63.45,56.81,60.73,56.81,56.88z"
  />
  <path
    fill="#003265"
    d="M53.09,67.73c-4.43,5-21.83,13.42-21.83,13.42S13.85,72.73,9.28,67.73c-3.85-4.28-3.71-7-3.71-10.85V5.34h51.24v51.55C56.81,60.73,57.09,63.45,53.09,67.73z M71.51,36.89h4.14c-0.72-0.57-1.01-1.14-1.01-1.85c0-0.29,0-0.57,0.14-1.14l1.58-10.71l4.56,10.99c0.57,1.28,1.15,2.28,2.15,2.86l5.57-13.99l1.43,11.56c0,0.14,0,0.29,0,0.43c0,0.71-0.29,1.28-0.86,1.85h4.42c-0.71-0.86-1.14-1.57-1.28-2.71l-1.28-11.13c-0.14-0.43-0.14-0.57-0.14-0.86c0-0.71,0.29-1.14,0.71-1.71h-4l-4.7,12.14l-4.85-12.14h-4.28c0.57,0.57,0.86,0.86,0.86,1.43c0,0.43,0,0.72-0.14,1.15l-1.57,10.99C72.79,35.18,72.36,36.03,71.51,36.89z M98.19,34.89c-1.57-1.57-2.57-3.71-2.57-6.14c0-1.72,0.57-3.57,1.71-5c1.71-2.29,4.28-3.57,7.28-3.57c2.57,0,4.85,0.86,6.42,2.29c1.71,1.57,2.57,3.71,2.57,6.28c0,2.14-1,4.43-2.85,6.14c-1.71,1.57-3.71,2.29-6.14,2.29C102.05,37.18,99.76,36.32,98.19,34.89z M98.48,28.47c0,4.14,2.71,6.99,6.14,6.99c3.57,0,6.14-2.71,6.14-6.71s-2.57-6.86-5.99-6.86C101.19,21.89,98.48,24.61,98.48,28.47z M128.03,35.6c-1.58,1.14-3.14,1.72-4.85,1.72c-1.85,0-3.43-0.72-4.57-1.86c-0.86-1.14-1.14-2.57-1.14-4.43v-7.71c0-1.15,0-2-1-2.86h4.57c-0.86,0.86-1.01,1.71-1.01,2.86v7.28c0,1.72,0.14,3,0.72,3.71c0.71,0.86,1.71,1.14,3.14,1.14c1.14,0,2.28-0.29,2.99-1c0.72-0.57,1.01-1.57,1.01-3v-8.13c0-1.15,0-2-1.01-2.86h4.57c-0.86,0.71-1,1.57-1,2.86v10.56c0,1.28,0.14,2.14,1,2.99h-3.42V35.6z M149.57,23.33v13.85c-1.43,0-2.42-1.01-3.57-2.57l-8.42-10.56v9.85c0,1.28,0,2.14,0.86,2.99h-3.71c1-0.86,1-1.71,1-2.99V23.33c0-1.15,0-2-1-2.86h3.42l9.57,12.28v-9.42c0-1.15,0-2-1-2.86h3.71C149.57,21.32,149.57,22.18,149.57,23.33z M161.28,36.89h-4.57c0.86-0.86,1-1.71,1-2.99V22.32h-1.28c-1.71,0-2.85,0.15-3.57,0.86l0.72-2.72h11.7l-0.71,2.72c-0.57-0.57-1.28-0.86-2.42-0.86h-1.85v11.57C160.28,35.18,160.28,36.03,161.28,36.89z M174.27,33.47c1.85,1.28,3.56,2,5.42,2c2.28,0,3.71-1.14,3.71-2.71c0-0.43-0.14-0.86-0.43-1.29c-0.57-0.71-2-1.28-3.99-2.28c-2.72-1.43-4.14-2.57-4.14-4.71c0-2.57,2.14-4.28,5.99-4.28c1.14,0,2.42,0.14,3.85,0.43v2.72c-1.28-1.01-2.57-1.43-4.13-1.43c-1.86,0-3,0.86-3,2.15c0,1.43,1.29,2.14,3.57,3.29c1.14,0.43,2.28,1,3.42,1.85c1.01,0.71,1.58,1.85,1.58,3c0,2.71-2.72,5.14-6.85,5.14c-1.29,0-2.72-0.29-4.28-0.86L174.27,33.47z M196.24,36.89h-4.42c0.86-0.86,1-1.71,1-2.99V22.32h-1.43c-1.57,0-2.71,0.15-3.56,0.86l0.86-2.72h11.7l-0.86,2.72c-0.43-0.57-1.28-0.86-2.43-0.86h-1.85v11.57C195.24,35.18,195.39,36.03,196.24,36.89z M201.38,34.18c0.86,0,1.43,0.71,1.43,1.57c0,0.71-0.57,1.43-1.43,1.43c-0.86,0-1.57-0.72-1.57-1.43C199.81,34.89,200.52,34.18,201.38,34.18z M214.23,40.6c-0.86,0.86-2.28,1.43-4.14,1.72c2.57-1.86,2.86-3.29,2.86-5.72V23.33c0-1.15-0.14-2-1-2.86h4.42c-0.86,0.86-1,1.71-1,2.86V36.6C215.37,38.32,215.37,39.6,214.23,40.6z M221.93,34.89c-1.57-1.57-2.57-3.71-2.57-6.14c0-1.72,0.57-3.57,1.71-5c1.71-2.29,4.28-3.57,7.28-3.57c2.57,0,4.85,0.86,6.42,2.29c1.71,1.57,2.57,3.71,2.57,6.28c0,2.14-1,4.43-2.85,6.14c-1.71,1.57-3.71,2.29-6.14,2.29C225.79,37.18,223.5,36.32,221.93,34.89z M222.22,28.47c0,4.14,2.71,6.99,6.14,6.99c3.57,0,6.14-2.71,6.14-6.71s-2.57-6.86-5.99-6.86C224.92,21.89,222.22,24.61,222.22,28.47z M239.49,33.47c1.85,1.28,3.71,2,5.42,2c2.28,0,3.71-1.14,3.71-2.71c0-0.43-0.14-0.86-0.43-1.29c-0.57-0.71-2-1.28-3.99-2.28c-2.72-1.43-4.14-2.57-4.14-4.71c0-2.57,2.14-4.28,6.14-4.28c1,0,2.28,0.14,3.86,0.43v2.72c-1.29-1.01-2.72-1.43-4.14-1.43c-2,0-3.14,0.86-3.14,2.15c0,1.43,1.29,2.14,3.71,3.29c1,0.43,2.14,1,3.28,1.85c1.01,0.71,1.58,1.85,1.58,3c0,2.71-2.72,5.14-6.71,5.14c-1.29,0-2.72-0.29-4.43-0.86L239.49,33.47z M255.61,33.89V23.33c0-1.15,0-2-1-2.86h9v2.57c-0.86-0.57-1.72-0.86-3-0.86c-0.71,0-1.43,0.14-2.42,0.29v4.56h3.99v2.43c-0.43-0.57-1.28-0.57-2.57-0.57h-1.43v5.85c1.28,0.14,2.28,0.29,2.99,0.29c1.72,0,3.14-0.43,4.57-1.43l-1.14,3.28h-9.99C255.61,36.03,255.61,35.18,255.61,33.89z M273.03,36.89h-4.57c1.01-0.86,1.01-1.71,1.01-2.99V23.33c0-1.15,0-2-1.01-2.86h5.85c3.71,0,5.85,1.85,5.85,4.57c0,2.57-2,4.43-5.28,4.43c-0.57,0-1.14-0.14-1.85-0.29c3-0.57,4.43-1.85,4.43-3.86c0-1.85-1.28-3.14-3.57-3.14c-0.43,0-1.14,0.14-1.85,0.29v11.42C272.03,35.18,272.17,36.03,273.03,36.89z M287.58,36.89h-4.42c0.86-0.86,1-1.71,1-2.99V23.33c0-1.15-0.14-2-1-2.86h4.42c-0.86,0.86-0.86,1.71-0.86,2.86v3.71h8.71v-3.71c0-1.15,0-2-1.01-2.86H299c-0.86,0.86-1,1.71-1,2.86v10.56c0,1.28,0.14,2.14,1,2.99h-4.57c1.01-0.86,1.01-1.71,1.01-2.99v-5h-8.71v5C286.73,35.18,286.73,36.03,287.58,36.89z M80.49,58.74c-1.14,0.86-2.42,1.28-3.71,1.28c-1.28,0-2.43-0.57-3.29-1.43c-0.71-0.86-0.86-1.85-0.86-3.29V49.6c0-1-0.14-1.57-0.71-2.14h3.28c-0.57,0.57-0.71,1.14-0.71,2.14v5.28c0,1.43,0.14,2.29,0.57,2.86c0.44,0.57,1.29,0.86,2.29,0.86c1,0,1.71-0.29,2.28-0.71s0.71-1.14,0.71-2.29V49.6c0-1,0-1.57-0.71-2.14h3.43c-0.57,0.57-0.71,1.14-0.71,2.14v7.86c0,1,0,1.57,0.71,2.14h-2.57V58.74z M99.62,49.6v10.28c-1,0-1.71-0.71-2.71-1.85l-6.28-8v7.43c0,1,0.14,1.57,0.71,2.14h-2.71c0.57-0.57,0.71-1.14,0.71-2.14V49.6c0-1-0.14-1.57-0.71-2.14h2.42l7.28,9.14v-7c0-1-0.14-1.57-0.71-2.14h2.71C99.62,48.03,99.62,48.6,99.62,49.6z M109.33,59.59h-3.43c0.71-0.57,0.71-1.14,0.71-2.14V49.6c0-1,0-1.57-0.71-2.14h3.43c-0.71,0.57-0.71,1.14-0.71,2.14v7.86C108.61,58.45,108.61,59.02,109.33,59.59z M117.32,57.03l-2.57-7.14c-0.14-0.71-0.58-1.57-1.15-2.42h2.57c0,0.43,0,0.71,0.14,1l2.99,8.71l2.72-7.29c0.29-0.43,0.29-0.86,0.29-1.28c0-0.29-0.14-0.71-0.57-1.14h2.85l-5,12.42C118.46,59.59,117.89,58.74,117.32,57.03z M129.59,57.45V49.6c0-1,0-1.57-0.71-2.14h6.71v1.85c-0.57-0.43-1.28-0.57-2.15-0.57c-0.57,0-1.14,0-1.85,0.14v3.43h3v1.85c-0.43-0.43-1-0.43-1.86-0.43h-1.14v4.28c0.86,0.14,1.71,0.29,2.29,0.29c1.14,0,2.28-0.43,3.28-1l-0.86,2.28h-7.42C129.59,59.02,129.59,58.45,129.59,57.45z M145.29,59.59h-3.28c0.57-0.57,0.71-1.14,0.71-2.14V49.6c0-1-0.14-1.57-0.71-2.14h4.13c2.57,0,4.14,1.28,4.14,3.14c0,1.43-1.28,2.43-2.85,3l3.28,4.28c0.29,0.43,0.86,1,1.57,1.71h-1h-0.14c-0.86,0-1.71-0.43-2.42-1.28l-3.57-5c2.15-0.43,3.14-1.28,3.14-2.57c0-1.28-1-2.14-2.29-2.14c-0.43,0-0.86,0-1.43,0.14v8.71C144.58,58.45,144.72,59.02,145.29,59.59z M155.85,57.17c1.43,0.86,2.71,1.43,4,1.43c1.71,0,2.85-0.86,2.85-2c0-0.29-0.14-0.72-0.29-1.01c-0.43-0.57-1.57-1-3-1.71c-2.14-1-3.14-1.85-3.14-3.43c0-2,1.57-3.28,4.57-3.28c0.71,0,1.71,0.14,2.85,0.29v2.14c-1-0.86-2-1.14-3.14-1.14c-1.43,0-2.29,0.71-2.29,1.57c0,1.14,1,1.58,2.72,2.43c0.86,0.43,1.71,0.71,2.57,1.43c0.71,0.57,1.14,1.43,1.14,2.28c0,2-2,3.86-4.99,3.86c-1.01,0-2.15-0.29-3.29-0.71L155.85,57.17z M173.27,59.59h-3.29c0.57-0.57,0.71-1.14,0.71-2.14V49.6c0-1-0.14-1.57-0.71-2.14h3.29c-0.71,0.57-0.71,1.14-0.71,2.14v7.86C172.55,58.45,172.55,59.02,173.27,59.59z M184.39,59.59h-3.42c0.71-0.57,0.86-1.14,0.86-2.14v-8.71h-1c-1.28,0-2.15,0.14-2.72,0.71l0.57-2h8.71l-0.57,2c-0.29-0.57-1-0.71-1.86-0.71h-1.28v8.71C183.68,58.45,183.68,59.02,184.39,59.59z M197.38,59.59h-3.28c0.57-0.57,0.71-1.14,0.71-2.14v-3.29l-2.99-4.85c-0.44-0.71-1.01-1.28-1.72-1.85h2.72l3.14,5.28l2.14-3.43c0.29-0.43,0.44-0.86,0.44-1c0-0.29-0.14-0.57-0.58-0.86h2.86l-4.14,6.71v3.29C196.67,58.45,196.81,59.02,197.38,59.59z"
  />
  <path
    fill="#FFCC00"
    d="M42.67,50.03l-3.99-2.57c0-0.14,0.14-0.29,0.14-0.57l6.71-1.72l-6.71-1.71c0-0.14-0.14-0.43-0.14-0.57l3.99-2.57l-4.56,1.14c-0.14-0.14-0.29-0.43-0.29-0.57l3.42-5.99l-5.99,3.57c-0.14-0.14-0.29-0.14-0.43-0.29l1-4.71l-2.42,4.14c-0.29-0.14-0.43-0.14-0.57-0.14l-1.85-6.86l-1.72,6.86c-0.14,0-0.29,0-0.57,0.14l-2.42-4.14l1,4.71c-0.14,0.14-0.29,0.14-0.43,0.29l-5.99-3.57l3.43,5.99c0,0.14-0.14,0.43-0.29,0.57l-4.57-1.14l3.99,2.57c0,0.14-0.14,0.43-0.14,0.57l-6.71,1.71l6.71,1.72c0,0.29,0.14,0.43,0.14,0.57l-3.99,2.57l4.57-1.14c0.14,0.29,0.29,0.43,0.29,0.57l-3.43,5.99l5.99-3.56c0.14,0.14,0.29,0.29,0.43,0.29l-1,4.71l2.42-4c0.29,0,0.43,0,0.57,0.14l1.72,6.71l1.85-6.71c0.14-0.14,0.29-0.14,0.57-0.14l2.42,4l-1-4.71c0.14,0,0.29-0.14,0.43-0.29l5.99,3.56l-3.42-5.99c0-0.14,0.14-0.29,0.29-0.57L42.67,50.03z M36.11,48.17c0,0.14,0,0.43-0.14,0.57c-0.86-1.57-2.42-2.57-4.28-2.86c0.29,1.86,1.28,3.43,2.85,4.28c-0.14,0.14-0.29,0.14-0.57,0.14c-0.71,0-1.28-0.14-1.85-0.43c-0.29,0.71-0.71,1.28-1.14,1.86c-0.43-0.58-0.71-1.15-1.01-1.86c-0.57,0.29-1.28,0.43-2,0.43c-0.14,0-0.29,0-0.57-0.14c1.57-0.86,2.71-2.42,3-4.28c-1.86,0.29-3.57,1.29-4.43,2.86c0-0.14,0-0.43,0-0.57c0-0.71,0.14-1.28,0.29-1.86c-0.57-0.29-1.28-0.71-1.85-1.14c0.57-0.43,1.28-0.71,1.85-1c-0.14-0.57-0.29-1.28-0.29-2c0-0.14,0-0.29,0-0.58c0.86,1.58,2.57,2.72,4.43,3c-0.29-1.85-1.43-3.57-3-4.43c0.29,0,0.43,0,0.57,0c0.71,0,1.43,0.14,2,0.29c0.29-0.57,0.58-1.28,1.01-1.85c0.43,0.57,0.86,1.28,1.14,1.85c0.57-0.14,1.14-0.29,1.85-0.29c0.29,0,0.43,0,0.57,0c-1.57,0.86-2.57,2.57-2.85,4.43c1.85-0.29,3.42-1.43,4.28-3c0.14,0.29,0.14,0.44,0.14,0.58c0,0.71-0.14,1.43-0.43,2c0.71,0.29,1.29,0.57,1.86,1c-0.57,0.43-1.15,0.86-1.86,1.14C35.96,46.89,36.11,47.46,36.11,48.17z"
  />
  <path
    fill="#FFFFFF"
    stroke="#FFFFFF"
    stroke-width="0.1425"
    stroke-miterlimit="10"
    d="M25.12,27.9c-0.29,0-0.14-0.43,0-0.57c1.85-0.15,2-0.15,2-3.86l-0.14-8.71l-5.71,13c-0.14,0.14-0.43,0.29-0.57,0l-5.71-12.28l-0.14,8c-0.14,3.28-0.14,3.71,2.14,3.86c0.14,0,0.14,0.57,0,0.57c-0.86-0.14-1.43-0.14-2.57-0.14c-1.43,0-2,0-2.99,0.14c-0.14,0-0.14-0.43,0-0.57c2.14-0.15,2.28-0.44,2.28-3.86l0.29-8.57c0-1.71-0.86-2.57-2.71-2.72c-0.14,0-0.29-0.43,0-0.43c1.14,0.14,2.28,0.14,4.28,0.14l6.14,13l3.57-8.57c0.71-1.57,1.43-3.14,1.85-4.43c1.57,0.14,3.14,0,4.28-0.14c0.29,0,0.14,0.43,0.14,0.43c-2.57,0.29-2.57,0.43-2.57,3.86l0.14,7.43c0.14,3.56,0,3.71,2.72,3.86c0,0,0.14,0.57-0.14,0.57c-0.71-0.14-2.15-0.14-3.14-0.14C27.12,27.76,26.12,27.76,25.12,27.9z M37.83,28.18c2.99,0,4.99-2.29,4.99-5c0-4.71-7.14-4.57-7.14-8.57c0-1.43,1.43-2.43,2.86-2.43c1.85,0,2.99,0.86,3.28,2.72c0,0.14,0.57,0.14,0.57,0c0-1.71-0.14-2.57-0.43-2.72c-0.86-0.43-1.71-0.71-3.14-0.71c-2.86,0-4.85,2.29-4.85,4.57c0,4.43,7.42,4.43,7.42,8.57c0,1.85-1.71,2.86-3.28,2.86c-2.57,0-4-1.72-4.14-4.14c0-0.14-0.43-0.14-0.43,0c-0.14,1.71-0.29,3.14-0.14,3.28C34.68,27.61,36.11,28.18,37.83,28.18z M48.81,16.18c0-3.57,0-3.86,2.29-4c0.14,0,0.14-0.43,0-0.43c-0.86,0.14-2,0.14-3,0.14c-1.57,0-2.57,0-3.71-0.14c-0.29,0-0.14,0.43,0,0.43c2.14,0.29,2.28,0.29,2.28,4v7.29c0,5.28-0.71,7.28-4.14,8.85c-0.14,0,0,0.43,0.14,0.43c4.71-1.86,6.14-4.43,6.14-9.28V16.18z M35.39,68.59c0.14,0,0.29-0.14,0.29-0.29s0.14-1.28,0.14-1.71h-0.29c0,0.86-0.29,1-1.57,1h-1.85c1.43-0.86,2.85-2.29,2.85-3.57c0-1-0.86-1.85-2-1.85c-0.86,0-1.57,0.57-2.14,1.28c-0.14,0.14,0,0.29,0.14,0.14c0.43-0.43,0.86-0.71,1.57-0.71c0.71,0,1.28,0.57,1.28,1.57c0,1.43-1.14,2.57-3.42,3.86c-0.14,0,0,0.29,0,0.29c0.86,0,1.71,0,2.85,0C34.11,68.59,34.97,68.59,35.39,68.59z M37.54,65.59c0-1.85,1.43-3.42,3.42-3.42c1.85,0,3.14,1.43,3.14,3.14c0,1.86-1.43,3.43-3.43,3.43C38.97,68.73,37.54,67.31,37.54,65.59z M38.68,65.16c0,2.15,1.14,3.14,2.28,3.14c1.28,0,2.14-0.86,2.14-2.57c0-2.14-1.28-3.14-2.42-3.14C39.54,62.59,38.68,63.45,38.68,65.16z M23.69,70.58c-0.14,0,0,0.29,0,0.29c4.14-1.28,5.57-3.71,5.57-5.85c0-1.57-1-2.85-2.85-2.85c-1.71,0-2.86,1.28-2.86,2.71c0,1,0.72,2.15,2.15,2.15c0.43,0,1-0.29,1.43-0.71l-0.14-0.14c-0.14,0-0.43,0.14-0.71,0.14c-1,0-1.57-0.72-1.57-1.86c0-1.14,0.57-2,1.57-2c1,0,1.85,0.86,1.85,2.57C28.12,67.16,27.12,69.3,23.69,70.58z M22.41,68.59V68.3c-0.86,0-1.14-0.14-1.14-1.14v-3.14c0-0.43,0-1.28,0-1.71c0-0.14-0.14-0.29-0.14-0.14c-0.43,0.43-1.43,0.86-2.42,1.43c-0.14,0,0,0.14,0.14,0.14c1-0.29,1.28-0.14,1.28,0.29v3.14c0,1.14-0.29,1.14-1.14,1.14v0.29c0.43,0,1.28,0,1.85,0C21.27,68.59,22.12,68.59,22.41,68.59z"
  />
</svg>
