<svg xmlns="http://www.w3.org/2000/svg" viewBox="0 0 136 29" width="136" height="29" fill="#0000a0">
  <title>Nordea</title>
  <path
    d="M124.1 6.2c-5.5.4-9.9 4.9-10.3 10.4-.4 6.5 4.7 11.9 11.1 11.9 2.3 0 5.4-1.2 6.8-3.6v3.3h4.3V17.6c.2-7-5.4-11.9-11.9-11.4zm7.3 11.4c-.2 3.7-3.4 6.5-7.2 6-2.9-.4-5.2-2.7-5.6-5.6-.4-3.9 2.6-7.2 6.4-7.2 3.4 0 6.2 2.7 6.4 6.1v.7zM100.5 6.2c-5.9.2-10.9 4.7-10.9 11.3 0 6 4.9 11.1 11.2 11.1 4.4 0 8.7-2.6 10.4-6.9l-4.3-1.3c-.8 1.8-2.7 3.3-4.8 3.7-3 .6-5.8-1.3-6.9-3.3l16.7-4.6c-.5-4.4-4.3-10.2-11.4-10zm-6.2 10.6c0-2.3 1.4-5 4.4-6.1 3.4-1.3 6.4.4 7.7 2.8l-12.1 3.3zM63.8 10.7V6.1c-4.2 0-5.6 2.1-6.3 3.2V6.8h-4.8V28.1h4.9V17.6c0-4.8 2.8-6.7 6.2-6.9zM19.7 19.6L5.1 2.4h-5v25.7h5.2V10.9l14.8 17.3h4.5V2.4h-4.9zM86.7.1h-4.6v8.4c-1.1-1.4-4.5-2.6-7.4-2.3-5.5.4-9.9 4.9-10.3 10.4-.4 6.5 4.7 11.9 11.1 11.9 2.4 0 5.7-1.1 6.8-3.2v2.8h4.3V17.5v-.2-.2l.1-17zm-4.8 17.5c-.2 3.7-3.4 6.5-7.2 6-2.9-.4-5.2-2.7-5.6-5.6-.4-3.9 2.6-7.2 6.4-7.2 3.4 0 6.2 2.7 6.4 6.1v.7zM38.7 6.1c-6.2 0-11.2 5-11.2 11.2s5 11.2 11.2 11.2 11.2-5 11.2-11.2c-.1-6.2-5.1-11.2-11.2-11.2zm0 17.6c-3.5 0-6.4-2.9-6.4-6.4s2.9-6.4 6.4-6.4 6.4 2.9 6.4 6.4c0 3.6-2.9 6.4-6.4 6.4z"
  />
</svg>
