<svg
  width="7963"
  height="1494"
  viewBox="0 0 7963 1494"
  fill="none"
  xmlns="http://www.w3.org/2000/svg"
>
  <g clip-path="url(#clip0_703_75)">
    <path
      d="M2751.3 459.599C2825.38 499.302 2887.28 558.353 2930.39 630.449C2973.88 703.12 2996.35 786.411 2995.31 871.07C2996.35 956.012 2973.89 1039.59 2930.39 1112.59C2887.24 1185.23 2825.4 1244.99 2751.3 1285.67C2674.15 1327.36 2587.83 1349.19 2500.12 1349.19C2412.41 1349.19 2326.09 1327.36 2248.94 1285.67C2174.84 1244.99 2113 1185.23 2069.85 1112.59C2026.35 1039.59 2003.89 956.012 2004.93 871.07C2003.89 786.411 2026.36 703.12 2069.85 630.449C2112.96 558.353 2174.86 499.302 2248.94 459.599C2326.34 418.712 2412.57 397.338 2500.12 397.338C2587.67 397.338 2673.9 418.712 2751.3 459.599ZM2345.21 597.8C2272.5 640.113 2219.59 709.529 2198.1 790.794C2176.61 872.059 2188.29 958.524 2230.59 1031.19C2258.31 1078.94 2297.96 1118.69 2345.65 1146.58C2393.25 1174.62 2447.55 1189.3 2502.81 1189.07C2557.36 1189.3 2610.94 1174.61 2657.72 1146.58C2705.08 1118.87 2744.19 1079.03 2771 1031.19C2798.83 982.443 2813.2 927.185 2812.64 871.07C2813.22 815.237 2798.84 760.264 2771 711.849C2744 664.494 2704.91 625.139 2657.71 597.796C2610.52 570.454 2556.91 556.102 2502.36 556.205C2447.22 556.02 2393.02 570.368 2345.21 597.8V597.8Z"
      fill="#1F1F1F"
    />
    <path
      d="M4291.49 1291.92C4237.87 1325.71 4175.79 1343.7 4112.4 1343.8C4057.47 1345.93 4003.86 1326.69 3962.85 1290.13C3942.43 1269.4 3926.68 1244.55 3916.64 1217.25C3906.6 1189.94 3902.52 1160.81 3904.65 1131.81V460.929L4075.68 440.355V655.483H4278.06V781.161H4077.03V1100.05C4074.59 1124.75 4081.11 1149.51 4095.38 1169.82C4102.69 1176.9 4111.41 1182.36 4120.98 1185.83C4130.55 1189.29 4140.75 1190.7 4150.9 1189.95C4186.63 1188.63 4221.64 1179.47 4253.43 1163.11L4291.49 1291.92Z"
      fill="#1F1F1F"
    />
    <path
      d="M4689.97 658.615C4733.91 633.711 4783.62 620.756 4834.14 621.046V787.871C4802.6 783.87 4770.57 786.327 4740.01 795.093C4709.45 803.859 4681 818.749 4656.39 838.857C4634.68 858.284 4617.55 882.281 4606.25 909.119C4594.94 935.956 4589.74 964.965 4591.02 994.053V1335.75H4420.43V626.413H4592.81V760.588C4615.13 718.273 4648.76 682.973 4689.97 658.615V658.615Z"
      fill="#1F1F1F"
    />
    <path
      d="M5492.75 719.005C5553.88 795.819 5584.35 892.542 5578.26 990.487C5578.26 1013.3 5578.26 1030.29 5578.26 1041.92H5053.52C5062.91 1088.32 5087.87 1130.13 5124.26 1160.44C5162.28 1190.84 5209.91 1206.7 5258.58 1205.17C5294.24 1205.35 5329.57 1198.35 5362.46 1184.59C5395.22 1171.39 5424.82 1151.43 5449.32 1126L5542 1222.61C5505.96 1261.34 5461.97 1291.85 5413.05 1312.06C5359.28 1333.67 5301.77 1344.47 5243.81 1343.82C5177.33 1345.24 5111.56 1329.86 5052.63 1299.09C4998.53 1270.45 4954.01 1226.6 4924.58 1172.97C4893.89 1115.34 4878.47 1050.83 4879.8 985.567C4878.05 920.12 4893.48 855.356 4924.58 797.722C4954.01 743.784 4998.29 699.396 5052.18 669.808C5109.53 639.11 5173.83 623.706 5238.88 625.083C5285.49 621.415 5332.33 627.916 5376.16 644.134C5420 660.352 5459.78 685.9 5492.75 719.005V719.005ZM5420.66 926.977C5420.88 903.754 5416.39 880.728 5407.46 859.283C5398.53 837.839 5385.36 818.42 5368.73 802.194C5332.66 772.534 5287.39 756.317 5240.67 756.317C5193.96 756.317 5148.69 772.534 5112.62 802.194C5077.27 835.053 5054.87 879.483 5049.49 927.424L5420.66 926.977Z"
      fill="#1F1F1F"
    />
    <path
      d="M6413.28 626.411V1335.75H6240.9V1223.04C6216.44 1260.93 6182.48 1291.77 6142.4 1312.49C6099.39 1334.08 6051.74 1344.83 6003.61 1343.8C5940.91 1345.78 5878.9 1330.3 5824.51 1299.08C5773.57 1268.4 5732.42 1223.88 5705.87 1170.72C5676.87 1111.61 5662.44 1046.44 5663.78 980.634C5662.47 915.691 5676.91 851.395 5705.87 793.236C5732.65 740.807 5773.79 697.065 5824.51 667.111C5877.79 636.382 5938.52 620.907 6000.02 622.386C6048.23 621.48 6095.97 632.058 6139.27 653.246C6179.69 673.827 6213.97 704.679 6238.66 742.697V626.411H6413.28ZM6178.67 1147.01C6215.75 1110.18 6237.91 1060.96 6240.9 1008.81V958.719C6238.02 906.409 6215.85 857.018 6178.67 820.071C6160.3 802.66 6138.65 789.069 6114.97 780.085C6091.3 771.102 6066.08 766.907 6040.77 767.743C6013.79 766.77 5986.93 771.666 5962.04 782.092C5937.14 792.517 5914.81 808.223 5896.6 828.122C5858.12 870.861 5837.6 926.758 5839.29 984.212C5837.72 1041.51 5858.23 1097.23 5896.6 1139.86C5914.91 1159.6 5937.27 1175.18 5962.14 1185.52C5987.02 1195.86 6013.84 1200.73 6040.77 1199.79C6066.11 1200.56 6091.35 1196.3 6115.03 1187.24C6138.7 1178.18 6160.33 1164.5 6178.67 1147.01V1147.01Z"
      fill="#1F1F1F"
    />
    <path
      d="M6890.11 773.125C6863.95 772.219 6837.89 776.941 6813.71 786.973C6789.53 797.004 6767.8 812.11 6749.97 831.268C6713.18 872.83 6693.93 927.006 6696.24 982.439C6693.62 1038.59 6712.88 1093.57 6749.97 1135.85C6767.65 1155.19 6789.36 1170.43 6813.57 1180.48C6837.79 1190.52 6863.92 1195.14 6890.11 1193.99C6926.27 1196.59 6962.52 1190.37 6995.74 1175.88C7028.97 1161.39 7058.17 1139.06 7080.84 1110.8L7187.85 1200.25C7156.26 1246.28 7112.79 1282.91 7062.04 1306.25C7005.81 1331.64 6944.65 1344.32 6882.95 1343.37C6818.05 1344.65 6753.92 1329.25 6696.69 1298.65C6643.26 1269.56 6599.29 1225.8 6569.99 1172.52C6539.28 1114.9 6523.86 1050.38 6525.21 985.122C6523.55 919.258 6538.98 854.084 6569.99 795.935C6599.4 742.254 6643.51 698.043 6697.14 668.468C6754.8 637.735 6819.4 622.333 6884.74 623.743C6944.06 622.749 7002.93 634.175 7057.56 657.287C7106.34 678.411 7149 711.485 7181.58 753.446L7074.13 850.052C7050.79 824.774 7022.27 804.818 6990.52 791.543C6958.76 778.268 6924.52 771.986 6890.11 773.125V773.125Z"
      fill="#1F1F1F"
    />
    <path
      d="M7892.58 694.401C7916.94 721.522 7935.69 753.187 7947.75 787.574C7959.82 821.961 7964.95 858.392 7962.87 894.77V1336.65H7790.5V943.967C7791.58 922.589 7788.38 901.21 7781.08 881.086C7773.77 860.963 7762.51 842.501 7747.96 826.787C7732.89 811.829 7714.89 800.136 7695.1 792.441C7675.3 784.745 7654.12 781.212 7632.89 782.062C7607.67 781.757 7582.66 786.779 7559.52 796.799C7536.37 806.818 7515.6 821.61 7498.58 840.205C7464.17 880.82 7446.28 932.85 7448.43 986.009V1333.97H7276.05V353.596H7448.43V762.831C7496.78 669.802 7582.75 622.841 7704.08 621.052C7738.85 619.746 7773.52 625.582 7805.95 638.199C7838.37 650.815 7867.85 669.944 7892.58 694.401V694.401Z"
      fill="#1F1F1F"
    />
    <path
      d="M3586.76 626.41V1028.94C3586.76 1070.1 3570.39 1109.57 3541.26 1138.68C3512.12 1167.78 3472.6 1184.13 3431.4 1184.13C3390.19 1184.13 3350.68 1167.78 3321.54 1138.68C3292.4 1109.57 3276.04 1070.1 3276.04 1028.94V626.41H3105.45V1024.46C3105.45 1256.14 3268.42 1342.01 3431.4 1342.01C3594.37 1342.01 3757.79 1255.69 3757.79 1024.02V626.41H3586.76Z"
      fill="#1F1F1F"
    />
    <path
      d="M708.308 0.263672C459.37 0.263672 272.22 63.3261 163.421 171.561C108.805 226.532 66.1085 292.151 37.9925 364.328C9.87642 436.505 -3.05644 513.694 -9.13792e-05 591.083C-9.13792e-05 846.91 129.394 1120.63 310.277 1301.32C357.288 1348.73 520.262 1493.19 733.829 1493.19C947.396 1493.19 1114.4 1359.01 1216.48 1258.38C1413.93 1061.14 1592.57 721.68 1592.57 498.054C1593.49 404.231 1557.47 313.803 1492.28 246.252C1320.8 74.9546 951.873 0.263672 708.308 0.263672ZM1010.08 884.032C980.075 918.205 943.382 945.876 902.262 965.337C861.142 984.798 816.466 995.638 770.99 997.187C695.16 995.644 622.777 965.25 568.617 912.209C506.88 850.836 470.723 768.37 467.43 681.427C466.386 645.17 472.712 609.077 486.025 575.33C499.339 541.583 519.362 510.883 544.887 485.084C578.539 454.005 618.143 430.057 661.312 414.683C704.481 399.31 750.319 392.83 796.063 395.634C843.342 392.955 890.66 400.164 934.991 416.799C979.321 433.434 1019.69 459.129 1053.51 492.24C1073.19 511.955 1088.72 535.411 1099.18 561.222C1109.64 587.032 1114.81 614.675 1114.4 642.516C1111.95 733.413 1074.59 819.886 1010.08 884.032Z"
      fill="#5951FF"
    />
  </g>
  <defs>
    <clipPath id="clip0_703_75">
      <rect width="7962.87" height="1492.92" fill="white" transform="translate(0 0.263672)" />
    </clipPath>
  </defs>
</svg>
