<svg width="653" height="240" viewBox="0 0 653 240" fill="none" xmlns="http://www.w3.org/2000/svg">
  <path
    d="M648.5 171.8V156C640.8 160.2 632.3 161.9 625 161.9C610.1 161.9 599.8 154.4 599.1 137.3H652C652.7 132.7 652.9 127.9 652.9 124.1C652.9 105 641.7 90.5 621.7 90.3C597.3 90.1 582 107.9 582 135.3V135.7C582 161.6 598.7 176.9 623.5 176.9C631.8 176.8 641.2 175.3 648.5 171.8ZM621.1 104C631.8 104 637.1 111.5 637.1 123.1V124H600.2C602.6 111 609.9 104 621.1 104ZM540.3 139.5L542.1 140.2C554.2 144.6 557 147.2 557 152.7C557 159.1 552.2 162.6 542.1 162.6C534 162.6 524.5 160 514.9 155.4V172C523 175.1 532.9 176.8 541.4 176.8C562.7 176.8 573.6 166.7 573.6 152.4C573.6 139.9 567.7 132.2 550.1 125.9L548.3 125.2C534.9 120.4 532.3 117.7 532.3 112.9C532.3 107.6 536.7 103.7 546.3 103.7C553.8 103.7 561.4 106.3 569.6 110.1V94.6C562.6 92 555.1 90.2 546.8 90.2C528 90.2 516.2 100.5 516.2 115C516.2 126.6 522.1 132.9 540.3 139.5ZM477.1 118.7C482.4 110.6 490 106.2 499.3 106.2C502.4 106.2 505.9 106.6 508.5 107.5V92.6C505.9 91.7 502.6 91.1 499.3 91.1C489.6 91.1 482.4 95.3 475.8 103.8L475 92.1H460.7V175.2H476.9V118.7H477.1ZM430.9 175.3H445.2V119.3C445.2 99.6 435.3 90.1 414.7 90.1C404.8 90.1 394.5 93.2 386.8 97.3V113.3C396 107.8 405.9 104.5 413.8 104.5C424.8 104.5 429.2 109.3 429.2 118.1V124.7C406.6 125.6 393 129.3 386 136.3C381 141.1 378.5 147.9 378.5 154.7C378.5 169 389 177.1 403.3 177.1C412.5 177.1 421.7 173.4 429.8 165.7L430.9 175.3ZM406.7 163.4C399.7 163.4 394.9 159.7 394.9 153.5C394.9 143.8 403 138.4 429.1 137.5V152C423 158.8 415.7 163.4 406.7 163.4ZM313.7 124.4V81.6H335C349.5 81.6 357.8 88.4 357.8 102.7V102.9C357.8 117.4 349.5 124.2 335 124.2H313.7V124.4ZM296.6 175.3H313.7V139.7H333.7C359.4 139.7 374.5 126.1 374.5 103.1V102.9C374.5 80.1 359.1 66.5 333.7 66.5H296.6V175.3ZM140 149.2H81C72.4 149.2 67.4 154.5 67.4 162.1C67.4 168.9 72 173.7 78.6 173.7C86.3 173.7 90.7 168.4 91.1 160.8H108.2C107.3 179.4 95.7 189.3 78.4 189.3C62.2 189.3 50.1 178.3 50.1 161.9C50.1 144.8 62.8 132.9 81.9 132.9H140.3C160 132.9 175 118.4 175 98.9C175 79.2 161.6 65.3 142.5 65.3C123.6 65.3 108.3 79.1 108.3 104.6V121.3H91V104.6C91 70.8 112.7 48.9 142.8 48.9C171.5 48.9 192.4 69.5 192.4 98.7C192.6 127.9 170.2 149.2 140 149.2ZM120 240C187.1 240 240 186.9 240 120C240 53.1 187.1 0 120 0C52.9 0 0 53.3 0 120C0 186.9 52.9 240 120 240Z"
    fill="#169CEE"
  />
</svg>
