<svg xmlns="http://www.w3.org/2000/svg" viewBox="0 0 83.82 15.26">
  <defs>
    <style>
      .cls-1 {
        fill: #fa3a7a;
        fill-rule: evenodd;
      }
    </style>
  </defs>
  <g id="Layer_2" data-name="Layer 2">
    <g id="Layer_1-2" data-name="Layer 1">
      <g id="desktop">
        <g id="desktop_homepage_sticky_pink" data-name="desktop homepage sticky pink">
          <path
            id="PEPPER."
            class="cls-1"
            d="M12.46,5.58C12.46,1.86,10.58,0,5.84,0H0V15H5V10.88h.84c4.78,0,6.62-2,6.62-5.3Zm-5.16,0C7.3,7,7,7.18,5.84,7.18H5V3.88h.84c1.22,0,1.46.28,1.46,1.68Zm11.26,5.38V9.24h4.72V5.54H18.56V4.12h5.8L24.3,0H13.56V15h11l.08-4.06ZM38.28,5.58C38.28,1.86,36.4,0,31.66,0H25.82V15h5V10.88h.84c4.78,0,6.62-2,6.62-5.3Zm-5.16,0c0,1.44-.34,1.62-1.46,1.62h-.84V3.88h.84c1.22,0,1.46.28,1.46,1.68Zm18.72,0C51.84,1.86,50,0,45.22,0H39.38V15h5V10.88h.84c4.78,0,6.62-2,6.62-5.3Zm-5.16,0c0,1.44-.34,1.62-1.46,1.62h-.84V3.88h.84c1.22,0,1.46.28,1.46,1.68Zm11.26,5.38V9.24h4.72V5.54H57.94V4.12h5.8L63.68,0H52.94V15h11L64,10.94ZM77.7,5.06C77.7,1.54,75.46,0,71.18,0h-6V15h5V10.16h.9L72.9,15h5.8l-3-5.84a4.4,4.4,0,0,0,2-4.1Zm-5.22.18c0,1.28-.3,1.44-1.26,1.44h-1V3.86h1c1,0,1.26.24,1.26,1.38ZM83.82,13c0-1.44-.72-2.26-2.46-2.26s-2.5.82-2.5,2.26c0,1.62.76,2.24,2.5,2.24s2.46-.86,2.46-2.24Z"
          />
        </g>
      </g>
    </g>
  </g>
</svg>
