<svg width="112" height="42" viewBox="0 0 112 42" fill="none" xmlns="http://www.w3.org/2000/svg">
  <path
    d="M79.472 23.07C79.136 25.21 78.034 26.33 76.707 26.33C75.867 26.33 75.38 25.74 75.524 24.825L75.991 21.925C76.171 20.85 76.814 20.01 77.961 20.01C79.234 20.007 79.815 20.874 79.472 23.07ZM74.932 27.334C75.112 27.334 75.54 28.087 76.948 28.087C79.922 28.087 81.622 25.937 82.088 23.161C82.678 19.741 81.013 18.181 78.918 18.181C77.933 18.181 77.198 18.268 76.66 18.557L77.466 13.853H74.996L72.543 27.923H74.403C74.403 27.923 74.673 27.338 74.957 27.338H74.94L74.932 27.334ZM101.212 21.334C101.588 19.204 100.812 18.164 98.49 18.164C96.77 18.164 96.094 18.92 95.466 19.564L95.53 18.378H93.242L93.064 20.135L91.74 27.9H94.243L95.049 22.86C95.335 21.123 96.534 19.8 97.663 19.8C98.916 19.8 98.903 20.516 98.705 21.608L97.613 27.905H100.099L101.212 21.334ZM111.669 18.182H108.749L105.389 21.737H105.339L106.683 13.861H104.243L101.79 27.923H104.276L104.528 26.515L105.028 23.435C106.335 23.435 107.071 23.579 107.642 26.173L108.035 27.92H110.562L109.524 24.224C109.094 23.132 108.624 22.41 107.619 22.208L111.669 18.182ZM39.889 21.632C40.5942 21.4758 41.2444 21.1329 41.7716 20.6393C42.2988 20.1456 42.6837 19.5194 42.886 18.826C43.531 16.212 42.366 14.169 39.036 14.206H35.216L32.82 27.922H35.32L36.305 22.415C38.6 22.351 38.879 22.912 39.329 25.585L39.722 27.937H42.302L41.549 24.113C41.279 22.983 40.877 22.097 39.789 21.683L39.889 21.632ZM40.393 18.362C40.236 19.525 39.258 20.402 38.085 20.428H36.617L37.377 16.098H38.721C40.283 16.101 40.593 17.146 40.394 18.363L40.393 18.362ZM51.646 20.956C52.006 18.879 50.893 18.16 48.646 18.16C45.854 18.16 44.634 19.487 44.634 19.487L45.494 20.935C45.8491 20.5839 46.2722 20.3092 46.7374 20.1278C47.2026 19.9464 47.7 19.862 48.199 19.88C49.207 19.88 49.227 20.39 49.129 20.935L48.931 22.172C45.331 22.082 43.488 22.844 43.074 25.216C42.738 27.151 44.184 28.082 45.812 28.082C46.2408 28.1087 46.6705 28.0478 47.0749 27.9028C47.4792 27.7579 47.8498 27.532 48.164 27.239C48.2082 27.4256 48.3035 27.5962 48.4394 27.7315C48.5753 27.8668 48.7462 27.9616 48.933 28.005C49.503 28.103 50.086 28.029 50.613 27.793C50.6192 26.8722 50.7218 25.9545 50.919 25.055L51.646 20.956ZM48.686 23.48C48.286 26.31 47.91 26.59 46.549 26.59C45.619 26.59 45.272 25.952 45.429 25.112C45.647 23.976 46.509 23.479 48.689 23.479L48.686 23.48ZM91.134 20.957C91.494 18.88 90.381 18.161 88.134 18.161C85.342 18.161 84.122 19.488 84.122 19.488L84.982 20.936C85.3371 20.5849 85.7602 20.3102 86.2254 20.1288C86.6906 19.9474 87.188 19.863 87.687 19.881C88.695 19.881 88.715 20.391 88.617 20.936L88.419 22.173C84.819 22.083 82.976 22.845 82.562 25.217C82.226 27.152 83.672 28.083 85.3 28.083C86.167 28.136 87.017 27.831 87.652 27.24C87.6962 27.4266 87.7915 27.5972 87.9274 27.7325C88.0633 27.8678 88.2342 27.9626 88.421 28.006C88.991 28.104 89.574 28.03 90.101 27.794C90.1073 26.8732 90.2098 25.9555 90.407 25.056L91.134 20.957ZM88.177 23.48C87.777 26.31 87.401 26.59 86.04 26.59C85.11 26.59 84.763 25.952 84.92 25.112C85.138 23.976 86 23.479 88.18 23.479L88.177 23.48ZM56.637 28.083C59.611 28.083 61.311 25.933 61.777 23.157C62.367 19.737 60.702 18.177 58.607 18.177C57.622 18.177 56.927 18.264 56.357 18.553L57.163 13.849H54.687L52.234 27.919H54.094C54.094 27.919 54.364 27.334 54.632 27.334C54.812 27.331 55.244 28.084 56.638 28.084L56.637 28.083ZM57.676 20.02C58.949 20.02 59.486 20.88 59.188 23.08C58.89 25.28 57.75 26.34 56.406 26.34C55.566 26.34 55.082 25.75 55.243 24.835L55.71 21.935C55.888 20.86 56.533 20.02 57.662 20.02H57.679H57.676ZM62.82 23.934C63.203 20.352 64.816 18.138 68.656 18.138C71.506 18.138 72.45 20.312 72.056 22.651C71.444 26.391 69.99 28.151 66.344 28.151C63.972 28.138 62.571 26.209 62.816 23.924L62.82 23.934ZM69.466 22.824C69.646 21.834 69.842 19.911 68.139 19.911C66.993 19.911 65.925 20.687 65.451 23.409C65.159 25.072 65.478 26.406 66.795 26.406C67.775 26.396 68.959 25.593 69.473 22.811L69.466 22.824Z"
    fill="#2C3A92"
  />
  <path
    d="M27.9108 26.4993C28.5261 27.1029 29.0387 27.8031 29.4283 28.572C30.5971 30.9446 30.1685 33.5628 27.8406 35.8458C25.1719 38.462 20.633 40.073 15.3637 40.073C10.0944 40.073 5.55357 38.4639 2.88481 35.8458C0.558894 33.5628 0.130335 30.9446 1.29719 28.572C1.68964 27.8033 2.20409 27.1034 2.82052 26.4993C2.07639 27.2201 1.48809 27.8629 0.954337 28.9246C-0.185243 31.2037 0.175139 34.4627 2.58481 36.8257C5.31201 39.5081 9.59761 41.1249 15.4163 41.1249C21.235 41.1249 25.5303 39.4594 28.1504 36.8257C30.7217 34.2426 30.8191 30.8804 29.7672 28.8525C29.299 27.9602 28.6696 27.1624 27.9108 26.4993Z"
    fill="url(#paint0_linear_97_171)"
  />
  <path
    fill-rule="evenodd"
    clip-rule="evenodd"
    d="M9.04828 25.0773C10.8511 25.5386 12.6283 26.0952 14.3722 26.7448C14.7228 25.6928 15.0929 24.6526 15.5156 23.628C15.9403 24.6487 16.3104 25.6928 16.6611 26.7448C18.3947 26.1028 20.1615 25.554 21.9538 25.1007C20.7063 25.8905 19.5026 26.7476 18.348 27.6681C20.7597 27.9759 23.0232 28.3752 25.3939 28.8895C23.0252 28.8369 20.7967 28.9226 18.4337 29.0746C20.1012 30.4869 21.5311 31.8544 23.0797 33.3933C20.9564 32.1797 18.9617 31.1609 16.7487 30.1148C16.3202 31.9654 15.9111 33.8212 15.5215 35.6822L14.341 30.2044C12.1281 31.2485 10.1138 32.2459 7.91259 33.4089C9.41911 31.9198 10.9833 30.4902 12.6014 29.1233C10.2366 28.9713 7.96909 28.9382 5.54967 28.9051C7.92623 28.3928 10.2716 27.9895 12.6793 27.6837C11.5164 26.75 10.3043 25.8793 9.04828 25.0753V25.0773ZM15.5156 28.3149C15.5156 26.9513 15.5156 25.5877 15.5156 24.2241C15.1007 25.3617 14.7364 26.5149 14.3897 27.672C14.7663 27.8798 15.1416 28.0928 15.5156 28.311V28.3149ZM10.1119 25.5253C11.5729 26.1682 12.9949 26.8889 14.3975 27.6681C14.0507 27.7032 13.7046 27.7402 13.3592 27.7792C12.3034 26.9883 11.2261 26.2285 10.1119 25.5253ZM15.5176 28.311C18.3331 28.311 21.1434 28.4538 23.9485 28.7395C21.4902 28.2954 19.098 27.9603 16.6357 27.6681C16.2591 27.8785 15.8864 28.0928 15.5176 28.311ZM20.9174 25.5253C19.4564 26.1682 18.0286 26.8889 16.6318 27.6681C16.576 27.4772 16.5189 27.2863 16.4604 27.0954C17.9253 26.511 19.4097 25.9811 20.9174 25.5253ZM15.3656 28.3149L15.5156 34.2952L16.6727 29.0025C16.289 28.7687 15.7533 28.5389 15.3676 28.3129L15.3656 28.3149ZM21.72 32.3862C20.0779 31.1979 18.3967 30.0681 16.6747 29.0025C17.0279 28.9739 17.3812 28.9479 17.7344 28.9246C19.1019 30.031 20.4285 31.1882 21.722 32.3842L21.72 32.3862ZM15.5156 28.3149C12.6813 28.3538 10.4703 28.4824 7.70415 28.72C10.0905 28.72 11.943 28.8174 14.3663 29.0083C14.7455 28.772 15.1273 28.5395 15.5117 28.311L15.5156 28.3149ZM9.3132 32.3862C10.9573 31.2018 12.6404 30.068 14.3663 29.0064L14.5183 29.6687C12.7521 30.5154 11.0171 31.4206 9.3132 32.3842V32.3862Z"
    fill="white"
  />
  <path
    fill-rule="evenodd"
    clip-rule="evenodd"
    d="M15.5176 23.6942C15.9422 24.7149 16.3124 25.7591 16.663 26.811C18.3377 26.192 20.0432 25.6595 21.7726 25.2156L21.9557 25.0987C20.1634 25.552 18.3967 26.1009 16.663 26.7428C16.3124 25.6948 15.9422 24.6526 15.5176 23.626C15.0929 24.6487 14.7228 25.6909 14.3741 26.7428C12.6302 26.0932 10.8531 25.5366 9.05022 25.0753L9.23138 25.1922C10.9721 25.6447 12.6885 26.1856 14.3741 26.8129C14.7247 25.761 15.0949 24.7169 15.5176 23.6961V23.6942Z"
    fill="#C62731"
  />
  <path
    fill-rule="evenodd"
    clip-rule="evenodd"
    d="M12.5995 29.1233C10.9573 30.5161 9.44372 31.8933 7.92428 33.4089L8.16778 33.2725C9.66774 31.792 10.9963 30.5921 12.6092 29.2304V29.1272L12.5995 29.1233Z"
    fill="#C84D33"
  />
  <path
    fill-rule="evenodd"
    clip-rule="evenodd"
    d="M15.4591 28.346L15.4007 28.3811C15.0553 28.5863 14.7111 28.7941 14.3683 29.0044L14.3839 29.0726L15.5137 28.3908V28.3071L15.4591 28.346Z"
    fill="#C11A24"
  />
  <path
    fill-rule="evenodd"
    clip-rule="evenodd"
    d="M14.3916 27.6681L14.2864 27.6798L13.3514 27.7772C12.2995 26.9824 11.2281 26.2188 10.1119 25.5175V25.5993C11.2261 26.3006 12.3014 27.0603 13.3514 27.859C13.6969 27.8201 14.0429 27.783 14.3897 27.748L15.3793 28.3051H15.5156L14.3916 27.6681ZM9.3171 32.4797C11.0222 31.5187 12.7573 30.6096 14.5222 29.7525V29.6551C12.756 30.5031 11.0209 31.4122 9.3171 32.3823V32.4797Z"
    fill="#C84D33"
  />
  <path
    fill-rule="evenodd"
    clip-rule="evenodd"
    d="M16.6766 29.0005L15.5215 34.2913V34.3595L16.6747 29.0804C17.8435 29.8051 19.5616 30.9232 21.7259 32.4855V32.3823C20.0837 31.1979 18.4026 30.0642 16.6805 29.0005H16.6766ZM18.5078 29.1369L18.4298 29.0726V29.1837C20.0389 30.5473 21.3226 31.7667 22.8226 33.2472L23.0758 33.3913C21.4979 31.829 20.0915 30.4888 18.5058 29.1369H18.5078Z"
    fill="#A41E25"
  />
  <path
    fill-rule="evenodd"
    clip-rule="evenodd"
    d="M12.6092 27.6934C10.2249 27.9993 7.90285 28.3947 5.55162 28.9051H5.92174C8.18142 28.4259 10.3905 28.0519 12.6813 27.7597V27.6779L12.6092 27.6934ZM14.3722 29.0064C12.1514 28.8116 9.94241 28.7045 7.7139 28.722V28.7902C9.91124 28.7707 12.0911 28.8798 14.2787 29.0668L14.3683 29.0044"
    fill="#C84D33"
  />
  <path
    fill-rule="evenodd"
    clip-rule="evenodd"
    d="M18.3461 27.6681C20.7577 27.9759 23.0213 28.3752 25.392 28.8895H25.0024C22.7427 28.4103 20.6467 28.0519 18.3539 27.7597V27.6681H18.3461Z"
    fill="#A41E25"
  />
  <path
    fill-rule="evenodd"
    clip-rule="evenodd"
    d="M15.5176 28.311C18.3331 28.311 21.1434 28.4538 23.9485 28.7395V28.8174C21.1863 28.5408 18.4188 28.398 15.6462 28.3889L15.576 28.3499L15.5176 28.3149H15.6384M16.6357 27.6681L16.737 27.6798C18.1006 26.9259 19.4896 26.2227 20.9174 25.5954V25.5253C19.4564 26.1682 18.0344 26.8889 16.6318 27.6681"
    fill="#A41E25"
  />
  <path
    fill-rule="evenodd"
    clip-rule="evenodd"
    d="M16.6357 27.6681C16.5799 27.4772 16.5227 27.2863 16.4643 27.0954V27.1636L16.6124 27.6701L16.6318 27.6603"
    fill="#C11A24"
  />
  <path
    fill-rule="evenodd"
    clip-rule="evenodd"
    d="M15.7981 39.5373L15.5195 39.7321L15.2371 39.5373V37.2386C15.3189 37.1802 15.4319 37.1257 15.5215 37.0692C15.6033 37.1276 15.7163 37.1821 15.7942 37.2386C15.7942 37.9997 15.7948 38.7659 15.7961 39.5373H15.7981ZM2.1582 33.9796L2.02184 34.2387L2.33936 34.3517L4.72956 33.0855C4.75107 32.9904 4.7784 32.8967 4.81138 32.805L4.56788 32.7407C3.7679 33.1433 2.96532 33.5576 2.16015 33.9835L2.1582 33.9796ZM1.56796 29.2655L1.34783 29.4408L1.47056 29.6083C2.22119 29.5005 2.97182 29.4096 3.72245 29.3356L3.94257 29.1213L3.81011 28.985C3.06207 29.0629 2.31534 29.1551 1.56991 29.2616L1.56796 29.2655ZM4.451 25.461L4.22308 25.5584C4.22308 25.6032 4.23867 25.687 4.24256 25.7338C4.79579 25.8117 5.34773 25.9045 5.89836 26.0123L6.13212 25.876L6.1029 25.7318C5.55227 25.6279 5.00033 25.537 4.4471 25.4591L4.451 25.461ZM21.346 23.1195H21.5564L21.6401 23.2033C21.3505 23.3851 21.0661 23.5754 20.7869 23.7741H20.5668L20.485 23.6825C20.7668 23.4825 21.0538 23.2942 21.346 23.1176V23.1195ZM15.3208 22.3209L15.4767 22.2722L15.6384 22.3209C15.6384 22.5468 15.6384 22.7721 15.6384 22.9968L15.4708 23.0553L15.3072 22.9968C15.3124 22.7721 15.3163 22.5468 15.3189 22.3209H15.3208ZM9.2723 23.2169C9.29957 23.1897 9.35996 23.139 9.38918 23.1137H9.60346C9.89566 23.2955 10.1827 23.4838 10.4645 23.6786L10.3827 23.7682C10.3106 23.7682 10.2034 23.7877 10.1294 23.7877C9.84761 23.5903 9.5619 23.4 9.2723 23.2169ZM7.51131 38.1308C7.39832 38.1581 7.25222 38.1581 7.14119 38.1854C7.11586 38.1074 7.05937 38.0237 7.03599 37.9438C7.59702 37.2737 8.16518 36.6088 8.74049 35.9491L9.11061 35.877L9.21775 36.1302C8.64245 36.7925 8.07492 37.4601 7.5152 38.1328L7.51131 38.1308ZM28.69 33.9796L28.8263 34.2387L28.5088 34.3517L26.1225 33.0816C26.101 32.9865 26.0737 32.8928 26.0407 32.8011L26.2842 32.7368C27.0894 33.1394 27.8919 33.5537 28.6919 33.9796H28.69ZM29.2744 29.2655L29.4945 29.4408L29.3737 29.6083C28.6231 29.5005 27.8725 29.4096 27.1218 29.3356L26.9017 29.1213L27.0342 28.985C27.7848 29.0629 28.5315 29.1551 29.2744 29.2616V29.2655ZM26.3991 25.461L26.627 25.5584C26.627 25.6032 26.6114 25.687 26.6075 25.7338C26.0543 25.8117 25.5024 25.9045 24.9517 26.0123L24.718 25.876L24.7472 25.7318C25.2991 25.6279 25.8511 25.537 26.403 25.4591L26.3991 25.461ZM23.3408 38.1328L23.7109 38.1873L23.8161 37.9458C23.255 37.2757 22.6869 36.6107 22.1116 35.951L21.7414 35.8789L21.6343 36.1322C22.2096 36.7945 22.7771 37.462 23.3369 38.1347L23.3408 38.1328Z"
    fill="white"
  />
  <path
    fill-rule="evenodd"
    clip-rule="evenodd"
    d="M2.15041 34.116L2.07249 34.2582L2.02184 34.2387L2.1582 33.9796C2.95818 33.5537 3.76141 33.1407 4.56788 32.7407L4.81138 32.805L4.76658 32.9414C4.70229 32.9219 4.61074 32.9082 4.5484 32.8927L2.15236 34.116H2.15041ZM1.59328 29.3707L1.39848 29.5148L1.34589 29.4427L1.56601 29.2674C2.31404 29.1583 3.06207 29.0655 3.81011 28.9889L3.94257 29.1252L3.89777 29.17L3.81985 29.096C3.07582 29.1735 2.33347 29.2664 1.59328 29.3746V29.3707ZM4.23672 25.6753L4.22113 25.5584L4.44905 25.461C5.00098 25.5364 5.55292 25.6273 6.10485 25.7338L6.13407 25.8779C6.12238 25.8779 5.00423 25.6578 4.45489 25.5857L4.23672 25.6753Z"
    fill="#C96134"
  />
  <path
    fill-rule="evenodd"
    clip-rule="evenodd"
    d="M21.5564 23.2384L21.5681 23.2501L21.6401 23.2033L21.5564 23.1195H21.346C21.0538 23.3014 20.7668 23.4897 20.485 23.6845L20.5493 23.7565C20.809 23.5747 21.0752 23.3994 21.3479 23.2306H21.5583L21.5564 23.2384Z"
    fill="#A41E25"
  />
  <path
    fill-rule="evenodd"
    clip-rule="evenodd"
    d="M15.3208 22.4377L15.4767 22.389L15.6384 22.4377V22.3209L15.4767 22.2722L15.3208 22.3209V22.4377Z"
    fill="#B41A23"
  />
  <path
    fill-rule="evenodd"
    clip-rule="evenodd"
    d="M9.59956 23.213L10.3885 23.7507L10.4547 23.6786C10.1729 23.4838 9.88592 23.2955 9.59372 23.1137H9.37944C9.35217 23.141 9.28983 23.1916 9.26256 23.2169L9.33269 23.2617L9.38528 23.215L9.59956 23.213Z"
    fill="#C84D33"
  />
  <path
    fill-rule="evenodd"
    clip-rule="evenodd"
    d="M9.08334 35.9763C9.11451 36.0153 9.14958 36.1127 9.18074 36.1711L9.20996 36.138C9.20022 36.1088 9.13204 35.9569 9.10282 35.8848L8.7327 35.9569C8.15739 36.6166 7.58922 37.2815 7.0282 37.9516C7.0282 37.9808 7.06132 38.0178 7.07106 38.049L8.77556 36.0426C8.86516 36.0153 8.98594 35.9997 9.07944 35.9783L9.08334 35.9763ZM28.69 34.116L28.7679 34.2582L28.8185 34.2387L28.6919 33.9796C27.8919 33.5537 27.0887 33.1407 26.2822 32.7407L26.0387 32.805L26.0835 32.9414C26.1478 32.9219 26.2394 32.9082 26.3017 32.8927L28.69 34.116ZM29.2549 29.3707L29.4497 29.5148L29.5023 29.4427L29.2724 29.2674C28.5244 29.1583 27.7764 29.0655 27.0283 28.9889L26.8959 29.1252L26.9407 29.17L27.0186 29.096C27.7659 29.1729 28.5115 29.2658 29.2549 29.3746V29.3707ZM26.6134 25.6753L26.629 25.5584L26.4011 25.461C25.8478 25.5364 25.2959 25.6273 24.7453 25.7338L24.716 25.8779C24.7297 25.8779 25.8459 25.6578 26.3952 25.5857L26.6134 25.6753ZM21.7629 35.9763C21.7317 36.0153 21.6966 36.1127 21.6655 36.1711L21.6363 36.138C21.646 36.1088 21.7142 35.9569 21.7434 35.8848L22.1135 35.9569C22.6888 36.6166 23.257 37.2815 23.818 37.9516L23.7791 38.0451L22.0707 36.0387C21.981 36.0133 21.8603 35.9997 21.7668 35.9763H21.7629ZM15.7436 37.3205L15.7981 39.5353V37.2367C15.7163 37.1782 15.6033 37.1237 15.5254 37.0672C15.4436 37.1257 15.3306 37.1802 15.241 37.2367V39.5353L15.2936 37.3205C15.3598 37.2757 15.4591 37.2308 15.5273 37.1841C15.5858 37.2289 15.6832 37.2737 15.7475 37.3205H15.7436Z"
    fill="#A41E25"
  />
  <path
    fill-rule="evenodd"
    clip-rule="evenodd"
    d="M4.39061 29.022C5.38993 24.5572 11.5826 23.2306 15.465 23.2306C19.3474 23.2306 25.54 24.5513 26.5472 29.0317C27.7939 34.5894 19.4954 36.6581 15.4728 36.6581C11.4502 36.6581 3.14584 34.5796 4.38866 29.022H4.39061ZM4.79579 28.9908C5.73668 24.6779 11.7268 23.4001 15.465 23.4001C19.2032 23.4001 25.1933 24.6799 26.1342 28.9908C27.303 34.3283 19.3357 36.3017 15.465 36.3017C11.5943 36.3017 3.63089 34.3283 4.79579 28.9889V28.9908Z"
    fill="#C84D33"
  />
  <path
    fill-rule="evenodd"
    clip-rule="evenodd"
    d="M4.42567 29.1583C5.425 24.6935 11.3606 23.3436 15.5001 23.3436C19.6396 23.3436 25.5751 24.6935 26.5744 29.1583C27.8212 34.716 19.5227 36.7848 15.5001 36.7848C11.4774 36.7848 3.1809 34.716 4.42567 29.1583ZM4.83086 29.1252C5.77174 24.8123 11.7618 23.5345 15.5001 23.5345C19.2383 23.5345 25.2284 24.8143 26.1692 29.1252C27.338 34.4627 19.3707 36.4361 15.5001 36.4361C11.6294 36.4361 3.6679 34.4627 4.83086 29.1272V29.1252Z"
    fill="white"
  />
  <path
    d="M20.7616 16.7788L20.3915 16.4282C20.3642 16.3113 20.4947 16.1554 20.5278 15.9606C20.4889 15.947 20.4499 15.9295 20.4149 15.9139C20.3252 15.5749 20.2532 14.9652 20.4149 14.6399C20.52 14.4752 20.5621 14.278 20.5337 14.0847C20.2317 13.0484 19.6337 12.1367 19.209 11.1627C19.1234 10.9284 19.085 10.6795 19.0961 10.4303C18.7688 10.0699 18.3909 9.129 18.2078 8.54655C17.8182 9.50886 17.5747 10.6153 17.5747 10.8705C17.5747 11.9536 18.6733 12.4796 18.2915 14.2795C18.2175 14.6263 18.0967 15.1074 17.9565 15.6042C18.1844 16.8587 18.1844 17.7703 18.5214 19.2235C19.0332 19.7238 19.4029 20.351 19.5928 21.041C19.7214 21.5085 20.1188 22.6092 20.6213 22.7747C20.933 22.876 19.5597 23.1293 19.1701 22.6384C18.7805 22.1475 18.1493 21.7949 17.8415 21.2943C17.5961 20.9047 17.2182 20.0475 16.9786 19.6463L16.6864 21.1891C17.0857 22.8371 16.8481 23.1994 16.4916 24.5396C16.3357 25.124 15.1728 22.4163 15.1708 22.202C15.1848 21.7552 15.1255 21.309 14.9955 20.8813C14.7501 20.406 14.7773 19.732 14.8105 19.2157C14.8689 18.3586 14.8592 16.7379 14.8962 16.3132C14.604 15.5925 13.8482 14.2834 13.7722 13.5471C13.6553 12.4016 13.8501 11.2426 13.6884 10.0991C13.4936 10.6718 13.2832 11.3965 12.8391 11.8328C12.1792 12.5019 11.5537 13.2041 10.9651 13.9367C10.7508 14.2328 10.9398 14.3769 10.6047 14.8522C10.2697 15.3275 10.4489 15.1055 10.3827 15.5535C10.3736 15.6142 10.3472 15.671 10.3067 15.7171C10.1314 15.8652 9.94241 15.9899 9.68917 15.8866C9.20217 15.6412 9.16321 15.2769 9.13009 14.8074C9.06581 13.9113 9.72618 13.8724 10.1041 13.3308C10.8385 12.2692 11.2106 10.4868 11.9975 9.68808C12.0462 9.53224 12.2313 8.95758 12.5819 8.1063C12.5917 7.04854 12.8547 6.1096 13.9455 5.6752C14.3936 5.49988 14.9741 5.45313 14.9975 4.83756C15.0027 4.72484 14.9827 4.61238 14.939 4.50835C14.7598 4.36419 14.6332 4.3603 14.5494 4.25511C14.3741 4.02914 14.228 2.57593 14.2475 2.48243C14.5007 1.24934 15.0929 0.838314 15.839 0.875326C16.7214 0.92013 17.4227 1.34285 17.3838 2.53113C17.3526 3.48565 16.3669 4.71289 17.8435 5.17651C18.4084 5.35183 18.5136 5.23105 18.9987 5.71805C19.5441 6.26349 19.6746 7.2336 19.7642 8.13357L20.3175 9.41925C21.3304 11.1276 20.9661 11.6692 21.3382 13.4088C21.5126 14.0052 21.6127 14.6209 21.6363 15.2418C21.6518 15.7171 21.2798 16.7613 20.7674 16.7807L20.7616 16.7788Z"
    fill="#F9B05F"
  />
  <path
    d="M10.184 15.4931C10.2288 15.0373 10.1645 15.0762 10.4567 14.6555C10.7255 14.2659 10.5969 14.0711 10.8346 13.7282C11.396 12.9835 11.9955 12.2683 12.6306 11.5854C13.0709 11.1374 13.6689 9.63743 13.7994 9.10563C13.8267 9.02771 13.8696 8.98875 13.8871 9.05693C13.9787 10.064 14.1209 10.9075 14.0819 11.8952C14.0079 13.9756 14.0624 13.7574 14.9293 15.6996C15.0014 14.9204 15.1903 13.7847 15.6462 13.401C15.1143 15.4269 15.0812 18.3099 15.0267 19.1982C14.9975 19.6502 14.8747 20.367 15.091 20.7761C15.1541 21.1152 15.1828 21.4598 15.1767 21.8046L15.1903 25.3558L14.8786 26.9142C14.6651 27.4995 14.2734 28.003 13.7585 28.3538C13.6222 28.4317 13.3027 28.5993 13.3027 28.7434C13.3027 28.9889 14.8884 29.4486 15.2507 28.8895C15.4805 28.534 15.7563 28.2105 16.0708 27.9272C16.5695 27.448 16.0163 26.9532 16.0825 26.3104C16.1994 25.1805 16.6825 24.2026 16.8422 23.1351C16.9603 22.4821 16.8866 21.8088 16.6299 21.1969L16.8403 19.1612C17.0917 19.6023 17.3174 20.0576 17.5162 20.5248C17.9058 21.3488 17.9175 21.4306 18.6032 22.1066C18.8459 22.3415 19.0615 22.6029 19.2461 22.8858C19.5675 23.3981 19.7915 23.9046 19.7623 24.5163C19.5246 24.9448 19.4233 24.9195 19.1194 25.1786C19.11 25.2092 19.1083 25.2417 19.1144 25.2731C19.1205 25.3046 19.1343 25.3341 19.1545 25.3589C19.1748 25.3838 19.2008 25.4032 19.2304 25.4156C19.2599 25.428 19.2921 25.4329 19.324 25.4299C20.3564 25.4299 20.2278 24.8922 20.6174 24.1929C20.8707 23.741 21.5914 23.0553 20.7986 22.8176C20.5386 22.7465 20.3147 22.5804 20.1714 22.352C19.622 21.4326 19.6006 21.4559 19.3142 20.6105C19.1272 20.1087 18.8008 19.6708 18.3734 19.3482C18.1441 18.8409 17.9968 18.3004 17.937 17.747L17.6097 15.4678C18.013 13.8704 18.2195 13.5334 17.5318 12.0004C17.3692 11.6404 17.2855 11.2499 17.2864 10.8549C17.3504 10.0804 17.5372 9.32093 17.8396 8.60499C17.9027 8.37706 18.0523 8.18276 18.2565 8.06345C18.424 8.68291 18.9967 9.95301 19.3279 10.2686C19.325 10.5189 19.3618 10.7681 19.437 11.0069C19.8558 12.0101 20.4577 12.9237 20.7577 13.9815C20.8609 14.3457 20.7246 14.5211 20.6213 14.8133C20.5832 15.0964 20.5911 15.3839 20.6447 15.6645L20.7889 15.7425C20.7506 15.9007 20.7038 16.0568 20.6486 16.21C20.6627 16.2595 20.6874 16.3054 20.7211 16.3445C20.7547 16.3835 20.7965 16.4147 20.8434 16.4359C21.0733 16.3853 21.4025 15.5535 21.3889 15.2204C21.3647 14.6171 21.2606 14.0197 21.0791 13.4438C20.7402 11.7159 20.935 11.2426 19.9688 9.5712L19.4194 8.2076C19.3415 7.53164 19.0688 5.94402 18.1727 5.65572C18.0227 5.60702 17.8727 5.59728 17.6467 5.5252C16.4779 5.14729 16.4779 4.25121 16.8013 3.27331C17.0838 2.40256 17.1208 1.37596 15.841 1.26687C15.0481 1.20064 14.8085 1.824 14.639 2.54281C14.639 2.62073 14.6838 3.78953 14.8572 4.04277C15.1962 4.29601 15.3871 4.21809 15.3637 4.85119C15.3442 5.38105 15.0092 5.69468 14.5514 5.85441C13.8053 6.11739 13.4254 6.26934 13.1741 7.0388C13.0673 7.39696 13.0174 7.76966 13.0261 8.14331V8.18812C12.7827 8.7438 12.5675 9.31138 12.3813 9.88872C11.4657 10.8082 11.0177 12.9003 10.0788 13.7847C9.46125 14.3691 9.27619 14.4081 9.49437 15.3139C9.59867 15.459 9.73118 15.5816 9.88397 15.6743C10.0043 15.6541 10.1124 15.5886 10.1859 15.4912L10.184 15.4931Z"
    fill="url(#paint1_linear_97_171)"
  />
  <defs>
    <linearGradient
      id="paint0_linear_97_171"
      x1="0.332925"
      y1="33.8199"
      x2="30.3945"
      y2="33.8199"
      gradientUnits="userSpaceOnUse"
    >
      <stop stop-color="#C96134" />
      <stop offset="1" stop-color="#723338" />
    </linearGradient>
    <linearGradient
      id="paint1_linear_97_171"
      x1="10.5326"
      y1="10.7303"
      x2="21.2895"
      y2="21.4891"
      gradientUnits="userSpaceOnUse"
    >
      <stop stop-color="#2C3A92" />
      <stop offset="1" stop-color="#232D7B" />
    </linearGradient>
  </defs>
</svg>
