<svg viewBox="0 0 367 78" fill="none" xmlns="http://www.w3.org/2000/svg">
  <path
    fill-rule="evenodd"
    clip-rule="evenodd"
    d="M27.4774 7.4399C25.1048 8.63906 20.1043 10.9723 17.3959 12.8344C14.6875 14.6965 15.0233 16.4319 13.8378 17.631C12.6523 18.8302 9.09256 21.8264 6.72165 23.6234C4.34903 25.4221 4.94176 30.2188 4.34903 32.0175C3.7563 33.8145 2.57085 38.0099 1.97812 39.8086C1.38368 41.6074 3.16357 44.0057 4.34903 46.404C5.5362 48.8006 8.49983 55.3943 9.687 57.7909C10.8725 60.1892 14.4322 58.99 17.3959 61.3883C20.3595 63.7867 24.512 66.7846 27.4774 68.5816C30.441 70.3803 31.6282 70.3803 34.5935 68.5816C37.5572 66.7828 41.7097 63.7849 44.675 61.3866C47.6387 58.99 51.1985 60.1892 52.3839 57.7909C53.5694 55.3925 56.5347 48.8006 57.7219 46.4023C58.9073 44.004 60.6855 41.6056 60.0928 39.8086C59.5001 38.0099 58.3146 33.8128 57.7219 32.0158C57.1291 30.2171 57.7219 25.4221 55.3493 23.6234C52.9766 21.8247 50.2237 19.536 48.2331 17.6293C46.2425 15.7227 47.0477 14.6314 44.675 12.8327C42.3024 11.0357 36.9662 8.63906 34.5935 7.4399C32.2209 6.24074 29.8483 6.24074 27.4774 7.4399Z"
    fill="white"
  />
  <path
    fill-rule="evenodd"
    clip-rule="evenodd"
    d="M19.1025 17.8401L30.2016 25.4548C30.4511 25.6225 30.7438 25.7147 31.0444 25.7203C31.3455 25.7176 31.6389 25.6251 31.8872 25.4548L42.9949 17.8144C43.208 17.6608 43.3779 17.4548 43.488 17.2163C43.5982 16.9778 43.645 16.7149 43.6238 16.4531C43.6026 16.1912 43.5142 15.9393 43.3671 15.7216C43.22 15.5039 43.0192 15.3279 42.7842 15.2105L31.6851 9.68756C31.4776 9.58616 31.2497 9.53345 31.0187 9.53345C30.7877 9.53345 30.5598 9.58616 30.3523 9.68756L19.2858 15.2105C19.0463 15.3281 18.8418 15.5066 18.6928 15.7279C18.5439 15.9493 18.4556 16.2059 18.4369 16.4721C18.4181 16.7383 18.4696 17.0047 18.5861 17.2448C18.7026 17.4849 18.8801 17.6901 19.1008 17.8401H19.1025ZM34.8149 27.8445C34.8147 28.0927 34.8744 28.3371 34.989 28.5572C35.1035 28.7773 35.2694 28.9665 35.4727 29.1088L44.3705 35.2211C44.6466 35.4127 44.9794 35.5052 45.3148 35.4834C45.6501 35.4616 45.9682 35.3269 46.2172 35.1012L53.6811 28.391C53.8459 28.2427 53.9765 28.0602 54.0638 27.8563C54.151 27.6524 54.1928 27.4319 54.1863 27.2102C54.1798 26.9886 54.1251 26.771 54.026 26.5725C53.9269 26.3741 53.7859 26.1996 53.6126 26.0612L46.4861 20.3327C46.2348 20.1316 45.9257 20.0164 45.6041 20.0041C45.2824 19.9917 44.9654 20.0829 44.6994 20.2641L35.4727 26.6077C35.273 26.7474 35.1092 26.9325 34.9948 27.1478C34.8805 27.3631 34.8188 27.6008 34.8149 27.8445ZM12.6836 36.1599C13.0433 36.4853 13.2283 36.965 13.1804 37.4498C13.158 37.6895 13.0781 37.9203 12.9475 38.1225C12.8169 38.3247 12.6393 38.4924 12.43 38.6113L7.11775 41.813C6.57813 42.1351 5.89804 42.0888 5.4081 41.6948C4.91815 41.3008 4.71772 40.6413 4.90788 40.0366L6.87278 33.8215C6.94749 33.5803 7.08151 33.3617 7.26258 33.1857C7.44365 33.0097 7.66597 32.882 7.9092 32.8142C8.15153 32.7432 8.40817 32.7365 8.65387 32.7947C8.89958 32.853 9.12588 32.9743 9.3105 33.1465L12.6836 36.1599ZM41.5028 36.8108L31.8958 30.2017C31.6471 30.0332 31.3535 29.9431 31.053 29.9431C30.7525 29.9431 30.4589 30.0332 30.2101 30.2017L20.6032 36.8091C20.4139 36.9415 20.2567 37.1145 20.1428 37.3154C20.029 37.5164 19.9615 37.7402 19.9453 37.9706C19.9327 38.2028 19.9714 38.435 20.0587 38.6506C20.1461 38.8662 20.2799 39.0598 20.4507 39.2177L30.0491 47.8482C30.3245 48.0966 30.6821 48.234 31.053 48.234C31.4238 48.234 31.7815 48.0966 32.0568 47.8482L41.6535 39.216C41.8246 39.0591 41.958 38.8656 42.0441 38.65C42.1301 38.4344 42.1664 38.2022 42.1503 37.9706C42.1379 37.7405 42.0731 37.5162 41.9609 37.315C41.8486 37.1137 41.692 36.9407 41.5028 36.8091V36.8108ZM15.8802 35.1012L8.42313 28.391C8.2569 28.239 8.12552 28.0528 8.038 27.8452C7.95048 27.6376 7.90888 27.4136 7.91605 27.1884C7.91959 26.9665 7.9721 26.7481 8.06982 26.5488C8.16755 26.3495 8.30808 26.1742 8.48137 26.0355L15.6078 20.2727C15.861 20.0715 16.1719 19.9564 16.4951 19.9441C16.8183 19.9317 17.137 20.0229 17.4048 20.2042L26.6229 26.5477C27.0512 26.8304 27.3082 27.3118 27.3082 27.8291C27.3082 28.3465 27.0512 28.8261 26.6229 29.1088L17.7337 35.2211C17.1599 35.6151 16.3992 35.5637 15.8802 35.1012ZM54.1625 44.7407L46.5718 40.1736C46.2976 40.0073 45.9769 39.9341 45.6577 39.965C45.3384 39.9959 45.0378 40.1292 44.8005 40.3449L35.5224 48.6671C35.3301 48.8408 35.1847 49.0604 35.1 49.3054C35.0152 49.5503 34.9936 49.8127 35.0374 50.0682C35.0811 50.3237 35.1887 50.564 35.3502 50.7668C35.5117 50.9696 35.7218 51.1283 35.961 51.2281L48.8314 56.4702C49.1946 56.6146 49.5997 56.6125 49.9614 56.4642C50.3231 56.316 50.6132 56.0331 50.7706 55.6753L54.762 46.6953C54.9189 46.3526 54.9445 45.9643 54.8339 45.604C54.7234 45.2437 54.4845 44.9365 54.1625 44.7407ZM55.216 33.8215L57.1809 40.0366H57.1638C57.2354 40.2658 57.2526 40.5085 57.214 40.7456C57.1753 40.9826 57.0819 41.2073 56.9411 41.4019C56.7212 41.7064 56.3952 41.9176 56.0274 41.9937C55.6596 42.0698 55.2766 42.0053 54.9539 41.813L49.6331 38.6096C49.428 38.4885 49.255 38.32 49.1286 38.1182C49.0022 37.9164 48.9261 37.6872 48.9067 37.4498C48.8818 37.2108 48.9138 36.9694 49.0001 36.7451C49.0865 36.5209 49.2247 36.3204 49.4035 36.1599L52.7783 33.138C53.1603 32.7954 53.6862 32.6703 54.1779 32.8056C54.4213 32.8761 54.6436 33.0057 54.8247 33.183C55.0059 33.3603 55.1403 33.5796 55.216 33.8215ZM27.0615 50.0667C27.1064 49.8119 27.086 49.5498 27.0021 49.305C26.9182 49.0603 26.7736 48.8408 26.5818 48.6671L17.3055 40.3432C17.0682 40.1274 16.7675 39.9942 16.4483 39.9633C16.129 39.9324 15.8084 40.0056 15.5341 40.1719L7.94517 44.7407C7.62649 44.9375 7.38952 45.2427 7.2778 45.6002C7.16608 45.9577 7.18711 46.3435 7.33703 46.6868L11.3337 55.6684C11.49 56.0276 11.7803 56.3114 12.1429 56.4596C12.5054 56.6078 12.9115 56.6085 13.2746 56.4616L26.1364 51.2196C26.3758 51.122 26.5865 50.9652 26.7486 50.7638C26.9107 50.5624 27.019 50.3231 27.0632 50.0684L27.0615 50.0667ZM31.6166 52.6277L41.9396 56.8282C42.1885 56.9363 42.404 57.1089 42.5639 57.3281C42.7238 57.5474 42.8223 57.8053 42.8493 58.0753C42.8817 58.3487 42.8393 58.6257 42.7264 58.8768C42.6136 59.1278 42.4346 59.3435 42.2086 59.5006L31.8787 66.7144C31.6316 66.8896 31.337 66.9852 31.0341 66.9885C30.7321 66.9832 30.4386 66.8878 30.1913 66.7144L19.8682 59.5023C19.6412 59.3459 19.4607 59.1309 19.346 58.8801C19.2313 58.6293 19.1868 58.3522 19.217 58.0781C19.2472 57.804 19.3511 57.5432 19.5176 57.3234C19.6842 57.1037 19.9072 56.9331 20.1629 56.8299L30.4859 52.6294C30.8488 52.4838 31.2538 52.4821 31.6166 52.6277Z"
    fill="#BF4722"
  />
  <mask
    id="mask0_219_627"
    style="mask-type: luminance"
    maskUnits="userSpaceOnUse"
    x="75"
    y="17"
    width="277"
    height="54"
  >
    <path d="M75.5752 17.088H351.382V70.1936H75.5752V17.088Z" fill="white" />
  </mask>
  <g mask="url(#mask0_219_627)">
    <path
      d="M83.9282 36.8382H86.6212C89.2627 36.8382 91.2122 36.403 92.4679 35.5362C93.7253 34.6677 94.354 33.3024 94.354 31.4419C94.354 29.5987 93.7082 28.2882 92.4148 27.5087C91.1386 26.7275 89.1548 26.3387 86.4601 26.3387H83.9282V36.8382ZM83.9282 43.5363V58.447H75.5752V19.5874H87.0529C92.4062 19.5874 96.3669 20.5536 98.9348 22.4842C101.504 24.3977 102.788 27.3134 102.788 31.2295C102.788 33.5148 102.15 35.5533 100.874 37.3435C99.5995 39.1148 97.7939 40.5059 95.4607 41.5166C101.388 50.2533 105.249 55.8962 107.045 58.447H97.7768L88.3719 43.5363H83.9282Z"
      fill="white"
    />
    <path
      d="M119.119 33.9413C117.377 33.9413 116.011 34.4895 115.025 35.5893C114.035 36.6686 113.469 38.2103 113.325 40.2146H124.858C124.822 38.2103 124.292 36.6686 123.268 35.5893C122.244 34.4895 120.861 33.9413 119.119 33.9413ZM120.277 58.9798C115.429 58.9798 111.638 57.6607 108.907 55.0191C106.177 52.3793 104.813 48.6396 104.813 43.8018C104.813 38.8219 106.069 34.9777 108.583 32.2659C111.117 29.537 114.61 28.1717 119.064 28.1717C123.321 28.1717 126.636 29.3691 129.007 31.7606C131.378 34.1538 132.563 37.4583 132.563 41.6759V45.6092H113.137C113.228 47.9133 113.918 49.712 115.211 51.0054C116.505 52.2987 118.319 52.9463 120.654 52.9463C122.47 52.9463 124.183 52.7596 125.8 52.3878C127.545 51.9705 129.243 51.3734 130.866 50.6062V56.8795C129.428 57.5887 127.893 58.1112 126.257 58.447C124.625 58.8016 122.631 58.9798 120.277 58.9798ZM146.576 58.9798C143.037 58.9798 140.255 57.6247 138.223 54.9129C136.212 52.2011 135.207 48.4443 135.207 43.6425C135.207 38.7688 136.229 34.9778 138.278 32.2677C140.342 29.537 143.181 28.1734 146.792 28.1734C150.581 28.1734 153.473 29.6261 155.467 32.5315H155.736C155.325 30.3164 155.118 28.3413 155.118 26.6042V17.088H163.361V58.447H157.057L155.467 54.5926H155.118C153.25 57.5168 150.402 58.9798 146.576 58.9798ZM149.459 52.5214C151.56 52.5214 153.096 51.9184 154.068 50.7124C155.054 49.5081 155.592 47.461 155.683 44.5727V43.6956C155.683 40.5059 155.179 38.2206 154.174 36.8382C153.185 35.4557 151.57 34.7653 149.324 34.7653C147.491 34.7653 146.064 35.5362 145.041 37.078C144.034 38.6026 143.53 40.8245 143.53 43.7487C143.53 46.673 144.044 48.8709 145.067 50.3407C146.091 51.7934 147.554 52.5214 149.459 52.5214ZM194.51 58.447L192.192 48.0554L189.068 34.9246H188.879L183.382 58.447H174.544L165.977 28.7301H174.167L177.643 41.8883C178.2 44.2455 178.765 47.497 179.341 51.6426H179.502C179.574 50.2961 179.889 48.1616 180.446 45.2374L180.876 42.9779L184.595 28.7301H193.647L197.177 42.9779L197.499 44.7064C197.841 46.3516 198.12 48.0094 198.335 49.676C198.46 50.4914 198.532 51.1476 198.551 51.6426H198.712C198.875 50.3681 199.161 48.6225 199.576 46.4074C199.845 44.8959 200.141 43.3893 200.465 41.8883L204.074 28.7318H212.131L203.454 58.4487L194.51 58.447ZM221.347 43.5363C221.347 46.4777 221.832 48.7013 222.802 50.2071C223.79 51.7146 225.388 52.4683 227.598 52.4683C229.789 52.4683 231.36 51.7231 232.313 50.2345C233.282 48.727 233.767 46.4948 233.767 43.5363C233.767 40.595 233.282 38.3885 232.313 36.917C231.343 35.4471 229.753 34.7122 227.543 34.7122C225.352 34.7122 223.771 35.4471 222.802 36.917C221.832 38.3714 221.347 40.5761 221.347 43.5363ZM242.173 43.5363C242.173 48.3741 240.882 52.1566 238.295 54.8855C235.708 57.6144 232.107 58.9798 227.49 58.9798C224.599 58.9798 222.048 58.3596 219.838 57.1194C217.63 55.8602 215.932 54.0615 214.747 51.7232C213.561 49.3831 212.969 46.6541 212.969 43.5346C212.969 38.6814 214.252 34.9058 216.821 32.2128C219.389 29.5199 223 28.1734 227.651 28.1734C230.543 28.1734 233.094 28.7935 235.304 30.0338C237.514 31.2741 239.21 33.054 240.395 35.3752C241.58 37.6981 242.173 40.4168 242.173 43.5363ZM253.303 43.5363C253.303 46.4777 253.788 48.7013 254.759 50.2071C255.746 51.7146 257.346 52.4683 259.554 52.4683C261.745 52.4683 263.318 51.7231 264.269 50.2345C265.24 48.727 265.725 46.4948 265.725 43.5363C265.725 40.595 265.24 38.3885 264.269 36.917C263.299 35.4471 261.709 34.7122 259.501 34.7122C257.308 34.7122 255.729 35.4471 254.759 36.917C253.788 38.3714 253.303 40.5761 253.303 43.5363ZM274.131 43.5363C274.131 48.3741 272.837 52.1566 270.251 54.8855C267.664 57.6144 264.063 58.9798 259.446 58.9798C256.555 58.9798 254.004 58.3596 251.796 57.1194C249.586 55.8602 247.888 54.0615 246.703 51.7232C245.517 49.3831 244.924 46.6541 244.924 43.5346C244.924 38.6814 246.209 34.9058 248.777 32.2128C251.347 29.5199 254.956 28.1734 259.609 28.1734C262.501 28.1734 265.051 28.7935 267.26 30.0338C269.469 31.2741 271.167 33.054 272.353 35.3752C273.538 37.6981 274.131 40.4168 274.131 43.5363ZM288.25 58.9798C284.712 58.9798 281.929 57.6247 279.899 54.9129C277.886 52.2011 276.88 48.4443 276.88 43.6425C276.88 38.7688 277.905 34.9778 279.952 32.2677C282.018 29.537 284.856 28.1734 288.466 28.1734C292.257 28.1734 295.149 29.6261 297.141 32.5315H297.412C296.999 30.3164 296.791 28.3413 296.791 26.6042V17.088H305.037V58.447H298.731L297.141 54.5926H296.791C294.924 57.5168 292.077 58.9798 288.25 58.9798ZM291.133 52.5214C293.235 52.5214 294.772 51.9184 295.741 50.7124C296.728 49.5081 297.268 47.461 297.357 44.5727V43.6956C297.357 40.5059 296.855 38.2206 295.849 36.8382C294.861 35.4557 293.244 34.7653 291 34.7653C289.167 34.7653 287.74 35.5362 286.715 37.078C285.71 38.6026 285.206 40.8245 285.206 43.7487C285.206 46.673 285.718 48.8709 286.742 50.3407C287.765 51.7934 289.23 52.5214 291.133 52.5214Z"
      fill="white"
    />
    <path
      d="M307.948 69.8767C306.062 69.8767 304.418 69.6831 303.018 69.2942V62.4351C304.454 62.7897 305.766 62.9661 306.951 62.9661C308.783 62.9661 310.095 62.4008 310.885 61.265C311.676 60.1498 312.07 58.3939 312.07 56.0024V19.5874H320.423V55.9493C320.423 60.4856 319.371 63.9409 317.271 66.3152C315.169 68.6895 312.061 69.8767 307.948 69.8767ZM351.382 47.6563C351.382 51.1647 350.097 53.9296 347.529 55.9476C344.978 57.969 341.422 58.9798 336.86 58.9798C332.656 58.9798 328.939 58.1986 325.704 56.6397V48.9856C328.363 50.154 330.609 50.9779 332.44 51.4576C334.29 51.9356 335.979 52.1754 337.506 52.1754C339.337 52.1754 340.738 51.8294 341.71 51.1373C342.697 50.4469 343.192 49.419 343.192 48.0537C343.192 47.2931 342.976 46.6199 342.544 46.034C342.112 45.4327 341.475 44.8554 340.631 44.3072C339.805 43.759 338.107 42.8802 335.539 41.6759C333.132 40.559 331.327 39.4866 330.124 38.4587C328.942 37.4584 327.963 36.2399 327.241 34.8698C326.522 33.5062 326.164 31.9113 326.164 30.0869C326.164 26.6487 327.339 23.9455 329.692 21.9789C332.063 20.0122 335.332 19.0289 339.5 19.0289C341.547 19.0289 343.497 19.2688 345.347 19.7467C347.214 20.2264 349.163 20.8979 351.193 21.7682L348.499 28.1717C346.397 27.322 344.655 26.7275 343.272 26.3901C341.95 26.0593 340.593 25.8901 339.231 25.8864C337.65 25.8864 336.437 26.2496 335.592 26.9759C334.75 27.7023 334.326 28.6513 334.326 29.8196C334.326 30.5477 334.498 31.185 334.839 31.7349C335.179 32.2659 335.719 32.7884 336.456 33.3023C337.21 33.7991 338.979 34.7019 341.763 36.0142C345.444 37.7495 347.969 39.4951 349.335 41.2493C350.698 42.9864 351.382 45.1209 351.382 47.6563Z"
      fill="white"
    />
  </g>
</svg>
