<svg width="351" height="65" viewBox="0 0 351 65" fill="none" xmlns="http://www.w3.org/2000/svg">
  <path
    fill-rule="evenodd"
    clip-rule="evenodd"
    d="M24.8225 2.26064C25.45 1.95176 26.0139 1.67418 26.4774 1.4399C28.8483 0.240741 31.2209 0.240741 33.5935 1.4399C34.1162 1.70409 34.7828 2.02639 35.5298 2.38761C38.1736 3.66596 41.8251 5.4316 43.675 6.8327C44.9586 7.80574 45.3121 8.57177 45.6814 9.37184C45.9947 10.0507 46.3194 10.7541 47.2331 11.6293C49.2237 13.536 51.9766 15.8247 54.3493 17.6234C55.9896 18.867 56.2125 21.5427 56.3898 23.6703C56.4689 24.6201 56.5389 25.4607 56.7219 26.0158C57.0189 26.9162 57.4647 28.4192 57.9102 29.9211C58.3538 31.4166 58.7971 32.9112 59.0928 33.8086C59.5521 35.201 58.5878 36.9546 57.5788 38.7894C57.2857 39.3225 56.9888 39.8624 56.7219 40.4023C56.125 41.6081 55.0787 43.8739 54.035 46.1339C53.0029 48.369 51.9734 50.5983 51.3839 51.7909C50.7626 53.0479 49.4891 53.3166 47.9911 53.6328C46.6308 53.9199 45.0854 54.2461 43.675 55.3866C40.7097 57.7849 36.5572 60.7828 33.5935 62.5816C30.6282 64.3803 29.441 64.3803 26.4774 62.5816C23.512 60.7846 19.3595 57.7867 16.3959 55.3883C14.9852 54.2467 13.4395 53.9202 12.079 53.6329C10.5813 53.3165 9.30821 53.0476 8.687 51.7909C8.09342 50.5926 7.05572 48.345 6.01802 46.0975C4.98032 43.8499 3.94262 41.6023 3.34903 40.404C3.082 39.8638 2.78482 39.3236 2.4914 38.7902C1.48219 36.9557 0.517579 35.2022 0.978121 33.8086C1.27386 32.9112 1.71714 31.4171 2.16074 29.922C2.60623 28.4205 3.05204 26.9179 3.34903 26.0175C3.53196 25.4624 3.60198 24.6217 3.6811 23.6717C3.85834 21.5436 4.08127 18.867 5.72165 17.6234C8.09256 15.8264 11.6523 12.8302 12.8378 11.631C13.2772 11.1865 13.5076 10.6684 13.7615 10.0974C14.1926 9.12799 14.6914 8.00629 16.3959 6.8344C18.5752 5.33611 22.2384 3.53278 24.8225 2.26064ZM29.2016 19.4548L18.1025 11.8401H18.1008C17.8801 11.6901 17.7026 11.4849 17.5861 11.2448C17.4696 11.0047 17.4181 10.7383 17.4369 10.4721C17.4556 10.2059 17.5439 9.9493 17.6928 9.7279C17.8418 9.5066 18.0463 9.3281 18.2858 9.2105L29.3523 3.68756C29.5598 3.58616 29.7877 3.53345 30.0187 3.53345C30.2497 3.53345 30.4776 3.58616 30.6851 3.68756L41.7842 9.2105C42.0192 9.3279 42.22 9.5039 42.3671 9.7216C42.5142 9.9393 42.6026 10.1912 42.6238 10.4531C42.645 10.7149 42.5982 10.9778 42.488 11.2163C42.3779 11.4548 42.208 11.6608 41.9949 11.8144L30.8872 19.4548C30.6389 19.6251 30.3455 19.7176 30.0444 19.7203C29.7438 19.7147 29.4511 19.6225 29.2016 19.4548ZM33.989 22.5572C33.8744 22.3371 33.8147 22.0927 33.8149 21.8445C33.8188 21.6008 33.8805 21.3631 33.9948 21.1478C34.1092 20.9325 34.273 20.7474 34.4727 20.6077L43.6994 14.2641C43.9654 14.0829 44.2824 13.9917 44.6041 14.0041C44.9257 14.0164 45.2348 14.1316 45.4861 14.3327L52.6126 20.0612C52.7859 20.1996 52.9269 20.3741 53.026 20.5725C53.1251 20.771 53.1798 20.9886 53.1863 21.2102C53.1928 21.4319 53.151 21.6524 53.0638 21.8563C52.9765 22.0602 52.8459 22.2427 52.6811 22.391L45.2172 29.1012C44.9682 29.3269 44.6501 29.4616 44.3148 29.4834C43.9794 29.5052 43.6466 29.4127 43.3705 29.2211L34.4727 23.1088C34.2694 22.9665 34.1035 22.7773 33.989 22.5572ZM12.1804 31.4498C12.2283 30.965 12.0433 30.4853 11.6836 30.1599L8.3105 27.1465C8.12588 26.9743 7.89958 26.853 7.65387 26.7947C7.40817 26.7365 7.15153 26.7432 6.9092 26.8142C6.66597 26.882 6.44365 27.0097 6.26258 27.1857C6.08151 27.3617 5.94749 27.5803 5.87278 27.8215L3.90788 34.0366C3.71772 34.6413 3.91815 35.3008 4.4081 35.6948C4.89804 36.0888 5.57813 36.1351 6.11775 35.813L11.43 32.6113C11.6393 32.4924 11.8169 32.3247 11.9475 32.1225C12.0781 31.9203 12.158 31.6895 12.1804 31.4498ZM30.8958 24.2017L40.5028 30.8108V30.8091C40.692 30.9407 40.8486 31.1137 40.9609 31.315C41.0731 31.5162 41.1379 31.7405 41.1503 31.9706C41.1664 32.2022 41.1301 32.4344 41.0441 32.65C40.958 32.8656 40.8246 33.0591 40.6535 33.216L31.0568 41.8482C30.7815 42.0966 30.4238 42.234 30.053 42.234C29.6821 42.234 29.3245 42.0966 29.0491 41.8482L19.4507 33.2177C19.2799 33.0598 19.1461 32.8662 19.0587 32.6506C18.9714 32.435 18.9327 32.2028 18.9453 31.9706C18.9615 31.7402 19.029 31.5164 19.1428 31.3154C19.2567 31.1145 19.4139 30.9415 19.6032 30.8091L29.2101 24.2017C29.4589 24.0332 29.7525 23.9431 30.053 23.9431C30.3535 23.9431 30.6471 24.0332 30.8958 24.2017ZM7.42313 22.391L14.8802 29.1012C15.3992 29.5637 16.1599 29.6151 16.7337 29.2211L25.6229 23.1088C26.0512 22.8261 26.3082 22.3465 26.3082 21.8291C26.3082 21.3118 26.0512 20.8304 25.6229 20.5477L16.4048 14.2042C16.137 14.0229 15.8183 13.9317 15.4951 13.9441C15.1719 13.9564 14.861 14.0715 14.6078 14.2727L7.48137 20.0355C7.30808 20.1742 7.16755 20.3495 7.06982 20.5488C6.9721 20.7481 6.91959 20.9665 6.91605 21.1884C6.90888 21.4136 6.95048 21.6376 7.038 21.8452C7.12552 22.0528 7.2569 22.239 7.42313 22.391ZM45.5718 34.1736L53.1625 38.7407C53.4845 38.9365 53.7234 39.2437 53.8339 39.604C53.9445 39.9643 53.9189 40.3526 53.762 40.6953L49.7706 49.6753C49.6132 50.0331 49.3231 50.316 48.9614 50.4642C48.5997 50.6125 48.1946 50.6146 47.8314 50.4702L34.961 45.2281C34.7218 45.1283 34.5117 44.9696 34.3502 44.7668C34.1887 44.564 34.0811 44.3237 34.0374 44.0682C33.9936 43.8127 34.0152 43.5503 34.1 43.3054C34.1847 43.0604 34.3301 42.8408 34.5224 42.6671L43.8005 34.3449C44.0378 34.1292 44.3384 33.9959 44.6577 33.965C44.9769 33.9341 45.2976 34.0073 45.5718 34.1736ZM56.1809 34.0366L54.216 27.8215C54.1403 27.5796 54.0059 27.3603 53.8247 27.183C53.6436 27.0057 53.4213 26.8761 53.1779 26.8056C52.6862 26.6703 52.1603 26.7954 51.7783 27.138L48.4035 30.1599C48.2247 30.3204 48.0865 30.5209 48.0001 30.7451C47.9138 30.9694 47.8818 31.2108 47.9067 31.4498C47.9261 31.6872 48.0022 31.9164 48.1286 32.1182C48.255 32.32 48.428 32.4885 48.6331 32.6096L53.9539 35.813C54.2766 36.0053 54.6596 36.0698 55.0274 35.9937C55.3952 35.9176 55.7212 35.7064 55.9411 35.4019C56.0819 35.2073 56.1753 34.9826 56.214 34.7456C56.2526 34.5085 56.2354 34.2658 56.1638 34.0366H56.1809ZM26.0021 43.305C26.086 43.5498 26.1064 43.8119 26.0615 44.0667L26.0632 44.0684C26.019 44.3231 25.9107 44.5624 25.7486 44.7638C25.5865 44.9652 25.3758 45.122 25.1364 45.2196L12.2746 50.4616C11.9115 50.6085 11.5054 50.6078 11.1429 50.4596C10.7803 50.3114 10.49 50.0276 10.3337 49.6684L6.33703 40.6868C6.18711 40.3435 6.16608 39.9577 6.2778 39.6002C6.38952 39.2427 6.62649 38.9375 6.94517 38.7407L14.5341 34.1719C14.8084 34.0056 15.129 33.9324 15.4483 33.9633C15.7675 33.9942 16.0682 34.1274 16.3055 34.3432L25.5818 42.6671C25.7736 42.8408 25.9182 43.0603 26.0021 43.305ZM40.9396 50.8282L30.6166 46.6277C30.2538 46.4821 29.8488 46.4838 29.4859 46.6294L19.1629 50.8299C18.9072 50.9331 18.6842 51.1037 18.5176 51.3234C18.3511 51.5432 18.2472 51.804 18.217 52.0781C18.1868 52.3522 18.2313 52.6293 18.346 52.8801C18.4607 53.1309 18.6412 53.3459 18.8682 53.5023L29.1913 60.7144C29.4386 60.8878 29.7321 60.9832 30.0341 60.9885C30.337 60.9852 30.6316 60.8896 30.8787 60.7144L41.2086 53.5006C41.4346 53.3435 41.6136 53.1278 41.7264 52.8768C41.8393 52.6257 41.8817 52.3487 41.8493 52.0753C41.8223 51.8053 41.7238 51.5474 41.5639 51.3281C41.404 51.1089 41.1885 50.9363 40.9396 50.8282Z"
    fill="white"
  />
  <mask
    id="mask0_0_1"
    style="mask-type: luminance"
    maskUnits="userSpaceOnUse"
    x="74"
    y="11"
    width="277"
    height="54"
  >
    <path d="M74.5752 11.088H350.382V64.1936H74.5752V11.088Z" fill="white" />
  </mask>
  <g mask="url(#mask0_0_1)">
    <path
      d="M82.9282 30.8382H85.6212C88.2627 30.8382 90.2122 30.403 91.4679 29.5362C92.7253 28.6677 93.354 27.3024 93.354 25.4419C93.354 23.5987 92.7082 22.2882 91.4148 21.5087C90.1386 20.7275 88.1548 20.3387 85.4601 20.3387H82.9282V30.8382ZM82.9282 37.5363V52.447H74.5752V13.5874H86.0529C91.4062 13.5874 95.3669 14.5536 97.9348 16.4842C100.504 18.3977 101.788 21.3134 101.788 25.2295C101.788 27.5148 101.15 29.5533 99.874 31.3435C98.5995 33.1148 96.7939 34.5059 94.4607 35.5166C100.388 44.2533 104.249 49.8962 106.045 52.447H96.7768L87.3719 37.5363H82.9282Z"
      fill="white"
    />
    <path
      d="M118.119 27.9413C116.377 27.9413 115.011 28.4895 114.025 29.5893C113.035 30.6686 112.469 32.2103 112.325 34.2146H123.858C123.822 32.2103 123.292 30.6686 122.268 29.5893C121.244 28.4895 119.861 27.9413 118.119 27.9413ZM119.277 52.9798C114.429 52.9798 110.638 51.6607 107.907 49.0191C105.177 46.3793 103.813 42.6396 103.813 37.8018C103.813 32.8219 105.069 28.9777 107.583 26.2659C110.117 23.537 113.61 22.1717 118.064 22.1717C122.321 22.1717 125.636 23.3691 128.007 25.7606C130.378 28.1538 131.563 31.4583 131.563 35.6759V39.6092H112.137C112.228 41.9133 112.918 43.712 114.211 45.0054C115.505 46.2987 117.319 46.9463 119.654 46.9463C121.47 46.9463 123.183 46.7596 124.8 46.3878C126.545 45.9705 128.243 45.3734 129.866 44.6062V50.8795C128.428 51.5887 126.893 52.1112 125.257 52.447C123.625 52.8016 121.631 52.9798 119.277 52.9798ZM145.576 52.9798C142.037 52.9798 139.255 51.6247 137.223 48.9129C135.212 46.2011 134.207 42.4443 134.207 37.6425C134.207 32.7688 135.229 28.9778 137.278 26.2677C139.342 23.537 142.181 22.1734 145.792 22.1734C149.581 22.1734 152.473 23.6261 154.467 26.5315H154.736C154.325 24.3164 154.118 22.3413 154.118 20.6042V11.088H162.361V52.447H156.057L154.467 48.5926H154.118C152.25 51.5168 149.402 52.9798 145.576 52.9798ZM148.459 46.5214C150.56 46.5214 152.096 45.9184 153.068 44.7124C154.054 43.5081 154.592 41.461 154.683 38.5727V37.6956C154.683 34.5059 154.179 32.2206 153.174 30.8382C152.185 29.4557 150.57 28.7653 148.324 28.7653C146.491 28.7653 145.064 29.5362 144.041 31.078C143.034 32.6026 142.53 34.8245 142.53 37.7487C142.53 40.673 143.044 42.8709 144.067 44.3407C145.091 45.7934 146.554 46.5214 148.459 46.5214ZM193.51 52.447L191.192 42.0554L188.068 28.9246H187.879L182.382 52.447H173.544L164.977 22.7301H173.167L176.643 35.8883C177.2 38.2455 177.765 41.497 178.341 45.6426H178.502C178.574 44.2961 178.889 42.1616 179.446 39.2374L179.876 36.9779L183.595 22.7301H192.647L196.177 36.9779L196.499 38.7064C196.841 40.3516 197.12 42.0094 197.335 43.676C197.46 44.4914 197.532 45.1476 197.551 45.6426H197.712C197.875 44.3681 198.161 42.6225 198.576 40.4074C198.845 38.8959 199.141 37.3893 199.465 35.8883L203.074 22.7318H211.131L202.454 52.4487L193.51 52.447ZM220.347 37.5363C220.347 40.4777 220.832 42.7013 221.802 44.2071C222.79 45.7146 224.388 46.4683 226.598 46.4683C228.789 46.4683 230.36 45.7231 231.313 44.2345C232.282 42.727 232.767 40.4948 232.767 37.5363C232.767 34.595 232.282 32.3885 231.313 30.917C230.343 29.4471 228.753 28.7122 226.543 28.7122C224.352 28.7122 222.771 29.4471 221.802 30.917C220.832 32.3714 220.347 34.5761 220.347 37.5363ZM241.173 37.5363C241.173 42.3741 239.882 46.1566 237.295 48.8855C234.708 51.6144 231.107 52.9798 226.49 52.9798C223.599 52.9798 221.048 52.3596 218.838 51.1194C216.63 49.8602 214.932 48.0615 213.747 45.7232C212.561 43.3831 211.969 40.6541 211.969 37.5346C211.969 32.6814 213.252 28.9058 215.821 26.2128C218.389 23.5199 222 22.1734 226.651 22.1734C229.543 22.1734 232.094 22.7935 234.304 24.0338C236.514 25.2741 238.21 27.054 239.395 29.3752C240.58 31.6981 241.173 34.4168 241.173 37.5363ZM252.303 37.5363C252.303 40.4777 252.788 42.7013 253.759 44.2071C254.746 45.7146 256.346 46.4683 258.554 46.4683C260.745 46.4683 262.318 45.7231 263.269 44.2345C264.24 42.727 264.725 40.4948 264.725 37.5363C264.725 34.595 264.24 32.3885 263.269 30.917C262.299 29.4471 260.709 28.7122 258.501 28.7122C256.308 28.7122 254.729 29.4471 253.759 30.917C252.788 32.3714 252.303 34.5761 252.303 37.5363ZM273.131 37.5363C273.131 42.3741 271.837 46.1566 269.251 48.8855C266.664 51.6144 263.063 52.9798 258.446 52.9798C255.555 52.9798 253.004 52.3596 250.796 51.1194C248.586 49.8602 246.888 48.0615 245.703 45.7232C244.517 43.3831 243.924 40.6541 243.924 37.5346C243.924 32.6814 245.209 28.9058 247.777 26.2128C250.347 23.5199 253.956 22.1734 258.609 22.1734C261.501 22.1734 264.051 22.7935 266.26 24.0338C268.469 25.2741 270.167 27.054 271.353 29.3752C272.538 31.6981 273.131 34.4168 273.131 37.5363ZM287.25 52.9798C283.712 52.9798 280.929 51.6247 278.899 48.9129C276.886 46.2011 275.88 42.4443 275.88 37.6425C275.88 32.7688 276.905 28.9778 278.952 26.2677C281.018 23.537 283.856 22.1734 287.466 22.1734C291.257 22.1734 294.149 23.6261 296.141 26.5315H296.412C295.999 24.3164 295.791 22.3413 295.791 20.6042V11.088H304.037V52.447H297.731L296.141 48.5926H295.791C293.924 51.5168 291.077 52.9798 287.25 52.9798ZM290.133 46.5214C292.235 46.5214 293.772 45.9184 294.741 44.7124C295.728 43.5081 296.268 41.461 296.357 38.5727V37.6956C296.357 34.5059 295.855 32.2206 294.849 30.8382C293.861 29.4557 292.244 28.7653 290 28.7653C288.167 28.7653 286.74 29.5362 285.715 31.078C284.71 32.6026 284.206 34.8245 284.206 37.7487C284.206 40.673 284.718 42.8709 285.742 44.3407C286.765 45.7934 288.23 46.5214 290.133 46.5214Z"
      fill="white"
    />
    <path
      d="M306.948 63.8767C305.062 63.8767 303.418 63.6831 302.018 63.2942V56.4351C303.454 56.7897 304.766 56.9661 305.951 56.9661C307.783 56.9661 309.095 56.4008 309.885 55.265C310.676 54.1498 311.07 52.3939 311.07 50.0024V13.5874H319.423V49.9493C319.423 54.4856 318.371 57.9409 316.271 60.3152C314.169 62.6895 311.061 63.8767 306.948 63.8767ZM350.382 41.6563C350.382 45.1647 349.097 47.9296 346.529 49.9476C343.978 51.969 340.422 52.9798 335.86 52.9798C331.656 52.9798 327.939 52.1986 324.704 50.6397V42.9856C327.363 44.154 329.609 44.9779 331.44 45.4576C333.29 45.9356 334.979 46.1754 336.506 46.1754C338.337 46.1754 339.738 45.8294 340.71 45.1373C341.697 44.4469 342.192 43.419 342.192 42.0537C342.192 41.2931 341.976 40.6199 341.544 40.034C341.112 39.4327 340.475 38.8554 339.631 38.3072C338.805 37.759 337.107 36.8802 334.539 35.6759C332.132 34.559 330.327 33.4866 329.124 32.4587C327.942 31.4584 326.963 30.2399 326.241 28.8698C325.522 27.5062 325.164 25.9113 325.164 24.0869C325.164 20.6487 326.339 17.9455 328.692 15.9789C331.063 14.0122 334.332 13.0289 338.5 13.0289C340.547 13.0289 342.497 13.2688 344.347 13.7467C346.214 14.2264 348.163 14.8979 350.193 15.7682L347.499 22.1717C345.397 21.322 343.655 20.7275 342.272 20.3901C340.95 20.0593 339.593 19.8901 338.231 19.8864C336.65 19.8864 335.437 20.2496 334.592 20.9759C333.75 21.7023 333.326 22.6513 333.326 23.8196C333.326 24.5477 333.498 25.185 333.839 25.7349C334.179 26.2659 334.719 26.7884 335.456 27.3023C336.21 27.7991 337.979 28.7019 340.763 30.0142C344.444 31.7495 346.969 33.4951 348.335 35.2493C349.698 36.9864 350.382 39.1209 350.382 41.6563Z"
      fill="white"
    />
  </g>
</svg>
