<svg
  width="215px"
  height="45px"
  viewBox="0 0 215 45"
  version="1.1"
  xmlns="http://www.w3.org/2000/svg"
>
  <g id="LOGOS" stroke="none" stroke-width="1" fill="none" fill-rule="evenodd">
    <g id="Group" fill="#FFFFFE">
      <path
        d="M8.34177249,27.7683686 L1.46973545,27.7683686 L1.46973545,15.7314021 C1.46973545,15.2888889 1.46973545,14.6203792 0.713633157,14.6203792 C0,14.6203792 0,15.2361817 0,15.7314021 L0,27.8188007 C0,28.8225132 0.137266314,28.9495414 1.22477954,28.9495414 L8.34177249,28.9495414 C8.82106702,28.9495414 9.41753086,28.9495414 9.41753086,28.3492857 C9.41753086,27.7683686 8.82106702,27.7683686 8.34177249,27.7683686"
        id="Fill-1"
      ></path>
      <path
        d="M11.4105467,18.5116138 C10.7397619,18.5116138 10.7397619,19.0731922 10.7397619,19.5244268 L10.7397619,28.1919224 C10.7397619,28.6344356 10.7397619,29.1853968 11.4105467,29.1853968 C12.060097,29.1853968 12.060097,28.6344356 12.060097,28.1919224 L12.060097,19.5244268 C12.060097,19.12097 12.060097,18.5116138 11.4105467,18.5116138"
        id="Fill-2"
      ></path>
      <path
        d="M11.4105467,15.0135979 C10.938836,15.0135979 10.569127,15.3544885 10.569127,15.7901764 C10.569127,16.2186596 10.9467989,16.567134 11.4105467,16.567134 C11.8667108,16.567134 12.2519665,16.211455 12.2519665,15.7901764 C12.2519665,15.3616931 11.8746737,15.0135979 11.4105467,15.0135979"
        id="Fill-3"
      ></path>
      <path
        d="M16.6793739,16.4420018 C16.6725485,16.4564109 16.6661023,16.4711993 16.6600353,16.4856085 C16.6661023,16.4711993 16.6725485,16.4564109 16.6793739,16.4420018 Z M17.911358,18.7474691 L16.4943298,18.7474691 L16.4943298,17.8537213 C16.4943298,16.5781305 16.6137743,15.7416402 18.2097795,15.7416402 C18.2708289,15.7416402 18.4482892,15.7598413 18.6363668,15.7788007 C18.8388536,15.7992769 19.0481658,15.8201323 19.1258995,15.8201323 C19.4614815,15.8201323 19.6692769,15.5497707 19.6692769,15.2987478 C19.6692769,15.2866138 19.6658642,14.995776 19.3647884,14.8569929 C19.1224868,14.7447531 18.4221252,14.6203792 17.804806,14.6203792 C17.3437125,14.6203792 16.8682099,14.7273104 16.4658907,14.9210758 C16.0343739,15.1292504 15.6984127,15.4280511 15.4947884,15.7848677 C15.3567637,16.0176896 15.1736155,16.4674074 15.1736155,17.6770194 L15.1736155,18.7474691 L14.0546296,18.7474691 C13.846455,18.7474691 13.2132099,18.7474691 13.2132099,19.1903616 C13.2132099,19.6529718 13.8028483,19.6529718 14.0546296,19.6529718 L15.1736155,19.6529718 L15.1736155,28.1919224 C15.1736155,28.6344356 15.1736155,29.1853968 15.8447795,29.1853968 C16.4943298,29.1853968 16.4943298,28.6344356 16.4943298,28.1919224 L16.4943298,19.6529718 L17.911358,19.6529718 C18.469903,19.6529718 18.7527778,19.4971252 18.7527778,19.1903616 C18.7527778,18.7474691 18.2056085,18.7474691 17.911358,18.7474691 L17.911358,18.7474691 Z"
        id="Fill-4"
      ></path>
      <path
        d="M20.1565344,22.992866 C20.3192063,21.6956614 21.2558025,19.5153263 23.7455556,19.5153263 C26.8332892,19.5153263 27.0991005,22.1305908 27.1859347,22.992866 L20.1565344,22.992866 Z M28.5718695,23.1407496 C28.5718695,23.0910758 28.5646649,21.9117989 27.95,20.7602028 C27.6000088,20.1045855 27.1207143,19.5832011 26.5261464,19.2100794 C26.4609259,19.169127 26.3862257,19.1395503 26.3179718,19.1020106 C26.2705732,19.0762257 26.2216578,19.0511993 26.1723633,19.026552 C26.0267549,18.954127 25.8762169,18.8889065 25.7184744,18.8320282 C25.6710758,18.8149647 25.6217813,18.7990388 25.5724868,18.7831129 C25.3988183,18.7269929 25.2194621,18.678836 25.032522,18.6409171 C24.994224,18.6329541 24.9547884,18.6265079 24.9161111,18.6196825 C24.6999735,18.5802469 24.4762522,18.5529453 24.2438095,18.5373986 C24.2221958,18.5358818 24.200582,18.5347443 24.1789683,18.5336067 C24.0485273,18.5264021 23.9233951,18.5116138 23.7884039,18.5116138 C22.2212169,18.5116138 20.9289418,19.0182099 20.0514991,19.9767989 C19.1994621,20.9077072 18.7489859,22.2466226 18.7489859,23.8486949 C18.7489859,25.4045062 19.1744356,26.7172575 19.9794533,27.6462698 C20.404903,28.1373192 20.9338713,28.5168871 21.5511905,28.7751146 C22.2018783,29.0473721 22.9545679,29.1853968 23.7884039,29.1853968 C25.717716,29.1853968 26.8446649,28.4179189 27.4502293,27.7744356 C28.1411111,27.0399471 28.3587654,26.2633686 28.3587654,26.1090388 C28.3587654,25.8436067 28.0918166,25.5482187 27.708836,25.5482187 C27.4388536,25.5482187 27.192381,25.7203704 27.0812787,25.98694 C26.6986772,26.8780335 26.1170018,27.5090035 25.3525573,27.8631658 C24.8963933,28.0743739 24.3844885,28.1813051 23.830873,28.1813051 C22.6550088,28.1813051 21.7301675,27.7827778 21.082134,26.9959612 C20.485291,26.2717108 20.1572928,25.2342504 20.1337831,23.9961993 L27.3467108,23.9961993 C28.004224,23.9961993 28.5718695,23.9961993 28.5718695,23.1407496 L28.5718695,23.1407496 Z"
        id="Fill-5"
      ></path>
      <path
        d="M35.3305291,14.6203792 C34.5960406,14.6203792 34.5960406,15.2888889 34.5960406,15.7314021 L34.5960406,28.0743739 C34.5960406,28.5430511 34.5960406,29.1853968 35.3521429,29.1853968 C36.065776,29.1853968 36.065776,28.5692152 36.065776,28.0743739 L36.065776,15.7314021 C36.065776,15.2361817 36.065776,14.6203792 35.3305291,14.6203792"
        id="Fill-6"
      ></path>
      <path
        d="M59.3551675,22.1025309 C59.8337037,22.1025309 60.097619,21.6873192 60.097619,21.3528748 L60.097619,12.8556349 L58.5831393,12.8556349 L58.5831393,21.3528748 C58.5831393,21.70097 58.8614638,22.1025309 59.3551675,22.1025309"
        id="Fill-7"
      ></path>
      <path
        d="M45.4093651,23.8828219 C45.3194974,23.8323898 45.2174956,23.7940917 45.12194,23.7493474 C45.089709,23.7338007 45.057478,23.718254 45.0244885,23.7038448 C44.3025132,23.382672 43.4504762,23.1900441 42.6136067,23.011067 C41.8036596,22.8377778 41.0380776,22.6739683 40.4700529,22.3998148 C39.8349118,22.0930511 39.5387654,21.6914903 39.5387654,21.136358 C39.5387654,20.0166138 40.8712346,19.5153263 42.1919489,19.5153263 C43.5608201,19.5153263 44.6104145,20.0549118 44.9312081,20.9236332 C45.1226984,21.4541182 45.2732363,21.5398148 45.5587654,21.5398148 C46.1590212,21.5398148 46.1662257,21.0233598 46.1662257,21.0180511 C46.1662257,20.8857143 46.0596737,20.2725661 45.5401852,19.6965785 C45.2265961,19.3496208 44.8178307,19.0739506 44.3252646,18.8775309 C43.717425,18.6344709 42.9780071,18.5116138 42.127866,18.5116138 C40.64903,18.5116138 39.5584832,18.9127954 38.8865608,19.7045414 C38.2703792,20.4299295 38.2392857,21.2209171 38.2392857,21.3722134 C38.2392857,22.1192152 38.6234039,22.8203351 39.2668871,23.24806 C39.9221252,23.6818519 40.600873,23.8467989 41.9526808,24.1759347 C42.3193563,24.2646649 42.7345679,24.3659083 43.2123457,24.4876279 L43.2684656,24.502037 C44.0056085,24.6863228 45.3775132,25.0294885 45.3775132,26.2660229 C45.3775132,27.2193034 44.4515344,28.1813051 42.3838183,28.1813051 C40.8826102,28.1813051 39.8606966,27.608351 39.3465168,26.4776102 L39.3324868,26.4468959 C39.1895326,26.1261023 39.0545414,25.8231305 38.6761111,25.8231305 C38.5214021,25.8231305 38.3617637,25.8784921 38.2381481,25.9751852 C38.1016402,26.0821164 38.0265608,26.2269665 38.0265608,26.3839506 C38.0265608,26.9644885 38.5119224,27.7782275 39.1811905,28.3181922 C39.5107055,28.5858995 39.8610758,28.7751146 40.2842504,28.9142769 C40.8382451,29.0966667 41.4968959,29.1853968 42.2985009,29.1853968 C44.0010582,29.1853968 45.2466931,28.7713228 46.0005203,27.9556878 C46.6686508,27.2321958 46.7410758,26.4093563 46.7410758,26.0889418 C46.7410758,25.1079806 46.305388,24.3863845 45.4093651,23.8828219"
        id="Fill-8"
      ></path>
      <path
        d="M76.431552,19.5957143 C75.9518783,19.1012522 75.0505467,18.5116138 73.483739,18.5116138 C71.4209524,18.5116138 70.5598148,19.4940917 69.9356702,20.2236508 L69.9356702,19.4637566 C69.9364286,19.1706437 69.9368078,18.8384744 69.7472134,18.6488801 C69.7271164,18.6287831 69.6971605,18.6200617 69.67403,18.6041358 C69.666067,18.5988272 69.6573457,18.5938977 69.6490035,18.5889683 C69.5526896,18.5305732 69.438933,18.4918959 69.2861199,18.4918959 C68.6149559,18.4918959 68.6149559,19.0773633 68.6149559,19.504709 L68.6149559,28.1722046 C68.6149559,28.647328 68.6149559,29.1853968 69.2861199,29.1853968 C69.438933,29.1853968 69.5526896,29.1467196 69.6490035,29.0883245 C69.6573457,29.0833951 69.666067,29.0784656 69.67403,29.073157 C69.6971605,29.0568519 69.7271164,29.0485097 69.7472134,29.0284127 C69.9368078,28.8388183 69.9364286,28.506649 69.9356702,28.213157 L69.9356702,24.5168254 C69.9356702,22.8662169 69.9910317,22.0210053 70.3182716,21.3767637 C70.594321,20.8398325 71.0406261,20.3832892 71.6086508,20.0571869 C72.1505115,19.7454938 72.778448,19.5741005 73.3771869,19.5741005 C74.2652469,19.5741005 75.0585097,19.9328131 75.4998854,20.533448 C75.8908289,21.0544533 75.9450529,21.8393739 75.9450529,22.6102646 L75.9450529,28.213157 C75.9446737,28.506649 75.9439153,28.8388183 76.1338889,29.0284127 C76.1536067,29.0485097 76.1835626,29.0568519 76.2066931,29.073157 C76.2146561,29.0784656 76.2233774,29.0833951 76.2317196,29.0883245 C76.3280335,29.1467196 76.4417901,29.1853968 76.5946032,29.1853968 C77.2661464,29.1853968 77.2661464,28.6234392 77.2661464,28.1722046 L77.2661464,22.2955379 C77.2661464,21.7483686 77.2661464,20.4659524 76.431552,19.5957143"
        id="Fill-9"
      ></path>
      <path
        d="M61.457769,14.4341975 L61.457769,15.8910406 C63.8895062,16.7328395 65.643254,19.0398236 65.643254,21.7540564 C65.643254,25.1773721 62.8584921,27.962134 59.4351764,27.962134 C56.0122399,27.962134 53.2270988,25.1773721 53.2270988,21.7540564 C53.2270988,19.0925309 54.9144885,16.8230864 57.2730423,15.942231 L57.2730423,14.4702205 C54.1322222,15.4041623 51.8335802,18.3140564 51.8335802,21.7540564 C51.8335802,25.9459877 55.2436243,29.3556526 59.4351764,29.3556526 C63.6271076,29.3556526 67.0371517,25.9459877 67.0371517,21.7540564 C67.0371517,18.2636243 64.6694974,15.3230159 61.457769,14.4341975"
        id="Fill-10"
      ></path>
      <path
        d="M116.760926,16.0298236 C114.227945,14.9047707 112.716499,14.4687037 111.216429,14.4687037 C109.642037,14.4687037 108.633774,15.0321781 108.633774,15.903933 C108.633774,18.5336067 117.554568,17.7930511 117.554568,23.8759965 C117.554568,27.2295414 114.740229,29.1781922 110.830794,29.1781922 C107.763157,29.1781922 106.253986,28.3845503 104.514268,27.4862522 L104.514268,23.724321 C107.02336,25.3866843 108.558316,25.9740476 110.493316,25.9740476 C112.171984,25.9740476 113.077108,25.3866843 113.077108,24.363254 C113.077108,21.4996208 104.156314,22.5480776 104.156314,16.2853968 C104.156314,13.2651587 106.766649,11.2660758 110.830794,11.2660758 C112.791958,11.2660758 114.561631,11.6771164 116.760926,12.6231922 L116.760926,16.0298236"
        id="Fill-11"
      ></path>
      <path
        d="M129.250644,28.3784832 C127.764224,28.9180688 126.506834,29.1755379 125.252099,29.1755379 C121.097328,29.1755379 118.411534,26.7555556 118.411534,23.0740123 C118.411534,19.4603439 121.201226,16.9068871 125.097769,16.9068871 C126.301314,16.9068871 127.839683,17.2155467 129.07015,17.6736067 L129.07015,20.4401675 C128.096393,19.922575 126.968307,19.6389418 126.045362,19.6389418 C123.815732,19.6389418 122.380503,20.9793739 122.380503,23.0463316 C122.380503,25.1443827 123.791464,26.5250088 125.916437,26.5250088 C126.81284,26.5250088 127.609894,26.318351 129.250644,25.7044444 L129.250644,28.3784832"
        id="Fill-12"
      ></path>
      <path
        d="M161.641702,21.7184127 C161.794515,20.0761464 162.747416,19.1266578 164.207672,19.1266578 C165.644418,19.1266578 166.617416,20.1030688 166.770988,21.7184127 L161.641702,21.7184127 Z M163.95172,16.9102998 C160.306199,16.9102998 157.711032,19.4857496 157.711032,23.1085185 C157.711032,26.7582099 160.410476,29.1755379 164.569039,29.1755379 C165.490088,29.1755379 167.718959,29.1755379 169.842037,27.6038007 L169.842037,25.2945414 C168.102319,26.5325926 166.95224,26.9595591 165.467716,26.9595591 C163.124709,26.9595591 161.692134,25.7465344 161.562831,23.67806 L170.050212,23.67806 C170.226914,19.357963 167.390961,16.9102998 163.95172,16.9102998 L163.95172,16.9102998 Z"
        id="Fill-13"
      ></path>
      <polygon
        id="Fill-14"
        points="171.486578 28.9601587 175.198457 28.9601587 175.198457 17.1287125 171.486578 17.1287125"
      ></polygon>
      <path
        d="M185.52642,25.7260582 C184.753633,26.4214903 184.111287,26.7005732 183.317646,26.7005732 C181.570344,26.7005732 180.465009,25.2630688 180.465009,23.107381 C180.465009,20.7450353 181.570344,19.3837478 183.440882,19.3837478 C184.111287,19.3837478 184.985317,19.691649 185.52642,20.0780423 L185.52642,25.7260582 Z M185.52642,11.4837302 L185.52642,17.6482011 C184.523845,17.1624603 183.525062,16.9076455 182.443616,16.9076455 C179.058977,16.9076455 176.716349,19.4087743 176.716349,23.0300265 C176.716349,26.5724074 179.058977,29.1785714 182.234683,29.1785714 C183.493968,29.1785714 184.467725,28.8479189 185.52642,28.0034656 L185.52642,28.9563668 L189.23716,28.9563668 L189.23716,11.4837302 L185.52642,11.4837302 L185.52642,11.4837302 Z"
        id="Fill-15"
      ></path>
      <path
        d="M194.730847,21.7184127 C194.885176,20.0761464 195.833148,19.1266578 197.292646,19.1266578 C198.730529,19.1266578 199.712628,20.1030688 199.866958,21.7184127 L194.730847,21.7184127 Z M197.038589,16.9102998 C193.393827,16.9102998 190.802831,19.4857496 190.802831,23.1085185 C190.802831,26.7582099 193.501896,29.1755379 197.656667,29.1755379 C198.576958,29.1755379 200.808862,29.1755379 202.936869,27.6038007 L202.936869,25.2945414 C201.196393,26.5325926 200.044039,26.9595591 198.55269,26.9595591 C196.221437,26.9595591 194.782795,25.7465344 194.653871,23.67806 L203.138219,23.67806 C203.314541,19.357963 200.475935,16.9102998 197.038589,16.9102998 L197.038589,16.9102998 Z"
        id="Fill-16"
      ></path>
      <path
        d="M208.694471,20.5163845 L208.749074,20.5163845 C209.850238,18.053933 211.08336,16.8996825 212.515176,16.8996825 C213.256869,16.8996825 213.89694,17.1821781 214.973078,17.9792328 L213.952302,21.258836 C212.976649,20.6441711 212.336578,20.3874603 211.747698,20.3874603 C210.386411,20.3874603 209.515035,21.6706349 208.694471,23.8399735 L208.694471,28.9442328 L204.977663,28.9442328 L204.977663,17.1169577 L208.694471,17.1169577 L208.694471,20.5163845"
        id="Fill-17"
      ></path>
      <path
        d="M175.371746,12.1522399 C175.7206,13.0713933 175.093422,14.3530511 173.975194,15.0124603 C172.852795,15.6718695 171.666693,15.4629365 171.320115,14.5434039 C170.968986,13.6223545 171.592751,12.3391799 172.714392,11.6831834 C173.833377,11.0203616 175.020238,11.2311905 175.371746,12.1522399"
        id="Fill-18"
      ></path>
      <path
        d="M142.618563,21.4298501 C142.618563,18.2241887 140.440123,16.9102998 138.289365,16.9102998 C136.827213,16.9102998 135.625185,17.5279982 134.549806,18.8892857 L134.498616,18.8892857 L134.498616,11.483351 L130.784462,11.483351 L130.784462,28.9256526 L134.498616,28.9256526 L134.498616,21.4298501 C135.367716,20.1724603 136.110926,19.6347707 136.980785,19.6347707 C138.135794,19.6347707 138.90403,20.4560935 138.90403,22.2234921 L138.90403,26.3797795 C140.149665,25.739709 141.416534,25.3464903 142.618563,25.2005026 L142.618563,21.4298501"
        id="Fill-19"
      ></path>
      <path
        d="M151.937125,16.9072663 C150.423783,16.9072663 149.268774,17.469224 148.086085,18.8214109 L148.086085,17.1287125 L144.37269,17.1287125 L144.37269,25.1686508 C145.659277,25.2971958 147.300785,25.8868342 148.086085,26.8617284 L148.086085,21.3369489 C149.062496,19.8717637 149.755273,19.3833686 150.678977,19.3833686 C151.730847,19.3833686 152.530176,20.0780423 152.530176,21.7457143 L152.530176,28.9290653 L156.24433,28.9290653 L156.24433,21.4393298 C156.24433,17.9549647 153.783395,16.9072663 151.937125,16.9072663"
        id="Fill-20"
      ></path>
      <polyline
        id="Fill-21"
        points="158.29612 32.3265961 153.980194 32.3265961 153.980194 35.3930952 158.144065 35.3930952 158.144065 36.7092593 153.980194 36.7092593 153.980194 39.8724515 158.425044 39.8724515 158.425044 41.1867196 152.53321 41.1867196 152.53321 31.0138448 158.29612 31.0138448 158.29612 32.3265961"
      ></polyline>
      <polygon
        id="Fill-22"
        points="161.821058 41.1924074 163.14291 41.1924074 163.14291 31.0100529 161.821058 31.0100529"
      ></polygon>
      <path
        d="M169.687707,35.4897884 C170.625441,35.4897884 171.205979,36.1355467 171.249586,37.1498765 L167.882769,37.1498765 C168.06478,36.0904233 168.675273,35.4897884 169.687707,35.4897884 M167.858122,38.0322487 L172.568404,38.0322487 C172.568404,35.5500794 171.43425,34.3522222 169.657372,34.3522222 C167.814515,34.3522222 166.535511,35.7146473 166.535511,37.7459612 C166.535511,39.6032275 167.691279,41.3186772 169.772646,41.3186772 C170.90642,41.3186772 171.640529,41.0661376 172.452372,40.5269312 L172.452372,39.2399647 C171.667451,39.7541446 170.90642,40.050291 170.105573,40.050291 C168.825432,40.050291 168.06478,39.3632011 167.858122,38.0322487"
        id="Fill-23"
      ></path>
      <path
        d="M181.201014,36.2413404 C180.440362,35.7203351 179.933007,35.5679012 179.353986,35.5679012 C178.143616,35.5679012 177.305608,36.4961552 177.305608,37.8559259 C177.305608,39.2399647 178.19746,40.0745591 179.575432,40.0745591 C180.141561,40.0745591 180.681905,39.9278131 181.348898,39.6293915 L181.348898,40.9326631 C180.903351,41.1434921 180.054347,41.3179189 179.353986,41.3179189 C177.352628,41.3179189 175.962522,39.9414638 175.962522,37.9734744 C175.962522,35.7540829 177.231667,34.3522222 179.26336,34.3522222 C180.03918,34.3522222 180.560944,34.532716 181.201014,34.8136949 L181.201014,36.2413404"
        id="Fill-24"
      ></path>
      <path
        d="M187.224048,34.4800088 L189.345229,34.4800088 L189.345229,35.6710406 L187.224048,35.6710406 L187.224048,39.1144533 C187.224048,39.9027866 187.794347,40.1302998 188.179982,40.1302998 C188.658139,40.1302998 189.151464,39.9623192 189.687637,39.6320459 L189.687637,40.8723721 C189.222751,41.1275661 188.510635,41.3179189 188.07343,41.3179189 C186.634409,41.3179189 185.907125,40.4245503 185.907125,39.2141799 L185.907125,35.6710406 L184.739982,35.6710406 L184.739982,35.5235362 L187.224048,33.0933157 L187.224048,34.4800088"
        id="Fill-25"
      ></path>
      <path
        d="M194.400952,34.4800088 L194.400952,36.0324074 L194.427875,36.0324074 C195.102451,34.84403 195.74328,34.3514638 196.367425,34.3514638 C196.904735,34.3514638 197.409815,34.6040035 197.96343,35.1284215 L197.263069,36.2932892 C196.86037,35.8958995 196.339744,35.6206085 196.025018,35.6206085 C195.115723,35.6206085 194.400952,36.5458289 194.400952,37.6924956 L194.400952,41.1931658 L193.080617,41.1931658 L193.080617,34.4800088 L194.400952,34.4800088"
        id="Fill-26"
      ></path>
      <path
        d="M211.509568,36.2413404 C210.745503,35.7203351 210.238907,35.5679012 209.655714,35.5679012 C208.448757,35.5679012 207.617575,36.4961552 207.617575,37.8559259 C207.617575,39.2399647 208.510944,40.0745591 209.879815,40.0745591 C210.44746,40.0745591 210.983633,39.9278131 211.659727,39.6293915 L211.659727,40.9326631 C211.205079,41.1434921 210.354559,41.3179189 209.655714,41.3179189 C207.657769,41.3179189 206.261975,39.9414638 206.261975,37.9734744 C206.261975,35.7540829 207.536808,34.3522222 209.568501,34.3522222 C210.346217,34.3522222 210.861914,34.532716 211.509568,34.8136949 L211.509568,36.2413404"
        id="Fill-27"
      ></path>
      <polygon
        id="Fill-28"
        points="201.466755 41.1924074 202.788986 41.1924074 202.788986 34.4796296 201.466755 34.4796296"
      ></polygon>
      <path
        d="M202.83373,32.0683686 C202.963034,32.3929541 202.737037,32.8498765 202.340406,33.0842152 C201.939603,33.3181746 201.516049,33.242716 201.395088,32.9181305 C201.274506,32.5908907 201.493298,32.1362434 201.894859,31.902284 C202.291869,31.6656702 202.712769,31.7411287 202.83373,32.0683686"
        id="Fill-29"
      ></path>
      <path
        d="M143.662469,32.6109877 C143.429268,32.6109877 143.331058,32.6489065 143.235503,32.7554586 C143.198721,32.7975485 143.183554,32.8392593 143.169903,32.92306 L141.984938,37.4194797 C141.706235,38.995388 139.769339,40.5705379 137.2447,40.5705379 L133.734929,40.5705379 L134.343907,38.2597619 L136.598942,38.2597619 C136.829489,38.2597619 137.008845,38.1752028 137.159762,38.0072222 C137.214365,37.9420018 137.287549,37.8396208 137.296649,37.7345855 L138.232866,33.8065697 C138.508915,32.2287654 140.17545,30.4863933 142.69933,30.4863933 L146.292901,30.4863933 L145.833325,32.6109877 L143.662469,32.6109877 Z M144.472795,35.3506261 L144.873598,33.8964374 L148.525185,33.8964374 C148.975661,31.7873898 148.620741,29.8330511 147.3406,28.5529101 C144.750362,25.9634303 139.330617,26.8435273 135.292637,30.7063228 C134.662804,31.3058201 134.130044,31.9542328 133.644303,32.6170547 L135.84284,32.6170547 L135.332072,34.0750353 L132.705811,34.0750353 C132.455168,34.534612 132.219312,34.9900176 132.038818,35.4530071 L135.153474,35.4530071 L134.65522,36.9109877 L131.594409,36.9109877 C131.071129,39.1372046 131.404815,41.2147795 132.720979,42.5335979 C135.280123,45.0912257 140.682804,44.1917901 144.71851,40.3301323 C145.424938,39.6582099 146.007751,38.9332011 146.534444,38.1884744 L143.710247,38.1884744 L144.140626,36.7339065 L147.442981,36.7339065 C147.684524,36.2709171 147.907866,35.8136155 148.081155,35.3506261 L144.472795,35.3506261 L144.472795,35.3506261 Z"
        id="Fill-30"
      ></path>
      <polygon
        id="Fill-31"
        points="90.3621869 44.4617725 91.1254938 44.4617725 91.1254938 0 90.3621869 0"
      ></polygon>
    </g>
  </g>
</svg>
