<svg width="132" height="22" viewBox="0 0 132 22" fill="#0B0C0F" xmlns="http://www.w3.org/2000/svg">
  <path
    d="M38.7305 1.384C41.9695 1.384 44.0273 3.1212 44.1127 5.9194H41.312C41.2451 4.585 40.2608 3.8009 38.6859 3.8009C36.9587 3.8009 35.8406 4.6066 35.8406 5.8978C35.8406 6.9984 36.4535 7.6134 37.787 7.9119L40.3054 8.4406C43.0392 9.0125 44.3764 10.3684 44.3764 12.6775C44.3764 15.5584 42.0549 17.4251 38.5336 17.4251C35.0123 17.4251 32.8877 15.6663 32.8208 12.8897H35.6215C35.6438 14.2024 36.7358 14.9865 38.5299 14.9865C40.324 14.9865 41.572 14.2025 41.572 12.9113C41.572 11.8718 41.026 11.2568 39.7111 10.9834L37.1741 10.4332C34.4589 9.8613 33.04 8.3579 33.04 5.9841C33.04 3.2722 35.3615 1.3876 38.7305 1.3876V1.384Z"
  />
  <path
    d="M45.8843 11.915C45.8843 8.6312 48.0944 6.3618 51.2665 6.3618C54.4387 6.3618 56.5633 8.4586 56.5633 11.7244V12.5084L48.4213 12.53C48.6182 14.3751 49.6248 15.3066 51.3966 15.3066C52.8638 15.3066 53.8258 14.7563 54.1304 13.7601H56.6042C56.1436 16.0475 54.175 17.4251 51.352 17.4251C48.1353 17.4251 45.8806 15.1592 45.8806 11.915H45.8843ZM48.4882 10.8756H53.9149C53.9149 9.4333 52.886 8.4802 51.2888 8.4802C49.6916 8.4802 48.7519 9.3074 48.4882 10.8756Z"
  />
  <path
    d="M63.1305 6.3654C64.7723 6.3654 66.195 7.0631 66.8524 8.2716L67.027 6.6819H69.4785V22H66.8301V15.749C66.1504 16.81 64.7278 17.4215 63.1305 17.4215C59.9138 17.4215 58.0752 15.0477 58.0752 11.7855C58.0752 8.5233 60.0884 6.3618 63.1305 6.3618V6.3654ZM63.7434 15.0944C65.6044 15.0944 66.8078 13.8032 66.8078 11.915C66.8078 10.0267 65.6044 8.714 63.7434 8.714C61.8825 8.714 60.7459 10.0483 60.7459 11.915C60.7459 13.7817 61.8825 15.0944 63.7434 15.0944Z"
  />
  <path
    d="M82.2563 6.6818V17.1481H79.7825L79.5856 15.749C78.9281 16.7453 77.5278 17.4214 76.0829 17.4214C73.5868 17.4214 72.1233 15.7885 72.1233 13.2241V6.6782H74.794V12.3142C74.794 14.3067 75.6037 15.1124 77.0932 15.1124C78.7796 15.1124 79.5893 14.1593 79.5893 12.1667V6.6782H82.26L82.2563 6.6818Z"
  />
  <path
    d="M84.1617 11.915C84.1617 8.6312 86.3718 6.3618 89.5439 6.3618C92.716 6.3618 94.841 8.4586 94.841 11.7244V12.5084L86.6986 12.53C86.8955 14.3751 87.9021 15.3066 89.6739 15.3066C91.1411 15.3066 92.1031 14.7563 92.4077 13.7601H94.882C94.421 16.0475 92.4523 17.4251 89.6293 17.4251C86.4126 17.4251 84.158 15.1592 84.158 11.915H84.1617ZM86.7655 10.8756H92.1923C92.1923 9.4333 91.1634 8.4802 89.5662 8.4802C87.969 8.4802 87.0292 9.3074 86.7655 10.8756Z"
  />
  <path
    d="M96.988 17.1481V6.6819H99.462L99.681 8.0378C100.361 6.9768 101.672 6.3654 103.139 6.3654C105.854 6.3654 107.254 7.9982 107.254 10.7101V17.1517H104.584V11.3251C104.584 9.5664 103.685 8.7176 102.307 8.7176C100.665 8.7176 99.658 9.8181 99.658 11.5158V17.1517H96.988V17.1481Z"
  />
  <path
    d="M114.65 6.3654C117.603 6.3654 119.616 7.9551 119.902 10.4763H117.231C116.923 9.2894 116.028 8.6744 114.758 8.6744C113.049 8.6744 111.912 9.926 111.912 11.8934C111.912 13.8608 112.964 15.0944 114.668 15.0944C116.002 15.0944 116.945 14.4578 117.228 13.3141H119.921C119.594 15.7526 117.491 17.4251 114.668 17.4251C111.385 17.4251 109.242 15.2203 109.242 11.8934C109.242 8.5665 111.452 6.3618 114.646 6.3618L114.65 6.3654Z"
  />
  <path
    d="M121.28 11.915C121.28 8.6312 123.49 6.3618 126.662 6.3618C129.834 6.3618 131.959 8.4586 131.959 11.7244V12.5084L123.817 12.53C124.014 14.3751 125.021 15.3066 126.792 15.3066C128.26 15.3066 129.222 14.7563 129.526 13.7601H132C131.539 16.0475 129.571 17.4251 126.748 17.4251C123.531 17.4251 121.276 15.1592 121.276 11.915H121.28ZM123.884 10.8756H129.311C129.311 9.4333 128.282 8.4802 126.685 8.4802C125.087 8.4802 124.148 9.3074 123.884 10.8756Z"
  />
  <path
    d="M11.9716 3.8621C12.5511 3.0025 13.2123 2.2832 14.022 1.6933C15.4038 0.682597 16.9527 0.103597 18.6836 0.0316969C19.6048 -0.00791311 20.5297 0.0244967 21.4732 0.0244967V2.9989C21.1203 2.9989 20.7674 2.9989 20.4108 2.9989C19.5862 3.0061 18.7542 2.9557 17.9407 3.15C16.2544 3.5528 15.0546 4.5311 14.2672 6.0273C15.1958 7.0523 16.3212 7.7537 17.7327 7.9011C18.6205 7.9946 19.5194 7.9551 20.4145 7.9695C20.76 7.9767 21.1054 7.9695 21.4732 7.9695V10.9799C21.2132 10.9799 20.968 10.9799 20.7191 10.9799C19.7459 10.9655 18.7728 10.9871 17.8033 10.9295C16.0204 10.8216 14.4492 10.1706 13.0711 9.0808C12.9894 9.0161 12.9114 8.955 12.8037 8.8758C12.2056 10.0304 11.6225 11.1597 11.0245 12.3178C11.8899 13.1343 12.7257 13.9867 13.6357 14.76C14.6535 15.6232 15.8978 15.9468 17.2424 15.9433C18.535 15.9397 19.824 15.9433 21.1166 15.9433C21.2317 15.9433 21.4769 15.9433 21.4769 15.9433V18.9357C21.4769 18.9357 18.301 18.9537 16.8153 18.9285C14.6423 18.8925 12.7665 18.1228 11.1842 16.695C10.6233 16.1878 10.107 15.6339 9.5907 15.1232C9.1078 15.6591 8.6918 16.1878 8.2089 16.6446C6.842 17.9322 5.1965 18.7055 3.291 18.8673C2.24723 18.9572 0.026 18.9321 0.026 18.9321V15.9433C0.026 15.9433 0.26001 15.9433 0.37144 15.9433C1.17005 15.9325 1.97608 15.972 2.76726 15.9037C4.7656 15.7382 6.218 14.7492 7.1577 13.0479C7.1949 12.9796 7.1614 12.8285 7.1057 12.771C5.9765 11.6093 4.6059 10.9727 2.93812 10.9835C2.08009 10.9871 1.22205 10.9835 0.36401 10.9835C0.26001 10.9835 0.026 10.9835 0.026 10.9835V7.9767C0.026 7.9767 2.58896 7.9515 3.8259 8.0306C5.6088 8.1421 7.1689 8.8291 8.5321 9.9404C8.5766 9.9764 8.6212 10.0124 8.6844 10.0591C8.7252 10.0016 9.9547 7.6709 10.4747 6.6459C10.4747 6.6459 10.4636 6.6351 10.3559 6.5272C9.6241 5.8115 8.9035 5.085 8.142 4.398C7.0834 3.4377 5.7982 3.0061 4.3533 3.0025C3.0236 2.9989 1.69378 3.0025 0.36401 3.0025C0.26001 3.0025 0.12629 3.0025 0 3.0025V0.00289688C0 0.00289688 3.369 -0.015113 4.9365 0.038797C7.0314 0.110797 8.8329 0.901997 10.3559 2.2868C10.9019 2.7831 11.4108 3.319 11.9716 3.8693V3.8621Z"
  />
</svg>
