<svg viewBox="0 0 146 39" fill="#0B0C0F" xmlns="http://www.w3.org/2000/svg">
  <path
    d="M45.7305 11.384C48.9695 11.384 51.0273 13.1212 51.1127 15.9194H48.312C48.2451 14.585 47.2608 13.8009 45.6859 13.8009C43.9587 13.8009 42.8406 14.6066 42.8406 15.8978C42.8406 16.9984 43.4535 17.6134 44.787 17.9119L47.3054 18.4406C50.0392 19.0125 51.3764 20.3684 51.3764 22.6775C51.3764 25.5584 49.0549 27.4251 45.5336 27.4251C42.0123 27.4251 39.8877 25.6663 39.8208 22.8897H42.6215C42.6438 24.2024 43.7358 24.9865 45.5299 24.9865C47.324 24.9865 48.572 24.2025 48.572 22.9113C48.572 21.8718 48.026 21.2568 46.7111 20.9834L44.1741 20.4332C41.4589 19.8613 40.04 18.3579 40.04 15.9841C40.04 13.2722 42.3615 11.3876 45.7305 11.3876V11.384Z"
  />
  <path
    d="M52.8843 21.915C52.8843 18.6312 55.0944 16.3618 58.2665 16.3618C61.4387 16.3618 63.5633 18.4586 63.5633 21.7244V22.5084L55.4213 22.53C55.6182 24.3751 56.6248 25.3066 58.3966 25.3066C59.8638 25.3066 60.8258 24.7563 61.1304 23.7601H63.6042C63.1436 26.0475 61.175 27.4251 58.352 27.4251C55.1353 27.4251 52.8806 25.1592 52.8806 21.915H52.8843ZM55.4882 20.8756H60.9149C60.9149 19.4333 59.886 18.4802 58.2888 18.4802C56.6916 18.4802 55.7519 19.3074 55.4882 20.8756Z"
  />
  <path
    d="M70.1305 16.3654C71.7723 16.3654 73.195 17.0631 73.8524 18.2716L74.027 16.6819H76.4785V32H73.8301V25.749C73.1504 26.81 71.7278 27.4215 70.1305 27.4215C66.9138 27.4215 65.0752 25.0477 65.0752 21.7855C65.0752 18.5233 67.0884 16.3618 70.1305 16.3618V16.3654ZM70.7434 25.0944C72.6044 25.0944 73.8078 23.8032 73.8078 21.915C73.8078 20.0267 72.6044 18.714 70.7434 18.714C68.8825 18.714 67.7459 20.0483 67.7459 21.915C67.7459 23.7817 68.8825 25.0944 70.7434 25.0944Z"
  />
  <path
    d="M89.2563 16.6818V27.1481H86.7825L86.5856 25.749C85.9281 26.7453 84.5278 27.4214 83.0829 27.4214C80.5868 27.4214 79.1233 25.7885 79.1233 23.2241V16.6782H81.794V22.3142C81.794 24.3067 82.6037 25.1124 84.0932 25.1124C85.7796 25.1124 86.5893 24.1593 86.5893 22.1667V16.6782H89.26L89.2563 16.6818Z"
  />
  <path
    d="M91.1617 21.915C91.1617 18.6312 93.3718 16.3618 96.5439 16.3618C99.716 16.3618 101.841 18.4586 101.841 21.7244V22.5084L93.6986 22.53C93.8955 24.3751 94.9021 25.3066 96.6739 25.3066C98.1411 25.3066 99.1031 24.7563 99.4077 23.7601H101.882C101.421 26.0475 99.4523 27.4251 96.6293 27.4251C93.4126 27.4251 91.158 25.1592 91.158 21.915H91.1617ZM93.7655 20.8756H99.1923C99.1923 19.4333 98.1634 18.4802 96.5662 18.4802C94.969 18.4802 94.0292 19.3074 93.7655 20.8756Z"
  />
  <path
    d="M103.988 27.1481V16.6819H106.462L106.681 18.0378C107.361 16.9768 108.672 16.3654 110.139 16.3654C112.854 16.3654 114.254 17.9982 114.254 20.7101V27.1517H111.584V21.3251C111.584 19.5664 110.685 18.7176 109.307 18.7176C107.665 18.7176 106.658 19.8181 106.658 21.5158V27.1517H103.988V27.1481Z"
  />
  <path
    d="M121.65 16.3654C124.603 16.3654 126.616 17.9551 126.902 20.4763H124.231C123.923 19.2894 123.028 18.6744 121.758 18.6744C120.049 18.6744 118.912 19.926 118.912 21.8934C118.912 23.8608 119.964 25.0944 121.668 25.0944C123.002 25.0944 123.945 24.4578 124.228 23.3141H126.921C126.594 25.7526 124.491 27.4251 121.668 27.4251C118.385 27.4251 116.242 25.2203 116.242 21.8934C116.242 18.5665 118.452 16.3618 121.646 16.3618L121.65 16.3654Z"
  />
  <path
    d="M128.28 21.915C128.28 18.6312 130.49 16.3618 133.662 16.3618C136.834 16.3618 138.959 18.4586 138.959 21.7244V22.5084L130.817 22.53C131.014 24.3751 132.021 25.3066 133.792 25.3066C135.26 25.3066 136.222 24.7563 136.526 23.7601H139C138.539 26.0475 136.571 27.4251 133.748 27.4251C130.531 27.4251 128.276 25.1592 128.276 21.915H128.28ZM130.884 20.8756H136.311C136.311 19.4333 135.282 18.4802 133.685 18.4802C132.087 18.4802 131.148 19.3074 130.884 20.8756Z"
  />
  <path
    d="M18.9716 13.8621C19.5511 13.0025 20.2123 12.2832 21.022 11.6933C22.4038 10.6826 23.9527 10.1036 25.6836 10.0317C26.6048 9.99209 27.5297 10.0245 28.4732 10.0245V12.9989C28.1203 12.9989 27.7674 12.9989 27.4108 12.9989C26.5862 13.0061 25.7542 12.9557 24.9407 13.15C23.2544 13.5528 22.0546 14.5311 21.2672 16.0273C22.1958 17.0523 23.3212 17.7537 24.7327 17.9011C25.6205 17.9946 26.5194 17.9551 27.4145 17.9695C27.76 17.9767 28.1054 17.9695 28.4732 17.9695V20.9799C28.2132 20.9799 27.968 20.9799 27.7191 20.9799C26.7459 20.9655 25.7728 20.9871 24.8033 20.9295C23.0204 20.8216 21.4492 20.1706 20.0711 19.0808C19.9894 19.0161 19.9114 18.955 19.8037 18.8758C19.2056 20.0304 18.6225 21.1597 18.0245 22.3178C18.8899 23.1343 19.7257 23.9867 20.6357 24.76C21.6535 25.6232 22.8978 25.9468 24.2424 25.9433C25.535 25.9397 26.824 25.9433 28.1166 25.9433C28.2317 25.9433 28.4769 25.9433 28.4769 25.9433V28.9357C28.4769 28.9357 25.301 28.9537 23.8153 28.9285C21.6423 28.8925 19.7665 28.1228 18.1842 26.695C17.6233 26.1878 17.107 25.6339 16.5907 25.1232C16.1078 25.6591 15.6918 26.1878 15.2089 26.6446C13.842 27.9322 12.1965 28.7055 10.291 28.8673C9.24723 28.9572 7.026 28.9321 7.026 28.9321V25.9433C7.026 25.9433 7.26001 25.9433 7.37144 25.9433C8.17005 25.9325 8.97608 25.972 9.76726 25.9037C11.7656 25.7382 13.218 24.7492 14.1577 23.0479C14.1949 22.9796 14.1614 22.8285 14.1057 22.771C12.9765 21.6093 11.6059 20.9727 9.93812 20.9835C9.08009 20.9871 8.22205 20.9835 7.36401 20.9835C7.26001 20.9835 7.026 20.9835 7.026 20.9835V17.9767C7.026 17.9767 9.58896 17.9515 10.8259 18.0306C12.6088 18.1421 14.1689 18.8291 15.5321 19.9404C15.5766 19.9764 15.6212 20.0124 15.6844 20.0591C15.7252 20.0016 16.9547 17.6709 17.4747 16.6459C17.4747 16.6459 17.4636 16.6351 17.3559 16.5272C16.6241 15.8115 15.9035 15.085 15.142 14.398C14.0834 13.4377 12.7982 13.0061 11.3533 13.0025C10.0236 12.9989 8.69378 13.0025 7.36401 13.0025C7.26001 13.0025 7.12629 13.0025 7 13.0025V10.0029C7 10.0029 10.369 9.98489 11.9365 10.0388C14.0314 10.1108 15.8329 10.902 17.3559 12.2868C17.9019 12.7831 18.4108 13.319 18.9716 13.8693V13.8621Z"
  />
</svg>
