<svg viewBox="0 0 238 56" fill="none" xmlns="http://www.w3.org/2000/svg">
  <path
    fill-rule="evenodd"
    clip-rule="evenodd"
    d="M3.5 19.6747C3.5 28.3098 10.5264 35.3275 19.1529 35.3275C27.7794 35.3275 34.8058 28.3098 34.8058 19.6747C34.8058 11.0395 27.7794 4.02176 19.1529 4.02176C10.5264 4.02176 3.5 11.0395 3.5 19.6747ZM8.71763 19.6747C8.71763 13.9179 13.3961 9.2394 19.1529 9.2394C24.9097 9.2394 29.5882 13.9179 29.5882 19.6747C29.5882 25.4314 24.9097 30.1099 19.1529 30.1099C13.3961 30.1099 8.71763 25.4314 8.71763 19.6747ZM34.0405 39.7799L23.6053 50.2152C23.1009 50.7283 22.4313 50.9804 21.7617 50.9804C21.0921 50.9804 20.4312 50.7283 19.9181 50.2152C18.9007 49.1978 18.9007 47.5455 19.9181 46.5281L30.3534 36.0928C31.3709 35.0754 33.0231 35.0754 34.0405 36.0928C35.058 37.1102 35.058 38.7625 34.0405 39.7799ZM34.284 6.63058C34.284 4.90876 35.6928 3.5 37.4146 3.5C39.1364 3.5 40.5452 4.90876 40.5452 6.63058C40.5452 8.3524 39.1364 9.76116 37.4146 9.76116C35.6928 9.76116 34.284 8.3524 34.284 6.63058ZM68.1509 17.435V38.1822H62.8553V17.435H56V12.4296H75.0787V17.435H68.1509ZM82.8771 29.332V38.1822H77.9079V10.9787H82.8771V22.114C83.8201 20.6632 85.7062 19.6476 88.0639 19.6476C92.4527 19.6476 95.0642 22.8395 95.0642 27.5547V38.1822H90.0951V28.389C90.0951 25.7774 88.9707 24.1815 86.9032 24.1815C84.6181 24.1815 82.8771 25.85 82.8771 29.332ZM117.262 32.27C116.174 35.9334 112.583 38.5812 107.977 38.5812C102.427 38.5812 98.4737 34.5914 98.4737 29.0781C98.4737 23.6737 102.5 19.6476 108.013 19.6476C113.345 19.6476 117.734 23.4561 117.48 30.2751H103.334C103.552 32.4151 105.148 34.2649 108.231 34.2649C109.972 34.2649 111.495 33.5032 112.076 32.27H117.262ZM103.515 27.0107H112.039C111.423 24.5805 109.573 23.6737 107.868 23.6737C105.583 23.6737 103.987 25.0157 103.515 27.0107ZM154.622 22.7669C155.782 33.3581 149.58 38.6175 141.927 38.6175C134.056 38.6175 128.361 32.7778 128.361 25.3059C128.361 17.834 134.056 11.9943 141.854 11.9943C147.259 11.9943 152.264 15.1862 154.005 20.0466H147.984C146.715 18.1605 144.321 17.0723 141.854 17.0723C136.921 17.0723 133.657 20.6994 133.657 25.3059C133.657 29.9124 136.921 33.5395 141.927 33.5395C146.098 33.5395 148.601 31.2544 149.181 27.6998H141.31V22.7669H154.622ZM163.291 29.5134V38.1822H158.321V20.0466H163.291V22.9483C163.907 21.171 165.757 19.8289 167.788 19.8289C168.296 19.8289 168.84 19.8652 169.457 20.0466V25.0883C168.695 24.8344 168.006 24.6893 167.208 24.6893C164.85 24.6893 163.291 26.5391 163.291 29.5134ZM184.582 36.151C183.784 37.3117 181.862 38.5812 179.359 38.5812C174.535 38.5812 170.835 34.2649 170.835 29.1144C170.835 23.9639 174.535 19.6476 179.359 19.6476C181.862 19.6476 183.784 20.9171 184.582 22.0778V20.0466H189.551V38.1822H184.582V36.151ZM175.841 29.1144C175.841 31.9436 177.69 34.0473 180.411 34.0473C183.131 34.0473 184.981 31.9436 184.981 29.1144C184.981 26.2852 183.131 24.1815 180.411 24.1815C177.69 24.1815 175.841 26.2852 175.841 29.1144ZM199.344 36.151V45.7629H194.375V20.0466H199.344V22.0778C200.179 20.9171 202.101 19.6476 204.604 19.6476C209.428 19.6476 213.127 23.9639 213.127 29.1144C213.127 34.2649 209.428 38.5812 204.604 38.5812C202.101 38.5812 200.179 37.3117 199.344 36.151ZM198.945 29.1144C198.945 31.9436 200.795 34.0473 203.516 34.0473C206.236 34.0473 208.086 31.9436 208.086 29.1144C208.086 26.2852 206.236 24.1815 203.516 24.1815C200.795 24.1815 198.945 26.2852 198.945 29.1144ZM221.724 29.332V38.1822H216.755V10.9787H221.724V22.114C222.667 20.6632 224.553 19.6476 226.911 19.6476C231.299 19.6476 233.911 22.8395 233.911 27.5547V38.1822H228.942V28.389C228.942 25.7774 227.817 24.1815 225.75 24.1815C223.465 24.1815 221.724 25.85 221.724 29.332Z"
    fill="#0C0A1D"
  />
</svg>
