<?xml version="1.0" encoding="utf-8"?>
<!-- Generator: Adobe Illustrator 24.1.3, SVG Export Plug-In . SVG Version: 6.00 Build 0)  -->
<svg
  version="1.1"
  id="Warstwa_1"
  xmlns="http://www.w3.org/2000/svg"
  xmlns:xlink="http://www.w3.org/1999/xlink"
  x="0px"
  y="0px"
  viewBox="0 0 150.9 73.1"
  style="enable-background: new 0 0 150.9 73.1"
  xml:space="preserve"
>
  <style type="text/css">
    .st0 {
      fill-rule: evenodd;
      clip-rule: evenodd;
      fill: #8c0082;
    }
    .st1 {
      fill: #050713;
    }
    .st2 {
      fill: #6d7a99;
    }
  </style>
  <g id="GraphQL-Tools_x2F_-CLI">
    <g id="Libraries-Logos-_x2F_-CLI" transform="translate(6.000000, 20.000000)">
      <path
        id="Fill-2"
        class="st0"
        d="M33.2,44.4c0,0.3,0,0.5-0.1,0.7c0,0,0,0.1,0,0.1c-0.4,2.3-2.4,4-4.8,4c-2.1,0-4-1.4-4.6-3.3
			L3.5,34.2c-2-1.2-3.2-3.3-3.2-5.6V8.9C1,9.1,1.8,9.3,2.6,9.3c0.7,0,1.5-0.1,2.2-0.3v19.7c0,0.7,0.4,1.3,1,1.7l18.9,10.9
			c0.9-1,2.2-1.7,3.7-1.7c1.6,0,3,0.8,3.9,2c0,0,0,0,0,0.1c0.1,0.1,0.1,0.2,0.2,0.3c0,0,0,0.1,0.1,0.1c0,0.1,0.1,0.2,0.1,0.3
			c0,0,0,0.1,0.1,0.1c0,0.1,0.1,0.2,0.1,0.3c0,0.1,0,0.1,0.1,0.2c0,0.1,0.1,0.2,0.1,0.2c0,0.1,0,0.2,0.1,0.2c0,0.1,0,0.1,0,0.2
			c0,0.1,0,0.2,0,0.3c0,0.1,0,0.1,0,0.2C33.1,44.1,33.2,44.2,33.2,44.4L33.2,44.4z M58,1.8c0,1.5-0.6,2.8-1.7,3.7v23.1
			c0,2.3-1.2,4.5-3.2,5.6L35.7,44.3c0-1.6-0.6-3.2-1.5-4.4l16.6-9.6c0.6-0.3,1-1,1-1.7V6.5c-2-0.6-3.5-2.5-3.5-4.7
			c0-1.1,0.4-2.1,1-2.9c0,0,0,0,0,0c0.1-0.1,0.2-0.3,0.4-0.4l0,0c0.3-0.3,0.6-0.5,0.9-0.7c0,0,0.1,0,0.1-0.1
			c0.1-0.1,0.3-0.2,0.4-0.2c0,0,0.1,0,0.1-0.1c0.2-0.1,0.3-0.1,0.5-0.2c0,0,0,0,0,0c0.5-0.1,1-0.2,1.5-0.2C55.9-3.1,58-0.9,58,1.8
			L58,1.8z M0.2,6c-1.5-0.8-2.5-2.4-2.5-4.2c0-2.7,2.2-4.9,4.9-4.9c0.7,0,1.4,0.2,2,0.4l20.5-11.9c1-0.6,2.1-0.9,3.2-0.9
			c1.1,0,2.2,0.3,3.2,0.9L49-4.4c-1.3,0.9-2.3,2.1-2.8,3.6l-16.9-9.8c-0.3-0.2-0.6-0.3-1-0.3c-0.3,0-0.7,0.1-1,0.3L7.4,0.9
			c0,0.3,0.1,0.6,0.1,0.8c0,2.1-1.3,3.9-3.2,4.6c0,0,0,0,0,0C4.1,6.4,3.9,6.5,3.8,6.5c0,0-0.1,0-0.1,0c-0.1,0-0.3,0.1-0.4,0.1
			c0,0-0.1,0-0.1,0c-0.2,0-0.4,0-0.5,0c-0.2,0-0.4,0-0.6,0c-0.1,0-0.1,0-0.2,0c-0.1,0-0.3-0.1-0.4-0.1c0,0-0.1,0-0.1,0
			C0.9,6.4,0.6,6.2,0.2,6L0.2,6z"
      />
      <path
        id="Fill-1"
        class="st0"
        d="M41.4,25.8c0-0.9-0.7-1.6-1.5-1.6H27.2c-0.9,0-1.5,0.7-1.5,1.6c0,0.9,0.7,1.6,1.5,1.6h12.6
			C40.7,27.4,41.4,26.7,41.4,25.8 M16.6,27.4c-0.4,0-0.7-0.1-1-0.4c-0.6-0.6-0.7-1.5-0.1-2.2l7.1-8l-7-7.5c-0.6-0.6-0.6-1.6,0.1-2.2
			c0.6-0.6,1.6-0.6,2.2,0.1l8,8.5c0.5,0.6,0.6,1.5,0,2.1l-8,9.1C17.5,27.2,17,27.4,16.6,27.4"
      />
    </g>
    <path
      id="CLI"
      class="st1"
      d="M81.7,47c-0.6,1.1-1.8,1.9-3.2,1.9c-2,0-3.6-1.6-3.6-3.6s1.6-3.6,3.6-3.6c1.4,0,2.6,0.8,3.2,1.9
		l3.1-1.4c-1.2-2.2-3.5-3.8-6.3-3.8c-3.8,0-7,3.1-7,6.9c0,3.8,3.2,6.9,7,6.9c2.7,0,5.1-1.5,6.3-3.8L81.7,47z M87.2,51.9h9.7v-3.3
		h-6.4v-10h-3.4V51.9z M99.3,38.6h3.4v13.3h-3.4V38.6z"
    />
    <path
      id="GraphQL"
      class="st2"
      d="M75.7,25.7h2.1v0.2c-0.4,0.6-1.1,1-1.8,1c-1.3,0-2.3-1-2.3-2.3s1-2.3,2.3-2.3
		c0.7,0,1.4,0.3,1.8,0.9l1.8-1.2c-0.8-1.1-2.2-1.8-3.6-1.8c-2.5,0-4.6,2-4.6,4.5s2.1,4.5,4.6,4.5c0.9,0,1.7-0.3,2.2-1v0.8h1.7v-5
		h-4.1V25.7z M83.4,20.3v8.6h2.2v-2.3h1.1l1.6,2.3H91l-1.9-2.6c1.2-0.5,1.7-1.6,1.7-2.8c0-1.7-1-3.1-3.2-3.1H83.4z M87.5,22.3
		c0.9,0,1.2,0.5,1.2,1.2c0,0.6-0.3,1.1-1.2,1.1h-1.9v-2.3H87.5z M97,20.3l-3.5,8.6h2.4l0.5-1.3h3.4l0.5,1.3h2.4l-3.5-8.6H97z
		 M99,25.6h-1.9l0.9-2.5L99,25.6z M105.8,28.9h2.2v-1.9h1.6c2.3,0,3.4-1.5,3.4-3.3c0-1.7-1.1-3.3-3.4-3.3h-3.8V28.9z M109.5,22.3
		c0.9,0,1.3,0.6,1.3,1.3c0,0.8-0.3,1.3-1.3,1.3H108v-2.6H109.5z M122,20.3v3.3h-3.5v-3.3h-2.2v8.6h2.2v-3.2h3.5v3.2h2.2v-8.6H122z
		 M127.6,24.6c0,2.2,1.7,4,3.8,4.4c1.5,0.5,2.5,2,4.2,2c0.8,0,1.8-0.3,2.4-1.2l-1.7-1.3c-0.2,0.4-0.6,0.4-0.7,0.4
		c-0.4,0-0.7-0.2-1.1-0.5c1.3-0.8,2.2-2.2,2.2-3.8c0-2.5-2-4.5-4.6-4.5C129.7,20.1,127.6,22.1,127.6,24.6z M129.8,24.6
		c0-1.3,1-2.3,2.3-2.3c1.3,0,2.3,1,2.3,2.3s-1,2.3-2.3,2.3C130.9,26.9,129.8,25.9,129.8,24.6z M140.1,28.9v-8.6h2.2v6.5h4.1v2.1
		H140.1z"
    />
  </g>
</svg>
