<?xml version="1.0" encoding="utf-8"?>
<!-- Generator: Adobe Illustrator 24.1.3, SVG Export Plug-In . SVG Version: 6.00 Build 0)  -->
<svg
  version="1.1"
  id="Warstwa_1"
  xmlns="http://www.w3.org/2000/svg"
  xmlns:xlink="http://www.w3.org/1999/xlink"
  x="0px"
  y="0px"
  viewBox="0 0 153.1 69.7"
  style="enable-background: new 0 0 153.1 69.7"
  xml:space="preserve"
>
  <style type="text/css">
    .st0 {
      fill-rule: evenodd;
      clip-rule: evenodd;
      fill: #6d7a99;
    }
    .st1 {
      fill: #050713;
    }
    .st2 {
      fill: #6d7a99;
    }
  </style>
  <g>
    <g transform="translate(6.000000, 20.000000)">
      <path
        id="Fill-2"
        class="st0"
        d="M31.3,42.3c0,0.3,0,0.5-0.1,0.7c0,0,0,0.1,0,0.1c-0.4,2.3-2.4,4-4.8,4c-2.1,0-4-1.4-4.6-3.3
			L1.6,32.1c-2-1.2-3.2-3.3-3.2-5.6V6.7C-0.9,7-0.1,7.1,0.8,7.1c0.7,0,1.5-0.1,2.2-0.3v19.7c0,0.7,0.4,1.3,1,1.7l18.9,10.9
			c0.9-1,2.2-1.7,3.7-1.7c1.6,0,3,0.8,3.9,2c0,0,0,0,0,0.1c0.1,0.1,0.1,0.2,0.2,0.3c0,0,0,0.1,0.1,0.1c0,0.1,0.1,0.2,0.1,0.3
			c0,0,0,0.1,0.1,0.1c0,0.1,0.1,0.2,0.1,0.3c0,0.1,0,0.1,0.1,0.2c0,0.1,0.1,0.2,0.1,0.2c0,0.1,0,0.2,0.1,0.2c0,0.1,0,0.1,0,0.2
			c0,0.1,0,0.2,0,0.3c0,0.1,0,0.1,0,0.2C31.3,41.9,31.3,42.1,31.3,42.3L31.3,42.3z M56.2-0.3c0,1.5-0.6,2.8-1.7,3.7v23.1
			c0,2.3-1.2,4.5-3.2,5.6L33.9,42.2c0-1.6-0.6-3.2-1.5-4.4L49,28.2c0.6-0.3,1-1,1-1.7V4.3c-2-0.6-3.5-2.5-3.5-4.7
			c0-1.1,0.4-2.1,1-2.9c0,0,0,0,0,0c0.1-0.1,0.2-0.3,0.4-0.4l0,0c0.3-0.3,0.6-0.5,0.9-0.7c0,0,0.1,0,0.1-0.1
			c0.1-0.1,0.3-0.2,0.4-0.2c0,0,0.1,0,0.1-0.1c0.2-0.1,0.3-0.1,0.5-0.2c0,0,0,0,0,0c0.5-0.1,1-0.2,1.5-0.2C54-5.2,56.2-3,56.2-0.3
			L56.2-0.3z M-1.6,3.9c-1.5-0.8-2.5-2.4-2.5-4.2c0-2.7,2.2-4.9,4.9-4.9c0.7,0,1.4,0.2,2,0.4l20.5-11.9c1-0.6,2.1-0.9,3.2-0.9
			c1.1,0,2.2,0.3,3.2,0.9L47.2-6.5c-1.3,0.9-2.3,2.1-2.8,3.6l-16.9-9.8c-0.3-0.2-0.6-0.3-1-0.3c-0.3,0-0.7,0.1-1,0.3L5.6-1.2
			c0,0.3,0.1,0.6,0.1,0.8c0,2.1-1.3,3.9-3.2,4.6c0,0,0,0,0,0C2.3,4.3,2.1,4.3,2,4.4c0,0-0.1,0-0.1,0c-0.1,0-0.3,0.1-0.4,0.1
			c0,0-0.1,0-0.1,0c-0.2,0-0.4,0-0.5,0c-0.2,0-0.4,0-0.6,0c-0.1,0-0.1,0-0.2,0c-0.1,0-0.3-0.1-0.4-0.1c0,0-0.1,0-0.1,0
			C-0.9,4.2-1.3,4.1-1.6,3.9L-1.6,3.9z"
      />
      <path
        id="Combined-Shape"
        class="st0"
        d="M21.4,2.1c0.8,0,1.1,0.3,2.3,3.4l0.5,0.2c3.1-1.4,3.5-1.5,4.1-0.9l1.8,1.8
			c0.6,0.6,0.5,1.1-0.8,4.1l0.2,0.5c3.1,1.1,3.5,1.4,3.5,2.3v2.5c0,0.8-0.3,1.1-3.5,2.3l-0.2,0.5c1.4,2.9,1.5,3.4,0.9,4.1l-1.8,1.8
			c-0.6,0.6-1,0.5-4.1-0.8l-0.5,0.2c-1.2,3.1-1.4,3.5-2.3,3.5h-2.6c-0.8,0-1.1-0.3-2.3-3.4l-0.5-0.2c-3.1,1.4-3.5,1.5-4.1,0.9
			L10.2,23c-0.6-0.6-0.5-1.1,0.8-4.1l-0.2-0.5c-3.1-1.1-3.5-1.4-3.5-2.3v-2.5c0-0.8,0.3-1.1,3.5-2.3l0.2-0.5c-1.4-2.9-1.5-3.4-0.9-4
			L11.9,5c0.6-0.6,1-0.5,4.1,0.8l0.5-0.2c1.2-3.1,1.4-3.5,2.3-3.5H21.4z M20.7,4.5h-1.2c-0.3,0.6-0.6,1.6-1,2.4l-0.2,0.5l-2.4,1
			l-0.4-0.2c-0.9-0.4-1.9-0.8-2.5-1l-0.8,0.8c0.2,0.6,0.7,1.5,1.1,2.4l0.2,0.5l-1,2.4l-0.5,0.2c-0.9,0.3-1.9,0.8-2.5,1v1.2
			c0.6,0.2,1.6,0.6,2.5,0.9l0.5,0.2l1,2.3l-0.2,0.5c-0.4,0.8-0.8,1.8-1,2.4l0.9,0.8c0.6-0.2,1.6-0.7,2.4-1.1l0.5-0.2l2.4,1l0.2,0.5
			c0.3,0.9,0.8,1.9,1,2.4h1.2c0.3-0.6,0.6-1.6,1-2.4l0.2-0.5l2.4-1l0.4,0.2c0.9,0.4,1.9,0.8,2.5,1l0.8-0.8c-0.2-0.6-0.7-1.5-1.1-2.4
			l-0.2-0.5l1-2.4l0.5-0.2c0.9-0.3,1.9-0.8,2.5-1v-1.2c-0.6-0.2-1.6-0.6-2.5-0.9l-0.5-0.2l-1-2.4l0.2-0.5c0.4-0.8,0.8-1.8,1-2.4
			L27.2,7c-0.6,0.2-1.6,0.7-2.4,1.1l-0.5,0.2l-2.4-1l-0.2-0.5C21.4,6,21,5,20.7,4.5z M20.2,10c2.7,0,4.9,2.2,4.9,4.9
			c0,2.7-2.2,4.9-4.9,4.9s-4.9-2.2-4.9-4.9C15.2,12.2,17.5,10,20.2,10z M20.2,12.3c-1.4,0-2.6,1.1-2.6,2.5c0,1.4,1.2,2.5,2.6,2.5
			c1.4,0,2.6-1.1,2.6-2.5C22.8,13.4,21.6,12.3,20.2,12.3z M37.6,2.9L37.6,2.9c1.1-1,1.4-1.3,1.9-1l1.1,0.5c0.5,0.2,0.5,0.6,0.5,2.1
			l0.1,0.1c1.5,0,1.8,0,2.1,0.5l0.5,1.2c0.2,0.5,0,0.8-1.1,1.8l0,0.1c1.1,1,1.3,1.3,1.1,1.8l-0.5,1.1c-0.2,0.5-0.6,0.5-2.1,0.5l0,0
			c0,1.5,0,1.9-0.6,2.1l-1.1,0.4c-0.1,0-0.2,0.1-0.3,0.1c-0.4,0-0.7-0.3-1.5-1.2l-0.1,0c-1,1-1.3,1.3-1.9,1l-1.1-0.5
			c-0.5-0.2-0.5-0.6-0.5-2.1l-0.1-0.1c-1.5,0-1.8,0-2.1-0.5l-0.5-1.2c-0.2-0.5,0-0.8,1.1-1.8l0-0.1c-1.1-1-1.3-1.3-1.1-1.9l0.5-1.1
			c0.2-0.5,0.6-0.5,2.1-0.5l0,0c0-1.4,0-1.9,0.6-2.1l1.1-0.4C36.3,1.6,36.6,1.8,37.6,2.9z M35.9,3.4l-0.3,0.1c0,0.3,0,0.7,0,1.1
			l0,0.3l-1,1l-0.3,0c-0.4,0-0.8,0-1.1,0L33,6.1c0.2,0.2,0.5,0.5,0.8,0.8l0.2,0.2l0,1.4l-0.2,0.2C33.5,9,33.2,9.3,33,9.5l0.1,0.3
			c0.3,0,0.8,0,1.1,0l0.3,0l1,1l0,0.3c0,0.4,0,0.8,0,1.1l0.3,0.1c0.2-0.2,0.5-0.5,0.8-0.8l0.2-0.2l1.4,0l0.2,0.2
			c0.3,0.3,0.6,0.6,0.8,0.8l0.3-0.1c0-0.3,0-0.7,0-1.1l0-0.3l1-1l0.3,0c0.4,0,0.8,0,1.1,0l0.1-0.2c-0.2-0.2-0.5-0.5-0.8-0.8L41,8.8
			l0-1.4l0.2-0.2c0.3-0.3,0.6-0.5,0.8-0.8L42,6.1c-0.3,0-0.7,0-1.1,0l-0.3,0l-1-1l0-0.3c0-0.4,0-0.8,0-1.1l-0.3-0.1
			c-0.2,0.2-0.5,0.5-0.8,0.8l-0.2,0.2l-1.4-0.1l-0.2-0.2C36.4,4,36.1,3.6,35.9,3.4z M38.6,5.6c1.3,0.6,1.9,2.1,1.3,3.4v0
			c-0.4,0.9-1.4,1.5-2.3,1.5c-0.4,0-0.7-0.1-1.1-0.2c-1.3-0.6-1.9-2.1-1.3-3.4c0.3-0.6,0.8-1.1,1.4-1.3C37.3,5.3,38,5.3,38.6,5.6z
			 M37.5,6.9c-0.1,0-0.2,0-0.4,0.1c-0.3,0.1-0.5,0.3-0.6,0.5c-0.2,0.5,0,1.1,0.5,1.3c0.5,0.2,1.1,0,1.4-0.5c0.2-0.5,0-1.1-0.5-1.3
			C37.8,7,37.7,6.9,37.5,6.9z"
      />
    </g>
    <path
      id="Config"
      class="st1"
      d="M79.9,44.8c-0.6,1.1-1.8,1.9-3.2,1.9c-2,0-3.6-1.6-3.6-3.6s1.6-3.6,3.6-3.6c1.4,0,2.6,0.8,3.2,1.9
		L83,40c-1.2-2.2-3.5-3.8-6.3-3.8c-3.8,0-7,3.1-7,6.9c0,3.8,3.2,6.9,7,6.9c2.7,0,5.1-1.5,6.3-3.8L79.9,44.8z M84.7,43.1
		c0,3.8,3.2,6.9,7,6.9c3.9,0,7-3.1,7-6.9c0-3.8-3.2-6.9-7-6.9C87.9,36.2,84.7,39.3,84.7,43.1z M88.2,43.1c0-2,1.6-3.6,3.6-3.6
		c2,0,3.6,1.6,3.6,3.6s-1.6,3.6-3.6,3.6C89.8,46.7,88.2,45.1,88.2,43.1z M104.8,49.8v-7.4l5.9,7.4h2.9V36.5h-3.4v7.4l-5.9-7.4h-2.9
		v13.3H104.8z M116.8,49.8h3.4v-4.5h5.4v-3.1h-5.4v-2.3h6.5v-3.3h-9.8V49.8z M129.2,36.5v13.3h3.4V36.5H129.2z M141.9,44.8V42h6.4
		v7.7h-2.7v-1.2c-0.6,1-2,1.5-3.3,1.5c-3.8,0-7-3.1-7-6.9c0-3.8,3.2-6.9,7-6.9c2.3,0,4.3,1.1,5.6,2.8l-2.8,1.9
		c-0.7-0.8-1.7-1.4-2.8-1.4c-2,0-3.6,1.6-3.6,3.6s1.6,3.6,3.6,3.6c1.2,0,2.2-0.6,2.8-1.5v-0.4H141.9z"
    />
    <path
      id="GraphQL"
      class="st2"
      d="M73.9,23.6h2.1v0.2c-0.4,0.6-1.1,1-1.8,1c-1.3,0-2.3-1-2.3-2.3s1-2.3,2.3-2.3
		c0.7,0,1.4,0.3,1.8,0.9l1.8-1.2c-0.8-1.1-2.2-1.8-3.6-1.8c-2.5,0-4.6,2-4.6,4.5s2.1,4.5,4.6,4.5c0.9,0,1.7-0.3,2.2-1v0.8H78v-5
		h-4.1V23.6z M81.6,18.2v8.6h2.2v-2.3h1.1l1.6,2.3h2.6l-1.9-2.6c1.2-0.5,1.7-1.6,1.7-2.8c0-1.7-1-3.1-3.2-3.1H81.6z M85.7,20.2
		c0.9,0,1.2,0.5,1.2,1.2c0,0.6-0.3,1.1-1.2,1.1h-1.9v-2.3H85.7z M95.2,18.2l-3.5,8.6h2.4l0.5-1.3H98l0.5,1.3h2.4l-3.5-8.6H95.2z
		 M97.2,23.5h-1.9l0.9-2.5L97.2,23.5z M104,26.8h2.2v-1.9h1.6c2.3,0,3.4-1.5,3.4-3.3c0-1.7-1.1-3.3-3.4-3.3H104V26.8z M107.6,20.2
		c0.9,0,1.3,0.6,1.3,1.3c0,0.8-0.3,1.3-1.3,1.3h-1.5v-2.6H107.6z M120.2,18.2v3.3h-3.5v-3.3h-2.2v8.6h2.2v-3.2h3.5v3.2h2.2v-8.6
		H120.2z M125.8,22.5c0,2.2,1.7,4,3.8,4.4c1.5,0.5,2.5,2,4.2,2c0.8,0,1.8-0.3,2.4-1.2l-1.7-1.3c-0.2,0.4-0.6,0.4-0.7,0.4
		c-0.4,0-0.7-0.2-1.1-0.5c1.3-0.8,2.2-2.2,2.2-3.8c0-2.5-2-4.5-4.6-4.5C127.9,18,125.8,20,125.8,22.5z M128,22.5
		c0-1.3,1-2.3,2.3-2.3c1.3,0,2.3,1,2.3,2.3s-1,2.3-2.3,2.3C129,24.8,128,23.8,128,22.5z M138.3,26.8v-8.6h2.2v6.5h4.1v2.1H138.3z"
    />
  </g>
</svg>
