<?xml version="1.0" encoding="utf-8"?>
<!-- Generator: Adobe Illustrator 24.1.3, SVG Export Plug-In . SVG Version: 6.00 Build 0)  -->
<svg
  version="1.1"
  id="Warstwa_1"
  xmlns="http://www.w3.org/2000/svg"
  xmlns:xlink="http://www.w3.org/1999/xlink"
  x="0px"
  y="0px"
  viewBox="0 0 147.8 69.9"
  style="enable-background: new 0 0 147.8 69.9"
  xml:space="preserve"
>
  <style type="text/css">
    .st0 {
      fill-rule: evenodd;
      clip-rule: evenodd;
      fill: #e873ff;
    }
    .st1 {
      fill-rule: evenodd;
      clip-rule: evenodd;
      fill: #e873ff;
      stroke: #e873ff;
      stroke-width: 0.5;
    }
    .st2 {
      fill: #050713;
    }
    .st3 {
      fill: #6d7a99;
    }
  </style>
  <g id="GraphQL-Tools_x2F_-sofa">
    <g id="Libraries-Logos-_x2F_-Sofa" transform="translate(6.000000, 20.000000)">
      <path
        id="Fill-2"
        class="st0"
        d="M31.5,42.2c0,0.3,0,0.5-0.1,0.7c0,0,0,0.1,0,0.1c-0.4,2.3-2.4,4-4.8,4c-2.1,0-4-1.4-4.6-3.3
			L1.8,32c-2-1.2-3.2-3.3-3.2-5.6V6.7c0.7,0.3,1.5,0.4,2.4,0.4c0.7,0,1.5-0.1,2.2-0.3v19.7c0,0.7,0.4,1.3,1,1.7L22.9,39
			c0.9-1,2.2-1.7,3.7-1.7c1.6,0,3,0.8,3.9,2c0,0,0,0,0,0.1c0.1,0.1,0.1,0.2,0.2,0.3c0,0,0,0.1,0.1,0.1c0,0.1,0.1,0.2,0.1,0.3
			c0,0,0,0.1,0.1,0.1c0,0.1,0.1,0.2,0.1,0.3c0,0.1,0,0.1,0.1,0.2c0,0.1,0.1,0.2,0.1,0.2c0,0.1,0,0.2,0.1,0.2c0,0.1,0,0.1,0,0.2
			c0,0.1,0,0.2,0,0.3c0,0.1,0,0.1,0,0.2C31.5,41.9,31.5,42,31.5,42.2L31.5,42.2z M56.4-0.4c0,1.5-0.6,2.8-1.7,3.7v23.1
			c0,2.3-1.2,4.5-3.2,5.6L34.1,42.1c0-1.6-0.6-3.2-1.5-4.4l16.6-9.6c0.6-0.3,1-1,1-1.7V4.3c-2-0.6-3.5-2.5-3.5-4.7
			c0-1.1,0.4-2.1,1-2.9c0,0,0,0,0,0c0.1-0.1,0.2-0.3,0.4-0.4l0,0c0.3-0.3,0.6-0.5,0.9-0.7c0,0,0.1,0,0.1-0.1
			c0.1-0.1,0.3-0.2,0.4-0.2c0,0,0.1,0,0.1-0.1C49.7-4.9,49.9-5,50-5.1c0,0,0,0,0,0c0.5-0.1,1-0.2,1.5-0.2
			C54.2-5.3,56.4-3.1,56.4-0.4L56.4-0.4z M-1.4,3.8C-2.9,3-3.9,1.4-3.9-0.4c0-2.7,2.2-4.9,4.9-4.9c0.7,0,1.4,0.2,2,0.4l20.5-11.9
			c1-0.6,2.1-0.9,3.2-0.9c1.1,0,2.2,0.3,3.2,0.9L47.3-6.6c-1.3,0.9-2.3,2.1-2.8,3.6l-16.9-9.8c-0.3-0.2-0.6-0.3-1-0.3
			c-0.3,0-0.7,0.1-1,0.3L5.7-1.3c0,0.3,0.1,0.6,0.1,0.8c0,2.1-1.3,3.9-3.2,4.6c0,0,0,0,0,0C2.4,4.2,2.3,4.3,2.1,4.3c0,0-0.1,0-0.1,0
			c-0.1,0-0.3,0.1-0.4,0.1c0,0-0.1,0-0.1,0c-0.2,0-0.4,0-0.5,0c-0.2,0-0.4,0-0.6,0c-0.1,0-0.1,0-0.2,0C0,4.4-0.1,4.3-0.2,4.3
			c0,0-0.1,0-0.1,0C-0.8,4.2-1.1,4-1.4,3.8L-1.4,3.8z"
      />
      <path
        id="Fill-1"
        class="st1"
        d="M39.8,22.7H12V10.3c0-1.4,1.2-2.6,2.6-2.6c1.4,0,2.6,1.2,2.6,2.6v6.9c0,0.6,0.5,1.1,1.1,1.1h15.4
			c0.6,0,1.1-0.5,1.1-1.1v-6.9c0-1.4,1.2-2.6,2.6-2.6s2.6,1.2,2.6,2.6V22.7z M18.4,1.9h14.5c1.5,0,2.7,1.2,2.7,2.7v1.3
			c-1.8,0.7-3.1,2.4-3.1,4.5v5.8H19.3v-5.8c0-2.2-1.5-4.1-3.5-4.6V4.5C15.7,3.1,16.9,1.9,18.4,1.9L18.4,1.9z M37.7,5.6V4.5
			c0-2.7-2.2-4.9-4.8-4.9H18.4c-2.7,0-4.8,2.2-4.8,4.9v1.1C11.4,6.1,9.8,8,9.8,10.3v13.5c0,0.6,0.5,1.1,1.1,1.1h3l-0.2,2.9l2.2,0.2
			l0.2-3.1h19.2l0.2,3.1l2.2-0.2l-0.2-2.9h3.5c0.6,0,1.1-0.5,1.1-1.1V10.3C42,7.9,40.1,5.8,37.7,5.6L37.7,5.6z"
      />
    </g>
    <path
      id="Sofa"
      class="st2"
      d="M69.9,45.7v0.2c0,2.6,2.4,4.1,5.6,4.1c3,0,5.3-1.4,5.3-3.9c0-2.8-3-3.9-4.8-4.6l-0.6-0.2
		c-1.3-0.4-1.7-0.7-1.7-1.2c0-0.4,0.5-0.9,1.6-0.9c1.4,0,2,0.8,2,1.4v0.1h3.3v-0.2c0-2.6-2.3-4.3-5.4-4.3c-3,0-5.2,1.6-5.2,4.1
		c0,2.6,2.5,3.6,4.5,4.3l0.4,0.1c1.6,0.5,2.3,0.9,2.3,1.4c0,0.4-0.4,0.8-1.7,0.8c-1.5,0-2.2-0.7-2.2-1.2v-0.1H69.9z M82.9,43
		c0,3.8,3.2,6.9,7,6.9c3.9,0,7-3.1,7-6.9c0-3.8-3.2-6.9-7-6.9C86.1,36.2,82.9,39.3,82.9,43z M86.3,43c0-2,1.6-3.6,3.6-3.6
		c2,0,3.6,1.6,3.6,3.6s-1.6,3.6-3.6,3.6C87.9,46.6,86.3,45,86.3,43z M99.5,49.7h3.4v-4.5h5.4v-3.1h-5.4v-2.3h6.5v-3.3h-9.8V49.7z
		 M114.9,36.4l-5.4,13.3h3.7l0.7-1.9h5.2l0.7,1.9h3.7l-5.4-13.3H114.9z M118.1,44.7h-2.9l1.5-3.9L118.1,44.7z"
    />
    <path
      id="GraphQL"
      class="st3"
      d="M74,23.5h2.1v0.2c-0.4,0.6-1.1,1-1.8,1c-1.3,0-2.3-1-2.3-2.3s1-2.3,2.3-2.3
		c0.7,0,1.4,0.3,1.8,0.9l1.8-1.2c-0.8-1.1-2.2-1.8-3.6-1.8c-2.5,0-4.6,2-4.6,4.5s2.1,4.5,4.6,4.5c0.9,0,1.7-0.3,2.2-1v0.8h1.7v-5H74
		V23.5z M81.8,18.1v8.6h2.2v-2.3h1.1l1.6,2.3h2.6l-1.9-2.6c1.2-0.5,1.7-1.6,1.7-2.8c0-1.7-1-3.1-3.2-3.1H81.8z M85.8,20.1
		c0.9,0,1.2,0.5,1.2,1.2c0,0.6-0.3,1.1-1.2,1.1h-1.9v-2.3H85.8z M95.3,18.1l-3.5,8.6h2.4l0.5-1.3h3.4l0.5,1.3h2.4l-3.5-8.6H95.3z
		 M97.4,23.4h-1.9l0.9-2.5L97.4,23.4z M104.1,26.7h2.2v-1.9h1.6c2.3,0,3.4-1.5,3.4-3.3c0-1.7-1.1-3.3-3.4-3.3h-3.8V26.7z
		 M107.8,20.1c0.9,0,1.3,0.6,1.3,1.3c0,0.8-0.3,1.3-1.3,1.3h-1.5v-2.6H107.8z M120.3,18.1v3.3h-3.5v-3.3h-2.2v8.6h2.2v-3.2h3.5v3.2
		h2.2v-8.6H120.3z M125.9,22.4c0,2.2,1.7,4,3.8,4.4c1.5,0.5,2.5,2,4.2,2c0.8,0,1.8-0.3,2.4-1.2l-1.7-1.3c-0.2,0.4-0.6,0.4-0.7,0.4
		c-0.4,0-0.7-0.2-1.1-0.5c1.3-0.8,2.2-2.2,2.2-3.8c0-2.5-2-4.5-4.6-4.5C128,17.9,125.9,19.9,125.9,22.4z M128.2,22.4
		c0-1.3,1-2.3,2.3-2.3c1.3,0,2.3,1,2.3,2.3s-1,2.3-2.3,2.3C129.2,24.7,128.2,23.7,128.2,22.4z M138.5,26.7v-8.6h2.2v6.5h4.1v2.1
		H138.5z"
    />
  </g>
</svg>
