<?xml version="1.0" encoding="utf-8"?>
<!-- Generator: Adobe Illustrator 24.1.3, SVG Export Plug-In . SVG Version: 6.00 Build 0)  -->
<svg
  version="1.1"
  id="Warstwa_1"
  xmlns="http://www.w3.org/2000/svg"
  xmlns:xlink="http://www.w3.org/1999/xlink"
  x="0px"
  y="0px"
  viewBox="0 0 160.9 69.8"
  style="enable-background: new 0 0 160.9 69.8"
  xml:space="preserve"
>
  <style type="text/css">
    .st0 {
      fill-rule: evenodd;
      clip-rule: evenodd;
      fill: #e88e18;
    }
    .st1 {
      fill: #050713;
    }
    .st2 {
      fill: #6d7a99;
    }
  </style>
  <g id="GraphQL-Tools_x2F_-stencil">
    <g id="Libraries-Logos-_x2F_-Stencil" transform="translate(6.000000, 20.000000)">
      <path
        id="Fill-2"
        class="st0"
        d="M32.5,42.7c0,0.3,0,0.5-0.1,0.7c0,0,0,0.1,0,0.1c-0.4,2.3-2.4,4-4.8,4c-2.1,0-4-1.4-4.6-3.3
			L2.8,32.6c-2-1.2-3.2-3.3-3.2-5.6V7.2C0.3,7.4,1.1,7.6,2,7.6c0.7,0,1.5-0.1,2.2-0.3v19.7c0,0.7,0.4,1.3,1,1.7L24,39.6
			c0.9-1,2.2-1.7,3.7-1.7c1.6,0,3,0.8,3.9,2c0,0,0,0,0,0.1c0.1,0.1,0.1,0.2,0.2,0.3c0,0,0,0.1,0.1,0.1c0,0.1,0.1,0.2,0.1,0.3
			c0,0,0,0.1,0.1,0.1c0,0.1,0.1,0.2,0.1,0.3c0,0.1,0,0.1,0.1,0.2c0,0.1,0.1,0.2,0.1,0.2c0,0.1,0,0.2,0.1,0.2c0,0.1,0,0.1,0,0.2
			c0,0.1,0,0.2,0,0.3c0,0.1,0,0.1,0,0.2C32.5,42.4,32.5,42.6,32.5,42.7L32.5,42.7z M57.4,0.1c0,1.5-0.6,2.8-1.7,3.7v23.1
			c0,2.3-1.2,4.5-3.2,5.6L35.1,42.6c0-1.6-0.6-3.2-1.5-4.4l16.6-9.6c0.6-0.3,1-1,1-1.7V4.8c-2-0.6-3.5-2.5-3.5-4.7
			c0-1.1,0.4-2.1,1-2.9c0,0,0,0,0,0C48.8-3,48.9-3.1,49-3.2l0,0c0.3-0.3,0.6-0.5,0.9-0.7C50-4,50-4,50-4.1c0.1-0.1,0.3-0.2,0.4-0.2
			c0,0,0.1,0,0.1-0.1c0.2-0.1,0.3-0.1,0.5-0.2c0,0,0,0,0,0c0.5-0.1,1-0.2,1.5-0.2C55.2-4.8,57.4-2.6,57.4,0.1L57.4,0.1z M-0.4,4.4
			c-1.5-0.8-2.5-2.4-2.5-4.2c0-2.7,2.2-4.9,4.9-4.9c0.7,0,1.4,0.2,2,0.4l20.5-11.9c1-0.6,2.1-0.9,3.2-0.9c1.1,0,2.2,0.3,3.2,0.9
			L48.4-6.1c-1.3,0.9-2.3,2.1-2.8,3.6l-16.9-9.8c-0.3-0.2-0.6-0.3-1-0.3c-0.3,0-0.7,0.1-1,0.3L6.8-0.7c0,0.3,0.1,0.6,0.1,0.8
			c0,2.1-1.3,3.9-3.2,4.6c0,0,0,0,0,0C3.5,4.8,3.3,4.8,3.2,4.8c0,0-0.1,0-0.1,0c-0.1,0-0.3,0.1-0.4,0.1c0,0-0.1,0-0.1,0
			C2.3,5,2.2,5,2,5C1.8,5,1.6,5,1.4,5c-0.1,0-0.1,0-0.2,0c-0.1,0-0.3-0.1-0.4-0.1c0,0-0.1,0-0.1,0C0.3,4.7-0.1,4.6-0.4,4.4L-0.4,4.4
			z"
      />
      <path
        id="Combined-Shape"
        class="st0"
        d="M33.6,0.2c4.6,0,8.3,3.7,8.3,8.3v12.1c0,4.6-3.7,8.3-8.3,8.3H21.5
			c-4.6,0-8.3-3.7-8.3-8.3V8.5c0-4.6,3.7-8.3,8.3-8.3H33.6z M33.6,2.4H21.5c-3.4,0-6.1,2.7-6.1,6.1v12.1c0,3.4,2.7,6.1,6.1,6.1h12.1
			c3.4,0,6.1-2.7,6.1-6.1V8.5C39.7,5.1,36.9,2.4,33.6,2.4z M32.7,14.6c2.6,0,4.7,2.1,4.7,4.7c0,2.6-2.1,4.7-4.7,4.7
			c-2.6,0-4.7-2.1-4.7-4.7C28,16.7,30.1,14.6,32.7,14.6z M32.7,16.8c-1.4,0-2.5,1.1-2.5,2.6c0,1.4,1.1,2.5,2.5,2.5
			c1.4,0,2.5-1.1,2.5-2.5C35.2,17.9,34.1,16.8,32.7,16.8z M22.6,4.3c0.4,0,0.8,0.2,1,0.6l1.1,2.2L27,7.4c0.4,0.1,0.7,0.3,0.9,0.7
			c0.1,0.4,0,0.8-0.3,1.1L25.9,11l0.4,2.4c0.1,0.4-0.1,0.8-0.4,1.1c-0.2,0.1-0.4,0.2-0.6,0.2c-0.2,0-0.3,0-0.5-0.1l-2.1-1.1
			l-2.1,1.1c-0.4,0.2-0.8,0.2-1.1-0.1c-0.3-0.2-0.5-0.7-0.4-1.1l0.4-2.4l-1.7-1.7c-0.3-0.3-0.4-0.7-0.3-1.1s0.5-0.7,0.9-0.7l2.4-0.3
			l1.1-2.2C21.8,4.5,22.2,4.3,22.6,4.3z M22.6,7.8l-0.4,0.7c-0.2,0.3-0.5,0.5-0.8,0.6l-0.8,0.1l0.6,0.6c0.3,0.2,0.4,0.6,0.3,1
			l-0.1,0.8l0.7-0.4c0.2-0.1,0.3-0.1,0.5-0.1s0.3,0,0.5,0.1l0.7,0.4l-0.1-0.8c-0.1-0.3,0.1-0.7,0.3-1l0.6-0.6l-0.8-0.1
			c-0.4-0.1-0.7-0.3-0.8-0.6L22.6,7.8z"
      />
    </g>
    <path
      id="Stencil"
      class="st1"
      d="M71,46.2v0.2c0,2.6,2.4,4.1,5.6,4.1c3,0,5.3-1.4,5.3-3.9c0-2.8-3-3.9-4.8-4.6l-0.6-0.2
		c-1.3-0.4-1.7-0.7-1.7-1.2c0-0.4,0.5-0.9,1.6-0.9c1.4,0,2,0.8,2,1.4v0.1h3.3V41c0-2.6-2.3-4.3-5.4-4.3c-3,0-5.2,1.6-5.2,4.1
		c0,2.6,2.5,3.6,4.5,4.3l0.4,0.1c1.6,0.5,2.3,0.9,2.3,1.4c0,0.4-0.4,0.8-1.7,0.8c-1.5,0-2.2-0.7-2.2-1.2v-0.1H71z M83.7,40.2h4.1v10
		h3.4v-10h4.1v-3.3H83.7V40.2z M97.8,50.2H108v-3.3h-6.8v-1.7h5.6v-3.1h-5.6v-1.9h6.8v-3.3H97.8V50.2z M114.2,50.2v-7.4l5.9,7.4h2.9
		V36.9h-3.4v7.4l-5.9-7.4h-2.9v13.3H114.2z M135.8,45.3c-0.6,1.1-1.8,1.9-3.2,1.9c-2,0-3.6-1.6-3.6-3.6s1.6-3.6,3.6-3.6
		c1.4,0,2.6,0.8,3.2,1.9l3.1-1.4c-1.2-2.2-3.5-3.8-6.3-3.8c-3.8,0-7,3.1-7,6.9c0,3.8,3.2,6.9,7,6.9c2.7,0,5.1-1.5,6.3-3.8
		L135.8,45.3z M141.2,36.9v13.3h3.4V36.9H141.2z M147.8,50.2V36.9h3.4v10h6.4v3.3H147.8z"
    />
    <path
      id="Apollo"
      class="st2"
      d="M74,18.6l-3.5,8.6h2.4l0.5-1.3h3.4l0.5,1.3h2.4l-3.5-8.6H74z M76,24h-1.9l0.9-2.5L76,24z
		 M82.8,27.2H85v-1.9h1.6c2.3,0,3.4-1.5,3.4-3.3c0-1.7-1.1-3.3-3.4-3.3h-3.8V27.2z M86.4,20.6c0.9,0,1.3,0.6,1.3,1.3
		c0,0.8-0.3,1.3-1.3,1.3H85v-2.6H86.4z M92.9,22.9c0,2.5,2.1,4.5,4.6,4.5c2.5,0,4.6-2,4.6-4.5s-2-4.5-4.6-4.5
		C94.9,18.5,92.9,20.5,92.9,22.9z M95.1,22.9c0-1.3,1-2.3,2.3-2.3c1.3,0,2.3,1,2.3,2.3s-1,2.3-2.3,2.3
		C96.1,25.2,95.1,24.2,95.1,22.9z M105.4,27.2h6.3v-2.1h-4.1v-6.5h-2.2V27.2z M115,27.2h6.3v-2.1h-4.1v-6.5H115V27.2z M124,22.9
		c0,2.5,2.1,4.5,4.6,4.5c2.5,0,4.6-2,4.6-4.5s-2-4.5-4.6-4.5C126,18.5,124,20.5,124,22.9z M126.2,22.9c0-1.3,1-2.3,2.3-2.3
		c1.3,0,2.3,1,2.3,2.3s-1,2.3-2.3,2.3C127.2,25.2,126.2,24.2,126.2,22.9z"
    />
  </g>
</svg>
