<?xml version="1.0" encoding="utf-8"?>
<!-- Generator: Adobe Illustrator 24.1.3, SVG Export Plug-In . SVG Version: 6.00 Build 0)  -->
<svg version="1.1" id="Warstwa_1" xmlns="http://www.w3.org/2000/svg" xmlns:xlink="http://www.w3.org/1999/xlink" x="0px" y="0px"
	 viewBox="0 0 146.9 69.2" style="enable-background:new 0 0 146.9 69.2;" xml:space="preserve">
<style type="text/css">
	.st0{fill-rule:evenodd;clip-rule:evenodd;fill:#184AE8;}
	.st1{fill:#050713;}
	.st2{fill:#6D7A99;}
</style>
<g id="GraphQL-Tools_x2F_-toolkit">
	<g id="Libraries-Logos-_x2F_-Toolskit" transform="translate(6.000000, 20.000000)">
		<path id="Fill-2" class="st0" d="M31.1,42c0,0.3,0,0.5-0.1,0.7v0.1c-0.4,2.3-2.4,4-4.8,4c-2.1,0-4-1.4-4.6-3.3L1.4,31.9
			c-2-1.2-3.2-3.3-3.2-5.6V6.5c0.7,0.3,1.5,0.4,2.4,0.4c0.7,0,1.5-0.1,2.2-0.3v19.7c0,0.7,0.4,1.3,1,1.7l18.9,10.9
			c0.9-1,2.2-1.7,3.7-1.7c1.6,0,3,0.8,3.9,2c0,0,0,0,0,0.1c0.1,0.1,0.1,0.2,0.2,0.3c0,0,0,0.1,0.1,0.1c0,0.1,0.1,0.2,0.1,0.3
			c0,0,0,0.1,0.1,0.1c0,0.1,0.1,0.2,0.1,0.3s0,0.1,0.1,0.2c0,0.1,0.1,0.2,0.1,0.2c0,0.1,0,0.2,0.1,0.2c0,0.1,0,0.1,0,0.2
			c0,0.1,0,0.2,0,0.3s0,0.1,0,0.2C31.1,41.7,31.1,41.9,31.1,42L31.1,42z M56-0.6c0,1.5-0.6,2.8-1.7,3.7v23.1c0,2.3-1.2,4.5-3.2,5.6
			L33.7,41.9c0-1.6-0.6-3.2-1.5-4.4l16.6-9.6c0.6-0.3,1-1,1-1.7V4.1c-2-0.6-3.5-2.5-3.5-4.7c0-1.1,0.4-2.1,1-2.9l0,0
			c0.1-0.1,0.2-0.3,0.4-0.4l0,0c0.3-0.3,0.6-0.5,0.9-0.7c0,0,0.1,0,0.1-0.1c0.1-0.1,0.3-0.2,0.4-0.2c0,0,0.1,0,0.1-0.1
			c0.2-0.1,0.3-0.1,0.5-0.2l0,0c0.5-0.1,1-0.2,1.5-0.2C53.8-5.5,56-3.3,56-0.6L56-0.6z M-1.8,3.7c-1.5-0.8-2.5-2.4-2.5-4.2
			c0-2.7,2.2-4.9,4.9-4.9c0.7,0,1.4,0.2,2,0.4L23-16.9c1-0.6,2.1-0.9,3.2-0.9s2.2,0.3,3.2,0.9L46.9-6.8c-1.3,0.9-2.3,2.1-2.8,3.6
			L27.3-13c-0.3-0.2-0.6-0.3-1-0.3c-0.3,0-0.7,0.1-1,0.3L5.4-1.4c0,0.3,0.1,0.6,0.1,0.8c0,2.1-1.3,3.9-3.2,4.6l0,0
			C2.2,4.1,2,4.1,1.9,4.1H1.8c-0.1,0-0.3,0.1-0.4,0.1H1.3c-0.2,0-0.4,0-0.5,0c-0.2,0-0.4,0-0.6,0c-0.1,0-0.1,0-0.2,0
			s-0.3-0.1-0.4-0.1h-0.1C-1.1,4-1.5,3.8-1.8,3.7L-1.8,3.7z"/>
		<path id="Combined-Shape" class="st0" d="M36.6-3.4v1.9c0,0.2-0.2,5-5.7,9.9l0,0h6.8c3.4,0,6.2,2.8,6.2,6.2s-2.8,6.2-6.2,6.2l0,0
			h-0.3l-1.8,1.8c-0.2,0.2-0.5,0.3-0.8,0.3l0,0l-2.2-0.1l-1.5,1.5c-0.2,0.2-0.5,0.3-0.8,0.3l0,0L28,24.5L26.5,26
			c-0.2,0.2-0.5,0.3-0.8,0.3l0,0l-2.2-0.1L22,27.7c-0.2,0.2-0.5,0.3-0.8,0.3c0,0,0,0-0.1,0l0,0l-2.7-0.1c-0.6,0-1-0.5-1-1.1
			s0.5-1,1.1-1l0,0l2.2,0.1l1.5-1.5c0.2-0.2,0.5-0.3,0.8-0.3l0,0l2.2,0.1l1.5-1.5c0.2-0.2,0.5-0.3,0.8-0.3l0,0l2.2,0.1l1.5-1.5
			l0.1-0.1l0,0H14.4c-3.4,0-6.2-2.8-6.2-6.2s2.8-6.2,6.2-6.2l0,0h2l0,0L36.6-3.4z M37.6,10.6H14.4c-2.2,0-4,1.8-4,4s1.8,4,4,4l0,0
			h23.2c2.2,0,4-1.8,4-4S39.8,10.6,37.6,10.6L37.6,10.6z M38,12.1v1.5h1.5v2.2H38v1.5h-2.2v-1.5h-1.5v-2.2h1.5v-1.5
			C35.8,12.1,38,12.1,38,12.1z M33.9,0.7L20.7,8.4h6.8l-0.1-0.1C31.5,5.5,33.2,2.6,33.9,0.7L33.9,0.7z"/>
	</g>
	<path id="Toolkit" class="st1" d="M69.3,39.5h4.1v10h3.4v-10h4.1v-3.3H69.3V39.5z M82.5,42.9c0,3.8,3.2,6.9,7,6.9
		c3.9,0,7-3.1,7-6.9c0-3.8-3.2-6.9-7-6.9S82.5,39.1,82.5,42.9z M85.9,42.9c0-2,1.6-3.6,3.6-3.6s3.6,1.6,3.6,3.6s-1.6,3.6-3.6,3.6
		S85.9,44.9,85.9,42.9z M98.5,42.9c0,3.8,3.2,6.9,7,6.9c3.9,0,7-3.1,7-6.9c0-3.8-3.2-6.9-7-6.9S98.5,39.1,98.5,42.9z M101.9,42.9
		c0-2,1.6-3.6,3.6-3.6s3.6,1.6,3.6,3.6s-1.6,3.6-3.6,3.6S101.9,44.9,101.9,42.9z M115.1,49.5h9.7v-3.3h-6.4v-10h-3.3V49.5z"/>
	<path id="GraphQL" class="st2" d="M73.7,23.3h2.1v0.2c-0.4,0.6-1.1,1-1.8,1c-1.3,0-2.3-1-2.3-2.3s1-2.3,2.3-2.3
		c0.7,0,1.4,0.3,1.8,0.9l1.8-1.2c-0.8-1.1-2.2-1.8-3.6-1.8c-2.5,0-4.6,2-4.6,4.5s2.1,4.5,4.6,4.5c0.9,0,1.7-0.3,2.2-1v0.7h1.7v-5
		h-4.1L73.7,23.3L73.7,23.3z M81.4,17.9v8.6h2.2v-2.3h1.1l1.6,2.3h2.6l-1.8-2.6c1.2-0.5,1.7-1.6,1.7-2.8c0-1.7-1-3.1-3.2-3.1h-4.2
		V17.9z M85.5,19.9c0.9,0,1.2,0.5,1.2,1.2c0,0.6-0.3,1.1-1.2,1.1h-1.9v-2.3H85.5z M95,17.9l-3.5,8.6h2.4l0.5-1.3h3.4l0.5,1.3h2.4
		l-3.5-8.6H95z M97,23.3h-1.9l0.9-2.5L97,23.3z M103.8,26.5h2.2v-1.9h1.6c2.3,0,3.4-1.5,3.4-3.3c0-1.7-1.1-3.3-3.4-3.3h-3.8
		C103.8,18,103.8,26.5,103.8,26.5z M107.5,19.9c0.9,0,1.3,0.6,1.3,1.3c0,0.8-0.3,1.3-1.3,1.3H106v-2.6H107.5z M120,17.9v3.3h-3.5
		v-3.3h-2.2v8.6h2.2v-3.2h3.5v3.2h2.2v-8.6H120z M125.6,22.2c0,2.2,1.7,4,3.8,4.4c1.5,0.5,2.5,2,4.2,2c0.8,0,1.8-0.3,2.4-1.2
		l-1.7-1.3c-0.2,0.4-0.6,0.4-0.7,0.4c-0.4,0-0.7-0.2-1.1-0.5c1.3-0.8,2.2-2.2,2.2-3.8c0-2.5-2-4.5-4.6-4.5
		C127.7,17.8,125.6,19.8,125.6,22.2z M127.8,22.2c0-1.3,1-2.3,2.3-2.3s2.3,1,2.3,2.3s-1,2.3-2.3,2.3S127.8,23.5,127.8,22.2z
		 M138.1,26.5v-8.6h2.2v6.5h4.1v2.1H138.1z"/>
</g>
<path id="Sofa" class="st1" d="M127.3,45.8V46c0,2.6,2.4,4.1,5.6,4.1c3,0,5.3-1.4,5.3-3.9c0-2.8-3-3.9-4.8-4.6l-0.6-0.2
	c-1.3-0.4-1.7-0.7-1.7-1.2c0-0.4,0.5-0.9,1.6-0.9c1.4,0,2,0.8,2,1.4v0.1h3.3v-0.3c0-2.6-2.3-4.3-5.4-4.3c-3,0-5.2,1.6-5.2,4.1
	c0,2.6,2.5,3.6,4.5,4.3l0.4,0.1c1.6,0.5,2.3,0.9,2.3,1.4c0,0.4-0.4,0.8-1.7,0.8c-1.5,0-2.2-0.7-2.2-1.2v-0.1h-3.4V45.8z"/>
</svg>
