<svg width="58" height="62" viewBox="0 0 58 62" fill="none" xmlns="http://www.w3.org/2000/svg">
<rect width="58" height="62" fill="#E5E5E5"/>
<g id="new-logos">
<rect width="1701" height="1041" transform="translate(-831 -259)" fill="white"/>
<g id="swift">
<g id="logos/shield">
<g id="Vector">
<mask id="path-1-outside-1" maskUnits="userSpaceOnUse" x="11" y="12" width="36" height="36" fill="black">
<rect fill="white" x="11" y="12" width="36" height="36"/>
<path d="M45.525 27.2903C46.6306 24.9212 45.4663 22.1446 45.4165 22.0276L45.0681 21.2139L44.2184 21.4645C44.1193 21.4938 42.2395 22.0629 40.9161 23.4857C40.7562 23.0032 40.5633 22.5441 40.313 22.1073C41.008 21.3202 41.9527 19.9374 41.9527 18.23C41.9527 15.6049 39.71 13.6425 39.6144 13.5603L38.9639 13L38.3133 13.5603C38.2181 13.6425 35.9751 15.6049 35.9751 18.23C35.9751 20.0551 37.0758 21.7794 38.4911 22.9449C39.0908 23.9002 39.3359 25.2273 39.5955 26.4473C39.4512 27.9303 39.8764 29.2952 40.0654 29.8127C40.0311 31.2555 39.7764 32.6848 39.3063 34.0682C38.0638 35.3037 37.607 37.0354 37.4608 37.7838C36.5011 39.1962 35.093 40.3599 34.005 41.128C31.8755 41.5635 30.3257 43.2667 30.2517 43.3495L30.1728 43.4374C29.7639 43.6574 29.3203 43.8921 28.9997 44.0646C28.6655 43.8846 28.2538 43.6667 27.8276 43.4371C26.8611 42.3734 25.4377 41.4232 23.9961 41.1282C22.9079 40.3596 21.4995 39.196 20.5401 37.7838C20.3936 37.0354 19.937 35.3037 18.6943 34.0679C18.2244 32.6848 17.9695 31.2555 17.9352 29.8125C18.1242 29.2952 18.5495 27.9297 18.4054 26.4467C18.6881 25.1108 18.9046 23.8792 19.4861 22.97C20.8955 21.7628 22.0255 20.023 22.0255 18.1636C22.0255 15.5268 19.7685 13.6275 19.6725 13.5479L19.0367 13.0215L18.401 13.5479C18.3049 13.6275 16.0477 15.5268 16.0477 18.1636C16.0477 19.873 16.9973 21.2863 17.6889 22.0894C17.4295 22.5298 17.2343 22.991 17.0749 23.4753C15.752 22.06 13.8811 21.4935 13.7822 21.4645L12.9325 21.2139L12.5841 22.0276C12.534 22.1446 11.37 24.9212 12.4756 27.2903C13.2656 28.9834 14.9914 29.9224 15.9607 30.3349C16.0041 31.1471 16.1092 31.9543 16.2743 32.7522C14.5724 32.3421 12.9556 32.7086 12.8645 32.7299L12 32.9328L12.1025 33.8142C12.1173 33.9405 12.4875 36.9291 14.6323 38.4294C15.9207 39.3311 17.6406 39.5345 19.2055 39.342C19.7867 40.1119 20.4606 40.8029 21.1325 41.3998C19.4871 42.0379 18.3573 43.2792 18.2943 43.3495L17.6993 44.0135L18.2943 44.6776C18.3792 44.7723 20.4056 47 23.0216 47C24.7832 47 26.2762 45.9904 27.0903 45.3017C29.1479 46.4049 28.3753 45.9987 28.9991 46.3403C30.335 45.6099 28.2432 46.7302 30.91 45.3017C31.7242 45.9904 33.2171 47 34.9788 47C37.5948 47 39.6212 44.7723 39.7061 44.6776L40.3011 44.0135L39.7061 43.3495C39.643 43.2792 38.5132 42.0382 36.8679 41.3998C37.5397 40.8029 38.2136 40.1119 38.7949 39.342C40.36 39.5345 42.0799 39.3309 43.368 38.4294C45.5131 36.9288 45.8814 33.94 45.8962 33.8134L45.998 32.9328L45.1341 32.7299C45.0429 32.7086 43.4274 32.3424 41.726 32.7522C41.8911 31.9543 41.9965 31.1471 42.0396 30.3349C43.009 29.9224 44.7348 28.9834 45.525 27.2903ZM19.0359 15.752C19.4944 16.3185 20.0328 17.1914 20.0328 18.1636C20.0328 19.1384 19.497 20.0193 19.0372 20.5955C18.5777 20.0188 18.0404 19.1361 18.0404 18.1636C18.0404 17.1888 18.5777 16.3177 19.0359 15.752ZM14.2814 26.4488C13.8663 25.5591 13.9678 24.5023 14.1321 23.7576C14.8291 24.1106 15.7375 24.7153 16.1539 25.6073C16.569 26.4968 16.4675 27.5533 16.3031 28.2983C15.6061 27.9456 14.6978 27.3406 14.2814 26.4488ZM15.7751 36.7986C14.9745 36.2383 14.5371 35.2783 14.3086 34.553C15.068 34.5219 16.1173 34.6075 16.9181 35.1675C17.719 35.7278 18.1593 36.6868 18.3906 37.4131C17.6284 37.4445 16.576 37.3589 15.7751 36.7986ZM23.0216 45.0091C22.0439 45.0091 21.1325 44.4755 20.5263 44.0135C21.1327 43.5513 22.0442 43.018 23.0216 43.018C23.9992 43.018 24.9104 43.551 25.5169 44.0135C24.9104 44.4758 23.9992 45.0091 23.0216 45.0091ZM43.868 23.756C44.0326 24.5013 44.1346 25.5586 43.719 26.4488C43.301 27.3443 42.3942 27.9482 41.698 28.2999C41.5331 27.5546 41.4314 26.4976 41.8467 25.6073C42.265 24.7114 43.172 24.1077 43.868 23.756ZM38.9639 15.7769C39.4247 16.3631 39.9602 17.2542 39.9602 18.23C39.9602 19.2041 39.4218 20.0653 38.9644 20.6212C38.5072 20.0647 37.9678 19.2022 37.9678 18.23C37.9678 17.2539 38.5034 16.3626 38.9639 15.7769ZM34.9788 45.0091C34.0019 45.0091 33.0912 44.4766 32.4848 44.0143C33.0922 43.5521 34.005 43.018 34.9788 43.018C35.9567 43.018 36.8681 43.5513 37.474 44.0135C36.8676 44.4758 35.9564 45.0091 34.9788 45.0091ZM43.6894 34.553C43.4604 35.2793 43.023 36.2404 42.2252 36.7986C41.4244 37.3589 40.3722 37.4445 39.61 37.4131C39.8413 36.6868 40.2816 35.7281 41.0825 35.1678C41.8828 34.6077 42.9311 34.5221 43.6894 34.553Z"/>
</mask>
<path d="M45.525 27.2903C46.6306 24.9212 45.4663 22.1446 45.4165 22.0276L45.0681 21.2139L44.2184 21.4645C44.1193 21.4938 42.2395 22.0629 40.9161 23.4857C40.7562 23.0032 40.5633 22.5441 40.313 22.1073C41.008 21.3202 41.9527 19.9374 41.9527 18.23C41.9527 15.6049 39.71 13.6425 39.6144 13.5603L38.9639 13L38.3133 13.5603C38.2181 13.6425 35.9751 15.6049 35.9751 18.23C35.9751 20.0551 37.0758 21.7794 38.4911 22.9449C39.0908 23.9002 39.3359 25.2273 39.5955 26.4473C39.4512 27.9303 39.8764 29.2952 40.0654 29.8127C40.0311 31.2555 39.7764 32.6848 39.3063 34.0682C38.0638 35.3037 37.607 37.0354 37.4608 37.7838C36.5011 39.1962 35.093 40.3599 34.005 41.128C31.8755 41.5635 30.3257 43.2667 30.2517 43.3495L30.1728 43.4374C29.7639 43.6574 29.3203 43.8921 28.9997 44.0646C28.6655 43.8846 28.2538 43.6667 27.8276 43.4371C26.8611 42.3734 25.4377 41.4232 23.9961 41.1282C22.9079 40.3596 21.4995 39.196 20.5401 37.7838C20.3936 37.0354 19.937 35.3037 18.6943 34.0679C18.2244 32.6848 17.9695 31.2555 17.9352 29.8125C18.1242 29.2952 18.5495 27.9297 18.4054 26.4467C18.6881 25.1108 18.9046 23.8792 19.4861 22.97C20.8955 21.7628 22.0255 20.023 22.0255 18.1636C22.0255 15.5268 19.7685 13.6275 19.6725 13.5479L19.0367 13.0215L18.401 13.5479C18.3049 13.6275 16.0477 15.5268 16.0477 18.1636C16.0477 19.873 16.9973 21.2863 17.6889 22.0894C17.4295 22.5298 17.2343 22.991 17.0749 23.4753C15.752 22.06 13.8811 21.4935 13.7822 21.4645L12.9325 21.2139L12.5841 22.0276C12.534 22.1446 11.37 24.9212 12.4756 27.2903C13.2656 28.9834 14.9914 29.9224 15.9607 30.3349C16.0041 31.1471 16.1092 31.9543 16.2743 32.7522C14.5724 32.3421 12.9556 32.7086 12.8645 32.7299L12 32.9328L12.1025 33.8142C12.1173 33.9405 12.4875 36.9291 14.6323 38.4294C15.9207 39.3311 17.6406 39.5345 19.2055 39.342C19.7867 40.1119 20.4606 40.8029 21.1325 41.3998C19.4871 42.0379 18.3573 43.2792 18.2943 43.3495L17.6993 44.0135L18.2943 44.6776C18.3792 44.7723 20.4056 47 23.0216 47C24.7832 47 26.2762 45.9904 27.0903 45.3017C29.1479 46.4049 28.3753 45.9987 28.9991 46.3403C30.335 45.6099 28.2432 46.7302 30.91 45.3017C31.7242 45.9904 33.2171 47 34.9788 47C37.5948 47 39.6212 44.7723 39.7061 44.6776L40.3011 44.0135L39.7061 43.3495C39.643 43.2792 38.5132 42.0382 36.8679 41.3998C37.5397 40.8029 38.2136 40.1119 38.7949 39.342C40.36 39.5345 42.0799 39.3309 43.368 38.4294C45.5131 36.9288 45.8814 33.94 45.8962 33.8134L45.998 32.9328L45.1341 32.7299C45.0429 32.7086 43.4274 32.3424 41.726 32.7522C41.8911 31.9543 41.9965 31.1471 42.0396 30.3349C43.009 29.9224 44.7348 28.9834 45.525 27.2903ZM19.0359 15.752C19.4944 16.3185 20.0328 17.1914 20.0328 18.1636C20.0328 19.1384 19.497 20.0193 19.0372 20.5955C18.5777 20.0188 18.0404 19.1361 18.0404 18.1636C18.0404 17.1888 18.5777 16.3177 19.0359 15.752ZM14.2814 26.4488C13.8663 25.5591 13.9678 24.5023 14.1321 23.7576C14.8291 24.1106 15.7375 24.7153 16.1539 25.6073C16.569 26.4968 16.4675 27.5533 16.3031 28.2983C15.6061 27.9456 14.6978 27.3406 14.2814 26.4488ZM15.7751 36.7986C14.9745 36.2383 14.5371 35.2783 14.3086 34.553C15.068 34.5219 16.1173 34.6075 16.9181 35.1675C17.719 35.7278 18.1593 36.6868 18.3906 37.4131C17.6284 37.4445 16.576 37.3589 15.7751 36.7986ZM23.0216 45.0091C22.0439 45.0091 21.1325 44.4755 20.5263 44.0135C21.1327 43.5513 22.0442 43.018 23.0216 43.018C23.9992 43.018 24.9104 43.551 25.5169 44.0135C24.9104 44.4758 23.9992 45.0091 23.0216 45.0091ZM43.868 23.756C44.0326 24.5013 44.1346 25.5586 43.719 26.4488C43.301 27.3443 42.3942 27.9482 41.698 28.2999C41.5331 27.5546 41.4314 26.4976 41.8467 25.6073C42.265 24.7114 43.172 24.1077 43.868 23.756ZM38.9639 15.7769C39.4247 16.3631 39.9602 17.2542 39.9602 18.23C39.9602 19.2041 39.4218 20.0653 38.9644 20.6212C38.5072 20.0647 37.9678 19.2022 37.9678 18.23C37.9678 17.2539 38.5034 16.3626 38.9639 15.7769ZM34.9788 45.0091C34.0019 45.0091 33.0912 44.4766 32.4848 44.0143C33.0922 43.5521 34.005 43.018 34.9788 43.018C35.9567 43.018 36.8681 43.5513 37.474 44.0135C36.8676 44.4758 35.9564 45.0091 34.9788 45.0091ZM43.6894 34.553C43.4604 35.2793 43.023 36.2404 42.2252 36.7986C41.4244 37.3589 40.3722 37.4445 39.61 37.4131C39.8413 36.6868 40.2816 35.7281 41.0825 35.1678C41.8828 34.6077 42.9311 34.5221 43.6894 34.553Z" fill="url(#paint0_linear)"/>
<path d="M45.525 27.2903C46.6306 24.9212 45.4663 22.1446 45.4165 22.0276L45.0681 21.2139L44.2184 21.4645C44.1193 21.4938 42.2395 22.0629 40.9161 23.4857C40.7562 23.0032 40.5633 22.5441 40.313 22.1073C41.008 21.3202 41.9527 19.9374 41.9527 18.23C41.9527 15.6049 39.71 13.6425 39.6144 13.5603L38.9639 13L38.3133 13.5603C38.2181 13.6425 35.9751 15.6049 35.9751 18.23C35.9751 20.0551 37.0758 21.7794 38.4911 22.9449C39.0908 23.9002 39.3359 25.2273 39.5955 26.4473C39.4512 27.9303 39.8764 29.2952 40.0654 29.8127C40.0311 31.2555 39.7764 32.6848 39.3063 34.0682C38.0638 35.3037 37.607 37.0354 37.4608 37.7838C36.5011 39.1962 35.093 40.3599 34.005 41.128C31.8755 41.5635 30.3257 43.2667 30.2517 43.3495L30.1728 43.4374C29.7639 43.6574 29.3203 43.8921 28.9997 44.0646C28.6655 43.8846 28.2538 43.6667 27.8276 43.4371C26.8611 42.3734 25.4377 41.4232 23.9961 41.1282C22.9079 40.3596 21.4995 39.196 20.5401 37.7838C20.3936 37.0354 19.937 35.3037 18.6943 34.0679C18.2244 32.6848 17.9695 31.2555 17.9352 29.8125C18.1242 29.2952 18.5495 27.9297 18.4054 26.4467C18.6881 25.1108 18.9046 23.8792 19.4861 22.97C20.8955 21.7628 22.0255 20.023 22.0255 18.1636C22.0255 15.5268 19.7685 13.6275 19.6725 13.5479L19.0367 13.0215L18.401 13.5479C18.3049 13.6275 16.0477 15.5268 16.0477 18.1636C16.0477 19.873 16.9973 21.2863 17.6889 22.0894C17.4295 22.5298 17.2343 22.991 17.0749 23.4753C15.752 22.06 13.8811 21.4935 13.7822 21.4645L12.9325 21.2139L12.5841 22.0276C12.534 22.1446 11.37 24.9212 12.4756 27.2903C13.2656 28.9834 14.9914 29.9224 15.9607 30.3349C16.0041 31.1471 16.1092 31.9543 16.2743 32.7522C14.5724 32.3421 12.9556 32.7086 12.8645 32.7299L12 32.9328L12.1025 33.8142C12.1173 33.9405 12.4875 36.9291 14.6323 38.4294C15.9207 39.3311 17.6406 39.5345 19.2055 39.342C19.7867 40.1119 20.4606 40.8029 21.1325 41.3998C19.4871 42.0379 18.3573 43.2792 18.2943 43.3495L17.6993 44.0135L18.2943 44.6776C18.3792 44.7723 20.4056 47 23.0216 47C24.7832 47 26.2762 45.9904 27.0903 45.3017C29.1479 46.4049 28.3753 45.9987 28.9991 46.3403C30.335 45.6099 28.2432 46.7302 30.91 45.3017C31.7242 45.9904 33.2171 47 34.9788 47C37.5948 47 39.6212 44.7723 39.7061 44.6776L40.3011 44.0135L39.7061 43.3495C39.643 43.2792 38.5132 42.0382 36.8679 41.3998C37.5397 40.8029 38.2136 40.1119 38.7949 39.342C40.36 39.5345 42.0799 39.3309 43.368 38.4294C45.5131 36.9288 45.8814 33.94 45.8962 33.8134L45.998 32.9328L45.1341 32.7299C45.0429 32.7086 43.4274 32.3424 41.726 32.7522C41.8911 31.9543 41.9965 31.1471 42.0396 30.3349C43.009 29.9224 44.7348 28.9834 45.525 27.2903ZM19.0359 15.752C19.4944 16.3185 20.0328 17.1914 20.0328 18.1636C20.0328 19.1384 19.497 20.0193 19.0372 20.5955C18.5777 20.0188 18.0404 19.1361 18.0404 18.1636C18.0404 17.1888 18.5777 16.3177 19.0359 15.752ZM14.2814 26.4488C13.8663 25.5591 13.9678 24.5023 14.1321 23.7576C14.8291 24.1106 15.7375 24.7153 16.1539 25.6073C16.569 26.4968 16.4675 27.5533 16.3031 28.2983C15.6061 27.9456 14.6978 27.3406 14.2814 26.4488ZM15.7751 36.7986C14.9745 36.2383 14.5371 35.2783 14.3086 34.553C15.068 34.5219 16.1173 34.6075 16.9181 35.1675C17.719 35.7278 18.1593 36.6868 18.3906 37.4131C17.6284 37.4445 16.576 37.3589 15.7751 36.7986ZM23.0216 45.0091C22.0439 45.0091 21.1325 44.4755 20.5263 44.0135C21.1327 43.5513 22.0442 43.018 23.0216 43.018C23.9992 43.018 24.9104 43.551 25.5169 44.0135C24.9104 44.4758 23.9992 45.0091 23.0216 45.0091ZM43.868 23.756C44.0326 24.5013 44.1346 25.5586 43.719 26.4488C43.301 27.3443 42.3942 27.9482 41.698 28.2999C41.5331 27.5546 41.4314 26.4976 41.8467 25.6073C42.265 24.7114 43.172 24.1077 43.868 23.756ZM38.9639 15.7769C39.4247 16.3631 39.9602 17.2542 39.9602 18.23C39.9602 19.2041 39.4218 20.0653 38.9644 20.6212C38.5072 20.0647 37.9678 19.2022 37.9678 18.23C37.9678 17.2539 38.5034 16.3626 38.9639 15.7769ZM34.9788 45.0091C34.0019 45.0091 33.0912 44.4766 32.4848 44.0143C33.0922 43.5521 34.005 43.018 34.9788 43.018C35.9567 43.018 36.8681 43.5513 37.474 44.0135C36.8676 44.4758 35.9564 45.0091 34.9788 45.0091ZM43.6894 34.553C43.4604 35.2793 43.023 36.2404 42.2252 36.7986C41.4244 37.3589 40.3722 37.4445 39.61 37.4131C39.8413 36.6868 40.2816 35.7281 41.0825 35.1678C41.8828 34.6077 42.9311 34.5221 43.6894 34.553Z" stroke="url(#paint1_linear)" stroke-width="0.6" stroke-linecap="round" stroke-linejoin="round" mask="url(#path-1-outside-1)"/>
</g>
<path id="Path (Stroke)" fill-rule="evenodd" clip-rule="evenodd" d="M29.0001 40.1666C29.0001 40.1666 36.3334 36.4999 36.3334 30.9999V24.5833L29.0001 21.8333L21.6667 24.5833V30.9999C21.6667 36.4999 29.0001 40.1666 29.0001 40.1666ZM24.6667 26.6623V30.9999C24.6667 32.4106 25.6548 33.9407 27.3089 35.388C27.8942 35.9001 28.4878 36.3348 29.0001 36.6767C29.5124 36.3348 30.106 35.9001 30.6912 35.388C32.3453 33.9407 33.3334 32.4106 33.3334 30.9999V26.6623L29.0001 25.0373L24.6667 26.6623ZM30.3465 37.4857C30.349 37.487 30.3499 37.4874 30.3491 37.487L30.3467 37.4858L30.3465 37.4857Z" fill="url(#paint2_linear)"/>
<path id="Union" fill-rule="evenodd" clip-rule="evenodd" d="M5 11.675C5.72791 11.675 6.41949 11.8306 7.04332 12.1103L26.1439 1.125C27.0439 0.625 28.1439 0.324951 29.1439 0.324951C30.2439 0.324951 31.2439 0.625 32.1439 1.125L48.5439 10.625C47.3439 11.425 46.4439 12.6249 45.8439 14.0249L29.9438 4.82495C29.6439 4.625 29.344 4.625 29.0441 4.625H29.0439C28.7439 4.625 28.4439 4.72495 28.1439 4.82495L9.82254 15.35C9.93823 15.772 10 16.2163 10 16.675C10 19.4365 7.76142 21.675 5 21.675C2.23858 21.675 0 19.4365 0 16.675C0 13.9136 2.23858 11.675 5 11.675ZM51.3492 11.954C51.866 11.7733 52.4215 11.675 53 11.675C55.7614 11.675 58 13.9136 58 16.675C58 18.5076 57.0142 20.1099 55.5439 20.9805V41.5249C55.5439 43.7249 54.3439 45.725 52.5439 46.825L36.1439 56.225C36.1439 54.725 35.6438 53.225 34.7438 52.125L50.3439 43.125C50.9439 42.825 51.2438 42.2249 51.2438 41.5249V21.3579C49.5846 20.7354 48.3442 19.2564 48.0611 17.4593C47.9844 17.1284 47.9438 16.7825 47.9438 16.4249C47.9438 15.4249 48.2439 14.525 48.8439 13.725C48.8939 13.675 48.9439 13.6 48.9939 13.525C49.0439 13.45 49.0939 13.375 49.1439 13.325C49.4439 13.025 49.6438 12.825 49.9438 12.625C49.9438 12.625 50.0439 12.6249 50.0439 12.5249C50.1057 12.4631 50.1675 12.4395 50.2528 12.4069C50.3056 12.3868 50.3674 12.3632 50.4438 12.325C50.4438 12.325 50.5439 12.325 50.5439 12.225C50.6439 12.175 50.7189 12.15 50.7939 12.1249C50.8689 12.0999 50.9439 12.0749 51.0439 12.0249C51.1403 12.0008 51.2425 11.9767 51.3492 11.954ZM33.8439 55.4305C33.9458 55.8284 34 56.2454 34 56.675C34 59.4365 31.7614 61.675 29 61.675C26.5102 61.675 24.4454 59.8552 24.0633 57.473L5.84387 46.9249C3.94387 45.8249 2.84387 43.825 2.84387 41.625V23.125C3.54387 23.325 4.34388 23.5249 5.04388 23.5249C5.74388 23.5249 6.44388 23.425 7.04388 23.225V41.625C7.04388 42.325 7.44385 42.925 7.94385 43.225L25.3263 53.2833C26.2398 52.2943 27.5476 51.675 29 51.675C31.3291 51.675 33.2862 53.2675 33.8419 55.423L33.8436 55.4247L33.8439 55.4249V55.4305Z" fill="url(#paint3_linear)"/>
</g>
</g>
</g>
<defs>
<linearGradient id="paint0_linear" x1="8.1689" y1="11.7958" x2="59.2392" y2="63.1644" gradientUnits="userSpaceOnUse">
<stop stop-color="#47DEFF"/>
<stop offset="1" stop-color="#9847FF"/>
</linearGradient>
<linearGradient id="paint1_linear" x1="8.1689" y1="11.7958" x2="59.2392" y2="63.1644" gradientUnits="userSpaceOnUse">
<stop stop-color="#47DEFF"/>
<stop offset="1" stop-color="#9847FF"/>
</linearGradient>
<linearGradient id="paint2_linear" x1="20.0141" y1="21.1839" x2="46.9147" y2="42.8301" gradientUnits="userSpaceOnUse">
<stop stop-color="#47DEFF"/>
<stop offset="1" stop-color="#9847FF"/>
</linearGradient>
<linearGradient id="paint3_linear" x1="-6.5354" y1="-1.84798" x2="85.5015" y2="85.6715" gradientUnits="userSpaceOnUse">
<stop stop-color="#47DEFF"/>
<stop offset="1" stop-color="#9847FF"/>
</linearGradient>
</defs>
</svg>
