<svg width="59" height="62" viewBox="0 0 59 62" fill="none" xmlns="http://www.w3.org/2000/svg">
<path d="M46.1749 27.2903C47.2806 24.9212 46.1162 22.1446 46.0664 22.0276L45.718 21.2139L44.8684 21.4645C44.7692 21.4938 42.8894 22.0629 41.566 23.4857C41.4061 23.0032 41.2132 22.5441 40.9629 22.1073C41.6579 21.3202 42.6026 19.9374 42.6026 18.23C42.6026 15.6049 40.3599 13.6425 40.2643 13.5603L39.6138 13L38.9632 13.5603C38.868 13.6425 36.625 15.6049 36.625 18.23C36.625 20.0551 37.7257 21.7794 39.1411 22.9449C39.7407 23.9002 39.9858 25.2273 40.2454 26.4473C40.1011 27.9303 40.5263 29.2952 40.7153 29.8127C40.681 31.2555 40.4263 32.6848 39.9562 34.0682C38.7138 35.3037 38.2569 37.0354 38.1107 37.7838C37.151 39.1962 35.7429 40.3599 34.6549 41.128C32.5254 41.5635 30.9756 43.2667 30.9016 43.3495L30.8227 43.4374C30.4138 43.6574 29.9702 43.8921 29.6496 44.0646C29.3154 43.8846 28.9037 43.6667 28.4775 43.4371C27.511 42.3734 26.0876 41.4232 24.646 41.1282C23.5578 40.3596 22.1494 39.196 21.19 37.7838C21.0436 37.0354 20.5869 35.3037 19.3442 34.0679C18.8743 32.6848 18.6194 31.2555 18.5851 29.8125C18.7741 29.2952 19.1994 27.9297 19.0553 26.4467C19.338 25.1108 19.5545 23.8792 20.136 22.97C21.5454 21.7628 22.6754 20.023 22.6754 18.1636C22.6754 15.5268 20.4184 13.6275 20.3224 13.5479L19.6866 13.0215L19.0509 13.5479C18.9548 13.6275 16.6976 15.5268 16.6976 18.1636C16.6976 19.873 17.6472 21.2863 18.3388 22.0894C18.0794 22.5298 17.8842 22.991 17.7248 23.4753C16.4019 22.06 14.531 21.4935 14.4321 21.4645L13.5824 21.2139L13.234 22.0276C13.1839 22.1446 12.0199 24.9212 13.1255 27.2903C13.9155 28.9834 15.6413 29.9224 16.6106 30.3349C16.654 31.1471 16.7591 31.9543 16.9242 32.7522C15.2223 32.3421 13.6055 32.7086 13.5144 32.7299L12.6499 32.9328L12.7524 33.8142C12.7672 33.9405 13.1374 36.9291 15.2822 38.4294C16.5706 39.3311 18.2905 39.5345 19.8554 39.342C20.4366 40.1119 21.1105 40.8029 21.7824 41.3998C20.137 42.0379 19.0072 43.2792 18.9442 43.3495L18.3492 44.0135L18.9442 44.6776C19.0291 44.7723 21.0555 47 23.6715 47C25.4331 47 26.9261 45.9904 27.7402 45.3017C29.7978 46.4049 29.0252 45.9987 29.649 46.3403C30.9849 45.6099 28.8931 46.7302 31.56 45.3017C32.3741 45.9904 33.867 47 35.6287 47C38.2447 47 40.2711 44.7723 40.356 44.6776L40.951 44.0135L40.356 43.3495C40.2929 43.2792 39.1631 42.0382 37.5178 41.3998C38.1896 40.8029 38.8635 40.1119 39.4448 39.342C41.0099 39.5345 42.7298 39.3309 44.0179 38.4294C46.163 36.9288 46.5313 33.94 46.5461 33.8134L46.6479 32.9328L45.784 32.7299C45.6928 32.7086 44.0773 32.3424 42.3759 32.7522C42.541 31.9543 42.6464 31.1471 42.6895 30.3349C43.6589 29.9224 45.3847 28.9834 46.1749 27.2903ZM19.6858 15.752C20.1443 16.3185 20.6827 17.1914 20.6827 18.1636C20.6827 19.1384 20.1469 20.0193 19.6871 20.5955C19.2276 20.0188 18.6903 19.1361 18.6903 18.1636C18.6903 17.1888 19.2276 16.3177 19.6858 15.752ZM14.9313 26.4488C14.5162 25.5591 14.6177 24.5023 14.782 23.7576C15.479 24.1106 16.3874 24.7153 16.8038 25.6073C17.2189 26.4968 17.1174 27.5533 16.953 28.2983C16.256 27.9456 15.3477 27.3406 14.9313 26.4488ZM16.425 36.7986C15.6244 36.2383 15.187 35.2783 14.9585 34.553C15.7179 34.5219 16.7672 34.6075 17.568 35.1675C18.3689 35.7278 18.8092 36.6868 19.0405 37.4131C18.2783 37.4445 17.2259 37.3589 16.425 36.7986ZM23.6715 45.0091C22.6938 45.0091 21.7824 44.4755 21.1762 44.0135C21.7826 43.5513 22.6941 43.018 23.6715 43.018C24.6491 43.018 25.5603 43.551 26.1668 44.0135C25.5603 44.4758 24.6491 45.0091 23.6715 45.0091ZM44.5179 23.756C44.6825 24.5013 44.7845 25.5586 44.3689 26.4488C43.9509 27.3443 43.0441 27.9482 42.3479 28.2999C42.183 27.5546 42.0813 26.4976 42.4966 25.6073C42.9149 24.7114 43.8219 24.1077 44.5179 23.756ZM39.6138 15.7769C40.0746 16.3631 40.6101 17.2542 40.6101 18.23C40.6101 19.2041 40.0717 20.0653 39.6143 20.6212C39.1571 20.0647 38.6177 19.2022 38.6177 18.23C38.6177 17.2539 39.1533 16.3626 39.6138 15.7769ZM35.6287 45.0091C34.6518 45.0091 33.7411 44.4766 33.1347 44.0143C33.7421 43.5521 34.6549 43.018 35.6287 43.018C36.6066 43.018 37.518 43.5513 38.1239 44.0135C37.5175 44.4758 36.6063 45.0091 35.6287 45.0091ZM44.3393 34.553C44.1103 35.2793 43.6729 36.2404 42.8751 36.7986C42.0743 37.3589 41.0221 37.4445 40.2599 37.4131C40.4912 36.6868 40.9315 35.7281 41.7324 35.1678C42.5327 34.6077 43.581 34.5221 44.3393 34.553Z" fill="url(#paint0_linear)"/>
<path fill-rule="evenodd" clip-rule="evenodd" d="M29.65 40.1666C29.65 40.1666 36.9833 36.4999 36.9833 30.9999V24.5833L29.65 21.8333L22.3167 24.5833V30.9999C22.3167 36.4999 29.65 40.1666 29.65 40.1666ZM25.3167 26.6623V30.9999C25.3167 32.4106 26.3047 33.9407 27.9588 35.388C28.5441 35.9001 29.1377 36.3348 29.65 36.6767C30.1623 36.3348 30.7559 35.9001 31.3411 35.388C32.9952 33.9407 33.9833 32.4106 33.9833 30.9999V26.6623L29.65 25.0373L25.3167 26.6623ZM30.999 37.487C30.9998 37.4874 30.9989 37.487 30.9964 37.4857L30.999 37.487Z" fill="url(#paint1_linear)"/>
<path fill-rule="evenodd" clip-rule="evenodd" d="M5.6499 11.675C6.37781 11.675 7.0694 11.8306 7.69322 12.1103L26.7938 1.125C27.6938 0.625 28.7938 0.324951 29.7938 0.324951C30.8938 0.324951 31.8938 0.625 32.7938 1.125L49.1938 10.625C47.9938 11.425 47.0938 12.6249 46.4938 14.0249L30.5938 4.82495C30.2938 4.625 29.9939 4.625 29.694 4.625H29.6938C29.3938 4.625 29.0938 4.72495 28.7938 4.82495L10.4724 15.35C10.5881 15.772 10.6499 16.2163 10.6499 16.675C10.6499 19.4365 8.41133 21.675 5.6499 21.675C2.88848 21.675 0.649902 19.4365 0.649902 16.675C0.649902 13.9136 2.88848 11.675 5.6499 11.675ZM51.9991 11.954C52.5159 11.7733 53.0714 11.675 53.6499 11.675C56.4113 11.675 58.6499 13.9136 58.6499 16.675C58.6499 18.5076 57.6641 20.1099 56.1938 20.9805V41.5249C56.1938 43.7249 54.9938 45.725 53.1938 46.825L36.7938 56.225C36.7938 54.725 36.2937 53.225 35.3937 52.125L50.9938 43.125C51.5938 42.825 51.8937 42.2249 51.8937 41.5249V21.3579C50.2345 20.7354 48.9941 19.2564 48.711 17.4593C48.6343 17.1284 48.5938 16.7825 48.5938 16.4249C48.5938 15.4249 48.8938 14.525 49.4938 13.725C49.5438 13.675 49.5938 13.6 49.6438 13.525C49.6938 13.45 49.7438 13.375 49.7938 13.325C50.0938 13.025 50.2938 12.825 50.5938 12.625C50.5938 12.625 50.6938 12.6249 50.6938 12.5249C50.7556 12.4631 50.8174 12.4395 50.9027 12.4069C50.9555 12.3868 51.0173 12.3632 51.0938 12.325C51.0938 12.325 51.1938 12.325 51.1938 12.225C51.2938 12.175 51.3688 12.15 51.4438 12.1249C51.5188 12.0999 51.5938 12.0749 51.6938 12.0249C51.7902 12.0008 51.8924 11.9767 51.9991 11.954ZM34.4938 55.4305C34.5957 55.8284 34.6499 56.2454 34.6499 56.675C34.6499 59.4365 32.4113 61.675 29.6499 61.675C27.1601 61.675 25.0953 59.8552 24.7132 57.473L6.49377 46.9249C4.59377 45.8249 3.49377 43.825 3.49377 41.625V23.125C4.19377 23.325 4.99379 23.5249 5.69379 23.5249C6.39379 23.5249 7.09379 23.425 7.69379 23.225V41.625C7.69379 42.325 8.09375 42.925 8.59375 43.225L25.9762 53.2833C26.8897 52.2943 28.1975 51.675 29.6499 51.675C31.979 51.675 33.9361 53.2675 34.4919 55.423L34.4935 55.4247L34.4938 55.4249V55.4305Z" fill="url(#paint2_linear)"/>
<defs>
<linearGradient id="paint0_linear" x1="8.81881" y1="11.7958" x2="59.8891" y2="63.1644" gradientUnits="userSpaceOnUse">
<stop stop-color="#47DEFF"/>
<stop offset="1" stop-color="#9847FF"/>
</linearGradient>
<linearGradient id="paint1_linear" x1="20.664" y1="21.1839" x2="47.5646" y2="42.8301" gradientUnits="userSpaceOnUse">
<stop stop-color="#47DEFF"/>
<stop offset="1" stop-color="#9847FF"/>
</linearGradient>
<linearGradient id="paint2_linear" x1="-5.8855" y1="-1.84798" x2="86.1514" y2="85.6715" gradientUnits="userSpaceOnUse">
<stop stop-color="#47DEFF"/>
<stop offset="1" stop-color="#9847FF"/>
</linearGradient>
</defs>
</svg>
