<svg width="54" height="54" viewBox="0 0 54 54" fill="none" xmlns="http://www.w3.org/2000/svg">
<path fill-rule="evenodd" clip-rule="evenodd" d="M4.02821 17.9612C2.79364 17.2557 2 15.933 2 14.4338C2 12.2293 3.85189 10.3774 6.05647 10.3774C6.67376 10.3774 7.20285 10.4656 7.64377 10.7302L24.6632 0.941839C25.4568 0.500922 26.4268 0.236328 27.3087 0.236328C28.2787 0.236328 29.1605 0.500922 29.9542 0.941839L44.4163 9.31927C43.3581 10.0247 42.5644 11.0829 42.0353 12.3174L28.0141 4.20459C27.7496 4.02822 27.4851 4.02826 27.2205 4.02826C26.956 4.02826 26.6914 4.1164 26.4268 4.20459L9.84835 13.7284C9.84835 13.993 9.93651 14.1693 9.93651 14.4338C9.93651 16.1975 8.79013 17.6085 7.29101 18.2258C7.20283 18.2258 7.02649 18.3139 6.93831 18.3139H6.85009C6.76191 18.3139 6.58557 18.4021 6.49739 18.4021H6.40917C6.23281 18.4021 6.14462 18.4021 5.96826 18.4021C5.79189 18.4021 5.61554 18.4021 5.43918 18.4021H5.35096C5.26278 18.4021 5.08644 18.4021 4.99826 18.3139H4.91004C4.64549 18.2258 4.29276 18.1376 4.02821 17.9612ZM52.0001 14.4338C52.0001 15.6684 51.471 16.7266 50.5891 17.4321V36.5679C50.5891 38.5079 49.5309 40.2716 47.9436 41.2417L33.4815 49.5309C33.4815 48.2082 33.0406 46.8854 32.2469 45.9154L46.0036 37.9789C46.5327 37.7144 46.7972 37.1852 46.7972 36.5679V18.3139C45.1217 17.7848 43.8872 16.2857 43.8872 14.4338C43.8872 13.552 44.1517 12.7584 44.6808 12.0529C44.769 11.9648 44.8572 11.7884 44.9454 11.7002C45.2099 11.4356 45.3863 11.2593 45.6508 11.0829C45.6508 11.0829 45.739 11.0829 45.739 10.9947C45.8272 10.9065 45.9154 10.9065 46.0917 10.8183C46.0917 10.8183 46.18 10.8184 46.18 10.7302C46.3563 10.642 46.4445 10.6419 46.6209 10.5538C46.9736 10.4656 47.4145 10.3774 47.8554 10.3774C50.1482 10.3774 52.0001 12.2293 52.0001 14.4338ZM31.3651 49.7072C31.3651 49.8836 31.3651 50.1482 31.2769 50.3246V50.4128C30.9242 52.2646 29.3369 53.7637 27.3087 53.7637C25.545 53.7637 24.0459 52.6173 23.5168 51.03L6.76193 41.3298C5.08644 40.3598 4.11643 38.5962 4.11643 36.6562V20.3422C4.73371 20.5186 5.43919 20.6949 6.05647 20.6949C6.67376 20.6949 7.29104 20.6067 7.82014 20.4304V36.6562C7.82014 37.2734 8.17284 37.8025 8.61376 38.0671L24.3104 47.1499C25.0159 46.2681 26.1623 45.739 27.3968 45.739C28.7196 45.739 29.866 46.3563 30.6596 47.4145C30.6596 47.4145 30.6596 47.4145 30.6596 47.5027C30.7478 47.5908 30.7478 47.6791 30.836 47.7673C30.836 47.7673 30.836 47.8554 30.9242 47.8554C30.9242 47.9436 31.0124 48.0317 31.0124 48.0317C31.0124 48.0317 31.0124 48.12 31.1006 48.12C31.1006 48.2082 31.1888 48.2963 31.1888 48.2963C31.1888 48.3845 31.1887 48.3845 31.2769 48.4727C31.2769 48.5608 31.3651 48.5609 31.3651 48.6491C31.3651 48.7373 31.3651 48.7372 31.4533 48.8254C31.4533 48.9136 31.4533 48.9137 31.4533 49.0018C31.4533 49.09 31.4533 49.1781 31.4533 49.2663C31.4533 49.3545 31.4533 49.3546 31.4533 49.4428C31.3651 49.4428 31.3651 49.5309 31.3651 49.7072Z" fill="#E873FF"/>
<path d="M35.7087 20.5904V19.7297C35.7087 17.6258 33.9873 16 31.979 16H20.6943C18.5904 16 16.9646 17.7214 16.9646 19.7297V20.5904C15.3388 20.973 14 22.4075 14 24.2245V34.6485C14 35.1266 14.3825 35.5092 14.8607 35.5092H17.1559L16.9646 37.8044L18.686 37.9L18.8773 35.5092H33.796L33.9873 37.9L35.7087 37.8044L35.5174 35.5092H38.1952C38.6733 35.5092 39.0558 35.1266 39.0558 34.6485V24.2245C39.0558 22.3119 37.6213 20.7817 35.7087 20.5904ZM20.6943 17.7214H31.979C33.1266 17.7214 34.0829 18.6777 34.0829 19.8253V20.8774C32.6485 21.3555 31.6921 22.79 31.6921 24.3201V28.8149H21.4594V24.3201C21.4594 22.5988 20.3117 21.1642 18.686 20.7817V19.8253C18.686 18.5821 19.5467 17.7214 20.6943 17.7214ZM37.3344 33.7878H15.7214V24.2245C15.7214 23.1726 16.5821 22.2162 17.7297 22.2162C18.7816 22.2162 19.738 23.0769 19.738 24.2245V29.58C19.738 30.0581 20.1205 30.4407 20.5986 30.4407H32.5528C33.0309 30.4407 33.4135 30.0581 33.4135 29.58V24.2245C33.4135 23.1726 34.2742 22.2162 35.4218 22.2162C36.4737 22.2162 37.4301 23.0769 37.4301 24.2245V33.7878H37.3344Z" fill="#E873FF"/>
</svg>
