<svg width="278" height="215" viewBox="0 0 278 215" fill="none" xmlns="http://www.w3.org/2000/svg">
  <g clip-path="url(#clip0_1688_14217)">
    <path
      d="M244.717 122.501C243.802 122.037 242.791 121.794 241.765 121.794C240.739 121.794 239.727 122.037 238.812 122.501L162.637 166.501C161.003 167.444 161.003 168.971 162.637 169.913C163.552 170.374 164.563 170.615 165.589 170.615C166.614 170.615 167.625 170.374 168.541 169.913L244.717 125.913C246.343 124.971 246.343 123.443 244.717 122.501Z"
      fill="#0B0D11"
      fill-opacity="0.4"
    />
    <g filter="url(#filter0_bd_1688_14217)">
      <path
        d="M257.734 98.6696C257.698 98.6096 257.645 98.5622 257.581 98.5337C257.517 98.5051 257.446 98.4969 257.377 98.51L252.772 99.5283L254.588 102.614L257.704 99.0723C257.755 99.019 257.785 98.9498 257.791 98.8764C257.796 98.803 257.776 98.7299 257.734 98.6696Z"
        fill="url(#paint0_linear_1688_14217)"
      />
    </g>
    <path
      d="M255.918 100.949C255.898 100.587 255.792 100.234 255.608 99.9208C255.424 99.6075 255.168 99.3426 254.862 99.1483C254.761 99.0802 254.646 99.0371 254.526 99.0226C254.406 99.008 254.284 99.0225 254.17 99.0647C248.845 99.0205 243.607 100.423 239.017 103.123L238.683 103.313L244.413 113.055L246.107 111.93C249.683 109.558 252.697 106.433 254.938 102.773L255.698 101.595C255.782 101.512 255.846 101.411 255.884 101.298C255.923 101.186 255.934 101.067 255.918 100.949Z"
      fill="#0D0E11"
    />
    <path
      fill-rule="evenodd"
      clip-rule="evenodd"
      d="M244.354 106.531C245.056 107.727 245.467 109.072 245.553 110.456C245.564 111.73 245.127 112.628 244.411 113.052L244.413 113.055L210.444 134.219L203.68 122.714L238.616 103.357C239.339 102.89 240.366 102.925 241.51 103.571C242.677 104.321 243.651 105.334 244.354 106.531Z"
      fill="url(#paint1_linear_1688_14217)"
    />
    <path
      d="M211.797 131.149C211.695 129.513 211.209 127.925 210.379 126.512C209.548 125.099 208.396 123.902 207.017 123.018C204.395 121.498 202.29 122.767 202.32 125.776C202.421 127.413 202.906 129.003 203.736 130.418C204.567 131.832 205.719 133.03 207.1 133.915C209.714 135.397 211.819 134.158 211.797 131.149Z"
      fill="#24272E"
    />
    <path
      d="M209.859 132.289C209.757 130.653 209.271 129.065 208.441 127.652C207.61 126.239 206.458 125.042 205.079 124.158C202.457 122.638 200.352 123.907 200.382 126.916C200.482 128.552 200.967 130.142 201.798 131.555C202.628 132.968 203.781 134.165 205.162 135.047C207.776 136.537 209.881 135.298 209.859 132.289Z"
      fill="#24272E"
    />
    <path
      d="M212.138 130.952C212.036 129.315 211.55 127.726 210.72 126.312C209.889 124.898 208.738 123.699 207.358 122.813C206.044 122.053 204.866 122.007 204.015 122.509L201.469 124.029L202.685 126.096C202.857 127.558 203.33 128.97 204.076 130.24C204.822 131.51 205.823 132.611 207.016 133.475L208.232 135.534L210.778 134.014C211.629 133.513 212.146 132.456 212.138 130.952Z"
      fill="#0D0E11"
    />
    <path
      d="M172.28 140.238L170.851 139.425C170.361 139.206 169.821 139.121 169.287 139.178C168.753 139.236 168.244 139.433 167.812 139.752L162.918 142.632C162.43 142.954 162.024 143.387 161.735 143.895C161.446 144.404 161.281 144.973 161.253 145.557V148.004C161.233 148.459 161.059 148.893 160.759 149.236L160.942 150.375L159.718 149.676C159.619 149.615 159.538 149.527 159.486 149.422C159.434 149.317 159.412 149.2 159.422 149.084V146.637C159.484 145.423 159.83 144.241 160.432 143.185C161.034 142.129 161.875 141.229 162.887 140.557L167.781 137.677C169.415 136.719 170.958 136.552 172.128 137.213L173.549 138.027C174.039 138.245 174.579 138.331 175.113 138.273C175.647 138.216 176.156 138.018 176.589 137.7L196.347 126.103C196.44 126.034 196.549 125.99 196.664 125.978C196.78 125.966 196.896 125.986 197.001 126.035L198.217 126.734L197.175 127.137C197.033 127.575 196.746 127.953 196.362 128.208L176.627 139.805C174.985 140.732 173.443 140.899 172.28 140.238Z"
      fill="#0D0E11"
    />
    <path
      d="M172.09 140.132C171.599 139.913 171.06 139.828 170.526 139.885C169.992 139.942 169.483 140.14 169.05 140.458L164.156 143.338C163.67 143.662 163.266 144.095 162.979 144.604C162.691 145.112 162.527 145.681 162.499 146.264V148.711C162.486 149.029 162.398 149.339 162.242 149.616C162.086 149.894 161.867 150.13 161.603 150.307C161.101 150.596 160.691 150.368 160.683 149.783V147.336C160.744 146.123 161.088 144.941 161.689 143.885C162.289 142.829 163.129 141.929 164.141 141.256L169.035 138.384C170.676 137.419 172.219 137.251 173.382 137.913L174.81 138.726C175.301 138.945 175.84 139.03 176.374 138.972C176.908 138.915 177.417 138.717 177.85 138.399L197.608 126.802C198.11 126.506 198.52 126.742 198.52 127.319C198.507 127.636 198.419 127.945 198.263 128.221C198.107 128.497 197.888 128.732 197.623 128.907L177.865 140.504C176.231 141.469 174.689 141.636 173.518 140.975L172.09 140.132Z"
      fill="#0D0E11"
    />
    <path
      fill-rule="evenodd"
      clip-rule="evenodd"
      d="M209.593 132.449C209.491 130.811 209.004 129.221 208.172 127.807C207.34 126.392 206.187 125.194 204.805 124.31C203.642 123.65 202.58 123.53 201.761 123.864L201.742 123.831L156.801 150.251L156.801 150.251C155.949 150.753 155.428 151.824 155.44 153.331C155.542 154.968 156.028 156.558 156.858 157.971C157.689 159.385 158.84 160.584 160.22 161.47C161.624 162.267 162.882 162.277 163.742 161.65L207.964 135.653C208.145 135.576 208.315 135.476 208.471 135.355L208.505 135.335L208.502 135.33C209.192 134.775 209.603 133.788 209.593 132.449Z"
      fill="url(#paint2_linear_1688_14217)"
    />
    <path
      d="M107.762 75.7196C116.319 75.7196 123.257 71.7151 123.257 66.7752C123.257 61.8354 116.319 57.8308 107.762 57.8308C99.204 57.8308 92.2666 61.8354 92.2666 66.7752C92.2666 71.7151 99.204 75.7196 107.762 75.7196Z"
      fill="#0B0D11"
      fill-opacity="0.4"
    />
    <path
      d="M125.385 59.1227V54.1756H124.45C123.41 52.5108 121.953 51.1461 120.225 50.2163C113.34 46.2419 102.176 46.2419 95.2988 50.2163C93.5679 51.1459 92.109 52.5105 91.066 54.1756H90.1465V59.0923C90.1465 61.7065 91.8487 64.3207 95.3064 66.3193C102.184 70.2937 113.347 70.2937 120.232 66.3193C123.66 64.3282 125.385 61.7293 125.385 59.1227Z"
      fill="url(#paint3_linear_1688_14217)"
    />
    <path
      d="M107.762 64.351C117.494 64.351 125.384 59.7953 125.384 54.1755C125.384 48.5557 117.494 44 107.762 44C98.0287 44 90.1387 48.5557 90.1387 54.1755C90.1387 59.7953 98.0287 64.351 107.762 64.351Z"
      fill="url(#paint4_linear_1688_14217)"
    />
    <path
      d="M163.222 157.747C163.082 156.735 162.72 155.766 162.162 154.911C161.603 154.055 160.862 153.334 159.992 152.8C158.312 151.85 157.028 152.518 157.135 154.319C157.275 155.33 157.638 156.297 158.196 157.151C158.754 158.005 159.495 158.725 160.364 159.259C162.044 160.186 163.328 159.517 163.222 157.747Z"
      fill="#0D0E11"
    />
    <path
      d="M96.6132 166.174L82.98 158.301L96.6132 150.436L110.239 158.301L96.6132 166.174Z"
      fill="#0B0D11"
      fill-opacity="0.4"
    />
    <path
      d="M110.239 148.308L96.6133 156.181V140.443L110.239 132.57V148.308Z"
      fill="url(#paint5_linear_1688_14217)"
    />
    <path
      d="M96.6132 140.443L82.98 132.57L96.6132 124.697L110.239 132.57L96.6132 140.443Z"
      fill="url(#paint6_linear_1688_14217)"
    />
    <path
      d="M96.6132 156.181L82.98 148.308V132.57L96.6132 140.443V156.181Z"
      fill="url(#paint7_linear_1688_14217)"
    />
    <g filter="url(#filter1_bd_1688_14217)">
      <path
        d="M144.725 67.2919C144.725 64.0622 142.445 62.7323 139.656 64.3586L92.1451 91.7162C91.7404 91.9803 91.4037 92.3361 91.1621 92.7546C90.9205 93.1731 90.7808 93.6426 90.7544 94.1252C90.7544 95.0143 91.3775 95.3715 92.1451 94.9307L139.656 67.5731C140.918 66.8132 141.936 67.4363 141.936 68.8954V74.2149C142.855 74.1541 143.782 74.1541 144.717 74.1693L144.725 67.2919Z"
        fill="url(#paint8_linear_1688_14217)"
      />
    </g>
    <g filter="url(#filter2_bd_1688_14217)">
      <path
        d="M161.075 155.755C161.433 156.365 161.646 157.049 161.694 157.754C161.698 158.409 161.476 158.863 161.107 159.074L161.109 159.077L151.579 164.677C150.921 165.063 150.136 165.173 149.397 164.982C148.658 164.791 148.025 164.316 147.635 163.659C147.25 163 147.141 162.214 147.334 161.475C147.526 160.736 148.003 160.103 148.661 159.715L158.133 154.148C158.504 153.896 159.036 153.908 159.627 154.243C160.22 154.628 160.716 155.146 161.075 155.755Z"
        fill="url(#paint9_linear_1688_14217)"
      />
    </g>
    <g filter="url(#filter3_b_1688_14217)">
      <path
        d="M92.1297 104.498L139.641 87.187C141.114 86.2248 142.34 84.9298 143.221 83.4065C144.101 81.8831 144.611 80.1741 144.709 78.4174V74.1617C143.775 74.1617 142.848 74.1617 141.928 74.2073V80.0208C141.886 80.8124 141.657 81.5828 141.261 82.2695C140.865 82.9561 140.312 83.5396 139.648 83.9725L92.1373 101.291C91.7316 101.553 91.3938 101.907 91.152 102.324C90.9102 102.742 90.7712 103.211 90.7467 103.693C90.7391 104.582 91.3546 104.939 92.1297 104.498Z"
        fill="url(#paint10_linear_1688_14217)"
      />
    </g>
    <g filter="url(#filter4_b_1688_14217)">
      <path
        d="M91.0962 104.567L148.897 138.011L197.829 108.83L201.712 103.032L201.309 105.083L200.261 99.7107L109.433 103.176L93.4292 102.142L91.0962 104.567Z"
        fill="url(#paint11_linear_1688_14217)"
      />
    </g>
    <g filter="url(#filter5_b_1688_14217)">
      <path
        d="M93.0186 94.4747L93.0034 101.588L148.859 133.908L150.371 127.121L93.0186 94.4747Z"
        fill="url(#paint12_linear_1688_14217)"
      />
    </g>
    <g filter="url(#filter6_b_1688_14217)">
      <path
        d="M200.99 97.4233L143.288 64.0394L91.2634 94.2924L91.1494 95.0371L148.942 128.474L200.99 97.4233Z"
        fill="url(#paint13_linear_1688_14217)"
      />
    </g>
    <path
      d="M182.592 114.567L196.157 106.52C196.753 106.073 197.245 105.502 197.598 104.846C197.952 104.189 198.157 103.464 198.201 102.72V101.656C198.201 100.79 197.844 100.235 197.289 100.075L170.577 114.932L148.828 126.696V133.885L182.592 114.567Z"
      fill="url(#paint14_linear_1688_14217)"
    />
    <path
      d="M150.789 127.365L93.4522 94.2087L92.2363 93.502L91.1268 92.8636C90.8992 93.2575 90.7714 93.701 90.7544 94.1555C90.7364 94.3254 90.7635 94.497 90.8329 94.653C90.9022 94.8091 91.0115 94.9442 91.1496 95.0447L148.905 128.482L150.789 127.365Z"
      fill="url(#paint15_linear_1688_14217)"
    />
    <path
      d="M148.175 137.593L148.897 138.011L149.026 137.776L148.578 137.426L148.175 137.593Z"
      fill="#940A68"
    />
    <path d="M148.19 128.033L148.935 128.459L148.745 128.056L148.19 128.033Z" fill="#940A68" />
    <g filter="url(#filter7_bd_1688_14217)">
      <path
        d="M149.938 125.168L197.449 97.8108C200.245 96.1998 202.51 97.5145 202.51 100.737V101.808C202.411 103.567 201.9 105.277 201.018 106.802C200.137 108.327 198.908 109.623 197.433 110.585L149.922 137.943C149.162 138.384 148.532 138.026 148.532 137.137C148.555 136.654 148.693 136.183 148.935 135.764C149.177 135.345 149.516 134.99 149.922 134.728L197.433 107.371C198.096 106.935 198.647 106.349 199.043 105.662C199.439 104.974 199.668 104.204 199.713 103.412V102.348C199.713 100.896 198.687 100.303 197.433 101.025L149.922 128.383C149.162 128.831 148.532 128.467 148.532 127.623C148.55 127.131 148.687 126.65 148.932 126.222C149.177 125.795 149.522 125.433 149.938 125.168Z"
        fill="url(#paint16_linear_1688_14217)"
      />
    </g>
    <g filter="url(#filter8_bd_1688_14217)">
      <path
        d="M148.524 137.13C148.547 136.647 148.686 136.176 148.928 135.757C149.17 135.338 149.508 134.983 149.915 134.721L197.426 107.363C198.088 106.927 198.64 106.342 199.035 105.654C199.431 104.967 199.661 104.196 199.706 103.404V102.34C199.706 101.39 199.265 100.82 198.611 100.721C198.845 101.069 198.962 101.481 198.946 101.899V102.963C198.903 103.756 198.675 104.527 198.279 105.215C197.883 105.903 197.33 106.488 196.666 106.922L149.155 134.28C148.748 134.542 148.41 134.897 148.168 135.316C147.926 135.735 147.788 136.206 147.764 136.689C147.764 137.358 148.121 137.73 148.63 137.677C148.557 137.504 148.52 137.318 148.524 137.13Z"
        fill="#24178A"
      />
    </g>
    <g filter="url(#filter9_bd_1688_14217)">
      <path
        d="M148.54 127.577C148.564 127.094 148.703 126.622 148.947 126.203C149.19 125.784 149.53 125.429 149.938 125.168L197.449 97.8109C197.907 97.495 198.429 97.2836 198.978 97.1917C199.527 97.0998 200.089 97.1296 200.626 97.2789C199.698 96.519 198.277 96.4506 196.689 97.3701L149.17 124.728C148.764 124.99 148.425 125.345 148.183 125.764C147.942 126.183 147.803 126.653 147.78 127.137C147.78 127.805 148.137 128.17 148.646 128.117C148.571 127.947 148.535 127.763 148.54 127.577Z"
        fill="#24178A"
      />
    </g>
    <path
      d="M33.2046 130.686C43.6917 136.765 60.7142 136.765 71.2012 130.686C81.6883 124.606 81.6959 114.803 71.2012 108.739C60.7066 102.674 43.6917 102.659 33.2046 108.739C22.7175 114.818 22.7099 124.652 33.2046 130.686ZM43.4713 114.727C48.2893 111.938 56.1166 111.938 60.9497 114.727C65.7829 117.516 65.7753 122.022 60.9497 124.811C56.1242 127.6 48.3045 127.593 43.4713 124.811C38.6381 122.03 38.6457 117.478 43.4713 114.727Z"
      fill="#0B0D11"
      fill-opacity="0.4"
    />
    <path
      d="M75.1678 105.175L65.5851 105.327C64.7498 104.286 63.7167 103.42 62.5453 102.781C57.279 99.7411 48.9881 99.4979 43.243 102.067L37.5512 96.747L28.7739 96.8838C29.2147 96.6026 29.6554 96.3214 30.1266 96.0554C42.2855 89.0185 62.0438 89.0185 74.2635 96.0554C76.2977 97.1936 78.1477 98.6336 79.7502 100.326L75.1678 105.175Z"
      fill="url(#paint17_linear_1688_14217)"
    />
    <path
      d="M28.7896 82.9313V96.8533L37.5592 96.7165V82.7946L28.7896 82.9313Z"
      fill="url(#paint18_linear_1688_14217)"
    />
    <path
      d="M43.2586 88.1521V102.074L37.5591 96.7165V82.7946L43.2586 88.1521Z"
      fill="url(#paint19_linear_1688_14217)"
    />
    <path
      d="M65.5854 91.4046V105.327L52.9705 95.0523L43.251 102.066V88.1293L52.203 83.7825C52.203 83.7825 64.5291 87.5821 65.1674 87.7189C65.8058 87.8557 65.5854 91.4046 65.5854 91.4046Z"
      fill="url(#paint20_linear_1688_14217)"
    />
    <path
      d="M75.1758 91.2603V105.175L65.5854 105.327V91.4046L75.1758 91.2603Z"
      fill="url(#paint21_linear_1688_14217)"
    />
    <path
      d="M79.7582 86.3662V100.288L75.1758 105.175V91.2602L79.7582 86.3662Z"
      fill="url(#paint22_linear_1688_14217)"
    />
    <g filter="url(#filter10_bd_1688_14217)">
      <path
        d="M75.1678 91.2526L65.5851 91.4046C64.7479 90.3656 63.7152 89.5007 62.5453 88.8589C57.279 85.8191 48.9881 85.5836 43.243 88.1521L37.5512 82.8326L28.7739 82.9694C29.2147 82.6806 29.6554 82.3994 30.1266 82.1334C42.2855 75.0965 62.0438 75.0965 74.2635 82.1334C76.2977 83.2716 78.1477 84.7116 79.7502 86.4043L75.1678 91.2526Z"
        fill="url(#paint23_linear_1688_14217)"
      />
    </g>
    <path
      d="M40.3629 89.8619V102.659L32.0645 100.668C32.0645 100.668 32.5508 93.1829 32.7332 92.9853C32.9156 92.7877 40.3629 89.8619 40.3629 89.8619Z"
      fill="#16181D"
    />
    <path
      d="M46.6476 102.659V116.581L45.7509 117.531L39.8994 114.157C39.8994 114.157 40.8037 103.518 40.9101 103.32C41.0165 103.123 46.6476 102.659 46.6476 102.659Z"
      fill="#0D0E11"
    />
    <path
      d="M35.3477 99.0647L40.3633 103.784C36.1837 107.09 36.6776 111.748 41.8832 114.735C43.3855 115.575 45.0002 116.197 46.6783 116.581L41.488 122.106L46.0476 126.422C40.4505 125.873 35.0222 124.198 30.089 121.498C19.6095 115.418 18.1505 106.17 25.689 99.2167L35.3477 99.0647Z"
      fill="#0D0E11"
    />
    <path
      d="M46.055 112.5V126.422L34.6788 122.03L21 108.982L21.0532 94.2012L35.5223 105.669L46.055 112.5Z"
      fill="#0D0E11"
    />
    <path
      d="M35.3477 85.1428L40.3633 89.862C36.1837 93.1677 36.6776 97.8261 41.8832 100.813C43.3825 101.66 44.9981 102.282 46.6783 102.659L41.488 108.184L46.0476 112.5C40.4498 111.955 35.0208 110.28 30.089 107.576C19.6095 101.497 18.1505 92.2482 25.689 85.2948L35.3477 85.1428Z"
      fill="url(#paint24_linear_1688_14217)"
    />
    <path
      d="M46.0703 122.03L50.6299 117.159C54.8703 117.417 59.2703 116.612 62.5229 114.734C65.7754 112.857 67.2648 110.175 66.6797 107.622L77.5619 107.454L81.7492 102.994C85.4044 109.278 82.9119 116.49 74.241 121.498C67.8728 125.176 59.4375 126.924 51.0935 126.764L46.0703 122.03Z"
      fill="url(#paint25_linear_1688_14217)"
    />
    <path
      d="M51.1235 112.842V126.764L83.4131 108.875V94.9459L78.6939 96.8534L51.1235 112.842Z"
      fill="url(#paint26_linear_1688_14217)"
    />
    <path
      d="M46.0928 108.108V122.03L51.1235 126.764V112.842L46.0928 108.108Z"
      fill="url(#paint27_linear_1688_14217)"
    />
    <path
      d="M46.0703 108.108L50.6299 103.244C54.8703 103.495 59.2703 102.69 62.5229 100.813C65.7754 98.9355 67.2648 96.253 66.6797 93.7072L77.5619 93.5324L81.7492 89.0792C85.4044 95.3563 82.9119 102.576 74.241 107.576C67.8728 111.254 59.4375 113.009 51.0935 112.842L46.0703 108.108Z"
      fill="url(#paint28_linear_1688_14217)"
    />
  </g>
  <defs>
    <filter
      id="filter0_bd_1688_14217"
      x="235.772"
      y="81.5039"
      width="39.02"
      height="38.1097"
      filterUnits="userSpaceOnUse"
      color-interpolation-filters="sRGB"
    >
      <feFlood flood-opacity="0" result="BackgroundImageFix" />
      <feGaussianBlur in="BackgroundImage" stdDeviation="8.5" />
      <feComposite in2="SourceAlpha" operator="in" result="effect1_backgroundBlur_1688_14217" />
      <feColorMatrix
        in="SourceAlpha"
        type="matrix"
        values="0 0 0 0 0 0 0 0 0 0 0 0 0 0 0 0 0 0 127 0"
        result="hardAlpha"
      />
      <feOffset dy="4" />
      <feGaussianBlur stdDeviation="2" />
      <feComposite in2="hardAlpha" operator="out" />
      <feColorMatrix type="matrix" values="0 0 0 0 0 0 0 0 0 0 0 0 0 0 0 0 0 0 0.25 0" />
      <feBlend
        mode="normal"
        in2="effect1_backgroundBlur_1688_14217"
        result="effect2_dropShadow_1688_14217"
      />
      <feBlend
        mode="normal"
        in="SourceGraphic"
        in2="effect2_dropShadow_1688_14217"
        result="shape"
      />
    </filter>
    <filter
      id="filter1_bd_1688_14217"
      x="83.7544"
      y="56.6638"
      width="67.9702"
      height="46.4556"
      filterUnits="userSpaceOnUse"
      color-interpolation-filters="sRGB"
    >
      <feFlood flood-opacity="0" result="BackgroundImageFix" />
      <feGaussianBlur in="BackgroundImage" stdDeviation="3.5" />
      <feComposite in2="SourceAlpha" operator="in" result="effect1_backgroundBlur_1688_14217" />
      <feColorMatrix
        in="SourceAlpha"
        type="matrix"
        values="0 0 0 0 0 0 0 0 0 0 0 0 0 0 0 0 0 0 127 0"
        result="hardAlpha"
      />
      <feOffset dy="4" />
      <feGaussianBlur stdDeviation="2" />
      <feComposite in2="hardAlpha" operator="out" />
      <feColorMatrix type="matrix" values="0 0 0 0 0 0 0 0 0 0 0 0 0 0 0 0 0 0 0.25 0" />
      <feBlend
        mode="normal"
        in2="effect1_backgroundBlur_1688_14217"
        result="effect2_dropShadow_1688_14217"
      />
      <feBlend
        mode="normal"
        in="SourceGraphic"
        in2="effect2_dropShadow_1688_14217"
        result="shape"
      />
    </filter>
    <filter
      id="filter2_bd_1688_14217"
      x="130.241"
      y="136.974"
      width="48.4536"
      height="45.1002"
      filterUnits="userSpaceOnUse"
      color-interpolation-filters="sRGB"
    >
      <feFlood flood-opacity="0" result="BackgroundImageFix" />
      <feGaussianBlur in="BackgroundImage" stdDeviation="8.5" />
      <feComposite in2="SourceAlpha" operator="in" result="effect1_backgroundBlur_1688_14217" />
      <feColorMatrix
        in="SourceAlpha"
        type="matrix"
        values="0 0 0 0 0 0 0 0 0 0 0 0 0 0 0 0 0 0 127 0"
        result="hardAlpha"
      />
      <feOffset dy="4" />
      <feGaussianBlur stdDeviation="2" />
      <feComposite in2="hardAlpha" operator="out" />
      <feColorMatrix type="matrix" values="0 0 0 0 0 0 0 0 0 0 0 0 0 0 0 0 0 0 0.25 0" />
      <feBlend
        mode="normal"
        in2="effect1_backgroundBlur_1688_14217"
        result="effect2_dropShadow_1688_14217"
      />
      <feBlend
        mode="normal"
        in="SourceGraphic"
        in2="effect2_dropShadow_1688_14217"
        result="shape"
      />
    </filter>
    <filter
      id="filter3_b_1688_14217"
      x="77.7466"
      y="61.1617"
      width="79.9629"
      height="56.5251"
      filterUnits="userSpaceOnUse"
      color-interpolation-filters="sRGB"
    >
      <feFlood flood-opacity="0" result="BackgroundImageFix" />
      <feGaussianBlur in="BackgroundImage" stdDeviation="6.5" />
      <feComposite in2="SourceAlpha" operator="in" result="effect1_backgroundBlur_1688_14217" />
      <feBlend
        mode="normal"
        in="SourceGraphic"
        in2="effect1_backgroundBlur_1688_14217"
        result="shape"
      />
    </filter>
    <filter
      id="filter4_b_1688_14217"
      x="78.0962"
      y="86.7107"
      width="136.616"
      height="64.3007"
      filterUnits="userSpaceOnUse"
      color-interpolation-filters="sRGB"
    >
      <feFlood flood-opacity="0" result="BackgroundImageFix" />
      <feGaussianBlur in="BackgroundImage" stdDeviation="6.5" />
      <feComposite in2="SourceAlpha" operator="in" result="effect1_backgroundBlur_1688_14217" />
      <feBlend
        mode="normal"
        in="SourceGraphic"
        in2="effect1_backgroundBlur_1688_14217"
        result="shape"
      />
    </filter>
    <filter
      id="filter5_b_1688_14217"
      x="80.0034"
      y="81.4747"
      width="83.3672"
      height="65.4329"
      filterUnits="userSpaceOnUse"
      color-interpolation-filters="sRGB"
    >
      <feFlood flood-opacity="0" result="BackgroundImageFix" />
      <feGaussianBlur in="BackgroundImage" stdDeviation="6.5" />
      <feComposite in2="SourceAlpha" operator="in" result="effect1_backgroundBlur_1688_14217" />
      <feBlend
        mode="normal"
        in="SourceGraphic"
        in2="effect1_backgroundBlur_1688_14217"
        result="shape"
      />
    </filter>
    <filter
      id="filter6_b_1688_14217"
      x="78.1494"
      y="51.0394"
      width="135.841"
      height="90.4347"
      filterUnits="userSpaceOnUse"
      color-interpolation-filters="sRGB"
    >
      <feFlood flood-opacity="0" result="BackgroundImageFix" />
      <feGaussianBlur in="BackgroundImage" stdDeviation="6.5" />
      <feComposite in2="SourceAlpha" operator="in" result="effect1_backgroundBlur_1688_14217" />
      <feBlend
        mode="normal"
        in="SourceGraphic"
        in2="effect1_backgroundBlur_1688_14217"
        result="shape"
      />
    </filter>
    <filter
      id="filter7_bd_1688_14217"
      x="141.532"
      y="90.1226"
      width="67.978"
      height="56.0089"
      filterUnits="userSpaceOnUse"
      color-interpolation-filters="sRGB"
    >
      <feFlood flood-opacity="0" result="BackgroundImageFix" />
      <feGaussianBlur in="BackgroundImage" stdDeviation="3.5" />
      <feComposite in2="SourceAlpha" operator="in" result="effect1_backgroundBlur_1688_14217" />
      <feColorMatrix
        in="SourceAlpha"
        type="matrix"
        values="0 0 0 0 0 0 0 0 0 0 0 0 0 0 0 0 0 0 127 0"
        result="hardAlpha"
      />
      <feOffset dy="4" />
      <feGaussianBlur stdDeviation="2" />
      <feComposite in2="hardAlpha" operator="out" />
      <feColorMatrix type="matrix" values="0 0 0 0 0 0 0 0 0 0 0 0 0 0 0 0 0 0 0.25 0" />
      <feBlend
        mode="normal"
        in2="effect1_backgroundBlur_1688_14217"
        result="effect2_dropShadow_1688_14217"
      />
      <feBlend
        mode="normal"
        in="SourceGraphic"
        in2="effect2_dropShadow_1688_14217"
        result="shape"
      />
    </filter>
    <filter
      id="filter8_bd_1688_14217"
      x="140.764"
      y="93.7214"
      width="65.9414"
      height="51.9606"
      filterUnits="userSpaceOnUse"
      color-interpolation-filters="sRGB"
    >
      <feFlood flood-opacity="0" result="BackgroundImageFix" />
      <feGaussianBlur in="BackgroundImage" stdDeviation="3.5" />
      <feComposite in2="SourceAlpha" operator="in" result="effect1_backgroundBlur_1688_14217" />
      <feColorMatrix
        in="SourceAlpha"
        type="matrix"
        values="0 0 0 0 0 0 0 0 0 0 0 0 0 0 0 0 0 0 127 0"
        result="hardAlpha"
      />
      <feOffset dy="4" />
      <feGaussianBlur stdDeviation="2" />
      <feComposite in2="hardAlpha" operator="out" />
      <feColorMatrix type="matrix" values="0 0 0 0 0 0 0 0 0 0 0 0 0 0 0 0 0 0 0.25 0" />
      <feBlend
        mode="normal"
        in2="effect1_backgroundBlur_1688_14217"
        result="effect2_dropShadow_1688_14217"
      />
      <feBlend
        mode="normal"
        in="SourceGraphic"
        in2="effect2_dropShadow_1688_14217"
        result="shape"
      />
    </filter>
    <filter
      id="filter9_bd_1688_14217"
      x="140.78"
      y="89.6947"
      width="66.8457"
      height="46.4274"
      filterUnits="userSpaceOnUse"
      color-interpolation-filters="sRGB"
    >
      <feFlood flood-opacity="0" result="BackgroundImageFix" />
      <feGaussianBlur in="BackgroundImage" stdDeviation="3.5" />
      <feComposite in2="SourceAlpha" operator="in" result="effect1_backgroundBlur_1688_14217" />
      <feColorMatrix
        in="SourceAlpha"
        type="matrix"
        values="0 0 0 0 0 0 0 0 0 0 0 0 0 0 0 0 0 0 127 0"
        result="hardAlpha"
      />
      <feOffset dy="4" />
      <feGaussianBlur stdDeviation="2" />
      <feComposite in2="hardAlpha" operator="out" />
      <feColorMatrix type="matrix" values="0 0 0 0 0 0 0 0 0 0 0 0 0 0 0 0 0 0 0.25 0" />
      <feBlend
        mode="normal"
        in2="effect1_backgroundBlur_1688_14217"
        result="effect2_dropShadow_1688_14217"
      />
      <feBlend
        mode="normal"
        in="SourceGraphic"
        in2="effect2_dropShadow_1688_14217"
        result="shape"
      />
    </filter>
    <filter
      id="filter10_bd_1688_14217"
      x="21.7739"
      y="69.8557"
      width="64.9761"
      height="29.549"
      filterUnits="userSpaceOnUse"
      color-interpolation-filters="sRGB"
    >
      <feFlood flood-opacity="0" result="BackgroundImageFix" />
      <feGaussianBlur in="BackgroundImage" stdDeviation="3.5" />
      <feComposite in2="SourceAlpha" operator="in" result="effect1_backgroundBlur_1688_14217" />
      <feColorMatrix
        in="SourceAlpha"
        type="matrix"
        values="0 0 0 0 0 0 0 0 0 0 0 0 0 0 0 0 0 0 127 0"
        result="hardAlpha"
      />
      <feOffset dy="4" />
      <feGaussianBlur stdDeviation="2" />
      <feComposite in2="hardAlpha" operator="out" />
      <feColorMatrix type="matrix" values="0 0 0 0 0 0 0 0 0 0 0 0 0 0 0 0 0 0 0.25 0" />
      <feBlend
        mode="normal"
        in2="effect1_backgroundBlur_1688_14217"
        result="effect2_dropShadow_1688_14217"
      />
      <feBlend
        mode="normal"
        in="SourceGraphic"
        in2="effect2_dropShadow_1688_14217"
        result="shape"
      />
    </filter>
    <linearGradient
      id="paint0_linear_1688_14217"
      x1="252.772"
      y1="98.5039"
      x2="258.353"
      y2="101.602"
      gradientUnits="userSpaceOnUse"
    >
      <stop stop-color="#7433FF" />
      <stop offset="1" stop-color="#FFA3FD" />
    </linearGradient>
    <linearGradient
      id="paint1_linear_1688_14217"
      x1="224.617"
      y1="103.042"
      x2="224.617"
      y2="134.219"
      gradientUnits="userSpaceOnUse"
    >
      <stop stop-color="#24272E" />
      <stop offset="1" stop-color="#24272E" stop-opacity="0" />
    </linearGradient>
    <linearGradient
      id="paint2_linear_1688_14217"
      x1="182.516"
      y1="123.684"
      x2="182.516"
      y2="162.096"
      gradientUnits="userSpaceOnUse"
    >
      <stop stop-color="#24272E" />
      <stop offset="1" stop-color="#24272E" stop-opacity="0" />
    </linearGradient>
    <linearGradient
      id="paint3_linear_1688_14217"
      x1="107.766"
      y1="47.2355"
      x2="107.766"
      y2="69.3001"
      gradientUnits="userSpaceOnUse"
    >
      <stop stop-color="#24272E" />
      <stop offset="1" stop-color="#24272E" stop-opacity="0" />
    </linearGradient>
    <linearGradient
      id="paint4_linear_1688_14217"
      x1="107.762"
      y1="44"
      x2="107.762"
      y2="64.351"
      gradientUnits="userSpaceOnUse"
    >
      <stop stop-color="#24272E" />
      <stop offset="1" stop-color="#24272E" stop-opacity="0" />
    </linearGradient>
    <linearGradient
      id="paint5_linear_1688_14217"
      x1="103.426"
      y1="132.57"
      x2="103.426"
      y2="156.181"
      gradientUnits="userSpaceOnUse"
    >
      <stop stop-color="#24272E" />
      <stop offset="1" stop-color="#24272E" stop-opacity="0" />
    </linearGradient>
    <linearGradient
      id="paint6_linear_1688_14217"
      x1="96.6094"
      y1="124.697"
      x2="96.6094"
      y2="140.443"
      gradientUnits="userSpaceOnUse"
    >
      <stop stop-color="#24272E" />
      <stop offset="1" stop-color="#24272E" stop-opacity="0" />
    </linearGradient>
    <linearGradient
      id="paint7_linear_1688_14217"
      x1="89.7966"
      y1="132.57"
      x2="89.7966"
      y2="156.181"
      gradientUnits="userSpaceOnUse"
    >
      <stop stop-color="#24272E" />
      <stop offset="1" stop-color="#24272E" stop-opacity="0" />
    </linearGradient>
    <linearGradient
      id="paint8_linear_1688_14217"
      x1="90.7544"
      y1="63.6638"
      x2="139.57"
      y2="101.73"
      gradientUnits="userSpaceOnUse"
    >
      <stop stop-color="#7433FF" />
      <stop offset="1" stop-color="#FFA3FD" />
    </linearGradient>
    <linearGradient
      id="paint9_linear_1688_14217"
      x1="147.241"
      y1="153.974"
      x2="162.811"
      y2="163.187"
      gradientUnits="userSpaceOnUse"
    >
      <stop stop-color="#7433FF" />
      <stop offset="1" stop-color="#FFA3FD" />
    </linearGradient>
    <linearGradient
      id="paint10_linear_1688_14217"
      x1="99.5"
      y1="96.5"
      x2="117.728"
      y2="104.687"
      gradientUnits="userSpaceOnUse"
    >
      <stop stop-color="#24272E" />
      <stop offset="1" stop-color="#24272E" stop-opacity="0" />
    </linearGradient>
    <linearGradient
      id="paint11_linear_1688_14217"
      x1="146.404"
      y1="99.7107"
      x2="146.404"
      y2="138.011"
      gradientUnits="userSpaceOnUse"
    >
      <stop stop-color="#24272E" />
      <stop offset="1" stop-color="#24272E" stop-opacity="0" />
    </linearGradient>
    <linearGradient
      id="paint12_linear_1688_14217"
      x1="121.687"
      y1="94.4747"
      x2="121.687"
      y2="133.908"
      gradientUnits="userSpaceOnUse"
    >
      <stop stop-color="#24272E" />
      <stop offset="1" stop-color="#24272E" stop-opacity="0" />
    </linearGradient>
    <linearGradient
      id="paint13_linear_1688_14217"
      x1="146.07"
      y1="64.0394"
      x2="146.07"
      y2="128.474"
      gradientUnits="userSpaceOnUse"
    >
      <stop stop-color="#24272E" />
      <stop offset="1" stop-color="#24272E" stop-opacity="0" />
    </linearGradient>
    <linearGradient
      id="paint14_linear_1688_14217"
      x1="173.515"
      y1="100.075"
      x2="173.515"
      y2="133.885"
      gradientUnits="userSpaceOnUse"
    >
      <stop stop-color="#24272E" />
      <stop offset="1" stop-color="#24272E" stop-opacity="0" />
    </linearGradient>
    <linearGradient
      id="paint15_linear_1688_14217"
      x1="90.749"
      y1="92.8636"
      x2="145.778"
      y2="135.022"
      gradientUnits="userSpaceOnUse"
    >
      <stop stop-color="#7433FF" />
      <stop offset="1" stop-color="#FFA3FD" />
    </linearGradient>
    <linearGradient
      id="paint16_linear_1688_14217"
      x1="148.532"
      y1="97.1226"
      x2="206.351"
      y2="131.711"
      gradientUnits="userSpaceOnUse"
    >
      <stop stop-color="#7433FF" />
      <stop offset="1" stop-color="#FFA3FD" />
    </linearGradient>
    <linearGradient
      id="paint17_linear_1688_14217"
      x1="48.8555"
      y1="96.8398"
      x2="56.006"
      y2="115.379"
      gradientUnits="userSpaceOnUse"
    >
      <stop stop-color="#F25C40" />
      <stop offset="1" stop-color="#FF9E57" />
    </linearGradient>
    <linearGradient
      id="paint18_linear_1688_14217"
      x1="32.2443"
      y1="88.6524"
      x2="40.0748"
      y2="92.2668"
      gradientUnits="userSpaceOnUse"
    >
      <stop stop-color="#F25C40" />
      <stop offset="1" stop-color="#FF9E57" />
    </linearGradient>
    <linearGradient
      id="paint19_linear_1688_14217"
      x1="39.8043"
      y1="90.8277"
      x2="45.6959"
      y2="92.1164"
      gradientUnits="userSpaceOnUse"
    >
      <stop stop-color="#F25C40" />
      <stop offset="1" stop-color="#FF9E57" />
    </linearGradient>
    <linearGradient
      id="paint20_linear_1688_14217"
      x1="52.0639"
      y1="92.7592"
      x2="67.3001"
      y2="104.466"
      gradientUnits="userSpaceOnUse"
    >
      <stop stop-color="#F25C40" />
      <stop offset="1" stop-color="#FF9E57" />
    </linearGradient>
    <linearGradient
      id="paint21_linear_1688_14217"
      x1="69.3635"
      y1="97.1212"
      x2="77.6438"
      y2="101.299"
      gradientUnits="userSpaceOnUse"
    >
      <stop stop-color="#F25C40" />
      <stop offset="1" stop-color="#FF9E57" />
    </linearGradient>
    <linearGradient
      id="paint22_linear_1688_14217"
      x1="76.981"
      y1="94.203"
      x2="81.7882"
      y2="95.0697"
      gradientUnits="userSpaceOnUse"
    >
      <stop stop-color="#F25C40" />
      <stop offset="1" stop-color="#FF9E57" />
    </linearGradient>
    <linearGradient
      id="paint23_linear_1688_14217"
      x1="48.8555"
      y1="82.9178"
      x2="56.006"
      y2="101.457"
      gradientUnits="userSpaceOnUse"
    >
      <stop stop-color="#F25C40" />
      <stop offset="1" stop-color="#FF9E57" />
    </linearGradient>
    <linearGradient
      id="paint24_linear_1688_14217"
      x1="33.816"
      y1="85.1428"
      x2="33.816"
      y2="112.5"
      gradientUnits="userSpaceOnUse"
    >
      <stop stop-color="#24272E" />
      <stop offset="1" stop-color="#24272E" stop-opacity="0.8" />
    </linearGradient>
    <linearGradient
      id="paint25_linear_1688_14217"
      x1="64.7243"
      y1="102.994"
      x2="64.7243"
      y2="126.774"
      gradientUnits="userSpaceOnUse"
    >
      <stop stop-color="#24272E" />
      <stop offset="1" stop-color="#1E2127" />
    </linearGradient>
    <linearGradient
      id="paint26_linear_1688_14217"
      x1="67.2683"
      y1="94.9459"
      x2="67.2683"
      y2="126.764"
      gradientUnits="userSpaceOnUse"
    >
      <stop stop-color="#24272E" />
      <stop offset="1" stop-color="#1E2127" />
    </linearGradient>
    <linearGradient
      id="paint27_linear_1688_14217"
      x1="48.6082"
      y1="108.108"
      x2="48.6082"
      y2="126.764"
      gradientUnits="userSpaceOnUse"
    >
      <stop stop-color="#24272E" />
      <stop offset="1" stop-color="#14151A" />
    </linearGradient>
    <linearGradient
      id="paint28_linear_1688_14217"
      x1="64.7243"
      y1="89.0792"
      x2="64.7243"
      y2="112.853"
      gradientUnits="userSpaceOnUse"
    >
      <stop stop-color="#24272E" />
      <stop offset="1" stop-color="#17191E" />
    </linearGradient>
    <clipPath id="clip0_1688_14217">
      <rect width="236.78" height="126.62" fill="white" transform="translate(21 44)" />
    </clipPath>
  </defs>
</svg>
