<svg width="278" height="215" viewBox="0 0 278 215" fill="none" xmlns="http://www.w3.org/2000/svg">
    <path d="M136.78 190.953L55.5807 144.053C53.2805 142.696 53.5451 140.409 56.2592 138.876L111.573 106.985C114.226 105.452 118.236 105.289 120.536 106.612L201.769 153.512C204.069 154.869 203.805 157.155 201.09 158.689L145.777 190.614C143.11 192.113 139.08 192.276 136.78 190.953Z" fill="#0B0D11" fill-opacity="0.4"/>
    <path d="M121.147 95.343L121.147 95.343C120.126 94.7539 119.283 93.65 118.776 92.3047C118.271 90.9632 118.117 89.4284 118.427 88.0265L118.427 88.026L131.658 27.8025C131.658 27.8021 131.658 27.8017 131.658 27.8013C131.974 26.3931 132.673 25.4351 133.49 24.9684C134.291 24.5105 135.272 24.4859 136.28 25.0659C136.28 25.066 136.281 25.066 136.281 25.0661L217.495 71.963C217.496 71.9634 217.497 71.9637 217.497 71.9641C218.525 72.571 219.367 73.6788 219.874 75.0202C220.379 76.3589 220.533 77.8873 220.226 79.2898L206.995 139.515L206.995 139.516C206.688 140.919 205.992 141.877 205.176 142.343C204.375 142.802 203.395 142.825 202.395 142.244L202.393 142.243L121.147 95.343Z" fill="url(#paint0_linear_1687_12016)" stroke="url(#paint1_linear_1687_12016)"/>
    <path d="M136.78 179.927L55.5807 133.027C53.2805 131.67 53.5451 129.383 56.2592 127.85L111.573 95.9254C114.226 94.3987 118.236 94.2291 120.536 95.559L201.769 142.459C204.069 143.782 203.805 146.102 201.09 147.629L145.777 179.554C143.11 181.087 139.08 181.257 136.78 179.927Z" fill="url(#paint2_linear_1687_12016)"/>
    <path fill-rule="evenodd" clip-rule="evenodd" d="M115.475 99.0738L119.153 101.191C119.335 101.274 119.534 101.314 119.734 101.307C119.934 101.3 120.13 101.246 120.306 101.15L121.507 100.472C121.846 100.261 121.887 99.9626 121.589 99.793L117.918 97.6692C117.735 97.5869 117.536 97.5484 117.335 97.5566C117.135 97.5649 116.94 97.6197 116.764 97.7167L115.563 98.3952C115.217 98.6056 115.183 98.9041 115.475 99.0738ZM113.345 104.549L109.674 102.426C109.375 102.256 109.416 101.957 109.755 101.747L113.392 99.6437C113.567 99.5466 113.763 99.4918 113.963 99.4836C114.163 99.4753 114.363 99.5139 114.546 99.5962L118.223 101.72C118.515 101.89 118.481 102.188 118.142 102.398L114.498 104.502C114.323 104.599 114.127 104.654 113.927 104.662C113.727 104.67 113.527 104.632 113.345 104.549ZM110.161 109.089L103.755 105.384C103.457 105.208 103.498 104.916 103.837 104.705L107.474 102.602C107.649 102.505 107.845 102.45 108.045 102.442C108.245 102.434 108.444 102.472 108.627 102.555L115.053 106.259C115.345 106.429 115.311 106.727 114.971 106.938L111.328 109.041C111.151 109.14 110.953 109.196 110.75 109.205C110.547 109.213 110.345 109.173 110.161 109.089ZM98.2116 108.553L106.13 113.119C106.309 113.209 106.506 113.255 106.707 113.255C106.907 113.255 107.104 113.209 107.283 113.119L110.92 110.968C111.266 110.758 111.3 110.459 111.009 110.29L103.09 105.723C102.907 105.641 102.708 105.602 102.508 105.611C102.308 105.619 102.112 105.674 101.937 105.771L98.293 107.874C97.9537 108.085 97.9198 108.383 98.2116 108.553ZM111.899 116.471L108.228 114.347C107.929 114.178 107.97 113.879 108.309 113.669L111.953 111.572C112.127 111.473 112.321 111.417 112.521 111.409C112.72 111.401 112.919 111.44 113.1 111.525L116.777 113.642C117.069 113.811 117.035 114.11 116.696 114.32L113.052 116.424C112.877 116.521 112.681 116.575 112.481 116.584C112.281 116.592 112.082 116.553 111.899 116.471ZM86.4206 115.379L90.0982 117.502C90.2797 117.585 90.478 117.623 90.6772 117.615C90.8763 117.607 91.0707 117.552 91.2449 117.455L95.5874 114.951C95.9267 114.741 95.9674 114.442 95.6688 114.273L91.9912 112.149C91.8097 112.067 91.6114 112.028 91.4123 112.036C91.2131 112.045 91.0187 112.099 90.8445 112.196L86.502 114.7C86.1627 114.911 86.1288 115.209 86.4206 115.379ZM92.0986 118.656L95.7694 120.78C95.9522 120.862 96.1516 120.901 96.3518 120.892C96.552 120.884 96.7476 120.829 96.9229 120.732L101.259 118.229C101.605 118.018 101.639 117.72 101.347 117.55L97.6693 115.426C97.4866 115.344 97.2872 115.305 97.0869 115.314C96.8867 115.322 96.6911 115.377 96.5158 115.474L92.18 117.978C91.8408 118.188 91.8001 118.486 92.0986 118.656ZM101.45 124.057L97.7726 121.94C97.4808 121.77 97.5148 121.472 97.854 121.262L102.197 118.758C102.371 118.661 102.565 118.606 102.764 118.598C102.963 118.59 103.162 118.628 103.343 118.71L107.021 120.834C107.319 121.004 107.279 121.302 106.939 121.513L102.604 124.016C102.428 124.112 102.232 124.166 102.032 124.173C101.832 124.18 101.632 124.14 101.45 124.057ZM105.623 119.226L109.301 121.35C109.482 121.432 109.681 121.47 109.88 121.462C110.079 121.454 110.273 121.399 110.447 121.302L114.091 119.199C114.43 118.988 114.471 118.69 114.173 118.52L110.502 116.396C110.319 116.314 110.12 116.276 109.919 116.284C109.719 116.292 109.524 116.347 109.348 116.444L105.705 118.547C105.365 118.758 105.331 119.056 105.623 119.226ZM114.972 124.654L111.301 122.53C111.002 122.361 111.043 122.062 111.382 121.852L115.019 119.748C115.194 119.651 115.39 119.597 115.59 119.588C115.79 119.58 115.99 119.619 116.173 119.701L119.85 121.825C120.142 121.994 120.108 122.293 119.769 122.503L116.125 124.607C115.95 124.704 115.754 124.759 115.554 124.767C115.354 124.775 115.154 124.736 114.972 124.654ZM116.975 125.78L120.652 127.904C120.834 127.986 121.032 128.025 121.231 128.017C121.43 128.009 121.625 127.954 121.799 127.857L125.443 125.753C125.782 125.543 125.823 125.244 125.524 125.075L121.853 122.951C121.671 122.869 121.471 122.83 121.271 122.838C121.071 122.847 120.875 122.901 120.7 122.999L117.056 125.102C116.717 125.312 116.683 125.611 116.975 125.78ZM126.323 131.182L122.652 129.058C122.354 128.888 122.394 128.59 122.734 128.379L126.377 126.276C126.552 126.179 126.746 126.124 126.945 126.116C127.144 126.108 127.343 126.146 127.524 126.228L131.202 128.352C131.494 128.522 131.46 128.82 131.12 129.031L127.477 131.134C127.301 131.231 127.106 131.286 126.906 131.294C126.705 131.302 126.506 131.264 126.323 131.182ZM128.326 132.335L132.003 134.459C132.185 134.541 132.383 134.58 132.582 134.571C132.782 134.563 132.976 134.508 133.15 134.411L136.794 132.308C137.133 132.098 137.174 131.799 136.875 131.629L133.204 129.506C133.022 129.423 132.822 129.385 132.622 129.393C132.422 129.401 132.226 129.456 132.051 129.553L128.407 131.657C128.068 131.867 128.034 132.165 128.326 132.335ZM137.683 137.736L134.012 135.612C133.714 135.443 133.754 135.144 134.094 134.934L137.737 132.83C137.911 132.733 138.106 132.679 138.305 132.67C138.504 132.662 138.702 132.701 138.884 132.783L142.562 134.907C142.853 135.076 142.819 135.375 142.48 135.585L138.837 137.689C138.661 137.786 138.466 137.84 138.265 137.849C138.065 137.857 137.866 137.818 137.683 137.736ZM139.677 138.903L143.355 141.013C143.537 141.098 143.736 141.139 143.936 141.133C144.136 141.127 144.332 141.074 144.508 140.979L148.145 138.876C148.485 138.666 148.525 138.367 148.227 138.198L144.556 136.074C144.373 135.991 144.174 135.953 143.974 135.961C143.773 135.969 143.578 136.024 143.402 136.121L139.759 138.225C139.42 138.435 139.386 138.734 139.677 138.903ZM149.028 144.291L145.357 142.167C145.058 141.997 145.099 141.699 145.438 141.488L149.082 139.385C149.256 139.288 149.451 139.233 149.65 139.225C149.849 139.217 150.047 139.255 150.229 139.337L153.906 141.461C154.198 141.631 154.164 141.929 153.825 142.14L150.181 144.243C150.006 144.34 149.81 144.395 149.61 144.403C149.41 144.411 149.21 144.373 149.028 144.291ZM151.028 145.444L154.706 147.568C154.889 147.65 155.088 147.689 155.288 147.68C155.489 147.672 155.684 147.617 155.86 147.52L159.496 145.417C159.836 145.207 159.876 144.908 159.578 144.738L155.907 142.615C155.724 142.532 155.525 142.494 155.325 142.502C155.124 142.51 154.929 142.565 154.754 142.662L151.11 144.766C150.771 144.976 150.737 145.274 151.028 145.444ZM160.38 150.845L156.682 148.721C156.383 148.552 156.424 148.253 156.763 148.043L160.407 145.939C160.581 145.843 160.775 145.788 160.974 145.779C161.174 145.771 161.372 145.81 161.553 145.892L165.231 148.016C165.523 148.185 165.489 148.484 165.15 148.694L161.506 150.798C161.334 150.89 161.143 150.943 160.948 150.951C160.753 150.959 160.559 150.923 160.38 150.845ZM113.987 117.679L117.658 119.796C117.841 119.878 118.04 119.917 118.24 119.908C118.441 119.9 118.636 119.845 118.812 119.748L122.455 117.645C122.795 117.435 122.828 117.143 122.537 116.966L118.859 114.849C118.678 114.767 118.479 114.729 118.28 114.737C118.081 114.745 117.887 114.8 117.712 114.897L114.069 117C113.729 117.211 113.689 117.502 113.987 117.679ZM119.661 120.956L123.339 123.073C123.522 123.155 123.721 123.194 123.921 123.186C124.121 123.177 124.317 123.123 124.492 123.026L128.129 120.922C128.469 120.712 128.509 120.42 128.211 120.244L124.54 118.127C124.357 118.044 124.158 118.006 123.958 118.014C123.757 118.022 123.562 118.077 123.386 118.174L119.743 120.278C119.403 120.488 119.37 120.78 119.661 120.956ZM129.01 126.35L125.339 124.233C125.041 124.057 125.081 123.765 125.421 123.555L129.064 121.451C129.239 121.355 129.433 121.3 129.632 121.291C129.831 121.283 130.03 121.322 130.211 121.404L133.889 123.521C134.181 123.691 134.147 123.989 133.807 124.2L130.164 126.303C129.988 126.4 129.793 126.455 129.593 126.463C129.392 126.471 129.193 126.433 129.01 126.35ZM131.012 127.504L134.69 129.628C134.873 129.709 135.073 129.746 135.273 129.737C135.473 129.728 135.669 129.672 135.843 129.573L139.48 127.47C139.82 127.26 139.86 126.961 139.562 126.791L135.891 124.675C135.709 124.59 135.509 124.55 135.308 124.559C135.108 124.567 134.912 124.623 134.737 124.722L131.094 126.825C130.755 127.036 130.721 127.334 131.012 127.504ZM140.397 132.905L136.692 130.761C136.393 130.591 136.434 130.293 136.773 130.082L140.397 128.047C140.57 127.948 140.765 127.892 140.964 127.884C141.164 127.875 141.362 127.915 141.543 127.999L145.221 130.116C145.513 130.286 145.479 130.585 145.139 130.795L141.496 132.898C141.324 132.98 141.137 133.024 140.947 133.025C140.757 133.026 140.569 132.985 140.397 132.905ZM142.364 134.065L146.042 136.189C146.224 136.271 146.424 136.31 146.624 136.302C146.824 136.293 147.02 136.239 147.195 136.142L150.832 134.038C151.171 133.828 151.212 133.529 150.913 133.36L147.243 131.243C147.06 131.158 146.861 131.118 146.66 131.127C146.459 131.135 146.264 131.191 146.089 131.29L142.445 133.387C142.106 133.597 142.072 133.896 142.364 134.065ZM151.715 139.46L148.044 137.336C147.746 137.166 147.787 136.868 148.126 136.657L151.77 134.561C151.943 134.463 152.137 134.407 152.336 134.397C152.536 134.388 152.734 134.425 152.916 134.506L156.594 136.63C156.886 136.8 156.852 137.098 156.512 137.309L152.869 139.412C152.693 139.509 152.498 139.564 152.298 139.572C152.097 139.58 151.898 139.542 151.715 139.46ZM153.715 140.613L157.393 142.737C157.575 142.819 157.775 142.858 157.975 142.849C158.175 142.841 158.371 142.786 158.546 142.689L162.183 140.586C162.522 140.376 162.563 140.077 162.264 139.907L158.594 137.784C158.411 137.701 158.211 137.663 158.011 137.671C157.811 137.679 157.615 137.734 157.44 137.831L153.796 139.934C153.457 140.145 153.423 140.443 153.715 140.613ZM163.067 146.014L159.396 143.89C159.098 143.721 159.139 143.422 159.478 143.212L163.122 141.108C163.296 141.011 163.49 140.957 163.689 140.948C163.888 140.94 164.087 140.979 164.268 141.061L167.946 143.185C168.238 143.354 168.204 143.653 167.864 143.863L164.221 145.967C164.045 146.064 163.85 146.119 163.65 146.127C163.449 146.135 163.25 146.096 163.067 146.014ZM165.068 147.168L168.745 149.291C168.928 149.374 169.127 149.412 169.327 149.404C169.528 149.396 169.723 149.341 169.899 149.244L173.536 147.141C173.882 146.93 173.915 146.632 173.617 146.462L169.946 144.338C169.763 144.256 169.564 144.217 169.364 144.226C169.164 144.234 168.968 144.289 168.793 144.386L165.149 146.489C164.81 146.699 164.776 146.998 165.068 147.168ZM178.834 155.12L170.814 150.486C170.522 150.316 170.556 150.017 170.896 149.807L174.539 147.704C174.715 147.607 174.91 147.552 175.11 147.544C175.311 147.535 175.51 147.574 175.693 147.656L183.713 152.29C184.005 152.46 183.971 152.759 183.625 152.969L179.988 155.072C179.812 155.169 179.617 155.224 179.417 155.232C179.216 155.241 179.017 155.202 178.834 155.12ZM183.103 144.827L189.888 148.735C190.071 148.818 190.27 148.857 190.471 148.849C190.671 148.841 190.867 148.786 191.042 148.687L194.686 146.584C195.025 146.374 195.066 146.082 194.767 145.906L187.982 141.997C187.799 141.916 187.599 141.879 187.399 141.888C187.198 141.897 187.003 141.953 186.828 142.051L183.185 144.148C182.845 144.358 182.811 144.657 183.103 144.827ZM133.278 122.435L129.601 120.312C129.309 120.142 129.343 119.843 129.682 119.633L133.326 117.53C133.501 117.433 133.697 117.378 133.897 117.37C134.097 117.361 134.297 117.4 134.479 117.482L138.15 119.606C138.449 119.776 138.408 120.074 138.069 120.285L134.425 122.388C134.251 122.485 134.056 122.54 133.857 122.548C133.658 122.556 133.46 122.518 133.278 122.435ZM123.787 116.953L127.458 119.077C127.641 119.159 127.84 119.197 128.04 119.189C128.24 119.181 128.436 119.126 128.611 119.029L132.255 116.926C132.594 116.715 132.628 116.417 132.336 116.247L128.659 114.123C128.477 114.041 128.279 114.003 128.08 114.011C127.881 114.019 127.686 114.074 127.512 114.171L123.869 116.274C123.529 116.485 123.489 116.783 123.787 116.953ZM121.642 115.718L117.965 113.594C117.673 113.425 117.707 113.126 118.053 112.916L121.69 110.812C121.865 110.715 122.061 110.66 122.261 110.652C122.461 110.644 122.661 110.683 122.843 110.765L126.521 112.889C126.813 113.058 126.779 113.357 126.433 113.567L122.796 115.671C122.621 115.768 122.425 115.822 122.225 115.831C122.025 115.839 121.825 115.8 121.642 115.718ZM112.15 110.235L115.828 112.359C116.009 112.441 116.208 112.48 116.407 112.472C116.606 112.464 116.8 112.409 116.974 112.312L120.618 110.208C120.957 109.998 120.998 109.699 120.699 109.53L117.029 107.406C116.846 107.324 116.647 107.285 116.446 107.293C116.246 107.302 116.05 107.356 115.875 107.454L112.231 109.557C111.892 109.767 111.858 110.066 112.15 110.235ZM138.952 125.713L135.281 123.589C134.983 123.419 135.023 123.121 135.363 122.91L139 120.807C139.175 120.71 139.37 120.655 139.571 120.647C139.771 120.639 139.97 120.677 140.153 120.759L143.831 122.883C144.122 123.053 144.088 123.351 143.749 123.562L140.106 125.665C139.93 125.762 139.735 125.817 139.534 125.825C139.334 125.833 139.135 125.795 138.952 125.713ZM140.952 126.866L144.629 128.99C144.811 129.072 145.009 129.111 145.208 129.103C145.408 129.094 145.602 129.039 145.776 128.943L149.42 126.839C149.759 126.629 149.8 126.33 149.501 126.161L145.83 124.037C145.648 123.954 145.448 123.916 145.248 123.924C145.048 123.932 144.852 123.987 144.677 124.084L141.033 126.188C140.694 126.398 140.66 126.697 140.952 126.866ZM150.304 132.267L146.633 130.144C146.334 129.974 146.375 129.675 146.714 129.465L150.351 127.362C150.526 127.265 150.722 127.21 150.922 127.201C151.122 127.193 151.322 127.232 151.505 127.314L155.182 129.438C155.474 129.607 155.44 129.906 155.101 130.116L151.457 132.22C151.282 132.317 151.086 132.372 150.886 132.38C150.686 132.388 150.486 132.35 150.304 132.267ZM152.325 133.421L156.003 135.545C156.185 135.627 156.383 135.665 156.582 135.657C156.781 135.649 156.976 135.594 157.15 135.497L160.793 133.394C161.133 133.183 161.173 132.885 160.875 132.715L157.204 130.591C157.021 130.509 156.822 130.47 156.622 130.479C156.421 130.487 156.226 130.542 156.05 130.639L152.407 132.742C152.068 132.953 152.034 133.251 152.325 133.421ZM161.655 138.822L157.984 136.698C157.686 136.528 157.727 136.23 158.066 136.019L161.709 133.916C161.884 133.819 162.078 133.764 162.277 133.756C162.476 133.748 162.675 133.786 162.856 133.869L166.534 135.992C166.826 136.162 166.792 136.46 166.452 136.671L162.809 138.774C162.633 138.871 162.438 138.926 162.238 138.934C162.037 138.943 161.838 138.904 161.655 138.822ZM163.657 139.975L167.335 142.099C167.516 142.18 167.715 142.217 167.913 142.209C168.112 142.201 168.307 142.147 168.481 142.052L172.125 139.948C172.464 139.738 172.505 139.439 172.206 139.27L168.535 137.146C168.353 137.064 168.153 137.025 167.953 137.033C167.753 137.042 167.557 137.096 167.382 137.193L163.738 139.297C163.399 139.507 163.365 139.806 163.657 139.975ZM173.006 145.37L169.335 143.253C169.037 143.083 169.078 142.784 169.417 142.574L173.061 140.471C173.235 140.374 173.429 140.319 173.628 140.311C173.827 140.302 174.026 140.341 174.207 140.423L177.885 142.547C178.177 142.716 178.143 143.015 177.803 143.225L174.16 145.322C173.985 145.421 173.789 145.477 173.589 145.485C173.388 145.494 173.188 145.454 173.006 145.37ZM175.002 146.53L178.686 148.647C178.867 148.73 179.064 148.769 179.262 148.761C179.46 148.753 179.654 148.697 179.826 148.599L183.47 146.503C183.809 146.292 183.85 145.994 183.552 145.824L179.881 143.7C179.698 143.618 179.499 143.58 179.298 143.588C179.098 143.596 178.903 143.651 178.727 143.748L175.084 145.851C174.744 146.062 174.71 146.36 175.002 146.53ZM184.357 151.924L180.687 149.807C180.388 149.637 180.429 149.339 180.768 149.129L184.412 147.025C184.586 146.928 184.78 146.873 184.979 146.865C185.178 146.857 185.377 146.895 185.558 146.978L189.236 149.101C189.528 149.271 189.494 149.57 189.154 149.78L185.511 151.877C185.336 151.976 185.14 152.032 184.94 152.04C184.739 152.048 184.54 152.009 184.357 151.924ZM126.617 112.203L130.287 114.327C130.471 114.408 130.67 114.446 130.871 114.436C131.071 114.427 131.266 114.371 131.441 114.273L135.085 112.169C135.424 111.959 135.458 111.66 135.166 111.491L131.488 109.374C131.306 109.291 131.106 109.253 130.906 109.261C130.706 109.269 130.51 109.324 130.335 109.421L126.698 111.525C126.359 111.742 126.318 112.034 126.617 112.203ZM124.642 111.084L120.964 108.96C120.672 108.79 120.706 108.492 121.045 108.281L124.689 106.178C124.864 106.081 125.06 106.026 125.26 106.018C125.46 106.01 125.66 106.048 125.843 106.13L129.513 108.254C129.812 108.424 129.778 108.722 129.432 108.933L125.795 111.036C125.62 111.133 125.424 111.188 125.224 111.196C125.024 111.205 124.824 111.166 124.642 111.084ZM115.291 105.655L118.995 107.806C119.175 107.88 119.37 107.912 119.564 107.899C119.758 107.886 119.946 107.829 120.115 107.732L123.759 105.628C124.098 105.418 124.138 105.119 123.84 104.95L120.162 102.833C119.981 102.748 119.783 102.709 119.583 102.717C119.384 102.725 119.189 102.781 119.016 102.88L115.372 104.977C115.033 105.187 114.992 105.486 115.291 105.655ZM126.52 105.452L122.849 103.328C122.551 103.158 122.591 102.86 122.931 102.65L124.132 101.971C124.307 101.874 124.502 101.819 124.703 101.811C124.903 101.803 125.102 101.841 125.285 101.924L128.963 104.047C129.254 104.217 129.22 104.516 128.874 104.726L127.673 105.404C127.498 105.501 127.302 105.556 127.102 105.564C126.902 105.573 126.703 105.534 126.52 105.452ZM128.474 106.572L132.145 108.695C132.328 108.778 132.527 108.816 132.727 108.808C132.928 108.8 133.123 108.745 133.298 108.648L134.499 107.969C134.845 107.759 134.879 107.46 134.588 107.291L130.91 105.167C130.727 105.085 130.528 105.046 130.328 105.054C130.127 105.063 129.932 105.117 129.757 105.214L128.556 105.893C128.216 106.103 128.176 106.402 128.474 106.572ZM137.77 111.945L134.092 109.822C133.801 109.652 133.834 109.353 134.18 109.143L135.381 108.465C135.557 108.367 135.752 108.313 135.953 108.304C136.153 108.296 136.352 108.335 136.535 108.417L140.206 110.541C140.504 110.71 140.464 111.009 140.124 111.219L138.923 111.898C138.748 111.995 138.552 112.05 138.352 112.058C138.152 112.066 137.953 112.028 137.77 111.945ZM139.718 113.065L143.396 115.189C143.576 115.272 143.774 115.312 143.973 115.306C144.172 115.301 144.367 115.249 144.542 115.155L145.743 114.476C146.082 114.266 146.123 113.967 145.825 113.798L142.161 111.66C141.978 111.578 141.778 111.54 141.578 111.548C141.378 111.556 141.182 111.611 141.007 111.708L139.799 112.386C139.46 112.597 139.426 112.895 139.718 113.065ZM174.792 133.319L171.121 131.195C170.823 131.026 170.863 130.727 171.202 130.517L172.403 129.838C172.579 129.741 172.774 129.686 172.975 129.678C173.175 129.67 173.374 129.708 173.557 129.791L177.235 131.908C177.526 132.084 177.492 132.376 177.153 132.586L175.945 133.265C175.771 133.363 175.575 133.419 175.375 133.428C175.175 133.438 174.975 133.4 174.792 133.319ZM176.76 134.445L180.431 136.562C180.612 136.648 180.812 136.689 181.012 136.681C181.213 136.674 181.409 136.62 181.584 136.522L182.785 135.843C183.131 135.633 183.165 135.334 182.873 135.164L179.196 133.041C179.013 132.958 178.814 132.92 178.613 132.928C178.413 132.936 178.218 132.991 178.042 133.088L176.841 133.767C176.502 133.977 176.461 134.276 176.76 134.445ZM186.04 139.812L182.37 137.689C182.071 137.519 182.112 137.22 182.451 137.01L183.652 136.332C183.827 136.235 184.023 136.18 184.223 136.172C184.423 136.163 184.623 136.202 184.806 136.284L188.483 138.408C188.775 138.577 188.741 138.876 188.395 139.086L187.194 139.765C187.019 139.862 186.823 139.917 186.623 139.925C186.423 139.933 186.223 139.895 186.04 139.812ZM187.988 140.939L191.665 143.063C191.848 143.145 192.048 143.183 192.248 143.175C192.448 143.167 192.644 143.112 192.819 143.015L194.02 142.337C194.359 142.126 194.4 141.828 194.101 141.658L190.43 139.534C190.248 139.452 190.048 139.413 189.848 139.422C189.648 139.43 189.452 139.485 189.277 139.582L188.076 140.26C187.73 140.471 187.696 140.769 187.988 140.939ZM135.965 117.604L132.287 115.48C131.995 115.311 132.029 115.012 132.369 114.802L136.012 112.705C136.187 112.606 136.383 112.55 136.583 112.542C136.784 112.534 136.984 112.573 137.166 112.658L140.837 114.775C141.135 114.944 141.095 115.243 140.755 115.453L137.112 117.557C136.937 117.654 136.743 117.708 136.544 117.717C136.345 117.725 136.146 117.686 135.965 117.604ZM137.968 118.758L141.639 120.882C141.822 120.964 142.021 121.002 142.221 120.994C142.422 120.986 142.617 120.931 142.793 120.834L146.436 118.731C146.775 118.52 146.809 118.222 146.518 118.052L142.84 115.935C142.658 115.851 142.458 115.812 142.258 115.82C142.057 115.828 141.861 115.884 141.687 115.983L138.05 118.079C137.71 118.29 137.67 118.588 137.968 118.758ZM147.317 124.159L143.639 122.035C143.348 121.865 143.381 121.567 143.721 121.357L147.364 119.26C147.543 119.162 147.743 119.107 147.947 119.102C148.151 119.096 148.354 119.138 148.538 119.226L152.209 121.35C152.508 121.519 152.467 121.818 152.128 122.028L148.484 124.132C148.306 124.229 148.107 124.282 147.904 124.287C147.701 124.291 147.5 124.248 147.317 124.159ZM149.32 125.333L152.991 127.436C153.172 127.521 153.37 127.563 153.571 127.559C153.771 127.554 153.967 127.503 154.144 127.409L157.788 125.305C158.127 125.095 158.161 124.797 157.869 124.627L154.192 122.503C154.01 122.421 153.812 122.382 153.613 122.391C153.413 122.399 153.219 122.454 153.045 122.551L149.401 124.654C149.062 124.864 149.021 125.163 149.32 125.333ZM158.67 130.713L154.992 128.59C154.701 128.42 154.734 128.121 155.074 127.911L158.717 125.808C158.893 125.711 159.088 125.656 159.289 125.648C159.489 125.639 159.688 125.678 159.871 125.76L163.542 127.884C163.84 128.054 163.8 128.352 163.46 128.562L159.817 130.666C159.643 130.763 159.448 130.818 159.249 130.826C159.05 130.834 158.851 130.796 158.67 130.713ZM160.671 131.867L164.342 133.991C164.524 134.073 164.724 134.111 164.924 134.103C165.124 134.095 165.32 134.04 165.495 133.943L169.139 131.84C169.478 131.629 169.512 131.331 169.22 131.161L165.543 129.037C165.361 128.955 165.163 128.917 164.964 128.925C164.765 128.933 164.57 128.988 164.396 129.085L160.752 131.188C160.413 131.399 160.372 131.697 160.671 131.867ZM170.022 137.268L166.344 135.144C166.053 134.975 166.087 134.676 166.426 134.466L170.07 132.362C170.245 132.265 170.44 132.21 170.641 132.202C170.841 132.194 171.04 132.232 171.223 132.315L174.894 134.439C175.192 134.608 175.152 134.907 174.812 135.117L171.175 137.22C171 137.317 170.805 137.372 170.604 137.381C170.404 137.389 170.205 137.35 170.022 137.268ZM172.01 138.421L175.681 140.545C175.863 140.628 176.063 140.666 176.263 140.658C176.463 140.65 176.659 140.595 176.834 140.498L180.478 138.394C180.817 138.184 180.851 137.885 180.559 137.716L176.882 135.592C176.7 135.51 176.502 135.471 176.303 135.479C176.103 135.488 175.909 135.543 175.735 135.639L172.091 137.743C171.752 137.953 171.711 138.252 172.01 138.421ZM181.372 143.822L177.715 141.699C177.423 141.529 177.457 141.23 177.796 141.02L181.44 138.917C181.615 138.82 181.811 138.765 182.011 138.757C182.211 138.748 182.41 138.787 182.593 138.869L186.264 140.993C186.562 141.163 186.522 141.461 186.183 141.671L182.546 143.775C182.368 143.875 182.168 143.932 181.964 143.94C181.76 143.948 181.557 143.908 181.372 143.822ZM92.6886 111.762L103.511 118.011C103.694 118.094 103.893 118.132 104.093 118.124C104.294 118.116 104.489 118.061 104.665 117.964L108.308 115.86C108.648 115.65 108.681 115.352 108.39 115.182L97.5672 108.933C97.3845 108.85 97.1851 108.812 96.9849 108.82C96.7846 108.828 96.5891 108.883 96.4137 108.98L92.77 111.084C92.4308 111.294 92.3969 111.593 92.6886 111.762ZM173.245 158.268L162.388 152.019C162.09 151.849 162.13 151.551 162.47 151.34L166.113 149.237C166.287 149.14 166.482 149.085 166.681 149.077C166.88 149.069 167.078 149.107 167.26 149.19L178.116 155.439C178.408 155.608 178.374 155.907 178.028 156.117L174.391 158.221C174.217 158.317 174.022 158.371 173.823 158.379C173.625 158.387 173.426 158.349 173.245 158.268ZM146.896 150.282L150.574 152.399C150.755 152.483 150.953 152.523 151.153 152.515C151.352 152.507 151.547 152.451 151.72 152.351L156.063 149.848C156.402 149.637 156.436 149.339 156.144 149.169L152.467 147.052C152.286 146.968 152.087 146.928 151.888 146.936C151.688 146.945 151.494 147.001 151.32 147.1L146.978 149.603C146.638 149.814 146.604 150.112 146.896 150.282ZM109.326 128.603L103.45 125.211C103.151 125.041 103.192 124.742 103.531 124.532L107.867 122.028C108.042 121.931 108.238 121.876 108.438 121.868C108.638 121.86 108.838 121.899 109.02 121.981L114.896 125.373C115.195 125.543 115.154 125.842 114.815 126.052L110.479 128.556C110.304 128.653 110.108 128.708 109.908 128.716C109.708 128.724 109.508 128.685 109.326 128.603ZM139.195 145.851L145.078 149.244C145.26 149.326 145.458 149.365 145.657 149.356C145.856 149.348 146.051 149.293 146.225 149.196L150.567 146.693C150.907 146.482 150.941 146.184 150.649 146.014L144.773 142.621C144.59 142.539 144.391 142.501 144.19 142.509C143.99 142.517 143.795 142.572 143.619 142.669L139.284 145.173C138.937 145.383 138.904 145.682 139.195 145.851ZM111.665 129.954L111.641 129.94C111.342 129.77 111.383 129.472 111.722 129.261L116.058 126.758C116.233 126.661 116.429 126.606 116.629 126.598C116.829 126.589 117.029 126.628 117.211 126.71L123.087 130.103C123.121 130.122 123.151 130.143 123.176 130.165L142.805 141.502C143.124 141.685 143.124 141.977 142.805 142.18L138.361 144.718C138.183 144.809 137.987 144.856 137.788 144.856C137.588 144.856 137.392 144.809 137.214 144.718L111.654 129.96L111.665 129.954ZM166.412 158.343L170.483 160.704C170.727 160.847 170.693 161.091 170.415 161.254L168.637 162.278C168.494 162.358 168.334 162.403 168.17 162.41C168.007 162.417 167.844 162.386 167.694 162.319L163.623 159.951C163.379 159.815 163.412 159.571 163.691 159.408L165.468 158.384C165.612 158.304 165.772 158.259 165.935 158.252C166.099 158.245 166.262 158.276 166.412 158.343ZM164.756 157.407L160.684 155.038C160.534 154.971 160.369 154.939 160.205 154.946C160.04 154.953 159.879 154.999 159.734 155.079L157.963 156.104C157.679 156.267 157.651 156.511 157.896 156.647L161.967 159.015C162.116 159.081 162.279 159.112 162.443 159.105C162.607 159.098 162.767 159.053 162.91 158.974L164.688 157.949C164.966 157.786 164.993 157.542 164.756 157.407ZM155.011 151.795L159.082 154.163C159.327 154.299 159.293 154.543 159.014 154.706L157.244 155.731C157.099 155.81 156.938 155.855 156.773 155.862C156.609 155.869 156.444 155.838 156.294 155.771L152.222 153.403C151.978 153.268 152.012 153.023 152.29 152.86L154.068 151.836C154.211 151.757 154.371 151.712 154.535 151.705C154.698 151.697 154.862 151.728 155.011 151.795ZM167.891 155.595L163.82 153.227C163.67 153.16 163.507 153.129 163.343 153.136C163.18 153.143 163.02 153.188 162.877 153.268L161.099 154.292C160.821 154.455 160.794 154.699 161.038 154.842L165.109 157.203C165.259 157.27 165.422 157.301 165.585 157.294C165.749 157.287 165.909 157.242 166.052 157.162L167.83 156.138C168.108 155.975 168.135 155.731 167.891 155.595Z" fill="url(#paint3_linear_1687_12016)"/>
    <path d="M186.237 89.2894L155.663 71.6341L156.057 69.6461L186.631 87.3013L186.237 89.2894Z" fill="url(#paint4_linear_1687_12016)"/>
    <path d="M175.285 92.6413L153.946 80.3193L154.339 78.3312L175.679 90.6533L175.285 92.6413Z" fill="url(#paint5_linear_1687_12016)"/>
    <path d="M173.272 86.6363L154.802 75.9767L155.203 73.9886L173.665 84.6482L173.272 86.6363Z" fill="url(#paint6_linear_1687_12016)"/>
    <path d="M185.376 93.632L176.148 88.2988L176.542 86.3107L185.77 91.6439L185.376 93.632Z" fill="url(#paint7_linear_1687_12016)"/>
    <path d="M152.406 54.2979L143.178 48.9647L143.571 46.9766L152.799 52.3098L152.406 54.2979Z" fill="url(#paint8_linear_1687_12016)"/>
    <path d="M151.409 58.9117L142.174 53.5853L142.567 51.5972L151.802 56.9304L151.409 58.9117Z" fill="url(#paint9_linear_1687_12016)"/>
    <path d="M196.714 122.985L187.486 117.652L187.879 115.664L197.107 120.997L196.714 122.985Z" fill="url(#paint10_linear_1687_12016)"/>
    <path d="M149.401 68.1534L140.173 62.8202L140.566 60.8389L149.794 66.1653L149.401 68.1534Z" fill="url(#paint11_linear_1687_12016)"/>
    <path d="M169.348 69.5849C169.282 69.7351 169.184 69.8692 169.061 69.9783C168.938 70.0873 168.793 70.1687 168.636 70.217C168.479 70.2652 168.314 70.2792 168.151 70.2579C167.988 70.2367 167.832 70.1807 167.692 70.0938C167.39 69.9158 167.162 69.6338 167.053 69.3004C166.943 68.9671 166.958 68.6051 167.095 68.2821C167.163 68.1319 167.261 67.9978 167.385 67.8886C167.508 67.7795 167.653 67.6978 167.81 67.649C167.967 67.6002 168.133 67.5855 168.297 67.6057C168.46 67.626 168.617 67.6808 168.758 67.7664C169.061 67.9457 169.288 68.2293 169.397 68.5641C169.505 68.8989 169.488 69.2619 169.348 69.5849Z" fill="url(#paint12_linear_1687_12016)"/>
    <path d="M173.332 71.8785C173.265 72.0289 173.166 72.1631 173.043 72.2722C172.919 72.3813 172.774 72.4627 172.616 72.5109C172.459 72.5591 172.293 72.573 172.13 72.5517C171.966 72.5304 171.809 72.4744 171.67 72.3874C171.367 72.2094 171.14 71.9274 171.03 71.5941C170.92 71.2607 170.935 70.8987 171.072 70.5757C171.141 70.4261 171.24 70.2927 171.363 70.1842C171.487 70.0758 171.632 69.9948 171.789 69.9467C171.946 69.8986 172.112 69.8844 172.275 69.9051C172.438 69.9258 172.595 69.981 172.735 70.0669C173.037 70.2448 173.265 70.5268 173.375 70.8602C173.485 71.1936 173.469 71.5555 173.332 71.8785Z" fill="#7F818C"/>
    <path d="M177.309 74.1719C177.242 74.3229 177.144 74.4578 177.021 74.5676C176.898 74.6774 176.753 74.7595 176.595 74.8083C176.438 74.8572 176.271 74.8717 176.108 74.8509C175.944 74.8301 175.787 74.7744 175.647 74.6876C175.344 74.5096 175.117 74.2276 175.007 73.8942C174.897 73.5609 174.912 73.1989 175.049 72.8759C175.116 72.725 175.214 72.59 175.337 72.4802C175.46 72.3704 175.606 72.2883 175.763 72.2395C175.921 72.1906 176.087 72.1761 176.251 72.1969C176.414 72.2178 176.572 72.2734 176.712 72.3602C177.014 72.5382 177.242 72.8202 177.352 73.1536C177.462 73.4869 177.446 73.8489 177.309 74.1719Z" fill="#24272E"/>
    <path d="M181.285 76.4789C181.217 76.6285 181.118 76.762 180.994 76.8704C180.871 76.9789 180.726 77.0598 180.569 77.108C180.411 77.1561 180.246 77.1702 180.083 77.1495C179.92 77.1288 179.763 77.0737 179.623 76.9878C179.32 76.8098 179.093 76.5278 178.983 76.1945C178.873 75.8611 178.888 75.4991 179.026 75.1761C179.093 75.0258 179.191 74.8915 179.315 74.7824C179.438 74.6734 179.584 74.592 179.741 74.5438C179.899 74.4955 180.065 74.4816 180.228 74.5029C180.391 74.5242 180.548 74.5803 180.688 74.6673C180.991 74.8452 181.218 75.1272 181.328 75.4606C181.438 75.794 181.423 76.1559 181.285 76.4789Z" fill="url(#paint13_linear_1687_12016)"/>
    <g filter="url(#filter0_bd_1687_12016)">
        <path d="M134.655 54.1688L115.792 43.3124C115.634 43.2122 115.453 43.1524 115.266 43.1382C115.079 43.124 114.892 43.1559 114.72 43.231L112.474 44.2895L113.831 44.7576L111.117 58.491C111.004 59.0305 111.05 59.591 111.249 60.1051C111.447 60.6192 111.79 61.0648 112.237 61.3883L130.218 71.729L129.899 73.3439L132.172 72.2786C132.391 72.1535 132.579 71.9794 132.72 71.77C132.861 71.5605 132.952 71.3212 132.986 71.0709L135.761 57.0525C135.872 56.5164 135.826 55.9598 135.63 55.4488C135.434 54.9377 135.096 54.4935 134.655 54.1688Z" fill="url(#paint14_linear_1687_12016)" fill-opacity="0.5" shape-rendering="crispEdges"/>
    </g>
    <g filter="url(#filter1_bd_1687_12016)">
        <path d="M128.786 73.3034L109.923 62.447C109.479 62.1221 109.138 61.676 108.94 61.1621C108.743 60.6483 108.698 60.0885 108.811 59.5497L111.586 45.5313C111.81 44.4118 112.665 43.8961 113.506 44.3846L132.362 55.241C132.808 55.5645 133.152 56.0101 133.35 56.5242C133.549 57.0383 133.595 57.5989 133.482 58.1383L130.7 72.1567C130.483 73.2762 129.621 73.7648 128.786 73.3034Z" fill="url(#paint15_linear_1687_12016)"/>
    </g>
    <g filter="url(#filter2_b_1687_12016)">
        <path d="M126.188 36.5409L107.325 25.6845C107.167 25.5849 106.988 25.5254 106.802 25.5113C106.617 25.4971 106.43 25.5286 106.26 25.6031L104.014 26.6616L105.371 27.1298L102.657 40.8631C102.546 41.4026 102.592 41.9626 102.791 42.4763C102.989 42.99 103.331 43.4358 103.776 43.7604L121.798 54.1622L121.479 55.7771L123.752 54.7118C123.971 54.5867 124.159 54.4126 124.3 54.2031C124.442 53.9937 124.533 53.7544 124.566 53.504L127.348 39.4857C127.463 38.9352 127.414 38.3631 127.208 37.8399C127.002 37.3167 126.647 36.8652 126.188 36.5409Z" fill="url(#paint16_linear_1687_12016)" fill-opacity="0.5"/>
    </g>
    <g filter="url(#filter3_b_1687_12016)">
        <path d="M120.318 55.6752L101.455 44.8188C101.006 44.4878 100.663 44.0327 100.469 43.5095C100.275 42.9864 100.238 42.4179 100.363 41.874L103.138 27.8556C103.362 26.7361 104.224 26.2272 105.058 26.7089L123.921 37.5653C124.366 37.8902 124.707 38.3363 124.904 38.8501C125.102 39.364 125.147 39.9238 125.034 40.4626L122.259 54.481C122.015 55.648 121.153 56.1637 120.318 55.6752Z" fill="url(#paint17_linear_1687_12016)"/>
    </g>
    <defs>
        <filter id="filter0_bd_1687_12016" x="94.0566" y="26.1349" width="58.7637" height="64.209" filterUnits="userSpaceOnUse" color-interpolation-filters="sRGB">
            <feFlood flood-opacity="0" result="BackgroundImageFix"/>
            <feGaussianBlur in="BackgroundImage" stdDeviation="8.5"/>
            <feComposite in2="SourceAlpha" operator="in" result="effect1_backgroundBlur_1687_12016"/>
            <feColorMatrix in="SourceAlpha" type="matrix" values="0 0 0 0 0 0 0 0 0 0 0 0 0 0 0 0 0 0 127 0" result="hardAlpha"/>
            <feOffset dy="4"/>
            <feGaussianBlur stdDeviation="2"/>
            <feComposite in2="hardAlpha" operator="out"/>
            <feColorMatrix type="matrix" values="0 0 0 0 0 0 0 0 0 0 0 0 0 0 0 0 0 0 0.25 0"/>
            <feBlend mode="normal" in2="effect1_backgroundBlur_1687_12016" result="effect2_dropShadow_1687_12016"/>
            <feBlend mode="normal" in="SourceGraphic" in2="effect2_dropShadow_1687_12016" result="shape"/>
        </filter>
        <filter id="filter1_bd_1687_12016" x="91.75" y="27.2001" width="58.792" height="63.2762" filterUnits="userSpaceOnUse" color-interpolation-filters="sRGB">
            <feFlood flood-opacity="0" result="BackgroundImageFix"/>
            <feGaussianBlur in="BackgroundImage" stdDeviation="8.5"/>
            <feComposite in2="SourceAlpha" operator="in" result="effect1_backgroundBlur_1687_12016"/>
            <feColorMatrix in="SourceAlpha" type="matrix" values="0 0 0 0 0 0 0 0 0 0 0 0 0 0 0 0 0 0 127 0" result="hardAlpha"/>
            <feOffset dy="4"/>
            <feGaussianBlur stdDeviation="2"/>
            <feComposite in2="hardAlpha" operator="out"/>
            <feColorMatrix type="matrix" values="0 0 0 0 0 0 0 0 0 0 0 0 0 0 0 0 0 0 0.25 0"/>
            <feBlend mode="normal" in2="effect1_backgroundBlur_1687_12016" result="effect2_dropShadow_1687_12016"/>
            <feBlend mode="normal" in="SourceGraphic" in2="effect2_dropShadow_1687_12016" result="shape"/>
        </filter>
        <filter id="filter2_b_1687_12016" x="75.5977" y="-1.49207" width="78.811" height="84.2692" filterUnits="userSpaceOnUse" color-interpolation-filters="sRGB">
            <feFlood flood-opacity="0" result="BackgroundImageFix"/>
            <feGaussianBlur in="BackgroundImage" stdDeviation="13.5"/>
            <feComposite in2="SourceAlpha" operator="in" result="effect1_backgroundBlur_1687_12016"/>
            <feBlend mode="normal" in="SourceGraphic" in2="effect1_backgroundBlur_1687_12016" result="shape"/>
        </filter>
        <filter id="filter3_b_1687_12016" x="73.2905" y="-0.472656" width="78.8042" height="83.3315" filterUnits="userSpaceOnUse" color-interpolation-filters="sRGB">
            <feFlood flood-opacity="0" result="BackgroundImageFix"/>
            <feGaussianBlur in="BackgroundImage" stdDeviation="13.5"/>
            <feComposite in2="SourceAlpha" operator="in" result="effect1_backgroundBlur_1687_12016"/>
            <feBlend mode="normal" in="SourceGraphic" in2="effect1_backgroundBlur_1687_12016" result="shape"/>
        </filter>
        <linearGradient id="paint0_linear_1687_12016" x1="233.682" y1="86.3008" x2="200.299" y2="149.703" gradientUnits="userSpaceOnUse">
            <stop stop-color="#0D0E11"/>
            <stop offset="1" stop-color="#0D0E11" stop-opacity="0"/>
        </linearGradient>
        <linearGradient id="paint1_linear_1687_12016" x1="117.767" y1="24.1274" x2="247.627" y2="75.2452" gradientUnits="userSpaceOnUse">
            <stop stop-color="#7433FF"/>
            <stop offset="1" stop-color="#FFA3FD"/>
        </linearGradient>
        <linearGradient id="paint2_linear_1687_12016" x1="128.675" y1="94.6616" x2="128.675" y2="180.824" gradientUnits="userSpaceOnUse">
            <stop stop-color="#24272E"/>
            <stop offset="1" stop-color="#24272E" stop-opacity="0"/>
        </linearGradient>
        <linearGradient id="paint3_linear_1687_12016" x1="140.595" y1="97.5555" x2="140.595" y2="162.411" gradientUnits="userSpaceOnUse">
            <stop stop-color="#24272E"/>
            <stop offset="1" stop-color="#24272E" stop-opacity="0"/>
        </linearGradient>
        <linearGradient id="paint4_linear_1687_12016" x1="154" y1="70" x2="184.5" y2="86" gradientUnits="userSpaceOnUse">
            <stop stop-color="#7F818C"/>
            <stop offset="1" stop-color="#7F818C" stop-opacity="0"/>
        </linearGradient>
        <linearGradient id="paint5_linear_1687_12016" x1="152.779" y1="78.5891" x2="174.521" y2="89.5769" gradientUnits="userSpaceOnUse">
            <stop stop-color="#7F818C"/>
            <stop offset="1" stop-color="#7F818C" stop-opacity="0"/>
        </linearGradient>
        <linearGradient id="paint6_linear_1687_12016" x1="153.789" y1="74.2165" x2="172.798" y2="83.6501" gradientUnits="userSpaceOnUse">
            <stop stop-color="#7F818C"/>
            <stop offset="1" stop-color="#7F818C" stop-opacity="0"/>
        </linearGradient>
        <linearGradient id="paint7_linear_1687_12016" x1="176.148" y1="86.3107" x2="186.463" y2="92.4715" gradientUnits="userSpaceOnUse">
            <stop stop-color="#7433FF"/>
            <stop offset="1" stop-color="#FFA3FD"/>
        </linearGradient>
        <linearGradient id="paint8_linear_1687_12016" x1="142.661" y1="47.1085" x2="152.805" y2="51.5445" gradientUnits="userSpaceOnUse">
            <stop stop-color="#7F818C"/>
            <stop offset="1" stop-color="#7F818C" stop-opacity="0"/>
        </linearGradient>
        <linearGradient id="paint9_linear_1687_12016" x1="141.657" y1="51.729" x2="151.803" y2="56.173" gradientUnits="userSpaceOnUse">
            <stop stop-color="#7F818C"/>
            <stop offset="1" stop-color="#7F818C" stop-opacity="0"/>
        </linearGradient>
        <linearGradient id="paint10_linear_1687_12016" x1="186.402" y1="115.404" x2="196.984" y2="129.393" gradientUnits="userSpaceOnUse">
            <stop stop-color="#47DEFF"/>
            <stop offset="1" stop-color="#9847FF"/>
        </linearGradient>
        <linearGradient id="paint11_linear_1687_12016" x1="139.656" y1="60.9707" x2="149.797" y2="65.4094" gradientUnits="userSpaceOnUse">
            <stop stop-color="#7F818C"/>
            <stop offset="1" stop-color="#7F818C" stop-opacity="0"/>
        </linearGradient>
        <linearGradient id="paint12_linear_1687_12016" x1="166.98" y1="67.5969" x2="170.048" y2="68.8955" gradientUnits="userSpaceOnUse">
            <stop stop-color="#7433FF"/>
            <stop offset="1" stop-color="#FFA3FD"/>
        </linearGradient>
        <linearGradient id="paint13_linear_1687_12016" x1="178.91" y1="74.4932" x2="181.979" y2="75.7963" gradientUnits="userSpaceOnUse">
            <stop stop-color="#7433FF"/>
            <stop offset="1" stop-color="#FFA3FD"/>
        </linearGradient>
        <linearGradient id="paint14_linear_1687_12016" x1="111.057" y1="43.1349" x2="142.685" y2="54.9184" gradientUnits="userSpaceOnUse">
            <stop stop-color="#7433FF"/>
            <stop offset="1" stop-color="#FFA3FD"/>
        </linearGradient>
        <linearGradient id="paint15_linear_1687_12016" x1="108.75" y1="44.2001" x2="140.158" y2="56.2882" gradientUnits="userSpaceOnUse">
            <stop stop-color="#7433FF"/>
            <stop offset="1" stop-color="#FFA3FD"/>
        </linearGradient>
        <linearGradient id="paint16_linear_1687_12016" x1="112.372" y1="38.1201" x2="132.019" y2="50.0365" gradientUnits="userSpaceOnUse">
            <stop stop-color="#F25C40"/>
            <stop offset="1" stop-color="#FF9E57"/>
        </linearGradient>
        <linearGradient id="paint17_linear_1687_12016" x1="110.062" y1="38.7488" x2="129.369" y2="50.83" gradientUnits="userSpaceOnUse">
            <stop stop-color="#F25C40"/>
            <stop offset="1" stop-color="#FF9E57"/>
        </linearGradient>
    </defs>
</svg>
