<svg width="278" height="215" viewBox="0 0 278 215" fill="none" xmlns="http://www.w3.org/2000/svg">
  <path
    d="M233.044 155.045L223.845 149.733L233.044 144.421L242.244 149.733L233.044 155.045Z"
    fill="#0B0D11"
    fill-opacity="0.4"
  />
  <g filter="url(#filter0_bd_1688_14027)">
    <path
      d="M242.244 143.699L233.044 149.021V138.397L242.244 133.076V143.699Z"
      fill="url(#paint0_linear_1688_14027)"
    />
  </g>
  <g filter="url(#filter1_bd_1688_14027)">
    <path
      d="M233.044 138.397L223.845 133.076L233.044 127.764L242.244 133.076L233.044 138.397Z"
      fill="url(#paint1_linear_1688_14027)"
    />
  </g>
  <g filter="url(#filter2_bd_1688_14027)">
    <path
      d="M233.044 149.021L223.845 143.699V133.076L233.044 138.397V149.021Z"
      fill="url(#paint2_linear_1688_14027)"
    />
  </g>
  <path
    d="M130.45 70.271L121.25 64.9592L130.45 59.6474L139.649 64.9592L130.45 70.271Z"
    fill="#0B0D11"
    fill-opacity="0.4"
  />
  <g filter="url(#filter3_b_1688_14027)">
    <path
      d="M139.649 58.9354L130.45 64.2472V53.6236L139.649 48.3118V58.9354Z"
      fill="url(#paint3_linear_1688_14027)"
    />
  </g>
  <g filter="url(#filter4_b_1688_14027)">
    <path
      d="M130.45 53.6236L121.25 48.3118L130.45 43L139.649 48.3118L130.45 53.6236Z"
      fill="url(#paint4_linear_1688_14027)"
    />
  </g>
  <g filter="url(#filter5_b_1688_14027)">
    <path
      d="M130.45 64.2472L121.25 58.9354V48.3118L130.45 53.6236V64.2472Z"
      fill="url(#paint5_linear_1688_14027)"
    />
  </g>
  <path
    d="M201.414 147.016L175.858 132.214L163.847 139.147C163.587 138.654 163.186 138.249 162.695 137.985C161.719 137.491 160.641 137.234 159.547 137.234C158.454 137.234 157.375 137.491 156.4 137.985C154.667 138.987 154.667 140.617 156.4 141.62C157.029 141.961 157.714 142.186 158.423 142.285L146.413 149.218L158.779 156.384C158.847 156.027 158.999 155.692 159.222 155.405C159.446 155.119 159.734 154.889 160.063 154.735C161.805 153.733 162.648 153.546 164.381 154.548C166.115 155.55 166.508 156.6 164.775 157.602C163.979 158.061 164.531 159.073 163.491 159.11L175.858 166.249L201.414 151.494C203.56 150.22 203.56 148.215 201.414 147.016Z"
    fill="#0B0D11"
    fill-opacity="0.4"
  />
  <path
    d="M106.439 156.487C105.829 156.149 105.162 155.927 104.471 155.831L116.463 148.899L104.696 142.107C104.447 142.399 104.149 142.646 103.816 142.838C102.842 143.332 101.765 143.59 100.673 143.59C99.5802 143.59 98.5034 143.332 97.5295 142.838C95.787 141.835 95.787 140.205 97.5295 139.203C97.924 138.98 98.346 138.81 98.7848 138.697L87.0183 131.905L61.4523 146.66C59.3069 147.896 59.3069 149.911 61.4523 151.147L87.0183 165.902L99.0096 158.979C99.2658 159.467 99.6645 159.866 100.153 160.122C101.127 160.614 102.204 160.87 103.296 160.87C104.387 160.87 105.464 160.614 106.439 160.122C108.172 159.12 108.172 157.49 106.439 156.487Z"
    fill="#0B0D11"
    fill-opacity="0.4"
  />
  <path
    d="M148.652 168.479C149.634 168.448 150.596 168.191 151.463 167.729C153.205 166.727 153.205 165.106 151.463 164.104C150.489 163.609 149.412 163.351 148.32 163.351C147.227 163.351 146.151 163.609 145.177 164.104C144.847 164.257 144.56 164.487 144.336 164.773C144.113 165.06 143.961 165.396 143.893 165.752L131.527 158.614L119.526 165.537C120.22 165.637 120.89 165.863 121.503 166.202C123.236 167.204 123.236 168.825 121.503 169.828C120.529 170.322 119.452 170.58 118.36 170.58C117.268 170.58 116.191 170.322 115.217 169.828C114.727 169.574 114.328 169.175 114.074 168.685L102.073 175.617L127.639 190.372C128.844 190.982 130.176 191.3 131.527 191.3C132.878 191.3 134.21 190.982 135.415 190.372L160.972 175.617L148.652 168.479Z"
    fill="#0B0D11"
    fill-opacity="0.4"
  />
  <path
    d="M203.812 94.3662L176.101 78.3652L161.552 86.7966C161.245 86.1884 160.753 85.6931 160.147 85.382C159.353 84.9439 158.481 84.6639 157.58 84.5576C156.899 83.6726 156.167 82.828 155.388 82.0282L150.966 80.7541V87.5461C151.001 88.0258 151.165 88.487 151.443 88.8799C151.72 89.2728 152.099 89.5825 152.54 89.7757C153.298 90.1938 154.127 90.467 154.985 90.5814L147.659 94.8065L140.436 92.2208V135.502L155.425 144.149C155.511 143.717 155.698 143.312 155.97 142.965C156.241 142.618 156.591 142.34 156.99 142.154C158.262 141.469 159.697 141.145 161.14 141.217V147.409L176.129 156.056L207.044 138.191C207.596 137.947 208.07 137.556 208.414 137.06C208.758 136.564 208.958 135.983 208.993 135.38V92.2583L203.812 94.3662Z"
    fill="url(#paint6_linear_1688_14027)"
  />
  <path
    d="M176.102 78.3652L175.99 78.4214V156.009L176.102 156.066L207.017 138.2C207.569 137.956 208.043 137.565 208.387 137.069C208.731 136.573 208.931 135.992 208.966 135.39V92.2583L203.776 94.3662L176.102 78.3652Z"
    fill="url(#paint7_linear_1688_14027)"
  />
  <path d="M161.121 106.095V104.137L162.817 105.121L161.121 106.095Z" fill="#396CAA" />
  <path
    d="M155.407 95.5841V144.121C155.493 143.689 155.679 143.283 155.951 142.937C156.223 142.59 156.572 142.312 156.971 142.126C158.152 141.528 159.456 141.217 160.779 141.217C162.103 141.217 163.407 141.528 164.588 142.126C164.99 142.351 165.348 142.646 165.646 142.997C166.779 142.642 167.954 142.437 169.141 142.388V95.5466L155.407 95.5841Z"
    fill="url(#paint8_linear_1688_14027)"
  />
  <path
    d="M176 155.781V112.773L161.2 104.25L161.121 115.67V147.163L176 155.781Z"
    fill="url(#paint9_linear_1688_14027)"
  />
  <path d="M150.966 81.7284V80.8103L151.697 81.0445L150.966 81.7284Z" fill="#23272D" />
  <g filter="url(#filter6_b_1688_14027)">
    <path
      d="M207.054 89.476L176.139 71.6013L161.59 80.0328C161.283 79.4245 160.791 78.9293 160.184 78.6182C159.007 78.0177 157.703 77.7047 156.381 77.7047C155.059 77.7047 153.755 78.0177 152.577 78.6182C150.47 79.8267 150.47 81.8034 152.577 83.0119C153.335 83.4299 154.165 83.7031 155.023 83.8175L140.474 92.249L155.463 100.896C155.549 100.464 155.736 100.058 156.007 99.7117C156.279 99.3651 156.628 99.0872 157.027 98.9004C158.208 98.3028 159.512 97.9914 160.836 97.9914C162.159 97.9914 163.463 98.3028 164.644 98.9004C166.742 100.109 166.742 102.076 164.644 103.294C163.579 103.877 162.391 104.198 161.178 104.231L176.167 112.878L207.082 95.0032C209.658 93.4106 209.658 90.9749 207.054 89.476Z"
      fill="url(#paint10_linear_1688_14027)"
    />
  </g>
  <path
    d="M122.58 134.5V92.3427L115.47 95.0032L108.322 90.8719C108.022 91.2282 107.66 91.5267 107.254 91.7525C106.076 92.3529 104.772 92.6659 103.45 92.6659C102.128 92.6659 100.825 92.3529 99.6466 91.7525C97.5856 90.5721 97.5481 88.6609 99.506 87.4431L101.164 88.3799V79.9484H96.021L95.5152 83.4522L86.9151 78.487L59.5223 94.2913L54.0044 92.3146V134.472C54.056 135.059 54.2639 135.621 54.6066 136.101C54.9493 136.58 55.4142 136.959 55.953 137.198L86.9151 155.073L101.445 146.641C101.752 147.231 102.233 147.712 102.822 148.018C104.003 148.616 105.307 148.927 106.631 148.927C107.954 148.927 109.258 148.616 110.439 148.018C110.889 147.823 111.276 147.506 111.554 147.102C111.833 146.697 111.991 146.223 112.013 145.732V140.542L122.58 134.5Z"
    fill="url(#paint11_linear_1688_14027)"
  />
  <path
    d="M86.9151 78.5057L59.5223 94.31L54.0044 92.3333V134.491C54.056 135.078 54.2639 135.64 54.6066 136.12C54.9493 136.599 55.4142 136.978 55.953 137.217L86.9151 155.091V78.5057Z"
    fill="url(#paint12_linear_1688_14027)"
  />
  <g filter="url(#filter7_b_1688_14027)">
    <path
      d="M110.439 101.524C109.699 101.111 108.889 100.838 108.05 100.718L122.58 92.2865L108.322 84.0517C108.023 84.4081 107.661 84.7066 107.254 84.9324C106.076 85.5328 104.773 85.8458 103.45 85.8458C102.128 85.8458 100.825 85.5328 99.6469 84.9324C97.539 83.7239 97.539 81.7471 99.6469 80.5386C100.124 80.2688 100.634 80.061 101.165 79.9203L86.9154 71.695L55.9533 89.5696C53.3489 91.0686 53.3489 93.5043 55.9533 95.0032L86.9154 112.878L101.446 104.446C101.757 105.032 102.237 105.512 102.823 105.824C104.003 106.421 105.308 106.733 106.631 106.733C107.954 106.733 109.259 106.421 110.439 105.824C112.547 104.699 112.547 102.732 110.439 101.524Z"
      fill="url(#paint13_linear_1688_14027)"
    />
  </g>
  <g filter="url(#filter8_bd_1688_14027)">
    <path
      d="M159.622 120.785L151.641 116.101C152.851 116.066 154.036 115.745 155.098 115.164C155.465 114.985 155.79 114.732 156.055 114.42C156.319 114.109 156.516 113.747 156.634 113.356H156.681V106.142L149.889 108.775L151.453 109.833C150.073 109.79 148.705 110.113 147.491 110.77C147.091 110.958 146.74 111.237 146.469 111.585C146.197 111.934 146.011 112.341 145.926 112.775L130.937 104.128L122.149 109.252L121.213 106.208L116.397 105.796V113.29L117.868 112.915C118.193 113.026 118.507 113.168 118.805 113.337C120.913 114.546 120.913 116.513 118.805 117.731C117.624 118.328 116.32 118.64 114.997 118.64C113.674 118.64 112.369 118.328 111.189 117.731C110.599 117.424 110.118 116.943 109.811 116.354L101.764 120.991L95.2812 117.974V159.691L126.243 177.566C127.701 178.309 129.314 178.697 130.951 178.697C132.587 178.697 134.201 178.309 135.658 177.566L166.574 159.691V117.974L159.622 120.785Z"
      fill="url(#paint14_linear_1688_14027)"
    />
  </g>
  <g filter="url(#filter9_b_1688_14027)">
    <path
      d="M130.946 113.833H119.47C120.875 115.042 120.66 116.644 118.805 117.759C117.624 118.356 116.32 118.668 114.997 118.668C113.674 118.668 112.369 118.356 111.189 117.759C110.599 117.452 110.118 116.971 109.811 116.382L101.764 121.019L95.2812 117.974V159.691L126.243 177.566C127.683 178.336 129.295 178.726 130.927 178.699L130.946 113.833Z"
      fill="url(#paint15_linear_1688_14027)"
    />
  </g>
  <g filter="url(#filter10_b_1688_14027)">
    <path
      d="M151.641 109.355C152.851 109.321 154.036 109 155.098 108.419C157.205 107.201 157.205 105.233 155.098 104.016C153.918 103.419 152.615 103.109 151.294 103.109C149.973 103.109 148.67 103.419 147.491 104.016C147.091 104.203 146.74 104.483 146.469 104.831C146.197 105.179 146.011 105.587 145.926 106.02L130.937 97.3734L116.416 105.795C117.255 105.914 118.065 106.187 118.805 106.601C120.913 107.81 120.913 109.777 118.805 110.995C117.624 111.592 116.32 111.904 114.997 111.904C113.674 111.904 112.369 111.592 111.189 110.995C110.603 110.683 110.123 110.204 109.811 109.618L95.2812 117.974L126.243 135.849C127.703 136.588 129.315 136.973 130.951 136.973C132.587 136.973 134.199 136.588 135.658 135.849L166.574 117.974L151.641 109.355Z"
      fill="url(#paint16_linear_1688_14027)"
    />
  </g>
  <defs>
    <filter
      id="filter0_bd_1688_14027"
      x="216.044"
      y="116.076"
      width="43.1997"
      height="49.9448"
      filterUnits="userSpaceOnUse"
      color-interpolation-filters="sRGB"
    >
      <feFlood flood-opacity="0" result="BackgroundImageFix" />
      <feGaussianBlur in="BackgroundImage" stdDeviation="8.5" />
      <feComposite in2="SourceAlpha" operator="in" result="effect1_backgroundBlur_1688_14027" />
      <feColorMatrix
        in="SourceAlpha"
        type="matrix"
        values="0 0 0 0 0 0 0 0 0 0 0 0 0 0 0 0 0 0 127 0"
        result="hardAlpha"
      />
      <feOffset dy="4" />
      <feGaussianBlur stdDeviation="2" />
      <feComposite in2="hardAlpha" operator="out" />
      <feColorMatrix type="matrix" values="0 0 0 0 0 0 0 0 0 0 0 0 0 0 0 0 0 0 0.25 0" />
      <feBlend
        mode="normal"
        in2="effect1_backgroundBlur_1688_14027"
        result="effect2_dropShadow_1688_14027"
      />
      <feBlend
        mode="normal"
        in="SourceGraphic"
        in2="effect2_dropShadow_1688_14027"
        result="shape"
      />
    </filter>
    <filter
      id="filter1_bd_1688_14027"
      x="206.845"
      y="110.764"
      width="52.3994"
      height="44.633"
      filterUnits="userSpaceOnUse"
      color-interpolation-filters="sRGB"
    >
      <feFlood flood-opacity="0" result="BackgroundImageFix" />
      <feGaussianBlur in="BackgroundImage" stdDeviation="8.5" />
      <feComposite in2="SourceAlpha" operator="in" result="effect1_backgroundBlur_1688_14027" />
      <feColorMatrix
        in="SourceAlpha"
        type="matrix"
        values="0 0 0 0 0 0 0 0 0 0 0 0 0 0 0 0 0 0 127 0"
        result="hardAlpha"
      />
      <feOffset dy="4" />
      <feGaussianBlur stdDeviation="2" />
      <feComposite in2="hardAlpha" operator="out" />
      <feColorMatrix type="matrix" values="0 0 0 0 0 0 0 0 0 0 0 0 0 0 0 0 0 0 0.25 0" />
      <feBlend
        mode="normal"
        in2="effect1_backgroundBlur_1688_14027"
        result="effect2_dropShadow_1688_14027"
      />
      <feBlend
        mode="normal"
        in="SourceGraphic"
        in2="effect2_dropShadow_1688_14027"
        result="shape"
      />
    </filter>
    <filter
      id="filter2_bd_1688_14027"
      x="206.845"
      y="116.076"
      width="43.1997"
      height="49.9448"
      filterUnits="userSpaceOnUse"
      color-interpolation-filters="sRGB"
    >
      <feFlood flood-opacity="0" result="BackgroundImageFix" />
      <feGaussianBlur in="BackgroundImage" stdDeviation="8.5" />
      <feComposite in2="SourceAlpha" operator="in" result="effect1_backgroundBlur_1688_14027" />
      <feColorMatrix
        in="SourceAlpha"
        type="matrix"
        values="0 0 0 0 0 0 0 0 0 0 0 0 0 0 0 0 0 0 127 0"
        result="hardAlpha"
      />
      <feOffset dy="4" />
      <feGaussianBlur stdDeviation="2" />
      <feComposite in2="hardAlpha" operator="out" />
      <feColorMatrix type="matrix" values="0 0 0 0 0 0 0 0 0 0 0 0 0 0 0 0 0 0 0.25 0" />
      <feBlend
        mode="normal"
        in2="effect1_backgroundBlur_1688_14027"
        result="effect2_dropShadow_1688_14027"
      />
      <feBlend
        mode="normal"
        in="SourceGraphic"
        in2="effect2_dropShadow_1688_14027"
        result="shape"
      />
    </filter>
    <filter
      id="filter3_b_1688_14027"
      x="103.45"
      y="21.3118"
      width="63.1997"
      height="69.9354"
      filterUnits="userSpaceOnUse"
      color-interpolation-filters="sRGB"
    >
      <feFlood flood-opacity="0" result="BackgroundImageFix" />
      <feGaussianBlur in="BackgroundImage" stdDeviation="13.5" />
      <feComposite in2="SourceAlpha" operator="in" result="effect1_backgroundBlur_1688_14027" />
      <feBlend
        mode="normal"
        in="SourceGraphic"
        in2="effect1_backgroundBlur_1688_14027"
        result="shape"
      />
    </filter>
    <filter
      id="filter4_b_1688_14027"
      x="94.25"
      y="16"
      width="72.3994"
      height="64.6236"
      filterUnits="userSpaceOnUse"
      color-interpolation-filters="sRGB"
    >
      <feFlood flood-opacity="0" result="BackgroundImageFix" />
      <feGaussianBlur in="BackgroundImage" stdDeviation="13.5" />
      <feComposite in2="SourceAlpha" operator="in" result="effect1_backgroundBlur_1688_14027" />
      <feBlend
        mode="normal"
        in="SourceGraphic"
        in2="effect1_backgroundBlur_1688_14027"
        result="shape"
      />
    </filter>
    <filter
      id="filter5_b_1688_14027"
      x="94.25"
      y="21.3118"
      width="63.1997"
      height="69.9354"
      filterUnits="userSpaceOnUse"
      color-interpolation-filters="sRGB"
    >
      <feFlood flood-opacity="0" result="BackgroundImageFix" />
      <feGaussianBlur in="BackgroundImage" stdDeviation="13.5" />
      <feComposite in2="SourceAlpha" operator="in" result="effect1_backgroundBlur_1688_14027" />
      <feBlend
        mode="normal"
        in="SourceGraphic"
        in2="effect1_backgroundBlur_1688_14027"
        result="shape"
      />
    </filter>
    <filter
      id="filter6_b_1688_14027"
      x="130.474"
      y="61.6013"
      width="88.5371"
      height="61.2766"
      filterUnits="userSpaceOnUse"
      color-interpolation-filters="sRGB"
    >
      <feFlood flood-opacity="0" result="BackgroundImageFix" />
      <feGaussianBlur in="BackgroundImage" stdDeviation="5" />
      <feComposite in2="SourceAlpha" operator="in" result="effect1_backgroundBlur_1688_14027" />
      <feBlend
        mode="normal"
        in="SourceGraphic"
        in2="effect1_backgroundBlur_1688_14027"
        result="shape"
      />
    </filter>
    <filter
      id="filter7_b_1688_14027"
      x="51"
      y="68.695"
      width="74.5806"
      height="47.1829"
      filterUnits="userSpaceOnUse"
      color-interpolation-filters="sRGB"
    >
      <feFlood flood-opacity="0" result="BackgroundImageFix" />
      <feGaussianBlur in="BackgroundImage" stdDeviation="1.5" />
      <feComposite in2="SourceAlpha" operator="in" result="effect1_backgroundBlur_1688_14027" />
      <feBlend
        mode="normal"
        in="SourceGraphic"
        in2="effect1_backgroundBlur_1688_14027"
        result="shape"
      />
    </filter>
    <filter
      id="filter8_bd_1688_14027"
      x="78.2812"
      y="87.1281"
      width="105.292"
      height="108.569"
      filterUnits="userSpaceOnUse"
      color-interpolation-filters="sRGB"
    >
      <feFlood flood-opacity="0" result="BackgroundImageFix" />
      <feGaussianBlur in="BackgroundImage" stdDeviation="8.5" />
      <feComposite in2="SourceAlpha" operator="in" result="effect1_backgroundBlur_1688_14027" />
      <feColorMatrix
        in="SourceAlpha"
        type="matrix"
        values="0 0 0 0 0 0 0 0 0 0 0 0 0 0 0 0 0 0 127 0"
        result="hardAlpha"
      />
      <feOffset dy="4" />
      <feGaussianBlur stdDeviation="2" />
      <feComposite in2="hardAlpha" operator="out" />
      <feColorMatrix type="matrix" values="0 0 0 0 0 0 0 0 0 0 0 0 0 0 0 0 0 0 0.25 0" />
      <feBlend
        mode="normal"
        in2="effect1_backgroundBlur_1688_14027"
        result="effect2_dropShadow_1688_14027"
      />
      <feBlend
        mode="normal"
        in="SourceGraphic"
        in2="effect2_dropShadow_1688_14027"
        result="shape"
      />
    </filter>
    <filter
      id="filter9_b_1688_14027"
      x="78.2812"
      y="96.8334"
      width="69.665"
      height="98.8672"
      filterUnits="userSpaceOnUse"
      color-interpolation-filters="sRGB"
    >
      <feFlood flood-opacity="0" result="BackgroundImageFix" />
      <feGaussianBlur in="BackgroundImage" stdDeviation="8.5" />
      <feComposite in2="SourceAlpha" operator="in" result="effect1_backgroundBlur_1688_14027" />
      <feBlend
        mode="normal"
        in="SourceGraphic"
        in2="effect1_backgroundBlur_1688_14027"
        result="shape"
      />
    </filter>
    <filter
      id="filter10_b_1688_14027"
      x="78.2812"
      y="80.3734"
      width="105.292"
      height="73.5998"
      filterUnits="userSpaceOnUse"
      color-interpolation-filters="sRGB"
    >
      <feFlood flood-opacity="0" result="BackgroundImageFix" />
      <feGaussianBlur in="BackgroundImage" stdDeviation="8.5" />
      <feComposite in2="SourceAlpha" operator="in" result="effect1_backgroundBlur_1688_14027" />
      <feBlend
        mode="normal"
        in="SourceGraphic"
        in2="effect1_backgroundBlur_1688_14027"
        result="shape"
      />
    </filter>
    <linearGradient
      id="paint0_linear_1688_14027"
      x1="232.007"
      y1="132.511"
      x2="252.803"
      y2="144.579"
      gradientUnits="userSpaceOnUse"
    >
      <stop stop-color="#47DEFF" />
      <stop offset="1" stop-color="#9847FF" />
    </linearGradient>
    <linearGradient
      id="paint1_linear_1688_14027"
      x1="223.845"
      y1="127.764"
      x2="240.38"
      y2="140.768"
      gradientUnits="userSpaceOnUse"
    >
      <stop stop-color="#624AF2" />
      <stop offset="1" stop-color="#50DDC3" />
    </linearGradient>
    <linearGradient
      id="paint2_linear_1688_14027"
      x1="222.808"
      y1="132.511"
      x2="243.603"
      y2="144.579"
      gradientUnits="userSpaceOnUse"
    >
      <stop stop-color="#47DEFF" />
      <stop offset="1" stop-color="#9847FF" />
    </linearGradient>
    <linearGradient
      id="paint3_linear_1688_14027"
      x1="134.074"
      y1="54.9515"
      x2="142.501"
      y2="58.5513"
      gradientUnits="userSpaceOnUse"
    >
      <stop stop-color="#F25C40" />
      <stop offset="1" stop-color="#FF9E57" />
    </linearGradient>
    <linearGradient
      id="paint4_linear_1688_14027"
      x1="128.498"
      y1="47.4265"
      x2="136.04"
      y2="57.0922"
      gradientUnits="userSpaceOnUse"
    >
      <stop stop-color="#F25C40" />
      <stop offset="1" stop-color="#FF9E57" />
    </linearGradient>
    <linearGradient
      id="paint5_linear_1688_14027"
      x1="124.874"
      y1="54.9515"
      x2="133.301"
      y2="58.5513"
      gradientUnits="userSpaceOnUse"
    >
      <stop stop-color="#F25C40" />
      <stop offset="1" stop-color="#FF9E57" />
    </linearGradient>
    <linearGradient
      id="paint6_linear_1688_14027"
      x1="174.715"
      y1="78.3652"
      x2="174.715"
      y2="156.056"
      gradientUnits="userSpaceOnUse"
    >
      <stop stop-color="#24272E" />
      <stop offset="1" stop-color="#24272E" stop-opacity="0" />
    </linearGradient>
    <linearGradient
      id="paint7_linear_1688_14027"
      x1="192.478"
      y1="78.3652"
      x2="192.478"
      y2="156.066"
      gradientUnits="userSpaceOnUse"
    >
      <stop stop-color="#24272E" />
      <stop offset="1" stop-color="#24272E" stop-opacity="0" />
    </linearGradient>
    <linearGradient
      id="paint8_linear_1688_14027"
      x1="162.274"
      y1="95.5466"
      x2="162.274"
      y2="144.121"
      gradientUnits="userSpaceOnUse"
    >
      <stop stop-color="#13151A" />
      <stop offset="1" stop-color="#24272E" stop-opacity="0" />
    </linearGradient>
    <linearGradient
      id="paint9_linear_1688_14027"
      x1="168.561"
      y1="104.25"
      x2="168.561"
      y2="155.781"
      gradientUnits="userSpaceOnUse"
    >
      <stop stop-color="#24272E" />
      <stop offset="1" stop-color="#24272E" stop-opacity="0" />
    </linearGradient>
    <linearGradient
      id="paint10_linear_1688_14027"
      x1="174.742"
      y1="71.6013"
      x2="174.742"
      y2="112.878"
      gradientUnits="userSpaceOnUse"
    >
      <stop stop-color="#24272E" />
      <stop offset="1" stop-color="#24272E" stop-opacity="0" />
    </linearGradient>
    <linearGradient
      id="paint11_linear_1688_14027"
      x1="88.2922"
      y1="78.487"
      x2="88.2922"
      y2="155.073"
      gradientUnits="userSpaceOnUse"
    >
      <stop offset="0.297223" stop-color="#0D0E11" />
      <stop offset="1" stop-color="#0D0E11" stop-opacity="0" />
    </linearGradient>
    <linearGradient
      id="paint12_linear_1688_14027"
      x1="91"
      y1="118.5"
      x2="65"
      y2="143"
      gradientUnits="userSpaceOnUse"
    >
      <stop stop-color="#0D0E11" />
      <stop offset="1" stop-color="#0D0E11" stop-opacity="0" />
    </linearGradient>
    <linearGradient
      id="paint13_linear_1688_14027"
      x1="88.2902"
      y1="71.695"
      x2="88.2902"
      y2="112.878"
      gradientUnits="userSpaceOnUse"
    >
      <stop stop-color="#24272E" />
      <stop offset="1" stop-color="#24272E" stop-opacity="0" />
    </linearGradient>
    <linearGradient
      id="paint14_linear_1688_14027"
      x1="95.2813"
      y1="104.128"
      x2="182.507"
      y2="142.029"
      gradientUnits="userSpaceOnUse"
    >
      <stop stop-color="#7433FF" />
      <stop offset="1" stop-color="#FFA3FD" />
    </linearGradient>
    <linearGradient
      id="paint15_linear_1688_14027"
      x1="95.2813"
      y1="113.833"
      x2="144.107"
      y2="126.034"
      gradientUnits="userSpaceOnUse"
    >
      <stop stop-color="#7433FF" stop-opacity="0.31" />
      <stop offset="1" stop-color="#FFA3FD" stop-opacity="0.57" />
    </linearGradient>
    <linearGradient
      id="paint16_linear_1688_14027"
      x1="95.2813"
      y1="97.3734"
      x2="157.392"
      y2="148.194"
      gradientUnits="userSpaceOnUse"
    >
      <stop stop-color="#7433FF" />
      <stop offset="1" stop-color="#FFA3FD" />
    </linearGradient>
  </defs>
</svg>
