<?xml version="1.0" encoding="utf-8"?>
<!-- Generator: Adobe Illustrator 24.1.3, SVG Export Plug-In . SVG Version: 6.00 Build 0)  -->
<svg version="1.1" id="Warstwa_1" xmlns="http://www.w3.org/2000/svg" xmlns:xlink="http://www.w3.org/1999/xlink" x="0px" y="0px"
	 viewBox="0 0 181.1 76.8" style="enable-background:new 0 0 181.1 76.8;" xml:space="preserve">
<style type="text/css">
	.st0{fill-rule:evenodd;clip-rule:evenodd;fill:#FF1035;}
	.st1{fill:#050713;}
	.st2{fill:#6D7A99;}
</style>
<g id="GraphQL-Tools_x2F_-Angular">
	<g id="Libraries-Logos-_x2F_-Angular" transform="translate(6.000000, 20.000000)">
		<path id="Fill-2" class="st0" d="M36,46.7c0,0.3,0,0.5-0.1,0.7c0,0,0,0.1,0,0.1c-0.4,2.3-2.4,4-4.8,4c-2.1,0-4-1.4-4.6-3.3
			L6.3,36.5c-2-1.2-3.2-3.3-3.2-5.6V11.1c0.7,0.3,1.5,0.4,2.4,0.4c0.7,0,1.5-0.1,2.2-0.3v19.7c0,0.7,0.4,1.3,1,1.7l18.9,10.9
			c0.9-1,2.2-1.7,3.7-1.7c1.6,0,3,0.8,3.9,2c0,0,0,0,0,0.1c0.1,0.1,0.1,0.2,0.2,0.3c0,0,0,0.1,0.1,0.1c0,0.1,0.1,0.2,0.1,0.3
			c0,0,0,0.1,0.1,0.1c0,0.1,0.1,0.2,0.1,0.3c0,0.1,0,0.1,0.1,0.2c0,0.1,0.1,0.2,0.1,0.2c0,0.1,0,0.2,0.1,0.2c0,0.1,0,0.1,0,0.2
			c0,0.1,0,0.2,0,0.3c0,0.1,0,0.1,0,0.2C36,46.3,36,46.5,36,46.7L36,46.7z M60.9,4.1c0,1.5-0.6,2.8-1.7,3.7v23.1
			c0,2.3-1.2,4.5-3.2,5.6L38.6,46.6c0-1.6-0.6-3.2-1.5-4.4l16.6-9.6c0.6-0.3,1-1,1-1.7V8.7c-2-0.6-3.5-2.5-3.5-4.7
			c0-1.1,0.4-2.1,1-2.9c0,0,0,0,0,0c0.1-0.1,0.2-0.3,0.4-0.4l0,0c0.3-0.3,0.6-0.5,0.9-0.7c0,0,0.1,0,0.1-0.1
			c0.1-0.1,0.3-0.2,0.4-0.2c0,0,0.1,0,0.1-0.1c0.2-0.1,0.3-0.1,0.5-0.2c0,0,0,0,0,0c0.5-0.1,1-0.2,1.5-0.2
			C58.7-0.8,60.9,1.4,60.9,4.1L60.9,4.1z M3.1,8.3C1.6,7.5,0.6,5.9,0.6,4.1c0-2.7,2.2-4.9,4.9-4.9c0.7,0,1.4,0.2,2,0.4l20.5-11.9
			c1-0.6,2.1-0.9,3.2-0.9c1.1,0,2.2,0.3,3.2,0.9L51.9-2.2c-1.3,0.9-2.3,2.1-2.8,3.6L32.2-8.3c-0.3-0.2-0.6-0.3-1-0.3
			c-0.3,0-0.7,0.1-1,0.3L10.3,3.2c0,0.3,0.1,0.6,0.1,0.8c0,2.1-1.3,3.9-3.2,4.6c0,0,0,0,0,0C7,8.7,6.8,8.7,6.7,8.8c0,0-0.1,0-0.1,0
			c-0.1,0-0.3,0.1-0.4,0.1c0,0-0.1,0-0.1,0c-0.2,0-0.4,0-0.5,0c-0.2,0-0.4,0-0.6,0c-0.1,0-0.1,0-0.2,0c-0.1,0-0.3-0.1-0.4-0.1
			c0,0-0.1,0-0.1,0C3.8,8.6,3.4,8.5,3.1,8.3L3.1,8.3z"/>
		<path id="Fill-1" class="st0" d="M30.8,1.7L14.4,7.7l2.5,21.8l14,7.8l14-7.8l2.5-21.8L30.8,1.7z M19.2,27.9L17.1,9.4l13.8-4.9
			l13.8,4.9l-2.1,18.5l-11.6,6.5L19.2,27.9z M21.4,28h3.5l1.9-4.8h8.1l1.9,4.8h3.5L30.8,6.7L21.4,28z M30.8,13.6l2.8,6.7h-5.5
			L30.8,13.6z"/>
	</g>
	<path id="ANGULAR" class="st1" d="M79.4,40.9L74,54.1h3.7l0.7-1.9h5.2l0.7,1.9h3.7l-5.4-13.3H79.4z M82.5,49.1h-2.9l1.5-3.9
		L82.5,49.1z M93.7,54.1v-7.4l5.9,7.4h2.9V40.9h-3.4v7.4l-5.9-7.4h-2.9v13.3H93.7z M111.7,49.2h3.2v0.4c-0.6,0.9-1.6,1.5-2.8,1.5
		c-2,0-3.6-1.6-3.6-3.6s1.6-3.6,3.6-3.6c1.2,0,2.2,0.5,2.8,1.4l2.8-1.9c-1.3-1.7-3.3-2.8-5.6-2.8c-3.8,0-7,3.1-7,6.9
		c0,3.8,3.2,6.9,7,6.9c1.4,0,2.7-0.5,3.3-1.5v1.2h2.7v-7.7h-6.4V49.2z M129.6,40.9v7.3c0,1.9-0.9,3-2.7,3c-1.8,0-2.7-1.1-2.7-3v-7.3
		h-3.4v7.5c0,3.4,2.1,6.1,6.1,6.1c4,0,6.1-2.6,6.1-6.1v-7.5H129.6z M136,54.1h9.7v-3.3h-6.4v-10H136V54.1z M152.5,40.9l-5.4,13.3
		h3.7l0.7-1.9h5.2l0.7,1.9h3.7l-5.4-13.3H152.5z M155.6,49.1h-2.9l1.5-3.9L155.6,49.1z M163.4,40.9v13.3h3.4v-3.6h1.7l2.5,3.6h4.1
		l-2.9-4c1.8-0.8,2.6-2.5,2.6-4.4c0-2.6-1.6-4.8-5-4.8H163.4z M169.7,44c1.4,0,1.9,0.8,1.9,1.8c0,0.9-0.5,1.8-1.9,1.8h-2.9V44H169.7
		z"/>
	<path id="Apollo" class="st2" d="M77.5,22.6L74,31.1h2.4l0.5-1.3h3.4l0.5,1.3h2.4l-3.5-8.6H77.5z M79.5,27.9h-1.9l0.9-2.5
		L79.5,27.9z M86.3,31.1h2.2v-1.9h1.6c2.3,0,3.4-1.5,3.4-3.3c0-1.7-1.1-3.3-3.4-3.3h-3.8V31.1z M89.9,24.6c0.9,0,1.3,0.6,1.3,1.3
		c0,0.8-0.3,1.3-1.3,1.3h-1.5v-2.6H89.9z M96.4,26.9c0,2.5,2.1,4.5,4.6,4.5c2.5,0,4.6-2,4.6-4.5s-2-4.5-4.6-4.5
		C98.4,22.4,96.4,24.4,96.4,26.9z M98.6,26.9c0-1.3,1-2.3,2.3-2.3c1.3,0,2.3,1,2.3,2.3s-1,2.3-2.3,2.3
		C99.6,29.2,98.6,28.2,98.6,26.9z M108.9,31.1h6.3V29h-4.1v-6.5h-2.2V31.1z M118.5,31.1h6.3V29h-4.1v-6.5h-2.2V31.1z M127.5,26.9
		c0,2.5,2.1,4.5,4.6,4.5c2.5,0,4.6-2,4.6-4.5s-2-4.5-4.6-4.5C129.6,22.4,127.5,24.4,127.5,26.9z M129.7,26.9c0-1.3,1-2.3,2.3-2.3
		c1.3,0,2.3,1,2.3,2.3s-1,2.3-2.3,2.3C130.7,29.2,129.7,28.2,129.7,26.9z"/>
</g>
</svg>
