<?xml version="1.0" encoding="utf-8"?>
<!-- Generator: Adobe Illustrator 24.1.3, SVG Export Plug-In . SVG Version: 6.00 Build 0)  -->
<svg version="1.1" id="Warstwa_1" xmlns="http://www.w3.org/2000/svg" xmlns:xlink="http://www.w3.org/1999/xlink" x="0px" y="0px"
	 viewBox="0 0 169.9 70.2" style="enable-background:new 0 0 169.9 70.2;" xml:space="preserve">
<style type="text/css">
	.st0{fill-rule:evenodd;clip-rule:evenodd;fill:#FF3388;}
	.st1{fill:#050713;}
	.st2{fill:#6D7A99;}
</style>
<g id="GraphQL-Tools_x2F_-Scalars">
	<g id="Libraries-Logos-_x2F_-Scalars" transform="translate(6.000000, 20.000000)">
		<path id="Fill-2" class="st0" d="M32.4,42.9c0,0.3,0,0.5-0.1,0.7c0,0,0,0.1,0,0.1c-0.4,2.3-2.4,4-4.8,4c-2.1,0-4-1.4-4.6-3.3
			L2.7,32.8c-2-1.2-3.2-3.3-3.2-5.6V7.4C0.2,7.7,1,7.8,1.8,7.8c0.7,0,1.5-0.1,2.2-0.3v19.7c0,0.7,0.4,1.3,1,1.7l18.9,10.9
			c0.9-1,2.2-1.7,3.7-1.7c1.6,0,3,0.8,3.9,2c0,0,0,0,0,0.1c0.1,0.1,0.1,0.2,0.2,0.3c0,0,0,0.1,0.1,0.1c0,0.1,0.1,0.2,0.1,0.3
			c0,0,0,0.1,0.1,0.1c0,0.1,0.1,0.2,0.1,0.3c0,0.1,0,0.1,0.1,0.2c0,0.1,0.1,0.2,0.1,0.2c0,0.1,0,0.2,0.1,0.2c0,0.1,0,0.1,0,0.2
			c0,0.1,0,0.2,0,0.3c0,0.1,0,0.1,0,0.2C32.4,42.6,32.4,42.8,32.4,42.9L32.4,42.9z M57.3,0.3c0,1.5-0.6,2.8-1.7,3.7v23.1
			c0,2.3-1.2,4.5-3.2,5.6L35,42.8c0-1.6-0.6-3.2-1.5-4.4l16.6-9.6c0.6-0.3,1-1,1-1.7V5c-2-0.6-3.5-2.5-3.5-4.7c0-1.1,0.4-2.1,1-2.9
			c0,0,0,0,0,0c0.1-0.1,0.2-0.3,0.4-0.4l0,0c0.3-0.3,0.6-0.5,0.9-0.7c0,0,0.1,0,0.1-0.1C50-3.9,50.2-4,50.3-4.1c0,0,0.1,0,0.1-0.1
			c0.2-0.1,0.3-0.1,0.5-0.2c0,0,0,0,0,0c0.5-0.1,1-0.2,1.5-0.2C55.1-4.5,57.3-2.4,57.3,0.3L57.3,0.3z M-0.5,4.6C-2,3.7-3,2.2-3,0.3
			c0-2.7,2.2-4.9,4.9-4.9c0.7,0,1.4,0.2,2,0.4L24.3-16c1-0.6,2.1-0.9,3.2-0.9c1.1,0,2.2,0.3,3.2,0.9L48.3-5.9C47-5,46-3.7,45.4-2.3
			l-16.9-9.8c-0.3-0.2-0.6-0.3-1-0.3c-0.3,0-0.7,0.1-1,0.3L6.6-0.5c0,0.3,0.1,0.6,0.1,0.8c0,2.1-1.3,3.9-3.2,4.6c0,0,0,0,0,0
			C3.3,5,3.2,5,3,5.1c0,0-0.1,0-0.1,0c-0.1,0-0.3,0.1-0.4,0.1c0,0-0.1,0-0.1,0c-0.2,0-0.4,0-0.5,0c-0.2,0-0.4,0-0.6,0
			c-0.1,0-0.1,0-0.2,0C1,5.1,0.8,5.1,0.7,5.1c0,0-0.1,0-0.1,0C0.2,4.9-0.2,4.8-0.5,4.6L-0.5,4.6z"/>
		<path id="Fill-1" class="st0" d="M24.9,27.6l-10.7-5.7L24.9,3.7V27.6z M28,3.7l8.8,14.9L28,13.9V3.7z M27.8,30.3V17.1L40,23.7
			c0.6,0.3,1.3,0.2,1.7-0.3c0.5-0.5,0.5-1.2,0.2-1.8L27.8-2.5c-0.3-0.5-0.8-0.7-1.3-0.7c0,0,0,0-0.1,0c-0.6,0-1,0.3-1.3,0.7
			L10.9,21.6c-0.4,0.7-0.2,1.6,0.5,2l14.2,7.9c0.5,0.3,1,0.3,1.5,0C27.5,31.3,27.8,30.8,27.8,30.3L27.8,30.3z"/>
	</g>
	<path id="Scalars" class="st1" d="M70.8,46.4v0.2c0,2.6,2.4,4.1,5.6,4.1c3,0,5.3-1.4,5.3-3.9c0-2.8-3-3.9-4.8-4.6l-0.6-0.2
		c-1.3-0.4-1.7-0.7-1.7-1.2c0-0.4,0.5-0.9,1.6-0.9c1.4,0,2,0.8,2,1.4v0.1h3.3v-0.2c0-2.6-2.3-4.3-5.4-4.3c-3,0-5.2,1.6-5.2,4.1
		c0,2.6,2.5,3.6,4.5,4.3l0.4,0.1c1.6,0.5,2.3,0.9,2.3,1.4c0,0.4-0.4,0.8-1.7,0.8c-1.5,0-2.2-0.7-2.2-1.2v-0.1H70.8z M94,45.5
		c-0.6,1.1-1.8,1.9-3.2,1.9c-2,0-3.6-1.6-3.6-3.6s1.6-3.6,3.6-3.6c1.4,0,2.6,0.8,3.2,1.9l3.1-1.4c-1.2-2.2-3.5-3.8-6.3-3.8
		c-3.8,0-7,3.1-7,6.9c0,3.8,3.2,6.9,7,6.9c2.7,0,5.1-1.5,6.3-3.8L94,45.5z M103.2,37.2l-5.4,13.3h3.7l0.7-1.9h5.2l0.7,1.9h3.7
		l-5.4-13.3H103.2z M106.4,45.4h-2.9l1.5-3.9L106.4,45.4z M114.1,50.4h9.7v-3.3h-6.4v-10h-3.4V50.4z M130.6,37.2l-5.4,13.3h3.7
		l0.7-1.9h5.2l0.7,1.9h3.7L134,37.2H130.6z M133.8,45.4h-2.9l1.5-3.9L133.8,45.4z M141.5,37.2v13.3h3.4v-3.6h1.7l2.5,3.6h4.1l-2.9-4
		c1.8-0.8,2.6-2.5,2.6-4.4c0-2.6-1.6-4.8-5-4.8H141.5z M147.8,40.3c1.4,0,1.9,0.8,1.9,1.8c0,0.9-0.5,1.8-1.9,1.8h-2.9v-3.5H147.8z
		 M155.2,46.4h3.3v0.1c0,0.5,0.7,1.2,2.2,1.2c1.3,0,1.7-0.4,1.7-0.8c0-0.6-0.7-0.9-2.3-1.4l-0.8-0.3c-2-0.7-4.1-1.8-4.1-4.2
		c0-2.5,2.2-4.1,5.2-4.1c3.1,0,5.4,1.6,5.4,4.3v0.2h-3.3v-0.1c0-0.6-0.7-1.4-2-1.4c-1.2,0-1.6,0.5-1.6,0.9c0,0.5,0.5,0.7,1.7,1.2
		l0.9,0.3c1.9,0.7,4.5,1.8,4.5,4.5c0,2.6-2.2,3.9-5.3,3.9c-3.2,0-5.6-1.5-5.6-4.1V46.4z"/>
	<path id="GraphQL" class="st2" d="M74.9,24.2H77v0.2c-0.4,0.6-1.1,1-1.8,1c-1.3,0-2.3-1-2.3-2.3s1-2.3,2.3-2.3
		c0.7,0,1.4,0.3,1.8,0.9l1.8-1.2c-0.8-1.1-2.2-1.8-3.6-1.8c-2.5,0-4.6,2-4.6,4.5s2.1,4.5,4.6,4.5c0.9,0,1.7-0.3,2.2-1v0.8h1.7v-5
		h-4.1V24.2z M82.7,18.8v8.6h2.2v-2.3H86l1.6,2.3h2.6l-1.9-2.6c1.2-0.5,1.7-1.6,1.7-2.8c0-1.7-1-3.1-3.2-3.1H82.7z M86.7,20.8
		c0.9,0,1.2,0.5,1.2,1.2c0,0.6-0.3,1.1-1.2,1.1h-1.9v-2.3H86.7z M96.2,18.8l-3.5,8.6h2.4l0.5-1.3H99l0.5,1.3h2.4l-3.5-8.6H96.2z
		 M98.3,24.2h-1.9l0.9-2.5L98.3,24.2z M105,27.4h2.2v-1.9h1.6c2.3,0,3.4-1.5,3.4-3.3c0-1.7-1.1-3.3-3.4-3.3H105V27.4z M108.7,20.8
		c0.9,0,1.3,0.6,1.3,1.3c0,0.8-0.3,1.3-1.3,1.3h-1.5v-2.6H108.7z M121.2,18.8v3.3h-3.5v-3.3h-2.2v8.6h2.2v-3.2h3.5v3.2h2.2v-8.6
		H121.2z M126.8,23.1c0,2.2,1.7,4,3.8,4.4c1.5,0.5,2.5,2,4.2,2c0.8,0,1.8-0.3,2.4-1.2l-1.7-1.3c-0.2,0.4-0.6,0.4-0.7,0.4
		c-0.4,0-0.7-0.2-1.1-0.5c1.3-0.8,2.2-2.2,2.2-3.8c0-2.5-2-4.5-4.6-4.5C128.9,18.7,126.8,20.7,126.8,23.1z M129.1,23.1
		c0-1.3,1-2.3,2.3-2.3c1.3,0,2.3,1,2.3,2.3s-1,2.3-2.3,2.3C130.1,25.5,129.1,24.4,129.1,23.1z M139.4,27.4v-8.6h2.2v6.5h4.1v2.1
		H139.4z"/>
</g>
</svg>
