<?xml version="1.0" encoding="utf-8"?>
<!-- Generator: Adobe Illustrator 24.1.3, SVG Export Plug-In . SVG Version: 6.00 Build 0)  -->
<svg version="1.1" id="Warstwa_1" xmlns="http://www.w3.org/2000/svg" xmlns:xlink="http://www.w3.org/1999/xlink" x="0px" y="0px"
	 viewBox="0 0 215 105" style="enable-background:new 0 0 215 105;" xml:space="preserve">
<style type="text/css">
	.st0{fill-rule:evenodd;clip-rule:evenodd;fill:#184AE8;}
	.st1{fill:#050713;}
	.st2{fill:#6D7A99;}
</style>
<g id="GraphQL-Tools_x2F_-toolkit">
	<g id="Libraries-Logos-_x2F_-Toolskit" transform="translate(6.000000, 20.000000)">
		<path id="Fill-2" class="st0" d="M36,60.5c0,0.3,0,0.5-0.1,0.7c0,0,0,0.1,0,0.1c-0.4,2.3-2.4,4-4.8,4c-2.1,0-4-1.4-4.6-3.3
			L6.3,50.4c-2-1.2-3.2-3.3-3.2-5.6V25c0.7,0.3,1.5,0.4,2.4,0.4c0.7,0,1.5-0.1,2.2-0.3v19.7c0,0.7,0.4,1.3,1,1.7l18.9,10.9
			c0.9-1,2.2-1.7,3.7-1.7c1.6,0,3,0.8,3.9,2c0,0,0,0,0,0.1c0.1,0.1,0.1,0.2,0.2,0.3c0,0,0,0.1,0.1,0.1c0,0.1,0.1,0.2,0.1,0.3
			c0,0,0,0.1,0.1,0.1c0,0.1,0.1,0.2,0.1,0.3c0,0.1,0,0.1,0.1,0.2c0,0.1,0.1,0.2,0.1,0.2c0,0.1,0,0.2,0.1,0.2c0,0.1,0,0.1,0,0.2
			c0,0.1,0,0.2,0,0.3c0,0.1,0,0.1,0,0.2C36,60.2,36,60.4,36,60.5L36,60.5z M60.9,17.9c0,1.5-0.6,2.8-1.7,3.7v23.1
			c0,2.3-1.2,4.5-3.2,5.6L38.6,60.4c0-1.6-0.6-3.2-1.5-4.4l16.6-9.6c0.6-0.3,1-1,1-1.7V22.6c-2-0.6-3.5-2.5-3.5-4.7
			c0-1.1,0.4-2.1,1-2.9c0,0,0,0,0,0c0.1-0.1,0.2-0.3,0.4-0.4l0,0c0.3-0.3,0.6-0.5,0.9-0.7c0,0,0.1,0,0.1-0.1
			c0.1-0.1,0.3-0.2,0.4-0.2c0,0,0.1,0,0.1-0.1c0.2-0.1,0.3-0.1,0.5-0.2c0,0,0,0,0,0c0.5-0.1,1-0.2,1.5-0.2
			C58.7,13,60.9,15.2,60.9,17.9L60.9,17.9z M3.1,22.2c-1.5-0.8-2.5-2.4-2.5-4.2c0-2.7,2.2-4.9,4.9-4.9c0.7,0,1.4,0.2,2,0.4L27.9,1.6
			c1-0.6,2.1-0.9,3.2-0.9c1.1,0,2.2,0.3,3.2,0.9l17.5,10.1c-1.3,0.9-2.3,2.1-2.8,3.6L32.2,5.5c-0.3-0.2-0.6-0.3-1-0.3
			c-0.3,0-0.7,0.1-1,0.3L10.3,17.1c0,0.3,0.1,0.6,0.1,0.8c0,2.1-1.3,3.9-3.2,4.6c0,0,0,0,0,0c-0.1,0.1-0.3,0.1-0.4,0.1
			c0,0-0.1,0-0.1,0c-0.1,0-0.3,0.1-0.4,0.1c0,0-0.1,0-0.1,0c-0.2,0-0.4,0-0.5,0c-0.2,0-0.4,0-0.6,0c-0.1,0-0.1,0-0.2,0
			c-0.1,0-0.3-0.1-0.4-0.1c0,0-0.1,0-0.1,0C3.8,22.5,3.4,22.3,3.1,22.2L3.1,22.2z"/>
		<path id="Combined-Shape" class="st0" d="M41.5,15.1l0,1.9c0,0.2-0.2,5-5.7,9.9l0,0h6.8c3.4,0,6.2,2.8,6.2,6.2
			c0,3.4-2.8,6.2-6.2,6.2l0,0h-0.3l-1.8,1.8c-0.2,0.2-0.5,0.3-0.8,0.3l0,0l-2.2-0.1l-1.5,1.5c-0.2,0.2-0.5,0.3-0.8,0.3l0,0L32.9,43
			l-1.5,1.5c-0.2,0.2-0.5,0.3-0.8,0.3l0,0l-2.2-0.1l-1.5,1.5c-0.2,0.2-0.5,0.3-0.8,0.3c0,0,0,0-0.1,0l0,0l-2.7-0.1
			c-0.6,0-1-0.5-1-1.1c0-0.6,0.5-1,1.1-1l0,0l2.2,0.1l1.5-1.5c0.2-0.2,0.5-0.3,0.8-0.3l0,0l2.2,0.1l1.5-1.5c0.2-0.2,0.5-0.3,0.8-0.3
			l0,0l2.2,0.1l1.5-1.5c0,0,0.1-0.1,0.1-0.1l0,0H19.3c-3.4,0-6.2-2.8-6.2-6.2c0-3.4,2.8-6.2,6.2-6.2l0,0h2l0,0L41.5,15.1z
			 M42.5,29.1H19.3c-2.2,0-4,1.8-4,4c0,2.2,1.8,4,4,4l0,0h23.2c2.2,0,4-1.8,4-4C46.5,30.9,44.7,29.1,42.5,29.1L42.5,29.1z
			 M42.9,30.6v1.5h1.5v2.2h-1.5v1.5h-2.2v-1.5h-1.5v-2.2h1.5v-1.5H42.9z M38.8,19.2l-13.2,7.7h6.8l-0.1-0.1
			C36.4,24,38.1,21.1,38.8,19.2L38.8,19.2z"/>
	</g>
	<path id="Toolkit" class="st1" d="M74.2,58h4.1v10h3.4V58h4.1v-3.3H74.2V58z M87.4,61.4c0,3.8,3.2,6.9,7,6.9c3.9,0,7-3.1,7-6.9
		c0-3.8-3.2-6.9-7-6.9C90.6,54.5,87.4,57.6,87.4,61.4z M90.8,61.4c0-2,1.6-3.6,3.6-3.6c2,0,3.6,1.6,3.6,3.6S96.4,65,94.4,65
		C92.4,65,90.8,63.4,90.8,61.4z M103.4,61.4c0,3.8,3.2,6.9,7,6.9c3.9,0,7-3.1,7-6.9c0-3.8-3.2-6.9-7-6.9
		C106.6,54.5,103.4,57.6,103.4,61.4z M106.8,61.4c0-2,1.6-3.6,3.6-3.6c2,0,3.6,1.6,3.6,3.6s-1.6,3.6-3.6,3.6
		C108.4,65,106.8,63.4,106.8,61.4z M120,68h9.7v-3.3h-6.4v-10H120V68z"/>
	<path id="GraphQL" class="st2" d="M78.6,41.8h2.1v0.2c-0.4,0.6-1.1,1-1.8,1c-1.3,0-2.3-1-2.3-2.3s1-2.3,2.3-2.3
		c0.7,0,1.4,0.3,1.8,0.9l1.8-1.2c-0.8-1.1-2.2-1.8-3.6-1.8c-2.5,0-4.6,2-4.6,4.5s2.1,4.5,4.6,4.5c0.9,0,1.7-0.3,2.2-1V45h1.7v-5
		h-4.1V41.8z M86.3,36.4V45h2.2v-2.3h1.1l1.6,2.3h2.6L92,42.4c1.2-0.5,1.7-1.6,1.7-2.8c0-1.7-1-3.1-3.2-3.1H86.3z M90.4,38.4
		c0.9,0,1.2,0.5,1.2,1.2c0,0.6-0.3,1.1-1.2,1.1h-1.9v-2.3H90.4z M99.9,36.4L96.4,45h2.4l0.5-1.3h3.4l0.5,1.3h2.4l-3.5-8.6H99.9z
		 M101.9,41.8H100l0.9-2.5L101.9,41.8z M108.7,45h2.2v-1.9h1.6c2.3,0,3.4-1.5,3.4-3.3c0-1.7-1.1-3.3-3.4-3.3h-3.8V45z M112.4,38.4
		c0.9,0,1.3,0.6,1.3,1.3c0,0.8-0.3,1.3-1.3,1.3h-1.5v-2.6H112.4z M124.9,36.4v3.3h-3.5v-3.3h-2.2V45h2.2v-3.2h3.5V45h2.2v-8.6H124.9
		z M130.5,40.7c0,2.2,1.7,4,3.8,4.4c1.5,0.5,2.5,2,4.2,2c0.8,0,1.8-0.3,2.4-1.2l-1.7-1.3c-0.2,0.4-0.6,0.4-0.7,0.4
		c-0.4,0-0.7-0.2-1.1-0.5c1.3-0.8,2.2-2.2,2.2-3.8c0-2.5-2-4.5-4.6-4.5C132.6,36.3,130.5,38.3,130.5,40.7z M132.7,40.7
		c0-1.3,1-2.3,2.3-2.3c1.3,0,2.3,1,2.3,2.3s-1,2.3-2.3,2.3C133.7,43,132.7,42,132.7,40.7z M143,45v-8.6h2.2v6.5h4.1V45H143z"/>
</g>
<path id="Sofa" class="st1" d="M132.2,64.3v0.2c0,2.6,2.4,4.1,5.6,4.1c3,0,5.3-1.4,5.3-3.9c0-2.8-3-3.9-4.8-4.6l-0.6-0.2
	c-1.3-0.4-1.7-0.7-1.7-1.2c0-0.4,0.5-0.9,1.6-0.9c1.4,0,2,0.8,2,1.4v0.1h3.3V59c0-2.6-2.3-4.3-5.4-4.3c-3,0-5.2,1.6-5.2,4.1
	c0,2.6,2.5,3.6,4.5,4.3l0.4,0.1c1.6,0.5,2.3,0.9,2.3,1.4c0,0.4-0.4,0.8-1.7,0.8c-1.5,0-2.2-0.7-2.2-1.2v-0.1H132.2z"/>
</svg>
