<?xml version="1.0" encoding="utf-8"?>
<!-- Generator: Adobe Illustrator 24.1.3, SVG Export Plug-In . SVG Version: 6.00 Build 0)  -->
<svg version="1.1" id="Warstwa_1" xmlns="http://www.w3.org/2000/svg" xmlns:xlink="http://www.w3.org/1999/xlink" x="0px" y="0px"
	 viewBox="0 0 199.4 70.1" style="enable-background:new 0 0 199.4 70.1;" xml:space="preserve">
<style type="text/css">
	.st0{fill-rule:evenodd;clip-rule:evenodd;fill:#31EB14;}
	.st1{fill:#050713;}
	.st2{fill:#6D7A99;}
</style>
<g id="GraphQL-Tools_x2F_-WhatsApp">
	<g id="Libraries-Logos-_x2F_-Whatsapp" transform="translate(6.000000, 20.000000)">
		<path id="Fill-2" class="st0" d="M32.3,42.9c0,0.3,0,0.5-0.1,0.7c0,0,0,0.1,0,0.1c-0.4,2.3-2.4,4-4.8,4c-2.1,0-4-1.4-4.6-3.3
			L2.6,32.7c-2-1.2-3.2-3.3-3.2-5.6V7.4c0.7,0.3,1.5,0.4,2.4,0.4c0.7,0,1.5-0.1,2.2-0.3v19.7c0,0.7,0.4,1.3,1,1.7l18.9,10.9
			c0.9-1,2.2-1.7,3.7-1.7c1.6,0,3,0.8,3.9,2c0,0,0,0,0,0.1c0.1,0.1,0.1,0.2,0.2,0.3c0,0,0,0.1,0.1,0.1c0,0.1,0.1,0.2,0.1,0.3
			c0,0,0,0.1,0.1,0.1c0,0.1,0.1,0.2,0.1,0.3c0,0.1,0,0.1,0.1,0.2c0,0.1,0.1,0.2,0.1,0.2c0,0.1,0,0.2,0.1,0.2c0,0.1,0,0.1,0,0.2
			c0,0.1,0,0.2,0,0.3c0,0.1,0,0.1,0,0.2C32.3,42.6,32.3,42.7,32.3,42.9L32.3,42.9z M57.2,0.3c0,1.5-0.6,2.8-1.7,3.7v23.1
			c0,2.3-1.2,4.5-3.2,5.6L34.9,42.8c0-1.6-0.6-3.2-1.5-4.4L50,28.8c0.6-0.3,1-1,1-1.7V5c-2-0.6-3.5-2.5-3.5-4.7c0-1.1,0.4-2.1,1-2.9
			c0,0,0,0,0,0c0.1-0.1,0.2-0.3,0.4-0.4l0,0c0.3-0.3,0.6-0.5,0.9-0.7c0,0,0.1,0,0.1-0.1C49.9-4,50.1-4,50.2-4.1c0,0,0.1,0,0.1-0.1
			c0.2-0.1,0.3-0.1,0.5-0.2c0,0,0,0,0,0c0.5-0.1,1-0.2,1.5-0.2C55-4.6,57.2-2.4,57.2,0.3L57.2,0.3z M-0.6,4.5
			c-1.5-0.8-2.5-2.4-2.5-4.2c0-2.7,2.2-4.9,4.9-4.9c0.7,0,1.4,0.2,2,0.4l20.5-11.9c1-0.6,2.1-0.9,3.2-0.9c1.1,0,2.2,0.3,3.2,0.9
			L48.1-5.9c-1.3,0.9-2.3,2.1-2.8,3.6l-16.9-9.8c-0.3-0.2-0.6-0.3-1-0.3c-0.3,0-0.7,0.1-1,0.3L6.5-0.6c0,0.3,0.1,0.6,0.1,0.8
			c0,2.1-1.3,3.9-3.2,4.6c0,0,0,0,0,0C3.2,4.9,3.1,5,2.9,5c0,0-0.1,0-0.1,0c-0.1,0-0.3,0.1-0.4,0.1c0,0-0.1,0-0.1,0
			c-0.2,0-0.4,0-0.5,0c-0.2,0-0.4,0-0.6,0c-0.1,0-0.1,0-0.2,0C0.8,5.1,0.7,5,0.6,5c0,0-0.1,0-0.1,0C0,4.9-0.3,4.7-0.6,4.5L-0.6,4.5z
			"/>
		<path id="Fill-1" class="st0" d="M24.1,7.7c-0.3-0.7-0.6-0.6-0.8-0.6h-0.7c-0.3,0-0.6,0.1-1,0.5c-0.3,0.4-1.2,1.3-1.2,3.1
			c0,1.9,1.3,3.5,1.5,3.8c0.2,0.3,2.6,4,6.3,5.6c0.8,0.4,1.6,0.6,2.1,0.7c0.8,0.3,1.7,0.3,2.3,0.2c0.7-0.1,2.1-0.9,2.5-1.8
			c0.3-0.8,0.3-1.6,0.2-1.8c-0.1-0.2-0.4-0.3-0.7-0.5c-0.4-0.1-2.1-1-2.5-1.1c-0.4-0.1-0.6-0.2-0.8,0.2c-0.3,0.4-0.9,1.2-1.2,1.5
			c-0.2,0.3-0.5,0.3-0.8,0.1c-0.4-0.2-1.6-0.6-3-1.9c-1.1-1-1.8-2.1-2-2.5c-0.2-0.4,0-0.6,0.2-0.7c0.2-0.2,0.4-0.5,0.6-0.6
			c0.2-0.2,0.3-0.4,0.4-0.6c0.1-0.3,0.1-0.5,0-0.6C25.1,10.3,24.4,8.4,24.1,7.7L24.1,7.7z M21.1,24.1l0.5,0.3c1.8,1.1,4,1.7,6.2,1.7
			c6.8,0,12.2-5.5,12.2-12.2c0-3.2-1.3-6.3-3.6-8.6c-2.3-2.3-5.4-3.6-8.6-3.6C21,1.7,15.6,7.1,15.6,13.9c0,2.3,0.6,4.5,1.8,6.5
			l0.3,0.5l-1.2,4.5L21.1,24.1z M13,28.9l2.1-7.6c-1.3-2.2-1.9-4.7-1.9-7.3C13.1,5.8,19.6-0.8,27.8-0.8c3.9,0,7.6,1.6,10.4,4.4
			c2.8,2.8,4.3,6.5,4.3,10.4c0,8.1-6.6,14.8-14.7,14.8c-2.5,0-4.9-0.7-7-1.8L13,28.9z"/>
	</g>
	<path id="Whatsapp" class="st1" d="M77.5,50.4l2.5-7.7l2.5,7.7H86l3.7-13.3h-3.6L84,45l-2.5-7.9h-3L76,45l-2.1-7.9h-3.6L74,50.4
		H77.5z M100.7,37.1v5.2h-5.4v-5.2h-3.4v13.3h3.4v-4.9h5.4v4.9h3.4V37.1H100.7z M111.7,37.1l-5.4,13.3h3.7l0.7-1.9h5.2l0.7,1.9h3.7
		L115,37.1H111.7z M114.8,45.4h-2.9l1.5-3.9L114.8,45.4z M119.7,40.4h4.1v10h3.4v-10h4.1v-3.3h-11.7V40.4z M133.2,46.4v0.2
		c0,2.6,2.4,4.1,5.6,4.1c3,0,5.3-1.4,5.3-3.9c0-2.6-2.5-3.7-4.3-4.4l-1.3-0.5c-1.1-0.4-1.5-0.7-1.5-1.1c0-0.4,0.5-0.9,1.6-0.9
		c1.4,0,2,0.8,2,1.4v0.1h3.3v-0.2c0-2.6-2.3-4.3-5.4-4.3c-3,0-5.2,1.6-5.2,4.1c0,2.6,2.5,3.6,4.5,4.3l0.4,0.1
		c1.6,0.5,2.3,0.9,2.3,1.4c0,0.4-0.4,0.8-1.7,0.8c-1.5,0-2.2-0.7-2.2-1.2v-0.1H133.2z M150.5,37.1l-5.4,13.3h3.7l0.7-1.9h5.2
		l0.7,1.9h3.7l-5.4-13.3H150.5z M153.7,45.4h-2.9l1.5-3.9L153.7,45.4z M161.4,50.4h3.4v-3h2.4c3.5,0,5.2-2.4,5.2-5.2
		c0-2.7-1.7-5.1-5.2-5.1h-5.8V50.4z M167.1,40.2c1.4,0,2,1,2,2c0,1.2-0.5,2.1-2,2.1h-2.3v-4.1H167.1z M175,50.4h3.4v-3h2.4
		c3.5,0,5.2-2.4,5.2-5.2c0-2.7-1.7-5.1-5.2-5.1H175V50.4z M180.6,40.2c1.4,0,2,1,2,2c0,1.2-0.5,2.1-2,2.1h-2.3v-4.1H180.6z"/>
	<path id="Clonetutorial" class="st2" d="M77.1,24.2c-0.4,0.7-1.1,1.2-2.1,1.2c-1.3,0-2.3-1-2.3-2.3s1-2.3,2.3-2.3
		c0.9,0,1.7,0.5,2.1,1.2l2-0.9c-0.8-1.4-2.3-2.4-4.1-2.4c-2.5,0-4.6,2-4.6,4.5s2.1,4.5,4.6,4.5c1.8,0,3.3-1,4.1-2.5L77.1,24.2z
		 M81.4,27.4h6.3v-2.1h-4.1v-6.5h-2.2V27.4z M89.4,23.1c0,2.5,2.1,4.5,4.6,4.5c2.5,0,4.6-2,4.6-4.5s-2-4.5-4.6-4.5
		C91.5,18.6,89.4,20.6,89.4,23.1z M91.6,23.1c0-1.3,1-2.3,2.3-2.3c1.3,0,2.3,1,2.3,2.3s-1,2.3-2.3,2.3
		C92.6,25.4,91.6,24.4,91.6,23.1z M103.1,27.4v-4.8l3.8,4.8h1.9v-8.6h-2.2v4.8l-3.8-4.8h-1.9v8.6H103.1z M111.6,27.4h6.6v-2.1h-4.4
		v-1.1h3.6v-2h-3.6v-1.2h4.4v-2.1h-6.6V27.4z M124.5,20.9h2.7v6.4h2.2v-6.4h2.7v-2.1h-7.5V20.9z M139.9,18.8v4.7
		c0,1.2-0.6,1.9-1.8,1.9c-1.1,0-1.7-0.7-1.7-1.9v-4.7h-2.2v4.8c0,2.2,1.4,3.9,3.9,3.9c2.6,0,3.9-1.7,3.9-3.9v-4.8H139.9z
		 M144.2,20.9h2.7v6.4h2.2v-6.4h2.7v-2.1h-7.5V20.9z M153.5,23.1c0,2.5,2.1,4.5,4.6,4.5c2.5,0,4.6-2,4.6-4.5s-2-4.5-4.6-4.5
		C155.6,18.6,153.5,20.6,153.5,23.1z M155.7,23.1c0-1.3,1-2.3,2.3-2.3c1.3,0,2.3,1,2.3,2.3s-1,2.3-2.3,2.3
		C156.8,25.4,155.7,24.4,155.7,23.1z M165,18.8v8.6h2.2v-2.3h1.1l1.6,2.3h2.6l-1.9-2.6c1.2-0.5,1.7-1.6,1.7-2.8c0-1.7-1-3.1-3.2-3.1
		H165z M169.1,20.8c0.9,0,1.2,0.5,1.2,1.2c0,0.6-0.3,1.1-1.2,1.1h-1.9v-2.3H169.1z M174.9,18.8v8.6h2.2v-8.6H174.9z M182.8,18.8
		l-3.5,8.6h2.4l0.5-1.3h3.4l0.5,1.3h2.4l-3.5-8.6H182.8z M184.8,24.1h-1.9l0.9-2.5L184.8,24.1z M190.6,27.4v-8.6h2.2v6.5h4.1v2.1
		H190.6z"/>
</g>
</svg>
