<?xml version="1.0" encoding="UTF-8"?>
<svg width="215px" height="105px" viewBox="0 0 215 105" version="1.1" xmlns="http://www.w3.org/2000/svg" xmlns:xlink="http://www.w3.org/1999/xlink">
    <g id="GraphQL-Tools/-WhatsApp" stroke="none" stroke-width="1" fill="none" fill-rule="evenodd">
        <g id="Libraries-Logos-/-Whatsapp" transform="translate(6.000000, 20.000000)" fill="#31EB14">
            <path d="M36.0400049,60.5122933 C36.0400049,60.7669156 36.0151531,61.0154933 35.9767457,61.2595378 C35.9722272,61.2905156 35.9684617,61.3207378 35.9631901,61.35096 C35.5655605,63.64256 33.5736469,65.3909156 31.178079,65.3909156 C29.0415728,65.3909156 27.2273877,63.9991822 26.5759679,62.0740267 L6.34580741,50.3568711 C4.33958519,49.1948267 3.10452346,47.0467822 3.10452346,44.7242044 L3.10452346,24.9883378 C3.85384444,25.24296 4.65286914,25.3872711 5.48804198,25.3872711 C6.23736296,25.3872711 6.96032593,25.2731822 7.64262222,25.06616 L7.64262222,44.7242044 C7.64262222,45.41856 8.01464691,46.0653156 8.61560988,46.4128711 L27.4872025,57.3442489 C28.3796099,56.2993156 29.7012765,55.6336711 31.178079,55.6336711 C32.7844123,55.6336711 34.2062395,56.4217156 35.0926222,57.6298489 C35.108437,57.65176 35.1250049,57.6729156 35.1408198,57.6948267 C35.2025728,57.7832267 35.2613136,57.8731378 35.3177951,57.9660711 C35.3396346,58.0015822 35.3614741,58.0363378 35.3825605,58.0726044 C35.4322642,58.1579822 35.4782025,58.2456267 35.5226346,58.3340267 C35.5467333,58.3816267 35.5693259,58.4292267 35.5911654,58.4775822 C35.6295728,58.5599378 35.6649679,58.6430489 35.6988568,58.7276711 C35.7229556,58.7881156 35.744042,58.84856 35.7658815,58.90976 C35.7929926,58.9868267 35.8193506,59.0646489 35.8419432,59.1432267 C35.8645358,59.2187822 35.8811037,59.2943378 35.8999309,59.3691378 C35.9172519,59.44016 35.9353259,59.5104267 35.9488815,59.5822044 C35.9677086,59.6766489 35.979758,59.7718489 35.9933136,59.8678044 C36.0000914,59.9259822 36.0113877,59.9811378 36.0166593,60.03856 C36.0309679,60.19496 36.0400049,60.3521156 36.0400049,60.5122933 L36.0400049,60.5122933 Z M60.919721,17.9072711 C60.919721,19.3707822 60.2720667,20.6824267 59.2508815,21.5770044 L59.2508815,44.7242044 C59.2508815,47.0467822 58.0165728,49.1948267 56.0095975,50.3568711 L38.629116,60.4238933 C38.6095358,58.7767822 38.0545111,57.2603822 37.1342395,56.0318489 L53.7405481,46.4128711 C54.340758,46.0653156 54.7127827,45.41856 54.7127827,44.7242044 L54.7127827,22.5917156 C52.684721,22.0054044 51.195116,20.12936 51.195116,17.9072711 C51.195116,16.8253156 51.5528321,15.8279822 52.1492765,15.0187822 C52.1575605,15.0059378 52.1673506,14.9930933 52.1771407,14.9802489 C52.2893506,14.8306489 52.4098444,14.6863378 52.5386222,14.5503378 L52.5559432,14.5314489 C52.8225358,14.2526489 53.120758,14.0078489 53.4460914,13.79856 C53.4799802,13.7766489 53.5153753,13.7570044 53.5500173,13.7350933 C53.6787951,13.6580267 53.8105852,13.5847378 53.9461407,13.5190044 C53.9860543,13.5001156 54.0259679,13.4797156 54.0666346,13.4615822 C54.236079,13.3845156 54.4107951,13.3134933 54.5907827,13.2575822 C54.5915358,13.2575822 54.5915358,13.2575822 54.5915358,13.2568267 C55.054684,13.1094933 55.5464494,13.0286489 56.0577951,13.0286489 C58.7395358,13.0286489 60.919721,15.2167378 60.919721,17.9072711 L60.919721,17.9072711 Z M3.10452346,22.1550044 C1.6269679,21.3170933 0.625362963,19.72816 0.625362963,17.9072711 C0.625362963,15.2167378 2.80630123,13.0286489 5.48804198,13.0286489 C6.18314074,13.0286489 6.84284444,13.1790044 7.44154815,13.4434489 L27.936042,1.57216 C28.9384,0.991137778 30.0589926,0.701004444 31.1773259,0.701004444 C32.2971654,0.701004444 33.4170049,0.991137778 34.419363,1.57216 L51.9022642,11.6996267 C50.6159926,12.5700267 49.6196593,13.8348267 49.0729185,15.3164711 L32.1503136,5.51540444 C31.8551037,5.34389333 31.5184741,5.25398222 31.1773259,5.25398222 C30.8369309,5.25398222 30.5010543,5.34389333 30.2050914,5.51540444 L10.2724,17.0618044 C10.3205975,17.3368267 10.3499679,17.6178933 10.3499679,17.9072711 C10.3499679,20.0062044 9.0192642,21.7946044 7.16215309,22.4814044 C7.14784444,22.4866933 7.13278272,22.4927378 7.11922716,22.4972711 C6.97086914,22.5494044 6.82251111,22.5954933 6.66963457,22.6340267 C6.63875802,22.6415822 6.60863457,22.6506489 6.57775802,22.6566933 C6.43768395,22.6891822 6.29459753,22.7148711 6.15075802,22.7352711 C6.11159753,22.74056 6.07319012,22.7481156 6.03327654,22.7526489 C5.85404198,22.7730489 5.67254815,22.7858933 5.48804198,22.7858933 C5.28998025,22.7858933 5.09493086,22.7700267 4.90214074,22.7466044 C4.85093086,22.74056 4.80047407,22.7314933 4.74851111,22.7231822 C4.60090617,22.7005156 4.45631358,22.6718044 4.31247407,22.6355378 C4.26879506,22.6242044 4.22436296,22.6143822 4.17993086,22.6015378 C3.8011284,22.4942489 3.4404,22.3454044 3.10452346,22.1550044 L3.10452346,22.1550044 Z" id="Fill-2"></path>
            <path d="M27.8406478,25.3346429 C27.5629867,24.5925 27.2860376,24.6853571 27.0083765,24.6853571 L26.268659,24.6853571 C25.9909979,24.6853571 25.6214951,24.7782143 25.2512803,25.1489286 C24.9750432,25.5203571 24.0502183,26.4482143 24.0502183,28.2103571 C24.0502183,30.0660714 25.343834,31.7353571 25.5289414,32.0139286 C25.7140488,32.2917857 28.1183088,36.0032143 31.8168966,37.5796429 C32.6491678,37.9510714 33.3888854,38.2289286 33.9434956,38.3217857 C34.7757668,38.6003571 35.608038,38.6003571 36.25449,38.5075 C36.9942075,38.4146429 38.3818009,37.5796429 38.7513037,36.7453571 C39.0289648,35.9103571 39.0289648,35.1682143 38.9364111,34.9825 C38.8438574,34.7967857 38.5661963,34.7039286 38.1966935,34.5182143 C37.8264788,34.4260714 36.0700945,33.4982143 35.6998798,33.4053571 C35.3310889,33.3125 35.1459816,33.2196429 34.8683205,33.5910714 C34.5906594,33.9617857 33.9434956,34.7967857 33.6665465,35.0753571 C33.4814391,35.3532143 33.203778,35.3532143 32.8342752,35.1682143 C32.4640605,34.9825 31.2622864,34.6110714 29.874693,33.3125 C28.7654727,32.2917857 28.0257551,31.1789286 27.8406478,30.8082143 C27.6555404,30.4367857 27.8406478,30.2510714 28.0257551,30.0660714 C28.2108625,29.8803571 28.3952579,29.6017857 28.5803653,29.4160714 C28.7654727,29.2310714 28.8580264,29.0453571 28.9505801,28.7667857 C29.0424218,28.4889286 29.0424218,28.3032143 28.9505801,28.1175 C28.8580264,27.9317857 28.1183088,26.0767857 27.8406478,25.3346429 L27.8406478,25.3346429 Z M24.8824895,41.7546429 L25.343834,42.0325 C27.1934839,43.1460714 29.3200829,43.7025 31.5392355,43.7025 C38.2892472,43.7025 43.7449311,38.2289286 43.7449311,31.4575 C43.7449311,28.2103571 42.4506034,25.1489286 40.1381851,22.8296429 C37.8264788,20.5110714 34.7757668,19.2117857 31.5392355,19.2117857 C24.7899358,19.3046429 19.3342519,24.7782143 19.3342519,31.5503571 C19.3342519,33.8689286 19.9814157,36.0953571 21.1831898,38.0432143 L21.4608508,38.5075 L20.2590768,43.0532143 L24.8824895,41.7546429 Z M16.7448845,46.4853571 L18.8714834,38.8782143 C17.5771557,36.6525 16.9299918,34.1475 16.9299918,31.5503571 C16.8374381,23.3860714 23.4030544,16.7996429 31.5392355,16.7996429 C35.4229307,16.7996429 39.1215184,18.3767857 41.8952813,21.1603571 C44.6697561,23.9432143 46.1484792,27.6539286 46.1484792,31.5503571 C46.1484792,39.6203571 39.5835749,46.3003571 31.4466818,46.3003571 C28.9505801,46.3003571 26.54632,45.6503571 24.4197211,44.5375 L16.7448845,46.4853571 Z" id="Fill-1"></path>
        </g>
        <path d="M81.225,68 L83.741,60.299 L86.274,68 L89.793,68 L93.516,54.74 L89.878,54.74 L87.736,62.628 L85.254,54.74 L82.228,54.74 L79.746,62.645 L77.604,54.74 L73.983,54.74 L77.706,68 L81.225,68 Z M104.469428,54.74 L104.469428,59.891 L99.063428,59.891 L99.063428,54.74 L95.680428,54.74 L95.680428,68 L99.063428,68 L99.063428,63.07 L104.469428,63.07 L104.469428,68 L107.869428,68 L107.869428,54.74 L104.469428,54.74 Z M115.422856,54.74 L110.050856,68 L113.756856,68 L114.487856,66.062 L119.706856,66.062 L120.437856,68 L124.143856,68 L118.788856,54.74 L115.422856,54.74 Z M118.550856,62.985 L115.643856,62.985 L117.105856,59.092 L118.550856,62.985 Z M123.469284,58.038 L127.600284,58.038 L127.600284,68 L131.000284,68 L131.000284,58.038 L135.131284,58.038 L135.131284,54.74 L123.469284,54.74 L123.469284,58.038 Z M136.989712,64.022 L136.989712,64.175 C136.989712,66.776 139.437712,68.255 142.616712,68.255 C145.642712,68.255 147.886712,66.895 147.886712,64.311 C147.886712,61.7362286 145.432828,60.5884441 143.596225,59.9108604 L142.275465,59.4417814 C141.171882,59.0386625 140.729712,58.77495 140.729712,58.327 C140.729712,57.885 141.188712,57.426 142.344712,57.426 C143.721712,57.426 144.384712,58.191 144.384712,58.837 L144.384712,58.956 L147.699712,58.956 L147.699712,58.769 C147.699712,56.134 145.370712,54.485 142.276712,54.485 C139.250712,54.485 137.091712,56.066 137.091712,58.599 C137.091712,61.175 139.5463,62.2300588 141.592529,62.9263633 L141.970712,63.053 C143.568712,63.597 144.231712,63.937 144.231712,64.498 C144.231712,64.889 143.823712,65.314 142.548712,65.314 C141.001712,65.314 140.304712,64.617 140.304712,64.107 L140.304712,64.022 L136.989712,64.022 Z M154.28414,54.74 L148.91214,68 L152.61814,68 L153.34914,66.062 L158.56814,66.062 L159.29914,68 L163.00514,68 L157.65014,54.74 L154.28414,54.74 Z M157.41214,62.985 L154.50514,62.985 L155.96714,59.092 L157.41214,62.985 Z M165.186568,68 L168.586568,68 L168.586568,64.991 L171.034568,64.991 C174.553568,64.991 176.236568,62.628 176.236568,59.823 C176.236568,57.154 174.553568,54.74 171.034568,54.74 L165.186568,54.74 L165.186568,68 Z M170.847568,57.834 C172.275568,57.834 172.802568,58.786 172.802568,59.84 C172.802568,61.013 172.275568,61.897 170.847568,61.897 L168.586568,61.897 L168.586568,57.834 L170.847568,57.834 Z M178.706996,68 L182.106996,68 L182.106996,64.991 L184.554996,64.991 C188.073996,64.991 189.756996,62.628 189.756996,59.823 C189.756996,57.154 188.073996,54.74 184.554996,54.74 L178.706996,54.74 L178.706996,68 Z M184.367996,57.834 C185.795996,57.834 186.322996,58.786 186.322996,59.84 C186.322996,61.013 185.795996,61.897 184.367996,61.897 L182.106996,61.897 L182.106996,57.834 L184.367996,57.834 Z" id="Whatsapp" fill="#050713" fill-rule="nonzero"></path>
        <path d="M80.864,41.821 C80.479,42.547 79.72,43.042 78.807,43.042 C77.52,43.042 76.475,42.008 76.475,40.71 C76.475,39.412 77.52,38.378 78.807,38.378 C79.709,38.378 80.479,38.873 80.864,39.599 L82.866,38.697 C82.107,37.256 80.578,36.255 78.807,36.255 C76.332,36.255 74.253,38.257 74.253,40.71 C74.253,43.163 76.332,45.165 78.807,45.165 C80.578,45.165 82.129,44.164 82.877,42.701 L80.864,41.821 Z M85.145571,45 L91.448571,45 L91.448571,42.877 L87.334571,42.877 L87.334571,36.42 L85.145571,36.42 L85.145571,45 Z M93.134142,40.71 C93.134142,43.163 95.213142,45.165 97.688142,45.165 C100.196142,45.165 102.242142,43.163 102.242142,40.71 C102.242142,38.257 100.196142,36.255 97.688142,36.255 C95.213142,36.255 93.134142,38.257 93.134142,40.71 Z M95.356142,40.71 C95.356142,39.412 96.401142,38.378 97.688142,38.378 C99.008142,38.378 100.020142,39.412 100.020142,40.71 C100.020142,42.008 99.008142,43.042 97.688142,43.042 C96.401142,43.042 95.356142,42.008 95.356142,40.71 Z M106.853713,45 L106.853713,40.215 L110.681713,45 L112.540713,45 L112.540713,36.42 L110.351713,36.42 L110.351713,41.216 L106.523713,36.42 L104.653713,36.42 L104.653713,45 L106.853713,45 Z M115.359284,45 L121.948284,45 L121.948284,42.877 L117.559284,42.877 L117.559284,41.777 L121.167284,41.777 L121.167284,39.786 L117.559284,39.786 L117.559284,38.554 L121.948284,38.554 L121.948284,36.42 L115.359284,36.42 L115.359284,45 Z M128.223426,38.554 L130.896426,38.554 L130.896426,45 L133.096426,45 L133.096426,38.554 L135.769426,38.554 L135.769426,36.42 L128.223426,36.42 L128.223426,38.554 Z M143.636997,36.42 L143.636997,41.117 C143.636997,42.36 143.031997,43.042 141.876997,43.042 C140.732997,43.042 140.138997,42.36 140.138997,41.117 L140.138997,36.42 L137.938997,36.42 L137.938997,41.249 C137.938997,43.46 139.302997,45.165 141.876997,45.165 C144.439997,45.165 145.825997,43.46 145.825997,41.249 L145.825997,36.42 L143.636997,36.42 Z M147.995568,38.554 L150.668568,38.554 L150.668568,45 L152.868568,45 L152.868568,38.554 L155.541568,38.554 L155.541568,36.42 L147.995568,36.42 L147.995568,38.554 Z M157.249139,40.71 C157.249139,43.163 159.328139,45.165 161.803139,45.165 C164.311139,45.165 166.357139,43.163 166.357139,40.71 C166.357139,38.257 164.311139,36.255 161.803139,36.255 C159.328139,36.255 157.249139,38.257 157.249139,40.71 Z M159.471139,40.71 C159.471139,39.412 160.516139,38.378 161.803139,38.378 C163.123139,38.378 164.135139,39.412 164.135139,40.71 C164.135139,42.008 163.123139,43.042 161.803139,43.042 C160.516139,43.042 159.471139,42.008 159.471139,40.71 Z M168.76871,36.42 L168.76871,45 L170.95771,45 L170.95771,42.701 L172.07971,42.701 L173.70771,45 L176.33671,45 L174.47771,42.404 C175.63271,41.876 176.17171,40.754 176.17171,39.555 C176.17171,37.85 175.15971,36.42 172.95971,36.42 L168.76871,36.42 Z M172.83871,38.422 C173.71871,38.422 174.04871,38.917 174.04871,39.577 C174.04871,40.171 173.71871,40.71 172.83871,40.71 L170.95771,40.71 L170.95771,38.422 L172.83871,38.422 Z M178.693281,36.42 L178.693281,45 L180.893281,45 L180.893281,36.42 L178.693281,36.42 Z M186.527852,36.42 L183.051852,45 L185.449852,45 L185.922852,43.746 L189.299852,43.746 L189.772852,45 L192.170852,45 L188.705852,36.42 L186.527852,36.42 Z M188.551852,41.755 L186.670852,41.755 L187.616852,39.236 L188.551852,41.755 Z M194.329423,45 L194.329423,36.42 L196.518423,36.42 L196.518423,42.877 L200.632423,42.877 L200.632423,45 L194.329423,45 Z" id="Clonetutorial" fill="#6D7A99" fill-rule="nonzero"></path>
    </g>
</svg>