<svg width="54" height="54" viewBox="0 0 54 54" fill="none" xmlns="http://www.w3.org/2000/svg">
<path fill-rule="evenodd" clip-rule="evenodd" d="M4.02821 17.9612C2.79364 17.2557 2 15.933 2 14.4338C2 12.2293 3.85189 10.3774 6.05647 10.3774C6.67376 10.3774 7.20285 10.4656 7.64377 10.7302L24.6632 0.941839C25.4568 0.500922 26.4268 0.236328 27.3087 0.236328C28.2787 0.236328 29.1605 0.500922 29.9542 0.941839L44.4163 9.31927C43.3581 10.0247 42.5644 11.0829 42.0353 12.3174L28.0141 4.20459C27.7496 4.02822 27.4851 4.02826 27.2205 4.02826C26.956 4.02826 26.6914 4.1164 26.4268 4.20459L9.84835 13.7284C9.84835 13.993 9.93651 14.1693 9.93651 14.4338C9.93651 16.1975 8.79013 17.6085 7.29101 18.2258C7.20283 18.2258 7.02649 18.3139 6.93831 18.3139H6.85009C6.76191 18.3139 6.58557 18.4021 6.49739 18.4021H6.40917C6.23281 18.4021 6.14462 18.4021 5.96826 18.4021C5.79189 18.4021 5.61554 18.4021 5.43918 18.4021H5.35096C5.26278 18.4021 5.08644 18.4021 4.99826 18.3139H4.91004C4.64549 18.2258 4.29276 18.1376 4.02821 17.9612ZM52.0001 14.4338C52.0001 15.6684 51.471 16.7266 50.5891 17.4321V36.5679C50.5891 38.5079 49.5309 40.2716 47.9436 41.2417L33.4815 49.5309C33.4815 48.2082 33.0406 46.8854 32.2469 45.9154L46.0036 37.9789C46.5327 37.7144 46.7972 37.1852 46.7972 36.5679V18.3139C45.1217 17.7848 43.8872 16.2857 43.8872 14.4338C43.8872 13.552 44.1517 12.7584 44.6808 12.0529C44.769 11.9648 44.8572 11.7884 44.9454 11.7002C45.2099 11.4356 45.3863 11.2593 45.6508 11.0829C45.6508 11.0829 45.739 11.0829 45.739 10.9947C45.8272 10.9065 45.9154 10.9065 46.0917 10.8183C46.0917 10.8183 46.18 10.8184 46.18 10.7302C46.3563 10.642 46.4445 10.6419 46.6209 10.5538C46.9736 10.4656 47.4145 10.3774 47.8554 10.3774C50.1482 10.3774 52.0001 12.2293 52.0001 14.4338ZM31.3651 49.7072C31.3651 49.8836 31.3651 50.1482 31.2769 50.3246V50.4128C30.9242 52.2646 29.3369 53.7637 27.3087 53.7637C25.545 53.7637 24.0459 52.6173 23.5168 51.03L6.76193 41.3298C5.08644 40.3598 4.11643 38.5962 4.11643 36.6562V20.3422C4.73371 20.5186 5.43919 20.6949 6.05647 20.6949C6.67376 20.6949 7.29104 20.6067 7.82014 20.4304V36.6562C7.82014 37.2734 8.17284 37.8025 8.61376 38.0671L24.3104 47.1499C25.0159 46.2681 26.1623 45.739 27.3968 45.739C28.7196 45.739 29.866 46.3563 30.6596 47.4145C30.6596 47.4145 30.6596 47.4145 30.6596 47.5027C30.7478 47.5908 30.7478 47.6791 30.836 47.7673C30.836 47.7673 30.836 47.8554 30.9242 47.8554C30.9242 47.9436 31.0124 48.0317 31.0124 48.0317C31.0124 48.0317 31.0124 48.12 31.1006 48.12C31.1006 48.2082 31.1888 48.2963 31.1888 48.2963C31.1888 48.3845 31.1887 48.3845 31.2769 48.4727C31.2769 48.5608 31.3651 48.5609 31.3651 48.6491C31.3651 48.7373 31.3651 48.7372 31.4533 48.8254C31.4533 48.9136 31.4533 48.9137 31.4533 49.0018C31.4533 49.09 31.4533 49.1781 31.4533 49.2663C31.4533 49.3545 31.4533 49.3546 31.4533 49.4428C31.3651 49.4428 31.3651 49.5309 31.3651 49.7072Z" fill="#6D7A99"/>
<path d="M23.8 38.9003H21.3999C20.5999 38.9003 20.4 38.6003 19.3 35.8003L18.8 35.6003C16 36.9003 15.5999 36.9003 15.0999 36.4003L13.3999 34.8003C12.7999 34.2003 12.8999 33.8003 14.0999 31.1003L13.8999 30.7003C10.9999 29.7003 10.7 29.5003 10.7 28.6003V26.3003C10.7 25.5003 10.9999 25.3003 13.8999 24.2003L14.0999 23.8003C12.7999 21.1003 12.6999 20.7003 13.2999 20.1003L14.9999 18.5004C15.5999 18.0004 15.9 18.0003 18.8 19.2003L19.3 19.0004C20.4 16.1004 20.5999 15.8003 21.3999 15.8003H23.8C24.6 15.8003 24.7999 16.1003 25.8999 18.9003L26.3999 19.1003C29.1999 17.8003 29.5999 17.8003 30.0999 18.3003L31.8 19.9003C32.4 20.5003 32.2999 20.9003 31.0999 23.6003L31.3 24.0004C34.2 25.0004 34.4999 25.2003 34.4999 26.1003V28.4003C34.4999 29.2003 34.2 29.4004 31.3 30.5004L31.0999 30.9003C32.3999 33.6003 32.4999 34.0003 31.8999 34.6003L30.2 36.2003C29.6 36.7003 29.2999 36.7004 26.3999 35.5004L25.8999 35.7003C24.7999 38.6003 24.6 38.9003 23.8 38.9003ZM22.0999 36.8003H23.2C23.4 36.3003 23.7999 35.4003 24.0999 34.6003L24.3 34.2003L26.4999 33.3003L26.8999 33.5004C27.6999 33.8004 28.6 34.2003 29.2 34.4003L29.9999 33.6003C29.7999 33.1003 29.3999 32.2003 28.9999 31.4003L28.8 31.0004L29.7 28.8003L30.0999 28.6003C30.8999 28.3003 31.7999 27.9003 32.3999 27.7003V26.6003C31.8999 26.4003 30.8999 26.0003 30.0999 25.7003L29.7 25.5004L28.8 23.4003L28.9999 23.0004C29.2999 22.2004 29.6999 21.3003 29.8999 20.8003L29.0999 20.0004C28.5999 20.2004 27.5999 20.6004 26.8999 21.0004L26.4999 21.2003L24.3 20.3003L24.0999 19.9003C23.7999 19.1003 23.3999 18.2003 23.0999 17.7003H21.9999C21.7999 18.2003 21.3999 19.1003 21.0999 19.9003L20.8999 20.3003L18.7 21.2003L18.3 21.0004C17.5 20.7004 16.5999 20.3003 15.9999 20.1003L15.2 20.9003C15.4 21.4003 15.8 22.3003 16.2 23.1003L16.3999 23.5004L15.4999 25.7003L15.0999 25.9003C14.2999 26.2003 13.3999 26.6003 12.7999 26.8003V27.9003C13.2999 28.1003 14.2999 28.5003 15.0999 28.8003L15.4999 29.0004L16.3999 31.1003L16.2 31.5004C15.9 32.3004 15.5 33.2003 15.3 33.7003L16.0999 34.5004C16.5999 34.3004 17.6 33.9004 18.3 33.5004L18.7 33.3003L20.8999 34.2003L21.0999 34.6003C21.3999 35.3003 21.7999 36.3003 22.0999 36.8003ZM30.3999 33.1003C30.3999 33.1003 30.2999 33.1003 30.3999 33.1003V33.1003ZM22.5999 31.7003C20.0999 31.7003 18.0999 29.7003 18.0999 27.3003C18.0999 24.8003 20.0999 22.9003 22.5999 22.9003C25.0999 22.9003 27.0999 24.9003 27.0999 27.3003C27.0999 29.7003 25.0999 31.7003 22.5999 31.7003ZM22.5999 25.0004C21.2999 25.0004 20.2 26.0003 20.2 27.3003C20.2 28.6003 21.2999 29.6003 22.5999 29.6003C23.8999 29.6003 24.9999 28.6003 24.9999 27.3003C24.9999 26.0003 23.8999 25.0004 22.5999 25.0004Z" fill="#6D7A99"/>
<path d="M39.8998 26.7002C39.5998 26.7002 39.1998 26.4002 38.4998 25.6002H38.3998C37.4998 26.5002 37.1998 26.8002 36.6998 26.6002L35.6998 26.1002C35.1998 25.9002 35.1998 25.5002 35.2998 24.2002L35.1998 24.1002C33.8998 24.1002 33.4998 24.1002 33.2998 23.6002L32.8998 22.5003C32.6998 22.0003 32.8998 21.7002 33.8998 20.8002V20.7002C32.8998 19.8002 32.6998 19.5003 32.8998 19.0003L33.3998 18.0003C33.5998 17.5003 33.9998 17.5002 35.2998 17.6002C35.2998 16.3002 35.2998 15.9002 35.7998 15.7002L36.8998 15.3002C37.3998 15.1002 37.5998 15.4002 38.5998 16.4002H38.6998C39.5998 15.5002 39.8998 15.2002 40.3998 15.4002L41.3998 15.9002C41.8998 16.1002 41.8998 16.5002 41.7998 17.8002L41.8998 17.9002C43.1998 17.9002 43.5998 17.9002 43.7998 18.4002L44.1998 19.5003C44.3998 20.0003 44.1998 20.3002 43.1998 21.2002V21.3002C44.1998 22.2002 44.3998 22.5003 44.1998 23.0003L43.6998 24.0003C43.4998 24.5003 43.0998 24.5002 41.7998 24.4002C41.7998 25.7002 41.7998 26.1002 41.2998 26.3002L40.2998 26.7002C40.0998 26.6002 39.9998 26.7002 39.8998 26.7002ZM37.7998 24.1002H39.0998L39.2998 24.3002C39.4998 24.6002 39.7998 24.9002 39.9998 25.1002L40.1998 25.0003C40.1998 24.7003 40.1998 24.3003 40.1998 24.0003V23.7002L41.0998 22.8002H41.3998C41.7998 22.8002 42.1998 22.8002 42.3998 22.8002L42.4998 22.6002C42.2998 22.4002 41.9998 22.1002 41.7998 21.9002L41.5998 21.7002V20.4002L41.7998 20.2002C42.0998 20.0002 42.2998 19.7003 42.4998 19.5003L42.3998 19.3002C42.0998 19.3002 41.6998 19.3002 41.3998 19.3002H41.0998L40.1998 18.4002V18.1002C40.1998 17.8002 40.1998 17.3002 40.1998 17.1002L39.8998 17.0003C39.6998 17.2003 39.3998 17.5002 39.1998 17.7002L38.9998 17.9002L37.6998 17.8002L37.4998 17.6002C37.2998 17.3002 36.9998 17.0002 36.7998 16.8002L36.5998 16.9002C36.5998 17.2002 36.5998 17.6002 36.5998 17.9002V18.2002L35.6998 19.1002H35.3998C34.9998 19.1002 34.5998 19.1002 34.3998 19.1002L34.2998 19.3002C34.4998 19.5002 34.7998 19.8003 34.9998 20.0003L35.1998 20.2002V21.5003L34.9998 21.7002C34.6998 21.9002 34.4998 22.2002 34.2998 22.4002L34.3998 22.6002C34.6998 22.6002 35.0998 22.6002 35.3998 22.6002H35.6998L36.5998 23.5003V23.8002C36.5998 24.1002 36.5998 24.6002 36.5998 24.8002L36.8998 24.9002C37.0998 24.7002 37.3998 24.4002 37.5998 24.2002L37.7998 24.1002ZM38.5998 23.3002C38.2998 23.3002 37.8998 23.2002 37.5998 23.1002C36.3998 22.6002 35.8998 21.2003 36.3998 20.0003C36.6998 19.4003 37.0998 19.0002 37.6998 18.8002C38.2998 18.6002 38.8998 18.6002 39.4998 18.9002C40.6998 19.4002 41.1998 20.8003 40.6998 22.0003C40.2998 22.8003 39.4998 23.3002 38.5998 23.3002ZM38.4998 20.1002C38.3998 20.1002 38.2998 20.1002 38.1998 20.2002C37.9998 20.3002 37.7998 20.5002 37.6998 20.7002C37.4998 21.2002 37.6998 21.7002 38.1998 21.9002C38.6998 22.1002 39.1998 21.9002 39.3998 21.4002C39.5998 20.9002 39.3998 20.4002 38.8998 20.2002C38.7998 20.1002 38.6998 20.1002 38.4998 20.1002Z" fill="#6D7A99"/>
</svg>
