<svg width="54" height="54" viewBox="0 0 54 54" fill="none" xmlns="http://www.w3.org/2000/svg">
<path fill-rule="evenodd" clip-rule="evenodd" d="M4.02821 17.9612C2.79364 17.2557 2 15.933 2 14.4338C2 12.2293 3.85189 10.3774 6.05647 10.3774C6.67376 10.3774 7.20285 10.4656 7.64377 10.7302L24.6632 0.941839C25.4568 0.500922 26.4268 0.236328 27.3087 0.236328C28.2787 0.236328 29.1605 0.500922 29.9542 0.941839L44.4163 9.31927C43.3581 10.0247 42.5644 11.0829 42.0353 12.3174L28.0141 4.20459C27.7496 4.02822 27.4851 4.02826 27.2205 4.02826C26.956 4.02826 26.6914 4.1164 26.4268 4.20459L9.84835 13.7284C9.84835 13.993 9.93651 14.1693 9.93651 14.4338C9.93651 16.1975 8.79013 17.6085 7.29101 18.2258C7.20283 18.2258 7.02649 18.3139 6.93831 18.3139H6.85009C6.76191 18.3139 6.58557 18.4021 6.49739 18.4021H6.40917C6.23281 18.4021 6.14462 18.4021 5.96826 18.4021C5.79189 18.4021 5.61554 18.4021 5.43918 18.4021H5.35096C5.26278 18.4021 5.08644 18.4021 4.99826 18.3139H4.91004C4.64549 18.2258 4.29276 18.1376 4.02821 17.9612ZM52.0001 14.4338C52.0001 15.6684 51.471 16.7266 50.5891 17.4321V36.5679C50.5891 38.5079 49.5309 40.2716 47.9436 41.2417L33.4815 49.5309C33.4815 48.2082 33.0406 46.8854 32.2469 45.9154L46.0036 37.9789C46.5327 37.7144 46.7972 37.1852 46.7972 36.5679V18.3139C45.1217 17.7848 43.8872 16.2857 43.8872 14.4338C43.8872 13.552 44.1517 12.7584 44.6808 12.0529C44.769 11.9648 44.8572 11.7884 44.9454 11.7002C45.2099 11.4356 45.3863 11.2593 45.6508 11.0829C45.6508 11.0829 45.739 11.0829 45.739 10.9947C45.8272 10.9065 45.9154 10.9065 46.0917 10.8183C46.0917 10.8183 46.18 10.8184 46.18 10.7302C46.3563 10.642 46.4445 10.6419 46.6209 10.5538C46.9736 10.4656 47.4145 10.3774 47.8554 10.3774C50.1482 10.3774 52.0001 12.2293 52.0001 14.4338ZM31.3651 49.7072C31.3651 49.8836 31.3651 50.1482 31.2769 50.3246V50.4128C30.9242 52.2646 29.3369 53.7637 27.3087 53.7637C25.545 53.7637 24.0459 52.6173 23.5168 51.03L6.76193 41.3298C5.08644 40.3598 4.11643 38.5962 4.11643 36.6562V20.3422C4.73371 20.5186 5.43919 20.6949 6.05647 20.6949C6.67376 20.6949 7.29104 20.6067 7.82014 20.4304V36.6562C7.82014 37.2734 8.17284 37.8025 8.61376 38.0671L24.3104 47.1499C25.0159 46.2681 26.1623 45.739 27.3968 45.739C28.7196 45.739 29.866 46.3563 30.6596 47.4145C30.6596 47.4145 30.6596 47.4145 30.6596 47.5027C30.7478 47.5908 30.7478 47.6791 30.836 47.7673C30.836 47.7673 30.836 47.8554 30.9242 47.8554C30.9242 47.9436 31.0124 48.0317 31.0124 48.0317C31.0124 48.0317 31.0124 48.12 31.1006 48.12C31.1006 48.2082 31.1888 48.2963 31.1888 48.2963C31.1888 48.3845 31.1887 48.3845 31.2769 48.4727C31.2769 48.5608 31.3651 48.5609 31.3651 48.6491C31.3651 48.7373 31.3651 48.7372 31.4533 48.8254C31.4533 48.9136 31.4533 48.9137 31.4533 49.0018C31.4533 49.09 31.4533 49.1781 31.4533 49.2663C31.4533 49.3545 31.4533 49.3546 31.4533 49.4428C31.3651 49.4428 31.3651 49.5309 31.3651 49.7072Z" fill="#E535AB"/>
<path fill-rule="evenodd" clip-rule="evenodd" d="M27.2672 11C27.0138 11 26.7896 11.1232 26.6358 11.2771C26.4819 11.431 26.3588 11.6552 26.3588 11.9085V15.6845L16.7779 19.7906L16.7687 19.7952C16.6377 19.8607 16.5063 19.9583 16.4034 20.0783C16.304 20.1944 16.2028 20.3656 16.2028 20.5736V32.2743L13.5339 33.4796C13.2744 33.5739 13.1223 33.7884 13.0529 33.9966C12.9824 34.2081 12.9824 34.4487 13.0529 34.6601C13.1433 34.9315 13.3633 35.0895 13.5766 35.1606C13.7881 35.2312 14.0287 35.2312 14.2402 35.1607L14.2534 35.1563L17.2029 33.905L26.8958 38.1113C27.0161 38.2005 27.1575 38.23 27.2789 38.23C27.4207 38.23 27.5637 38.1913 27.6937 38.1278L37.4247 33.905L40.3742 35.1563L40.3874 35.1607C40.8264 35.307 41.2662 35.145 41.534 34.7435L41.5926 34.6554V34.5496C41.5926 34.1895 41.4678 33.7826 41.0644 33.5136L41.0405 33.4977L38.3316 32.2743V20.5736C38.3316 20.4217 38.293 20.2539 38.185 20.1027C38.0791 19.9544 37.9246 19.8473 37.7349 19.7814L28.1756 15.6845V11.9085C28.1756 11.6551 28.0525 11.431 27.8986 11.2771C27.7448 11.1232 27.5206 11 27.2672 11ZM28.1756 18.4307V17.6577L35.1427 20.6661L27.3604 24.0134L19.5695 20.6624L26.3588 17.6626V18.4307C26.3588 18.6841 26.4819 18.9082 26.6358 19.0621C26.7897 19.2159 27.0138 19.3391 27.2672 19.3391C27.5206 19.3391 27.7447 19.2159 27.8986 19.0621C28.0525 18.9082 28.1756 18.6841 28.1756 18.4307ZM18.0197 31.5011V21.9442L26.3588 25.5549V35.8817L19.3996 32.8766L20.4454 32.4363L20.473 32.4179C20.643 32.3045 20.8167 32.1431 20.9117 31.934C21.0108 31.7161 21.0144 31.4631 20.8736 31.2263C20.7749 30.9822 20.5677 30.8378 20.3663 30.7707C20.1549 30.7003 19.9143 30.7003 19.7028 30.7708L19.6882 30.7757L18.0197 31.5011ZM28.1756 35.8817V25.5549L36.5147 21.9442V31.5011L34.8462 30.7757L34.8316 30.7708C34.3926 30.6245 33.9528 30.7862 33.685 31.1879L33.659 31.2268L33.6442 31.2712C33.4979 31.7102 33.6598 32.1501 34.0614 32.4179L34.089 32.4363L35.1348 32.8766L28.1756 35.8817Z" fill="#E535AB"/>
</svg>
