<svg width="54" height="54" viewBox="0 0 54 54" fill="none" xmlns="http://www.w3.org/2000/svg">
<path fill-rule="evenodd" clip-rule="evenodd" d="M4.02821 17.9612C2.79364 17.2557 2 15.933 2 14.4338C2 12.2293 3.85189 10.3774 6.05647 10.3774C6.67376 10.3774 7.20285 10.4656 7.64377 10.7302L24.6632 0.941839C25.4568 0.500922 26.4268 0.236328 27.3087 0.236328C28.2787 0.236328 29.1605 0.500922 29.9542 0.941839L44.4163 9.31927C43.3581 10.0247 42.5644 11.0829 42.0353 12.3174L28.0141 4.20459C27.7496 4.02822 27.4851 4.02826 27.2205 4.02826C26.956 4.02826 26.6914 4.1164 26.4268 4.20459L9.84835 13.7284C9.84835 13.993 9.93651 14.1693 9.93651 14.4338C9.93651 16.1975 8.79013 17.6085 7.29101 18.2258C7.20283 18.2258 7.02649 18.3139 6.93831 18.3139H6.85009C6.76191 18.3139 6.58557 18.4021 6.49739 18.4021H6.40917C6.23281 18.4021 6.14462 18.4021 5.96826 18.4021C5.79189 18.4021 5.61554 18.4021 5.43918 18.4021H5.35096C5.26278 18.4021 5.08644 18.4021 4.99826 18.3139H4.91004C4.64549 18.2258 4.29276 18.1376 4.02821 17.9612ZM52.0001 14.4338C52.0001 15.6684 51.471 16.7266 50.5891 17.4321V36.5679C50.5891 38.5079 49.5309 40.2716 47.9436 41.2417L33.4815 49.5309C33.4815 48.2082 33.0406 46.8854 32.2469 45.9154L46.0036 37.9789C46.5327 37.7144 46.7972 37.1852 46.7972 36.5679V18.3139C45.1217 17.7848 43.8872 16.2857 43.8872 14.4338C43.8872 13.552 44.1517 12.7584 44.6808 12.0529C44.769 11.9648 44.8572 11.7884 44.9454 11.7002C45.2099 11.4356 45.3863 11.2593 45.6508 11.0829C45.6508 11.0829 45.739 11.0829 45.739 10.9947C45.8272 10.9065 45.9154 10.9065 46.0917 10.8183C46.0917 10.8183 46.18 10.8184 46.18 10.7302C46.3563 10.642 46.4445 10.6419 46.6209 10.5538C46.9736 10.4656 47.4145 10.3774 47.8554 10.3774C50.1482 10.3774 52.0001 12.2293 52.0001 14.4338ZM31.3651 49.7072C31.3651 49.8836 31.3651 50.1482 31.2769 50.3246V50.4128C30.9242 52.2646 29.3369 53.7637 27.3087 53.7637C25.545 53.7637 24.0459 52.6173 23.5168 51.03L6.76193 41.3298C5.08644 40.3598 4.11643 38.5962 4.11643 36.6562V20.3422C4.73371 20.5186 5.43919 20.6949 6.05647 20.6949C6.67376 20.6949 7.29104 20.6067 7.82014 20.4304V36.6562C7.82014 37.2734 8.17284 37.8025 8.61376 38.0671L24.3104 47.1499C25.0159 46.2681 26.1623 45.739 27.3968 45.739C28.7196 45.739 29.866 46.3563 30.6596 47.4145C30.6596 47.4145 30.6596 47.4145 30.6596 47.5027C30.7478 47.5908 30.7478 47.6791 30.836 47.7673C30.836 47.7673 30.836 47.8554 30.9242 47.8554C30.9242 47.9436 31.0124 48.0317 31.0124 48.0317C31.0124 48.0317 31.0124 48.12 31.1006 48.12C31.1006 48.2082 31.1888 48.2963 31.1888 48.2963C31.1888 48.3845 31.1887 48.3845 31.2769 48.4727C31.2769 48.5608 31.3651 48.5609 31.3651 48.6491C31.3651 48.7373 31.3651 48.7372 31.4533 48.8254C31.4533 48.9136 31.4533 48.9137 31.4533 49.0018C31.4533 49.09 31.4533 49.1781 31.4533 49.2663C31.4533 49.3545 31.4533 49.3546 31.4533 49.4428C31.3651 49.4428 31.3651 49.5309 31.3651 49.7072Z" fill="#E88E18"/>
<path fill-rule="evenodd" clip-rule="evenodd" d="M33.4001 40.9003H21.5002C17.0002 40.9003 13.4001 37.2003 13.4001 32.8003V20.9003C13.4001 16.4003 17.1002 12.8003 21.5002 12.8003H33.4001C37.9001 12.8003 41.5002 16.5003 41.5002 20.9003V32.8003C41.6002 37.2003 37.9001 40.9003 33.4001 40.9003ZM21.5002 14.8003C18.2002 14.8003 15.5002 17.5003 15.5002 20.8003V32.7003C15.5002 36.0003 18.2002 38.7003 21.5002 38.7003H33.4001C36.7001 38.7003 39.4001 36.0003 39.4001 32.7003V20.8003C39.4001 17.5003 36.7001 14.8003 33.4001 14.8003H21.5002ZM25.2 26.9003H25.1999C25 26.9003 24.9 26.9003 24.7 26.8003L22.6001 25.7003L20.5001 26.8003C20.1001 27.0003 19.7001 27.0003 19.4001 26.7003C19.1001 26.5003 18.9001 26.1003 19.0001 25.7003L19.4001 23.3003L17.7 21.6003C17.4 21.3003 17.3001 20.9004 17.4001 20.5004C17.5001 20.1004 17.9001 19.8003 18.3001 19.8003L20.7 19.5004L21.8001 17.4003C22.0001 17.0003 22.3001 16.8003 22.8001 16.8003C23.2001 16.8003 23.6001 17.0003 23.8001 17.4003L24.9001 19.5004L27.3001 19.8003C27.7001 19.9003 28 20.1004 28.2 20.5004C28.3 20.9004 28.2001 21.3003 27.9001 21.6003L26.2 23.3003L26.6001 25.7003C26.7001 26.1003 26.5 26.5003 26.2 26.7003C25.9001 26.7503 25.7001 26.8003 25.5501 26.8378C25.4001 26.8753 25.3001 26.9003 25.2 26.9003ZM22.6001 23.4003C22.8001 23.4003 22.9001 23.4004 23.1001 23.5004L23.8001 23.9003L23.7 23.1003C23.6 22.8003 23.8001 22.4003 24.0001 22.2003L24.6001 21.6003L23.8001 21.5004C23.5001 21.4004 23.2001 21.2003 23.0001 20.9003L22.6001 20.2003L22.2 20.9003C22 21.2003 21.7001 21.4004 21.4001 21.5004L20.6001 21.6003L21.2 22.2003C21.5 22.4003 21.6001 22.8003 21.5001 23.1003L21.4001 23.9003L22.1001 23.5004C22.2001 23.4004 22.4001 23.4003 22.6001 23.4003ZM28 31.5005C28 34.0005 30 36.1005 32.6 36.1005C35.1 36.1005 37.2 34.0005 37.2 31.5005C37.2 29.0005 35.2 26.9004 32.6 26.9004C30.1 26.9004 28 29.0005 28 31.5005ZM30.1 31.5005C30.1 30.1005 31.2 29.0005 32.6 29.0005C33.9 29.0005 35.1 30.1005 35.1 31.5005C35.1 32.9005 34 34.0005 32.6 34.0005C31.2 34.0005 30.1 32.9005 30.1 31.5005Z" fill="#E88E18"/>
</svg>
