<svg width="98" height="129" viewBox="0 0 98 129" fill="none" xmlns="http://www.w3.org/2000/svg">
  <path
    d="M85.3 45.46L96.85 25.26C97.22 24.62 97.22 23.83 96.85 23.19L84.7 1.98V1.93C84.7 1.93 84.61 1.84 84.61 1.75L84.56 1.7C84.56 1.7 84.47 1.56 84.42 1.52C84.42 1.52 84.28 1.43 84.24 1.38L84.19 1.33C84.19 1.33 84.1 1.24 84.05 1.24C84.05 1.24 84 1.24 84 1.19C83.86 1.1 83.72 1.05 83.54 1.01H83.49C83.49 1.01 83.35 0.959999 83.31 0.959999H14.22C14.22 0.959999 14.08 0.959999 14.04 1.01H13.99C13.85 1.06 13.67 1.1 13.53 1.19C13.53 1.19 13.48 1.19 13.48 1.24C13.43 1.29 13.39 1.29 13.34 1.33L13.29 1.38C13.29 1.38 13.15 1.47 13.11 1.52C13.11 1.52 13.02 1.66 12.97 1.7L12.92 1.75C12.92 1.75 12.83 1.84 12.83 1.93V1.98L0.679996 23.19C0.309996 23.83 0.309996 24.62 0.679996 25.26L12.55 46.01V114.34C12.55 114.34 12.55 114.48 12.6 114.52V114.57C12.65 114.71 12.69 114.89 12.78 115.03C12.78 115.03 12.78 115.08 12.83 115.08C12.88 115.13 12.88 115.17 12.92 115.22L12.97 115.27C12.97 115.27 13.06 115.41 13.11 115.45C13.11 115.45 13.25 115.54 13.29 115.59L13.34 115.64C13.34 115.64 13.43 115.73 13.52 115.73H13.57L34.78 127.88C35.1 128.06 35.47 128.16 35.79 128.16C36.16 128.16 36.48 128.07 36.8 127.88L58.01 115.73H58.06C58.06 115.73 58.15 115.64 58.24 115.64L58.29 115.59C58.29 115.59 58.43 115.5 58.47 115.45C58.47 115.45 58.56 115.31 58.61 115.27L58.66 115.22C58.66 115.22 58.75 115.13 58.75 115.08C58.75 115.08 58.75 115.03 58.8 115.03C58.89 114.89 58.94 114.75 58.98 114.57V114.52C58.98 114.52 59.03 114.38 59.03 114.34V89.95H83.37C83.37 89.95 83.51 89.95 83.55 89.9H83.6C83.74 89.85 83.92 89.81 84.06 89.72C84.06 89.72 84.11 89.72 84.11 89.67C84.16 89.62 84.2 89.62 84.25 89.58L84.3 89.53C84.3 89.53 84.44 89.44 84.48 89.39C84.48 89.39 84.57 89.3 84.62 89.21L84.67 89.16C84.67 89.16 84.76 89.07 84.76 88.98V88.93L96.91 67.72C97.28 67.08 97.28 66.29 96.91 65.65L85.32 45.45L85.3 45.46ZM69.56 64.6H35.66C35.15 64.55 34.65 64.74 34.23 65.06L34.18 65.11C34.18 65.11 34.13 65.16 34.09 65.2C33.72 65.57 33.49 66.07 33.49 66.67V100.72L16.37 110.52V47.49H79.31L69.56 64.61V64.6ZM54.74 110.52L37.62 100.72V71.64L54.74 88.76V110.52ZM69.56 22.13H27.7L17.9 5.01H79.37L69.57 22.13H69.56ZM27.69 26.27H69.56L79.36 43.39H17.9L27.7 26.27H27.69ZM82.9 41.27L73.15 24.2L82.9 7.13L92.65 24.2L82.9 41.27ZM14.36 7.13L24.11 24.2L14.36 41.27L4.61 24.2L14.36 7.13ZM35.57 123.81L18.5 114.06L35.57 104.31L52.64 114.06L35.57 123.81ZM57.66 85.85L40.54 68.73H69.57L79.37 85.85H57.65H57.66ZM82.92 83.73L73.17 66.66L82.92 49.59L92.67 66.66L82.92 83.73Z"
    fill="#F04D21"
  />
</svg>
