<svg width="84" height="16" viewBox="0 0 84 16" fill="#FA3A7A" xmlns="http://www.w3.org/2000/svg">
  <path
    d="M12.46 5.58C12.46 1.86 10.58 0 5.84 0H0V15H5V10.88H5.84C10.62 10.88 12.46 8.88 12.46 5.58ZM7.3 5.58C7.3 7 7 7.18 5.84 7.18H5V3.88H5.84C7.06 3.88 7.3 4.16 7.3 5.56V5.58ZM18.56 10.96V9.24H23.28V5.54H18.56V4.12H24.36L24.3 0H13.56V15H24.56L24.64 10.94L18.56 10.96ZM38.28 5.58C38.28 1.86 36.4 0 31.66 0H25.82V15H30.82V10.88H31.66C36.44 10.88 38.28 8.88 38.28 5.58ZM33.12 5.58C33.12 7.02 32.78 7.2 31.66 7.2H30.82V3.88H31.66C32.88 3.88 33.12 4.16 33.12 5.56V5.58ZM51.84 5.58C51.84 1.86 50 0 45.22 0H39.38V15H44.38V10.88H45.22C50 10.88 51.84 8.88 51.84 5.58ZM46.68 5.58C46.68 7.02 46.34 7.2 45.22 7.2H44.38V3.88H45.22C46.44 3.88 46.68 4.16 46.68 5.56V5.58ZM57.94 10.96V9.24H62.66V5.54H57.94V4.12H63.74L63.68 0H52.94V15H63.94L64 10.94L57.94 10.96ZM77.7 5.06C77.7 1.54 75.46 0 71.18 0H65.18V15H70.18V10.16H71.08L72.9 15H78.7L75.7 9.16C76.3762 8.72465 76.9202 8.11228 77.2728 7.38943C77.6254 6.66659 77.7732 5.86092 77.7 5.06ZM72.48 5.24C72.48 6.52 72.18 6.68 71.22 6.68H70.22V3.86H71.22C72.22 3.86 72.48 4.1 72.48 5.24ZM83.82 13C83.82 11.56 83.1 10.74 81.36 10.74C79.62 10.74 78.86 11.56 78.86 13C78.86 14.62 79.62 15.24 81.36 15.24C83.1 15.24 83.82 14.38 83.82 13Z"
  />
</svg>
