<svg width="111" height="33" viewBox="0 0 111 33" fill="none" xmlns="http://www.w3.org/2000/svg">
  <path
    fill-rule="evenodd"
    clip-rule="evenodd"
    d="M12.7609 5.02982C10.2279 3.90477 8.7165 3.4687 7.21643 3.4687C5.64204 3.4687 4.63377 4.03218 4.63377 4.90393C4.63377 7.53361 13.5546 6.79305 13.5546 12.876C13.5546 16.2295 10.7402 18.1782 6.8308 18.1782C3.76316 18.1782 2.25398 17.3846 0.514267 16.4863V12.7243C3.02336 14.3867 4.55832 14.974 6.49332 14.974C8.17198 14.974 9.07711 14.3867 9.07711 13.3633C9.07711 10.4996 0.156311 11.5481 0.156311 5.2854C0.156311 2.26516 2.76665 0.266075 6.8308 0.266075C8.79196 0.266075 10.5616 0.677115 12.7609 1.62319V5.02982Z"
    fill="#009E4D"
  />
  <path
    fill-rule="evenodd"
    clip-rule="evenodd"
    d="M25.2506 17.3785C23.7642 17.9181 22.5068 18.1755 21.2521 18.1755C17.0973 18.1755 14.4115 15.7556 14.4115 12.074C14.4115 8.46034 17.2012 5.90689 21.0978 5.90689C22.3013 5.90689 23.8397 6.21555 25.0701 6.67361V9.44017C24.0964 8.92258 22.9683 8.63894 22.0454 8.63894C19.8157 8.63894 18.3805 9.97937 18.3805 12.0463C18.3805 14.1444 19.7915 15.525 21.9164 15.525C22.8128 15.525 23.6099 15.3184 25.2506 14.7044V17.3785Z"
    fill="#009E4D"
  />
  <path
    fill-rule="evenodd"
    clip-rule="evenodd"
    d="M57.6417 10.7184C57.7945 9.07615 58.7474 8.12666 60.2077 8.12666C61.6444 8.12666 62.6174 9.10307 62.771 10.7184H57.6417ZM59.9517 5.9103C56.3062 5.9103 53.711 8.48575 53.711 12.1085C53.711 15.7582 56.4105 18.1755 60.569 18.1755C61.4901 18.1755 63.719 18.1755 65.842 16.6038V14.2945C64.1023 15.5326 62.9522 15.9596 61.4677 15.9596C59.1247 15.9596 57.6921 14.7465 57.5628 12.6781H66.0502C66.2269 8.35796 63.391 5.9103 59.9517 5.9103Z"
    fill="#009E4D"
  />
  <path
    fill-rule="evenodd"
    clip-rule="evenodd"
    d="M67.4866 17.9602H71.1985V6.12871H67.4866V17.9602Z"
    fill="#009E4D"
  />
  <path
    fill-rule="evenodd"
    clip-rule="evenodd"
    d="M81.5264 14.7261C80.7536 15.4215 80.1113 15.7006 79.3176 15.7006C77.5703 15.7006 76.465 14.2631 76.465 12.1074C76.465 9.74504 77.5703 8.38375 79.4409 8.38375C80.1113 8.38375 80.9853 8.69165 81.5264 9.07804V14.7261ZM81.5264 0.483727V6.6482C80.5238 6.16246 79.5251 5.90765 78.4436 5.90765C75.059 5.90765 72.7164 8.40878 72.7164 12.03C72.7164 15.5724 75.059 18.1786 78.2347 18.1786C79.494 18.1786 80.4677 17.8479 81.5264 17.0035V17.9564H85.2372V0.483727H81.5264Z"
    fill="#009E4D"
  />
  <path
    fill-rule="evenodd"
    clip-rule="evenodd"
    d="M90.7309 10.7184C90.8852 9.07615 91.8332 8.12666 93.2926 8.12666C94.7305 8.12666 95.7126 9.10307 95.867 10.7184H90.7309ZM93.0386 5.9103C89.3938 5.9103 86.8028 8.48575 86.8028 12.1085C86.8028 15.7582 89.5019 18.1755 93.6567 18.1755C94.577 18.1755 96.8089 18.1755 98.9369 16.6038V14.2945C97.1964 15.5326 96.044 15.9596 94.5527 15.9596C92.2214 15.9596 90.7828 14.7465 90.6539 12.6781H99.1382C99.3145 8.35796 96.4759 5.9103 93.0386 5.9103Z"
    fill="#009E4D"
  />
  <path
    fill-rule="evenodd"
    clip-rule="evenodd"
    d="M104.694 9.51638H104.749C105.85 7.05393 107.083 5.89968 108.515 5.89968C109.257 5.89968 109.897 6.18218 110.973 6.97923L109.952 10.2588C108.977 9.64417 108.337 9.38746 107.748 9.38746C106.386 9.38746 105.515 10.6706 104.694 12.84V17.9442H100.978V6.11696H104.694V9.51638Z"
    fill="#009E4D"
  />
  <path
    fill-rule="evenodd"
    clip-rule="evenodd"
    d="M71.3717 1.15224C71.7206 2.07139 71.0934 3.35305 69.9752 4.01246C68.8528 4.67187 67.6667 4.46294 67.3201 3.5434C66.969 2.62235 67.5927 1.33918 68.7144 0.683186C69.8334 0.0203636 71.0202 0.231193 71.3717 1.15224Z"
    fill="#009E4D"
  />
  <path
    fill-rule="evenodd"
    clip-rule="evenodd"
    d="M38.6186 10.4298C38.6186 7.22419 36.4401 5.9103 34.2894 5.9103C32.8272 5.9103 31.6252 6.528 30.5498 7.88929H30.4986V0.483353H26.7845V17.9257H30.4986V10.4298C31.3677 9.17246 32.1109 8.63477 32.9808 8.63477C34.1358 8.63477 34.904 9.45609 34.904 11.2235V15.3798C36.1497 14.7397 37.4165 14.3465 38.6186 14.2005V10.4298Z"
    fill="#009E4D"
  />
  <path
    fill-rule="evenodd"
    clip-rule="evenodd"
    d="M47.9371 5.90727C46.4238 5.90727 45.2688 6.46922 44.0861 7.82141V6.12871H40.3727V14.1687C41.6593 14.2972 43.3008 14.8868 44.0861 15.8617V10.3369C45.0625 8.87176 45.7553 8.38337 46.679 8.38337C47.7308 8.38337 48.5302 9.07804 48.5302 10.7457V17.9291H52.2443V10.4393C52.2443 6.95496 49.7834 5.90727 47.9371 5.90727Z"
    fill="#009E4D"
  />
  <path
    fill-rule="evenodd"
    clip-rule="evenodd"
    d="M54.2961 21.3266H49.9802V24.3931H54.1441V25.7093H49.9802V28.8724H54.425V30.1867H48.5332V20.0138H54.2961V21.3266Z"
    fill="#009E4D"
  />
  <path
    fill-rule="evenodd"
    clip-rule="evenodd"
    d="M57.8211 30.1924H59.1429V20.0101H57.8211V30.1924Z"
    fill="#009E4D"
  />
  <path
    fill-rule="evenodd"
    clip-rule="evenodd"
    d="M65.6877 24.4898C66.6254 24.4898 67.206 25.1355 67.2496 26.1499H63.8828C64.0648 25.0904 64.6753 24.4898 65.6877 24.4898ZM63.8581 27.0322H68.5684C68.5684 24.5501 67.4343 23.3522 65.6574 23.3522C63.8145 23.3522 62.5355 24.7146 62.5355 26.746C62.5355 28.6032 63.6913 30.3187 65.7726 30.3187C66.9064 30.3187 67.6405 30.0661 68.4524 29.5269V28.24C67.6675 28.7541 66.9064 29.0503 66.1056 29.0503C64.8254 29.0503 64.0648 28.3632 63.8581 27.0322Z"
    fill="#009E4D"
  />
  <path
    fill-rule="evenodd"
    clip-rule="evenodd"
    d="M77.201 25.2413C76.4404 24.7203 75.933 24.5679 75.354 24.5679C74.1436 24.5679 73.3056 25.4962 73.3056 26.8559C73.3056 28.24 74.1975 29.0746 75.5754 29.0746C76.1416 29.0746 76.6819 28.9278 77.3489 28.6294V29.9327C76.9033 30.1435 76.0543 30.3179 75.354 30.3179C73.3526 30.3179 71.9625 28.9415 71.9625 26.9735C71.9625 24.7541 73.2317 23.3522 75.2634 23.3522C76.0392 23.3522 76.5609 23.5327 77.201 23.8137V25.2413Z"
    fill="#009E4D"
  />
  <path
    fill-rule="evenodd"
    clip-rule="evenodd"
    d="M83.224 23.48H85.3452V24.671H83.224V28.1145C83.224 28.9028 83.7943 29.1303 84.18 29.1303C84.6581 29.1303 85.1515 28.9623 85.6876 28.632V29.8724C85.2228 30.1276 84.5106 30.3179 84.0734 30.3179C82.6344 30.3179 81.9071 29.4246 81.9071 28.2142V24.671H80.74V24.5235L83.224 22.0933V23.48Z"
    fill="#009E4D"
  />
  <path
    fill-rule="evenodd"
    clip-rule="evenodd"
    d="M90.401 23.48V25.0324H90.4279C91.1024 23.844 91.7433 23.3515 92.3674 23.3515C92.9047 23.3515 93.4098 23.604 93.9634 24.1284L93.2631 25.2933C92.8604 24.8959 92.3398 24.6206 92.025 24.6206C91.1157 24.6206 90.401 25.5458 90.401 26.6925V30.1932H89.0806V23.48H90.401Z"
    fill="#009E4D"
  />
  <path
    fill-rule="evenodd"
    clip-rule="evenodd"
    d="M107.51 25.2413C106.746 24.7203 106.239 24.5679 105.656 24.5679C104.449 24.5679 103.618 25.4962 103.618 26.8559C103.618 28.24 104.511 29.0746 105.88 29.0746C106.447 29.0746 106.984 28.9278 107.66 28.6294V29.9327C107.205 30.1435 106.355 30.3179 105.656 30.3179C103.658 30.3179 102.262 28.9415 102.262 26.9735C102.262 24.7541 103.537 23.3522 105.568 23.3522C106.346 23.3522 106.862 23.5327 107.51 23.8137V25.2413Z"
    fill="#009E4D"
  />
  <path
    fill-rule="evenodd"
    clip-rule="evenodd"
    d="M97.4668 30.1924H98.789V23.4796H97.4668V30.1924Z"
    fill="#009E4D"
  />
  <path
    fill-rule="evenodd"
    clip-rule="evenodd"
    d="M98.8337 21.0684C98.963 21.393 98.737 21.8499 98.3404 22.0842C97.9396 22.3182 97.516 22.2427 97.3951 21.9181C97.2745 21.5909 97.4933 21.1362 97.8949 20.9023C98.2919 20.6657 98.7128 20.7411 98.8337 21.0684Z"
    fill="#009E4D"
  />
  <path
    fill-rule="evenodd"
    clip-rule="evenodd"
    d="M39.6625 21.611C39.4293 21.611 39.3311 21.6489 39.2355 21.7555C39.1987 21.7975 39.1836 21.8393 39.1699 21.9231L37.9849 26.4195C37.7062 27.9954 35.7693 29.5705 33.2447 29.5705H29.7349L30.3439 27.2598H32.5989C32.8295 27.2598 33.0088 27.1752 33.1598 27.0072C33.2144 26.942 33.2875 26.8396 33.2966 26.7346L34.2329 22.8066C34.5089 21.2288 36.1754 19.4864 38.6993 19.4864H42.2929L41.8333 21.611H39.6625ZM40.4728 24.3506L40.8736 22.8964H44.5252C44.9757 20.7874 44.6207 18.8331 43.3406 17.5529C40.7504 14.9634 35.3306 15.8435 31.2926 19.7063C30.6628 20.3058 30.13 20.9542 29.6443 21.6171H31.8428L31.3321 23.075H28.7058C28.4552 23.5346 28.2193 23.99 28.0388 24.453H31.1535L30.6552 25.911H27.5944C27.0711 28.1372 27.4048 30.2148 28.721 31.5336C31.2801 34.0912 36.6828 33.1918 40.7185 29.3301C41.4249 28.6582 42.0077 27.9332 42.5344 27.1885H39.7102L40.1406 25.7339H43.443C43.6845 25.2709 43.9079 24.8136 44.0812 24.3506H40.4728Z"
    fill="#009E4D"
  />
</svg>
