<svg width="231" height="48" viewBox="0 0 231 48" fill="#0C0A1D" xmlns="http://www.w3.org/2000/svg">
  <path
    fill-rule="evenodd"
    clip-rule="evenodd"
    d="M0.5 16.6747C0.5 25.3098 7.5264 32.3275 16.1529 32.3275C24.7794 32.3275 31.8058 25.3098 31.8058 16.6747C31.8058 8.0395 24.7794 1.02176 16.1529 1.02176C7.5264 1.02176 0.5 8.0395 0.5 16.6747ZM5.71763 16.6747C5.71763 10.9179 10.3961 6.2394 16.1529 6.2394C21.9097 6.2394 26.5882 10.9179 26.5882 16.6747C26.5882 22.4314 21.9097 27.1099 16.1529 27.1099C10.3961 27.1099 5.71763 22.4314 5.71763 16.6747ZM31.0405 36.7799L20.6053 47.2152C20.1009 47.7283 19.4313 47.9804 18.7617 47.9804C18.0921 47.9804 17.4312 47.7283 16.9181 47.2152C15.9007 46.1978 15.9007 44.5455 16.9181 43.5281L27.3534 33.0928C28.3709 32.0754 30.0231 32.0754 31.0405 33.0928C32.058 34.1102 32.058 35.7625 31.0405 36.7799ZM31.284 3.63058C31.284 1.90876 32.6928 0.5 34.4146 0.5C36.1364 0.5 37.5452 1.90876 37.5452 3.63058C37.5452 5.3524 36.1364 6.76116 34.4146 6.76116C32.6928 6.76116 31.284 5.3524 31.284 3.63058ZM65.1509 14.435V35.1822H59.8553V14.435H53V9.4296H72.0787V14.435H65.1509ZM79.8771 26.332V35.1822H74.9079V7.9787H79.8771V19.114C80.8201 17.6632 82.7062 16.6476 85.0639 16.6476C89.4527 16.6476 92.0642 19.8395 92.0642 24.5547V35.1822H87.0951V25.389C87.0951 22.7774 85.9707 21.1815 83.9032 21.1815C81.6181 21.1815 79.8771 22.85 79.8771 26.332ZM114.262 29.27C113.174 32.9334 109.583 35.5812 104.977 35.5812C99.427 35.5812 95.4737 31.5914 95.4737 26.0781C95.4737 20.6737 99.5 16.6476 105.013 16.6476C110.345 16.6476 114.734 20.4561 114.48 27.2751H100.334C100.552 29.4151 102.148 31.2649 105.231 31.2649C106.972 31.2649 108.495 30.5032 109.076 29.27H114.262ZM100.515 24.0107H109.039C108.423 21.5805 106.573 20.6737 104.868 20.6737C102.583 20.6737 100.987 22.0157 100.515 24.0107ZM151.622 19.7669C152.782 30.3581 146.58 35.6175 138.927 35.6175C131.056 35.6175 125.361 29.7778 125.361 22.3059C125.361 14.834 131.056 8.9943 138.854 8.9943C144.259 8.9943 149.264 12.1862 151.005 17.0466H144.984C143.715 15.1605 141.321 14.0723 138.854 14.0723C133.921 14.0723 130.657 17.6994 130.657 22.3059C130.657 26.9124 133.921 30.5395 138.927 30.5395C143.098 30.5395 145.601 28.2544 146.181 24.6998H138.31V19.7669H151.622ZM160.291 26.5134V35.1822H155.321V17.0466H160.291V19.9483C160.907 18.171 162.757 16.8289 164.788 16.8289C165.296 16.8289 165.84 16.8652 166.457 17.0466V22.0883C165.695 21.8344 165.006 21.6893 164.208 21.6893C161.85 21.6893 160.291 23.5391 160.291 26.5134ZM181.582 33.151C180.784 34.3117 178.862 35.5812 176.359 35.5812C171.535 35.5812 167.835 31.2649 167.835 26.1144C167.835 20.9639 171.535 16.6476 176.359 16.6476C178.862 16.6476 180.784 17.9171 181.582 19.0778V17.0466H186.551V35.1822H181.582V33.151ZM172.841 26.1144C172.841 28.9436 174.69 31.0473 177.411 31.0473C180.131 31.0473 181.981 28.9436 181.981 26.1144C181.981 23.2852 180.131 21.1815 177.411 21.1815C174.69 21.1815 172.841 23.2852 172.841 26.1144ZM196.344 33.151V42.7629H191.375V17.0466H196.344V19.0778C197.179 17.9171 199.101 16.6476 201.604 16.6476C206.428 16.6476 210.127 20.9639 210.127 26.1144C210.127 31.2649 206.428 35.5812 201.604 35.5812C199.101 35.5812 197.179 34.3117 196.344 33.151ZM195.945 26.1144C195.945 28.9436 197.795 31.0473 200.516 31.0473C203.236 31.0473 205.086 28.9436 205.086 26.1144C205.086 23.2852 203.236 21.1815 200.516 21.1815C197.795 21.1815 195.945 23.2852 195.945 26.1144ZM218.724 26.332V35.1822H213.755V7.9787H218.724V19.114C219.667 17.6632 221.553 16.6476 223.911 16.6476C228.299 16.6476 230.911 19.8395 230.911 24.5547V35.1822H225.942V25.389C225.942 22.7774 224.817 21.1815 222.75 21.1815C220.465 21.1815 218.724 22.85 218.724 26.332Z"
  />
</svg>
