<svg
  width="1252"
  height="435"
  viewBox="0 0 1252 435"
  fill="black"
  xmlns="http://www.w3.org/2000/svg"
>
  <path
    d="M169.67 377.49C228.8 377.49 274.52 331.76 274.52 264.09V0.720001H338.52V427.48H275.13V387.85C246.48 417.72 206.86 434.79 162.35 434.79C70.9 434.79 0.790039 368.34 0.790039 267.79V0.790009H64.79V264.09C64.79 332.98 109.9 377.49 169.65 377.49"
  />
  <path
    d="M386.09 0.730011H447.66V156.19C462.02 141.481 479.183 129.802 498.136 121.842C517.088 113.883 537.444 109.805 558 109.85C649.45 109.85 721.38 182.4 721.38 272.63C721.38 362.25 649.45 434.79 558 434.79C537.346 434.846 516.888 430.777 497.827 422.821C478.766 414.865 461.486 403.183 447 388.46V427.46H386L386.09 0.730011ZM553.74 380.54C612.27 380.54 660.43 332.37 660.43 272.63C660.43 212.27 612.27 164.72 553.74 164.72C494.6 164.72 446.44 212.27 446.44 272.63C446.44 332.37 493.99 380.54 553.74 380.54Z"
  />
  <path
    d="M905.51 110.46C995.12 110.46 1060.97 179.35 1060.97 272.02V292.14H808C816.54 342.74 858.6 380.54 911 380.54C947 380.54 977.46 365.9 1000.62 334.81L1045.13 367.73C1014.03 409.19 967.7 434.18 911 434.18C817.73 434.18 745.79 364.68 745.79 272.02C745.79 184.23 814.68 110.46 905.52 110.46M809.19 243.37H998.79C988.43 195.81 950.02 164.11 904.3 164.11C858.58 164.11 820.17 195.81 809.19 243.37Z"
  />
  <path
    d="M1226.18 171.43C1185.94 171.43 1156.68 202.52 1156.68 250.68V427.48H1095.1V116.56H1156.1V155C1171.34 130 1196.34 114.15 1230.48 114.15H1251.81V171.46L1226.18 171.43Z"
  />
</svg>
