<svg width="278" height="215" viewBox="0 0 278 215" fill="none" xmlns="http://www.w3.org/2000/svg">
    <g filter="url(#filter0_b_1688_14379)">
        <path d="M113.336 56.4913C113.336 52.2546 110.389 50.5378 106.705 52.6451L44.4069 88.5429C43.8748 88.8867 43.4317 89.3518 43.1141 89.9C42.7964 90.4481 42.6133 91.0638 42.5796 91.6965C42.5796 92.8606 43.3975 93.3322 44.4069 92.7501L106.698 56.8597C108.355 55.9092 109.696 56.6829 109.696 58.5912V65.5836C110.905 65.5099 112.121 65.5099 113.344 65.532L113.336 56.4913Z" fill="url(#paint0_linear_1688_14379)"/>
    </g>
    <g filter="url(#filter1_b_1688_14379)">
        <path d="M44.3699 105.276L106.668 82.5745C110.352 80.4672 113.299 75.3095 113.299 71.0802V65.5024C112.076 65.5024 110.86 65.5024 109.652 65.554V73.1801C109.59 74.2143 109.286 75.2196 108.765 76.1153C108.245 77.0109 107.521 77.7721 106.653 78.3378L44.3551 101.039C43.8234 101.383 43.3807 101.849 43.0631 102.397C42.7455 102.945 42.5621 103.56 42.5278 104.193C42.5499 105.372 43.3678 105.858 44.3699 105.276Z" fill="url(#paint1_linear_1688_14379)"/>
    </g>
    <g filter="url(#filter2_b_1688_14379)">
        <path d="M43.022 105.357L118.804 149.212L182.966 110.949L188.057 103.353L187.527 106.042L186.164 98.9983L67.0644 103.537L46.0798 102.189L43.022 105.357Z" fill="url(#paint2_linear_1688_14379)"/>
    </g>
    <path d="M45.5333 92.1311L45.5186 101.459L118.758 143.826L120.74 134.94L45.5333 92.1311Z" fill="url(#paint3_linear_1688_14379)"/>
    <g filter="url(#filter3_b_1688_14379)">
        <path d="M187.114 95.9992L111.45 52.2249L43.2357 91.8952L43.0957 92.8678L118.87 136.708L187.114 95.9992Z" fill="url(#paint4_linear_1688_14379)"/>
    </g>
    <path d="M162.99 118.48L180.806 107.921C181.589 107.342 182.234 106.597 182.697 105.74C183.159 104.883 183.427 103.934 183.481 102.962V101.562C183.481 100.435 183.01 99.7055 182.28 99.4918L147.266 118.973L118.729 134.402V143.834L162.99 118.48Z" fill="url(#paint5_linear_1688_14379)"/>
    <g filter="url(#filter4_b_1688_14379)">
        <path d="M121.287 135.257L46.1313 91.7848L44.4955 90.8417L43.0219 90.0017C42.7225 90.5179 42.5555 91.1 42.5356 91.6964C42.5136 91.9195 42.5495 92.1446 42.6399 92.3498C42.7302 92.555 42.8719 92.7335 43.0514 92.8679L118.804 136.701L121.287 135.257Z" fill="url(#paint6_linear_1688_14379)"/>
    </g>
    <g filter="url(#filter5_bd_1688_14379)">
        <path d="M117.86 148.667L118.803 149.212L118.98 148.91L118.39 148.446L117.86 148.667Z" fill="#24272E"/>
    </g>
    <g filter="url(#filter6_bd_1688_14379)">
        <path d="M117.881 136.134L118.854 136.694L118.611 136.163L117.881 136.134Z" fill="#24272E"/>
    </g>
    <g filter="url(#filter7_b_1688_14379)">
        <path d="M120.173 132.376L182.471 96.4857C186.156 94.371 189.103 96.0951 189.103 100.324V101.724C189.103 105.954 186.111 111.112 182.471 113.226L120.173 149.117C119.164 149.699 118.354 149.227 118.354 148.063C118.388 147.429 118.571 146.813 118.889 146.264C119.206 145.714 119.649 145.248 120.181 144.902L182.471 109.012C183.341 108.447 184.066 107.686 184.588 106.79C185.11 105.894 185.415 104.889 185.478 103.854V102.424C185.478 100.523 184.137 99.7424 182.486 100.693L120.166 136.591C119.157 137.165 118.346 136.694 118.346 135.537C118.38 134.904 118.564 134.287 118.881 133.738C119.199 133.188 119.642 132.722 120.173 132.376Z" fill="url(#paint7_linear_1688_14379)"/>
    </g>
    <g filter="url(#filter8_b_1688_14379)">
        <path d="M118.324 148.063C118.358 147.429 118.541 146.813 118.859 146.263C119.177 145.714 119.619 145.248 120.151 144.902L182.442 109.011C183.311 108.447 184.036 107.686 184.558 106.79C185.08 105.894 185.385 104.889 185.448 103.854V102.424C185.448 101.179 184.873 100.42 184.011 100.31C184.325 100.76 184.48 101.301 184.453 101.85V103.249C184.391 104.284 184.087 105.289 183.567 106.185C183.046 107.08 182.322 107.842 181.454 108.407L119.156 144.298C118.625 144.643 118.183 145.108 117.866 145.656C117.548 146.204 117.365 146.819 117.329 147.451C117.329 148.335 117.801 148.814 118.464 148.748C118.371 148.531 118.324 148.298 118.324 148.063Z" fill="url(#paint8_linear_1688_14379)"/>
    </g>
    <g filter="url(#filter9_b_1688_14379)">
        <path d="M118.346 135.537C118.381 134.904 118.564 134.287 118.881 133.738C119.199 133.189 119.642 132.722 120.174 132.376L182.472 96.4858C184.048 95.5721 185.5 95.3805 186.635 95.7858C185.419 94.7469 183.555 94.7026 181.477 95.9037L119.179 131.801C118.648 132.147 118.207 132.613 117.889 133.16C117.572 133.708 117.388 134.323 117.352 134.955C117.352 135.839 117.823 136.318 118.486 136.252C118.393 136.025 118.346 135.782 118.346 135.537Z" fill="url(#paint9_linear_1688_14379)"/>
    </g>
    <g filter="url(#filter10_bd_1688_14379)">
        <path d="M110.845 28.7426C110.845 24.5132 107.897 22.7891 104.213 24.9038L41.9152 60.7942C41.3843 61.1393 40.9422 61.6047 40.6247 62.1526C40.3072 62.7005 40.1233 63.3155 40.0879 63.9478C40.0879 65.1119 40.8984 65.5835 41.9078 65.0014L104.176 29.0889C105.827 28.1384 107.175 28.912 107.168 30.8204V37.7907C108.376 37.717 109.585 37.7097 110.852 37.7318L110.845 28.7426Z" fill="url(#paint10_linear_1688_14379)"/>
    </g>
    <g filter="url(#filter11_b_1688_14379)">
        <path d="M41.8789 77.5126L104.177 54.8113C107.861 52.6966 110.808 47.5389 110.808 43.3095V37.7318C109.578 37.7318 108.369 37.7318 107.124 37.7908V45.4095C107.061 46.4443 106.756 47.45 106.234 48.3457C105.712 49.2415 104.987 50.0023 104.118 50.5672L41.8273 73.2686C41.2954 73.6144 40.8527 74.081 40.5352 74.6303C40.2177 75.1795 40.0343 75.796 40 76.4295C40.0737 77.6158 40.8695 78.1095 41.8789 77.5126Z" fill="url(#paint11_linear_1688_14379)"/>
    </g>
    <g filter="url(#filter12_b_1688_14379)">
        <path d="M40.5298 77.5938L116.312 121.442L180.474 83.1789L185.565 75.5823L185.035 78.2716L183.664 71.2277L64.5648 75.7738L43.5876 74.4181L40.5298 77.5938Z" fill="url(#paint12_linear_1688_14379)"/>
    </g>
    <g filter="url(#filter13_b_1688_14379)">
        <path d="M43.0441 64.3605L43.022 73.6886L116.269 116.063L118.244 107.17L43.0441 64.3605Z" fill="url(#paint13_linear_1688_14379)"/>
    </g>
    <g filter="url(#filter14_b_1688_14379)">
        <path d="M184.622 68.2286L108.958 24.4542L40.7436 64.1245L40.5962 65.0971L116.371 108.938L184.622 68.2286Z" fill="url(#paint14_linear_1688_14379)"/>
    </g>
    <path d="M217.2 88.2711L208 82.9593L217.2 77.6475L226.399 82.9593L217.2 88.2711Z" fill="#0B0D11" fill-opacity="0.4"/>
    <g filter="url(#filter15_b_1688_14379)">
        <path d="M226.399 76.9354L217.2 82.2472V71.6236L226.399 66.3118V76.9354Z" fill="url(#paint15_linear_1688_14379)"/>
    </g>
    <g filter="url(#filter16_b_1688_14379)">
        <path d="M217.2 71.6236L208 66.3118L217.2 61L226.399 66.3118L217.2 71.6236Z" fill="url(#paint16_linear_1688_14379)"/>
    </g>
    <g filter="url(#filter17_b_1688_14379)">
        <path d="M217.2 82.2472L208 76.9354V66.3118L217.2 71.6236V82.2472Z" fill="url(#paint17_linear_1688_14379)"/>
    </g>
    <path d="M160.499 90.709L178.285 80.1577C179.066 79.5746 179.71 78.8281 180.172 77.9703C180.634 77.1125 180.903 76.1642 180.96 75.1916V73.799C180.96 72.6643 180.488 71.9348 179.759 71.7285L144.738 91.21L116.223 106.632V116.063L160.499 90.709Z" fill="url(#paint18_linear_1688_14379)"/>
    <path d="M118.795 107.494L43.6397 64.0215L42.0481 63.1005L40.5745 62.2532C40.2751 62.7693 40.1081 63.3515 40.0882 63.9479C40.0655 64.1711 40.1011 64.3964 40.1915 64.6017C40.2819 64.807 40.424 64.9854 40.604 65.1194L116.356 108.945L118.795 107.494Z" fill="url(#paint19_linear_1688_14379)"/>
    <path d="M115.369 120.896L116.312 121.442L116.489 121.14L115.9 120.683L115.369 120.896Z" fill="#5991C7"/>
    <path d="M115.392 108.371L116.365 108.931L116.122 108.4L115.392 108.371Z" fill="#5991C7"/>
    <g filter="url(#filter18_bd_1688_14379)">
        <path d="M117.675 104.635L179.973 68.7372C183.657 66.6299 186.604 68.3467 186.604 72.576V73.976C186.604 78.2053 183.613 83.363 179.973 85.4777L117.675 121.368C116.666 121.95 115.848 121.479 115.848 120.314C115.885 119.683 116.07 119.069 116.388 118.521C116.705 117.974 117.146 117.508 117.675 117.161L179.973 81.2631C180.841 80.6974 181.564 79.9362 182.085 79.0405C182.606 78.1448 182.91 77.1396 182.972 76.1054V74.7054C182.972 72.7971 181.631 72.016 179.98 72.9739L117.682 108.864C116.673 109.446 115.855 108.975 115.855 107.811C115.887 107.176 116.069 106.557 116.385 106.005C116.701 105.453 117.143 104.984 117.675 104.635Z" fill="url(#paint20_linear_1688_14379)"/>
    </g>
    <g filter="url(#filter19_bd_1688_14379)">
        <path d="M115.826 120.292C115.863 119.66 116.048 119.046 116.366 118.499C116.683 117.951 117.124 117.485 117.653 117.138L179.951 81.2406C180.819 80.675 181.542 79.9138 182.063 79.0181C182.584 78.1224 182.888 77.1171 182.95 76.0829V74.683C182.95 73.4304 182.375 72.6714 181.513 72.5609C181.826 73.0118 181.981 73.5529 181.955 74.1009V75.5008C181.893 76.535 181.589 77.5403 181.069 78.436C180.548 79.3317 179.824 80.0929 178.956 80.6586L116.658 116.549C116.126 116.895 115.684 117.361 115.366 117.911C115.049 118.46 114.865 119.076 114.831 119.71C114.831 120.587 115.303 121.073 115.966 120.999C115.87 120.776 115.822 120.535 115.826 120.292Z" fill="#24178A"/>
    </g>
    <g filter="url(#filter20_bd_1688_14379)">
        <path d="M115.849 107.766C115.886 107.134 116.07 106.52 116.387 105.972C116.705 105.424 117.146 104.959 117.676 104.613L179.974 68.715C181.551 67.8087 183.003 67.6097 184.145 68.0223C182.929 66.9834 181.065 66.9392 178.987 68.1402L116.704 104.031C116.172 104.377 115.729 104.843 115.412 105.392C115.094 105.942 114.911 106.558 114.876 107.192C114.876 108.068 115.348 108.555 116.011 108.481C115.906 108.257 115.851 108.013 115.849 107.766Z" fill="#24178A"/>
    </g>
    <path d="M221.869 125.494C211.51 119.511 194.71 119.511 184.343 125.494C180.048 127.977 177.535 131.094 176.806 134.336C177.454 137.187 179.488 139.951 182.899 142.264C183.809 141.521 184.777 140.853 185.795 140.267C196.162 134.284 212.961 134.284 223.328 140.267C223.837 140.562 224.316 140.872 224.802 141.181C227.074 139.485 228.709 137.074 229.444 134.336C228.7 131.094 226.172 127.977 221.869 125.494Z" fill="url(#paint21_linear_1688_14379)"/>
    <path d="M221.877 143.156C225.915 140.82 228.361 137.917 229.245 134.889C241.064 142.117 240.857 153.501 228.604 160.574C216.195 167.739 196.107 167.773 183.627 160.675L174.939 165.761L180.769 169.129L141.792 191.638L136.191 188.405C136.206 188.53 136.213 188.658 136.213 188.787C136.213 190.545 134.788 191.97 133.03 191.97C131.272 191.97 129.847 190.545 129.847 188.787C129.847 187.473 130.644 186.345 131.78 185.859L129.398 184.484L168.383 161.974L172.809 164.531L181.579 159.397C172.739 153.335 171.735 144.755 178.567 138.123C180.107 140.197 182.078 141.914 184.343 143.156C194.71 149.139 211.51 149.139 221.877 143.156Z" fill="#0B0D11" fill-opacity="0.4"/>
    <path d="M176.171 139.103L180.223 133.82L192.513 128.11L203.109 127.167L215.509 128.684L224.115 133.105L229.612 136.613L230.599 130.902L228.743 124.315C228.743 124.315 224.042 121.206 223.754 120.918C223.467 120.631 212.761 116.8 212.761 116.8L202.062 116.063L193.456 117.161L184.703 119.762L178.919 123.814L174.579 129.311L174.093 136.178L176.171 139.103Z" fill="url(#paint22_linear_1688_14379)"/>
    <path d="M184.342 132.899C194.709 126.916 211.509 126.916 221.868 132.899C225.132 134.778 227.365 137.033 228.573 139.413C229.487 138.602 230.658 137.939 231.152 136.856C229.389 134.574 227.174 132.68 224.646 131.293C212.754 124.426 193.464 124.426 181.564 131.293C179.239 132.582 177.171 134.288 175.463 136.325C175.965 137.499 176.705 138.555 177.637 139.427C178.845 137.055 181.078 134.778 184.342 132.899Z" fill="url(#paint23_linear_1688_14379)"/>
    <path d="M221.869 125.494C211.51 119.511 194.71 119.511 184.343 125.494C180.048 127.977 177.535 131.094 176.806 134.336C177.542 137.563 180.048 140.687 184.343 143.178C194.71 149.161 211.51 149.161 221.877 143.178C226.172 140.695 228.678 137.578 229.414 134.336C228.7 131.094 226.172 127.977 221.869 125.494Z" fill="url(#paint24_linear_1688_14379)"/>
    <path d="M230.225 138.057C230.614 137.725 230.93 137.316 231.153 136.856C231.21 136.934 231.267 137.012 231.322 137.091L233.578 132.317V143.436L233.562 143.41C233.706 148.017 230.73 152.653 224.617 156.175C212.718 163.043 193.428 163.043 181.528 156.175C175.56 152.742 172.613 148.232 172.613 143.731V132.185L174.926 136.996C175.088 136.775 175.258 136.547 175.435 136.325C175.936 137.499 176.677 138.555 177.608 139.427C177.567 139.506 177.532 139.587 177.498 139.67C177.483 139.705 177.469 139.739 177.454 139.774L184.085 145.609L194.209 148.262L199.322 148.792L207.229 148.454L212.961 147.105L219.423 144.792L224.102 142.714L227.476 139.582L230.225 137.946V138.057Z" fill="url(#paint25_linear_1688_14379)"/>
    <g filter="url(#filter21_b_1688_14379)">
        <path d="M224.647 119.88C212.755 113.013 193.465 113.013 181.565 119.88C169.666 126.747 169.666 137.888 181.565 144.755C193.465 151.622 212.755 151.629 224.654 144.755C236.554 137.88 236.547 126.74 224.647 119.88ZM221.877 143.156C211.51 149.139 194.71 149.139 184.343 143.156C173.976 137.173 173.983 127.469 184.343 121.486C194.703 115.503 211.51 115.503 221.869 121.486C232.229 127.469 232.236 137.173 221.877 143.156Z" fill="url(#paint26_linear_1688_14379)"/>
    </g>
    <path d="M163.801 161.073C164.393 160.731 164.393 159.623 163.801 158.597C163.208 157.572 162.249 157.017 161.656 157.359C161.064 157.701 161.064 158.81 161.657 159.835C162.249 160.861 163.209 161.415 163.801 161.073Z" fill="#983BE9"/>
    <path d="M163.801 161.073C164.393 160.731 164.393 159.623 163.801 158.597C163.208 157.572 162.249 157.017 161.656 157.359C161.064 157.701 161.064 158.81 161.657 159.835C162.249 160.861 163.209 161.415 163.801 161.073Z" fill="#983BE9"/>
    <g filter="url(#filter22_b_1688_14379)">
        <path fill-rule="evenodd" clip-rule="evenodd" d="M180.585 151.28C180.919 151.152 181.131 150.791 181.131 150.251C181.102 149.725 180.95 149.214 180.686 148.758C180.422 148.302 180.055 147.915 179.613 147.628C179.189 147.384 178.806 147.366 178.531 147.534L178.53 147.532L161.642 157.361L163.808 161.053L180.585 151.28Z" fill="#24272E" fill-opacity="0.6"/>
    </g>
    <path d="M172.546 160.795C172.546 156.64 169.599 151.592 166.032 149.515C164.19 148.454 162.533 148.38 161.346 149.109L125.647 169.858L134.983 185.737L170.299 165.172C170.543 165.068 170.773 164.935 170.984 164.774C171.964 164 172.546 162.645 172.546 160.795Z" fill="#24272E"/>
    <g filter="url(#filter23_b_1688_14379)">
        <path d="M134.919 185.771C137.464 184.302 137.465 179.54 134.921 175.135C132.378 170.73 128.254 168.349 125.709 169.818C123.165 171.287 123.164 176.049 125.707 180.455C128.25 184.86 132.375 187.24 134.919 185.771Z" fill="#0C0D0F" fill-opacity="0.41"/>
    </g>
    <g filter="url(#filter24_b_1688_14379)">
        <path d="M127.29 183.858C129.634 183.858 131.534 181.957 131.534 179.613C131.534 177.27 129.634 175.369 127.29 175.369C124.946 175.369 123.046 177.27 123.046 179.613C123.046 181.957 124.946 183.858 127.29 183.858Z" fill="url(#paint27_linear_1688_14379)"/>
    </g>
    <defs>
        <filter id="filter0_b_1688_14379" x="29.5796" y="38.7448" width="96.7642" height="67.2548" filterUnits="userSpaceOnUse" color-interpolation-filters="sRGB">
            <feFlood flood-opacity="0" result="BackgroundImageFix"/>
            <feGaussianBlur in="BackgroundImage" stdDeviation="6.5"/>
            <feComposite in2="SourceAlpha" operator="in" result="effect1_backgroundBlur_1688_14379"/>
            <feBlend mode="normal" in="SourceGraphic" in2="effect1_backgroundBlur_1688_14379" result="shape"/>
        </filter>
        <filter id="filter1_b_1688_14379" x="29.5278" y="52.5024" width="96.7715" height="66.0195" filterUnits="userSpaceOnUse" color-interpolation-filters="sRGB">
            <feFlood flood-opacity="0" result="BackgroundImageFix"/>
            <feGaussianBlur in="BackgroundImage" stdDeviation="6.5"/>
            <feComposite in2="SourceAlpha" operator="in" result="effect1_backgroundBlur_1688_14379"/>
            <feBlend mode="normal" in="SourceGraphic" in2="effect1_backgroundBlur_1688_14379" result="shape"/>
        </filter>
        <filter id="filter2_b_1688_14379" x="30.022" y="85.9983" width="171.035" height="76.2141" filterUnits="userSpaceOnUse" color-interpolation-filters="sRGB">
            <feFlood flood-opacity="0" result="BackgroundImageFix"/>
            <feGaussianBlur in="BackgroundImage" stdDeviation="6.5"/>
            <feComposite in2="SourceAlpha" operator="in" result="effect1_backgroundBlur_1688_14379"/>
            <feBlend mode="normal" in="SourceGraphic" in2="effect1_backgroundBlur_1688_14379" result="shape"/>
        </filter>
        <filter id="filter3_b_1688_14379" x="30.0957" y="39.2249" width="170.019" height="110.484" filterUnits="userSpaceOnUse" color-interpolation-filters="sRGB">
            <feFlood flood-opacity="0" result="BackgroundImageFix"/>
            <feGaussianBlur in="BackgroundImage" stdDeviation="6.5"/>
            <feComposite in2="SourceAlpha" operator="in" result="effect1_backgroundBlur_1688_14379"/>
            <feBlend mode="normal" in="SourceGraphic" in2="effect1_backgroundBlur_1688_14379" result="shape"/>
        </filter>
        <filter id="filter4_b_1688_14379" x="29.5293" y="77.0017" width="104.757" height="72.6996" filterUnits="userSpaceOnUse" color-interpolation-filters="sRGB">
            <feFlood flood-opacity="0" result="BackgroundImageFix"/>
            <feGaussianBlur in="BackgroundImage" stdDeviation="6.5"/>
            <feComposite in2="SourceAlpha" operator="in" result="effect1_backgroundBlur_1688_14379"/>
            <feBlend mode="normal" in="SourceGraphic" in2="effect1_backgroundBlur_1688_14379" result="shape"/>
        </filter>
        <filter id="filter5_bd_1688_14379" x="110.86" y="141.446" width="15.1201" height="15.7664" filterUnits="userSpaceOnUse" color-interpolation-filters="sRGB">
            <feFlood flood-opacity="0" result="BackgroundImageFix"/>
            <feGaussianBlur in="BackgroundImage" stdDeviation="3.5"/>
            <feComposite in2="SourceAlpha" operator="in" result="effect1_backgroundBlur_1688_14379"/>
            <feColorMatrix in="SourceAlpha" type="matrix" values="0 0 0 0 0 0 0 0 0 0 0 0 0 0 0 0 0 0 127 0" result="hardAlpha"/>
            <feOffset dy="4"/>
            <feGaussianBlur stdDeviation="2"/>
            <feComposite in2="hardAlpha" operator="out"/>
            <feColorMatrix type="matrix" values="0 0 0 0 0 0 0 0 0 0 0 0 0 0 0 0 0 0 0.25 0"/>
            <feBlend mode="normal" in2="effect1_backgroundBlur_1688_14379" result="effect2_dropShadow_1688_14379"/>
            <feBlend mode="normal" in="SourceGraphic" in2="effect2_dropShadow_1688_14379" result="shape"/>
        </filter>
        <filter id="filter6_bd_1688_14379" x="110.881" y="129.134" width="14.9727" height="15.5599" filterUnits="userSpaceOnUse" color-interpolation-filters="sRGB">
            <feFlood flood-opacity="0" result="BackgroundImageFix"/>
            <feGaussianBlur in="BackgroundImage" stdDeviation="3.5"/>
            <feComposite in2="SourceAlpha" operator="in" result="effect1_backgroundBlur_1688_14379"/>
            <feColorMatrix in="SourceAlpha" type="matrix" values="0 0 0 0 0 0 0 0 0 0 0 0 0 0 0 0 0 0 127 0" result="hardAlpha"/>
            <feOffset dy="4"/>
            <feGaussianBlur stdDeviation="2"/>
            <feComposite in2="hardAlpha" operator="out"/>
            <feColorMatrix type="matrix" values="0 0 0 0 0 0 0 0 0 0 0 0 0 0 0 0 0 0 0.25 0"/>
            <feBlend mode="normal" in2="effect1_backgroundBlur_1688_14379" result="effect2_dropShadow_1688_14379"/>
            <feBlend mode="normal" in="SourceGraphic" in2="effect2_dropShadow_1688_14379" result="shape"/>
        </filter>
        <filter id="filter7_b_1688_14379" x="105.346" y="82.5819" width="96.7568" height="79.7841" filterUnits="userSpaceOnUse" color-interpolation-filters="sRGB">
            <feFlood flood-opacity="0" result="BackgroundImageFix"/>
            <feGaussianBlur in="BackgroundImage" stdDeviation="6.5"/>
            <feComposite in2="SourceAlpha" operator="in" result="effect1_backgroundBlur_1688_14379"/>
            <feBlend mode="normal" in="SourceGraphic" in2="effect1_backgroundBlur_1688_14379" result="shape"/>
        </filter>
        <filter id="filter8_b_1688_14379" x="104.329" y="87.3096" width="94.1187" height="74.4445" filterUnits="userSpaceOnUse" color-interpolation-filters="sRGB">
            <feFlood flood-opacity="0" result="BackgroundImageFix"/>
            <feGaussianBlur in="BackgroundImage" stdDeviation="6.5"/>
            <feComposite in2="SourceAlpha" operator="in" result="effect1_backgroundBlur_1688_14379"/>
            <feBlend mode="normal" in="SourceGraphic" in2="effect1_backgroundBlur_1688_14379" result="shape"/>
        </filter>
        <filter id="filter9_b_1688_14379" x="104.352" y="82.0045" width="95.2832" height="67.2534" filterUnits="userSpaceOnUse" color-interpolation-filters="sRGB">
            <feFlood flood-opacity="0" result="BackgroundImageFix"/>
            <feGaussianBlur in="BackgroundImage" stdDeviation="6.5"/>
            <feComposite in2="SourceAlpha" operator="in" result="effect1_backgroundBlur_1688_14379"/>
            <feBlend mode="normal" in="SourceGraphic" in2="effect1_backgroundBlur_1688_14379" result="shape"/>
        </filter>
        <filter id="filter10_bd_1688_14379" x="33.0879" y="17" width="84.7642" height="56.2509" filterUnits="userSpaceOnUse" color-interpolation-filters="sRGB">
            <feFlood flood-opacity="0" result="BackgroundImageFix"/>
            <feGaussianBlur in="BackgroundImage" stdDeviation="3.5"/>
            <feComposite in2="SourceAlpha" operator="in" result="effect1_backgroundBlur_1688_14379"/>
            <feColorMatrix in="SourceAlpha" type="matrix" values="0 0 0 0 0 0 0 0 0 0 0 0 0 0 0 0 0 0 127 0" result="hardAlpha"/>
            <feOffset dy="4"/>
            <feGaussianBlur stdDeviation="2"/>
            <feComposite in2="hardAlpha" operator="out"/>
            <feColorMatrix type="matrix" values="0 0 0 0 0 0 0 0 0 0 0 0 0 0 0 0 0 0 0.25 0"/>
            <feBlend mode="normal" in2="effect1_backgroundBlur_1688_14379" result="effect2_dropShadow_1688_14379"/>
            <feBlend mode="normal" in="SourceGraphic" in2="effect2_dropShadow_1688_14379" result="shape"/>
        </filter>
        <filter id="filter11_b_1688_14379" x="27" y="24.7318" width="96.8081" height="66.0347" filterUnits="userSpaceOnUse" color-interpolation-filters="sRGB">
            <feFlood flood-opacity="0" result="BackgroundImageFix"/>
            <feGaussianBlur in="BackgroundImage" stdDeviation="6.5"/>
            <feComposite in2="SourceAlpha" operator="in" result="effect1_backgroundBlur_1688_14379"/>
            <feBlend mode="normal" in="SourceGraphic" in2="effect1_backgroundBlur_1688_14379" result="shape"/>
        </filter>
        <filter id="filter12_b_1688_14379" x="27.5298" y="58.2277" width="171.035" height="76.2141" filterUnits="userSpaceOnUse" color-interpolation-filters="sRGB">
            <feFlood flood-opacity="0" result="BackgroundImageFix"/>
            <feGaussianBlur in="BackgroundImage" stdDeviation="6.5"/>
            <feComposite in2="SourceAlpha" operator="in" result="effect1_backgroundBlur_1688_14379"/>
            <feBlend mode="normal" in="SourceGraphic" in2="effect1_backgroundBlur_1688_14379" result="shape"/>
        </filter>
        <filter id="filter13_b_1688_14379" x="30.022" y="51.3605" width="101.222" height="77.7025" filterUnits="userSpaceOnUse" color-interpolation-filters="sRGB">
            <feFlood flood-opacity="0" result="BackgroundImageFix"/>
            <feGaussianBlur in="BackgroundImage" stdDeviation="6.5"/>
            <feComposite in2="SourceAlpha" operator="in" result="effect1_backgroundBlur_1688_14379"/>
            <feBlend mode="normal" in="SourceGraphic" in2="effect1_backgroundBlur_1688_14379" result="shape"/>
        </filter>
        <filter id="filter14_b_1688_14379" x="27.5962" y="11.4542" width="170.026" height="110.484" filterUnits="userSpaceOnUse" color-interpolation-filters="sRGB">
            <feFlood flood-opacity="0" result="BackgroundImageFix"/>
            <feGaussianBlur in="BackgroundImage" stdDeviation="6.5"/>
            <feComposite in2="SourceAlpha" operator="in" result="effect1_backgroundBlur_1688_14379"/>
            <feBlend mode="normal" in="SourceGraphic" in2="effect1_backgroundBlur_1688_14379" result="shape"/>
        </filter>
        <filter id="filter15_b_1688_14379" x="190.2" y="39.3118" width="63.1997" height="69.9354" filterUnits="userSpaceOnUse" color-interpolation-filters="sRGB">
            <feFlood flood-opacity="0" result="BackgroundImageFix"/>
            <feGaussianBlur in="BackgroundImage" stdDeviation="13.5"/>
            <feComposite in2="SourceAlpha" operator="in" result="effect1_backgroundBlur_1688_14379"/>
            <feBlend mode="normal" in="SourceGraphic" in2="effect1_backgroundBlur_1688_14379" result="shape"/>
        </filter>
        <filter id="filter16_b_1688_14379" x="181" y="34" width="72.3994" height="64.6237" filterUnits="userSpaceOnUse" color-interpolation-filters="sRGB">
            <feFlood flood-opacity="0" result="BackgroundImageFix"/>
            <feGaussianBlur in="BackgroundImage" stdDeviation="13.5"/>
            <feComposite in2="SourceAlpha" operator="in" result="effect1_backgroundBlur_1688_14379"/>
            <feBlend mode="normal" in="SourceGraphic" in2="effect1_backgroundBlur_1688_14379" result="shape"/>
        </filter>
        <filter id="filter17_b_1688_14379" x="181" y="39.3118" width="63.1997" height="69.9354" filterUnits="userSpaceOnUse" color-interpolation-filters="sRGB">
            <feFlood flood-opacity="0" result="BackgroundImageFix"/>
            <feGaussianBlur in="BackgroundImage" stdDeviation="13.5"/>
            <feComposite in2="SourceAlpha" operator="in" result="effect1_backgroundBlur_1688_14379"/>
            <feBlend mode="normal" in="SourceGraphic" in2="effect1_backgroundBlur_1688_14379" result="shape"/>
        </filter>
        <filter id="filter18_bd_1688_14379" x="108.848" y="60.8367" width="84.7568" height="68.7809" filterUnits="userSpaceOnUse" color-interpolation-filters="sRGB">
            <feFlood flood-opacity="0" result="BackgroundImageFix"/>
            <feGaussianBlur in="BackgroundImage" stdDeviation="3.5"/>
            <feComposite in2="SourceAlpha" operator="in" result="effect1_backgroundBlur_1688_14379"/>
            <feColorMatrix in="SourceAlpha" type="matrix" values="0 0 0 0 0 0 0 0 0 0 0 0 0 0 0 0 0 0 127 0" result="hardAlpha"/>
            <feOffset dy="4"/>
            <feGaussianBlur stdDeviation="2"/>
            <feComposite in2="hardAlpha" operator="out"/>
            <feColorMatrix type="matrix" values="0 0 0 0 0 0 0 0 0 0 0 0 0 0 0 0 0 0 0.25 0"/>
            <feBlend mode="normal" in2="effect1_backgroundBlur_1688_14379" result="effect2_dropShadow_1688_14379"/>
            <feBlend mode="normal" in="SourceGraphic" in2="effect2_dropShadow_1688_14379" result="shape"/>
        </filter>
        <filter id="filter19_bd_1688_14379" x="107.831" y="65.5609" width="82.1187" height="63.4458" filterUnits="userSpaceOnUse" color-interpolation-filters="sRGB">
            <feFlood flood-opacity="0" result="BackgroundImageFix"/>
            <feGaussianBlur in="BackgroundImage" stdDeviation="3.5"/>
            <feComposite in2="SourceAlpha" operator="in" result="effect1_backgroundBlur_1688_14379"/>
            <feColorMatrix in="SourceAlpha" type="matrix" values="0 0 0 0 0 0 0 0 0 0 0 0 0 0 0 0 0 0 127 0" result="hardAlpha"/>
            <feOffset dy="4"/>
            <feGaussianBlur stdDeviation="2"/>
            <feComposite in2="hardAlpha" operator="out"/>
            <feColorMatrix type="matrix" values="0 0 0 0 0 0 0 0 0 0 0 0 0 0 0 0 0 0 0.25 0"/>
            <feBlend mode="normal" in2="effect1_backgroundBlur_1688_14379" result="effect2_dropShadow_1688_14379"/>
            <feBlend mode="normal" in="SourceGraphic" in2="effect2_dropShadow_1688_14379" result="shape"/>
        </filter>
        <filter id="filter20_bd_1688_14379" x="107.876" y="60.2411" width="83.2686" height="56.2473" filterUnits="userSpaceOnUse" color-interpolation-filters="sRGB">
            <feFlood flood-opacity="0" result="BackgroundImageFix"/>
            <feGaussianBlur in="BackgroundImage" stdDeviation="3.5"/>
            <feComposite in2="SourceAlpha" operator="in" result="effect1_backgroundBlur_1688_14379"/>
            <feColorMatrix in="SourceAlpha" type="matrix" values="0 0 0 0 0 0 0 0 0 0 0 0 0 0 0 0 0 0 127 0" result="hardAlpha"/>
            <feOffset dy="4"/>
            <feGaussianBlur stdDeviation="2"/>
            <feComposite in2="hardAlpha" operator="out"/>
            <feColorMatrix type="matrix" values="0 0 0 0 0 0 0 0 0 0 0 0 0 0 0 0 0 0 0.25 0"/>
            <feBlend mode="normal" in2="effect1_backgroundBlur_1688_14379" result="effect2_dropShadow_1688_14379"/>
            <feBlend mode="normal" in="SourceGraphic" in2="effect2_dropShadow_1688_14379" result="shape"/>
        </filter>
        <filter id="filter21_b_1688_14379" x="165.641" y="107.729" width="74.9351" height="49.1785" filterUnits="userSpaceOnUse" color-interpolation-filters="sRGB">
            <feFlood flood-opacity="0" result="BackgroundImageFix"/>
            <feGaussianBlur in="BackgroundImage" stdDeviation="3.5"/>
            <feComposite in2="SourceAlpha" operator="in" result="effect1_backgroundBlur_1688_14379"/>
            <feBlend mode="normal" in="SourceGraphic" in2="effect1_backgroundBlur_1688_14379" result="shape"/>
        </filter>
        <filter id="filter22_b_1688_14379" x="158.642" y="144.424" width="25.4888" height="19.6292" filterUnits="userSpaceOnUse" color-interpolation-filters="sRGB">
            <feFlood flood-opacity="0" result="BackgroundImageFix"/>
            <feGaussianBlur in="BackgroundImage" stdDeviation="1.5"/>
            <feComposite in2="SourceAlpha" operator="in" result="effect1_backgroundBlur_1688_14379"/>
            <feBlend mode="normal" in="SourceGraphic" in2="effect1_backgroundBlur_1688_14379" result="shape"/>
        </filter>
        <filter id="filter23_b_1688_14379" x="120.8" y="166.384" width="19.0278" height="22.8208" filterUnits="userSpaceOnUse" color-interpolation-filters="sRGB">
            <feFlood flood-opacity="0" result="BackgroundImageFix"/>
            <feGaussianBlur in="BackgroundImage" stdDeviation="1.5"/>
            <feComposite in2="SourceAlpha" operator="in" result="effect1_backgroundBlur_1688_14379"/>
            <feBlend mode="normal" in="SourceGraphic" in2="effect1_backgroundBlur_1688_14379" result="shape"/>
        </filter>
        <filter id="filter24_b_1688_14379" x="120.046" y="172.369" width="14.4883" height="14.4882" filterUnits="userSpaceOnUse" color-interpolation-filters="sRGB">
            <feFlood flood-opacity="0" result="BackgroundImageFix"/>
            <feGaussianBlur in="BackgroundImage" stdDeviation="1.5"/>
            <feComposite in2="SourceAlpha" operator="in" result="effect1_backgroundBlur_1688_14379"/>
            <feBlend mode="normal" in="SourceGraphic" in2="effect1_backgroundBlur_1688_14379" result="shape"/>
        </filter>
        <linearGradient id="paint0_linear_1688_14379" x1="77.9616" y1="51.7448" x2="77.9616" y2="92.9995" gradientUnits="userSpaceOnUse">
            <stop stop-color="#24272E" stop-opacity="0"/>
            <stop offset="1" stop-color="#24272E"/>
        </linearGradient>
        <linearGradient id="paint1_linear_1688_14379" x1="77.9135" y1="65.5024" x2="77.9135" y2="105.522" gradientUnits="userSpaceOnUse">
            <stop stop-color="#24272E" stop-opacity="0"/>
            <stop offset="1" stop-color="#24272E"/>
        </linearGradient>
        <linearGradient id="paint2_linear_1688_14379" x1="115.54" y1="98.9983" x2="115.54" y2="149.212" gradientUnits="userSpaceOnUse">
            <stop stop-color="#24272E"/>
            <stop offset="1" stop-color="#24272E" stop-opacity="0"/>
        </linearGradient>
        <linearGradient id="paint3_linear_1688_14379" x1="83.1294" y1="92.1311" x2="83.1294" y2="143.826" gradientUnits="userSpaceOnUse">
            <stop stop-color="#131518"/>
            <stop offset="1" stop-color="#24272E" stop-opacity="0"/>
        </linearGradient>
        <linearGradient id="paint4_linear_1688_14379" x1="115.105" y1="52.2249" x2="115.105" y2="136.708" gradientUnits="userSpaceOnUse">
            <stop stop-color="#24272E"/>
            <stop offset="1" stop-color="#24272E" stop-opacity="0"/>
        </linearGradient>
        <linearGradient id="paint5_linear_1688_14379" x1="151.105" y1="99.4918" x2="151.105" y2="143.834" gradientUnits="userSpaceOnUse">
            <stop stop-color="#24272E"/>
            <stop offset="1" stop-color="#24272E" stop-opacity="0"/>
        </linearGradient>
        <linearGradient id="paint6_linear_1688_14379" x1="81.908" y1="90.0017" x2="81.908" y2="136.701" gradientUnits="userSpaceOnUse">
            <stop stop-color="#24272E"/>
            <stop offset="1" stop-color="#24272E" stop-opacity="0"/>
        </linearGradient>
        <linearGradient id="paint7_linear_1688_14379" x1="153.725" y1="95.5819" x2="153.725" y2="149.366" gradientUnits="userSpaceOnUse">
            <stop stop-color="#24272E"/>
            <stop offset="1" stop-color="#24272E" stop-opacity="0"/>
        </linearGradient>
        <linearGradient id="paint8_linear_1688_14379" x1="151.389" y1="100.31" x2="151.389" y2="148.754" gradientUnits="userSpaceOnUse">
            <stop stop-color="#24272E" stop-opacity="0"/>
            <stop offset="0.869792" stop-color="#24272E"/>
        </linearGradient>
        <linearGradient id="paint9_linear_1688_14379" x1="151.993" y1="95.0045" x2="151.993" y2="136.258" gradientUnits="userSpaceOnUse">
            <stop stop-color="#24272E" stop-opacity="0"/>
            <stop offset="0.869792" stop-color="#24272E"/>
        </linearGradient>
        <linearGradient id="paint10_linear_1688_14379" x1="40.0879" y1="24" x2="104.102" y2="73.9087" gradientUnits="userSpaceOnUse">
            <stop stop-color="#7433FF"/>
            <stop offset="1" stop-color="#FFA3FD"/>
        </linearGradient>
        <linearGradient id="paint11_linear_1688_14379" x1="51.4859" y1="67.0291" x2="75.4002" y2="77.7751" gradientUnits="userSpaceOnUse">
            <stop stop-color="#24272E"/>
            <stop offset="1" stop-color="#24272E" stop-opacity="0"/>
        </linearGradient>
        <linearGradient id="paint12_linear_1688_14379" x1="113.047" y1="71.2277" x2="113.047" y2="121.442" gradientUnits="userSpaceOnUse">
            <stop stop-color="#24272E"/>
            <stop offset="1" stop-color="#24272E" stop-opacity="0"/>
        </linearGradient>
        <linearGradient id="paint13_linear_1688_14379" x1="80.6329" y1="64.3605" x2="80.6329" y2="116.063" gradientUnits="userSpaceOnUse">
            <stop stop-color="#24272E"/>
            <stop offset="1" stop-color="#24272E" stop-opacity="0"/>
        </linearGradient>
        <linearGradient id="paint14_linear_1688_14379" x1="112.609" y1="24.4542" x2="112.609" y2="108.938" gradientUnits="userSpaceOnUse">
            <stop stop-color="#24272E"/>
            <stop offset="1" stop-color="#24272E" stop-opacity="0"/>
        </linearGradient>
        <linearGradient id="paint15_linear_1688_14379" x1="220.824" y1="72.9515" x2="229.251" y2="76.5513" gradientUnits="userSpaceOnUse">
            <stop stop-color="#F25C40"/>
            <stop offset="1" stop-color="#FF9E57"/>
        </linearGradient>
        <linearGradient id="paint16_linear_1688_14379" x1="215.248" y1="65.4265" x2="222.79" y2="75.0922" gradientUnits="userSpaceOnUse">
            <stop stop-color="#F25C40"/>
            <stop offset="1" stop-color="#FF9E57"/>
        </linearGradient>
        <linearGradient id="paint17_linear_1688_14379" x1="211.624" y1="72.9515" x2="220.051" y2="76.5513" gradientUnits="userSpaceOnUse">
            <stop stop-color="#F25C40"/>
            <stop offset="1" stop-color="#FF9E57"/>
        </linearGradient>
        <linearGradient id="paint18_linear_1688_14379" x1="148.592" y1="71.7285" x2="148.592" y2="116.063" gradientUnits="userSpaceOnUse">
            <stop stop-color="#24272E"/>
            <stop offset="1" stop-color="#24272E" stop-opacity="0"/>
        </linearGradient>
        <linearGradient id="paint19_linear_1688_14379" x1="40.0815" y1="62.2532" x2="112.222" y2="117.525" gradientUnits="userSpaceOnUse">
            <stop stop-color="#7433FF"/>
            <stop offset="1" stop-color="#FFA3FD"/>
        </linearGradient>
        <linearGradient id="paint20_linear_1688_14379" x1="115.848" y1="67.8367" x2="191.657" y2="113.167" gradientUnits="userSpaceOnUse">
            <stop stop-color="#7433FF"/>
            <stop offset="1" stop-color="#FFA3FD"/>
        </linearGradient>
        <linearGradient id="paint21_linear_1688_14379" x1="203.125" y1="121.007" x2="203.125" y2="142.264" gradientUnits="userSpaceOnUse">
            <stop stop-color="#24272E"/>
            <stop offset="1" stop-color="#24272E" stop-opacity="0"/>
        </linearGradient>
        <linearGradient id="paint22_linear_1688_14379" x1="202.346" y1="116.063" x2="202.346" y2="139.103" gradientUnits="userSpaceOnUse">
            <stop stop-color="#24272E"/>
            <stop offset="1" stop-color="#24272E" stop-opacity="0"/>
        </linearGradient>
        <linearGradient id="paint23_linear_1688_14379" x1="203.308" y1="126.142" x2="203.308" y2="139.427" gradientUnits="userSpaceOnUse">
            <stop stop-color="#24272E"/>
            <stop offset="1" stop-color="#24272E" stop-opacity="0"/>
        </linearGradient>
        <linearGradient id="paint24_linear_1688_14379" x1="203.11" y1="121.007" x2="203.11" y2="147.665" gradientUnits="userSpaceOnUse">
            <stop stop-color="#24272E"/>
            <stop offset="1" stop-color="#24272E" stop-opacity="0"/>
        </linearGradient>
        <linearGradient id="paint25_linear_1688_14379" x1="203.095" y1="132.185" x2="203.095" y2="161.326" gradientUnits="userSpaceOnUse">
            <stop stop-color="#24272E"/>
            <stop offset="1" stop-color="#24272E" stop-opacity="0"/>
        </linearGradient>
        <linearGradient id="paint26_linear_1688_14379" x1="203.108" y1="114.729" x2="203.108" y2="149.908" gradientUnits="userSpaceOnUse">
            <stop stop-color="#24272E"/>
            <stop offset="1" stop-color="#24272E" stop-opacity="0"/>
        </linearGradient>
        <linearGradient id="paint27_linear_1688_14379" x1="122.089" y1="175.069" x2="134.839" y2="187.893" gradientUnits="userSpaceOnUse">
            <stop stop-color="#47DEFF"/>
            <stop offset="1" stop-color="#9847FF"/>
        </linearGradient>
    </defs>
</svg>
