<svg id="b44bed02-f359-4342-b87b-f4a031822321" data-name="Layer 1" xmlns="http://www.w3.org/2000/svg" width="1090.29518" height="674.01653" viewBox="0 0 1090.29518 674.01653"><title>Ride_till_I_can_no_more</title><polygon points="393 568.357 411.71 620.462 401 657.857 421 657.857 429 615.357 424 552.357 393 568.357" fill="#3f3d56"/><path d="M997.43718,535.47809c-23.00083,22.39038-25.81021,56.8096-25.81021,56.8096s34.48232-1.88275,57.48315-24.27313,25.81021-56.80959,25.81021-56.80959S1020.438,513.08772,997.43718,535.47809Z" transform="translate(-54.85241 -112.99173)" fill="#f2f2f2"/><path d="M966.129,787.00827l-1.38623-1.44141c.21778-.209,21.85547-21.4043,30.09668-61.00781,7.61133-36.57715,5.02637-96.80176-50.51074-175.99317-42.59424-60.73633-59.831-113.7998-51.231-157.71728,7.55469-38.582,33.24952-55.53076,33.5083-55.69727l1.0835,1.68067c-.25146.16259-25.27246,16.71191-32.6416,54.46337-8.46192,43.35157,8.66943,95.87891,50.91846,156.12208,24.70752,35.23144,41.15576,69.73339,48.8872,102.54687,6.19532,26.2959,6.84033,51.57324,1.917,75.12988C988.37659,765.25631,966.35071,786.79537,966.129,787.00827Z" transform="translate(-54.85241 -112.99173)" fill="#f2f2f2"/><ellipse cx="901.29518" cy="241.11957" rx="180" ry="30.88036" fill="#f2f2f2"/><path d="M922.64759,375.99166c-124.76612,0-222.5-17.13086-222.5-39s97.73388-39,222.5-39,222.5,17.13086,222.5,39S1047.4137,375.99166,922.64759,375.99166Zm0-76c-119.52344,0-220.5,16.94385-220.5,37s100.97656,37,220.5,37,220.5-16.94384,220.5-37S1042.171,299.99166,922.64759,299.99166Z" transform="translate(-54.85241 -112.99173)" fill="#f2f2f2"/><path d="M298.09606,786.00882l-1.38623-1.4414c.27441-.26367,27.55468-26.97656,37.95117-76.89649,9.60156-46.09668,6.3584-121.99121-63.61524-221.76855-29.23681-41.68945-49.1748-81.07813-59.26025-117.0708-8.24072-29.40967-9.98535-56.74951-5.18555-81.25977,9.48877-48.45947,41.74073-69.73388,42.06543-69.94287l1.0835,1.68067c-.31787.20507-31.896,21.08007-41.19873,68.70849-10.67285,54.644,10.90478,120.83594,64.1333,196.73584,31.082,44.32129,51.77246,87.7207,61.49707,128.99414,7.79,33.06348,8.60156,64.84375,2.41211,94.459C326.04283,758.68363,298.37438,785.74125,298.09606,786.00882Z" transform="translate(-54.85241 -112.99173)" fill="#f2f2f2"/><circle cx="176.10228" cy="138.83504" r="77.41424" fill="#f2f2f2"/><path d="M249.2069,323.9473a105.47779,105.47779,0,1,1,105.47754-105.478A105.59766,105.59766,0,0,1,249.2069,323.9473Zm0-208.95557A103.47779,103.47779,0,1,0,352.68444,218.46927,103.595,103.595,0,0,0,249.2069,114.99173Z" transform="translate(-54.85241 -112.99173)" fill="#f2f2f2"/><circle cx="253.51652" cy="314.43319" r="64.19717" fill="#f2f2f2"/><circle cx="220.78855" cy="537.23514" r="64.19717" fill="#f2f2f2"/><path d="M975.70662,786.84892H758.06555s-4.41164-64.7041,21.69058-65.43937,23.16113,28.67568,55.88082-11.76438,72.42447-38.23424,77.57139-14.33784-9.9262,43.01352,17.64657,37.13133S998.13247,741.99722,975.70662,786.84892Z" transform="translate(-54.85241 -112.99173)" fill="#f2f2f2"/><path d="M863.21223,786.86364l-.73455-.02944c1.71306-42.60064,10.63508-69.972,17.818-85.43178,7.799-16.78654,15.31438-23.58208,15.38941-23.64886l.48863.54948c-.074.06606-7.50173,6.7941-15.23827,23.467C873.7922,717.16449,864.919,744.42348,863.21223,786.86364Z" transform="translate(-54.85241 -112.99173)" fill="#fff"/><path d="M941.982,786.9516l-.70584-.20536A114.05766,114.05766,0,0,1,969.99209,738.971l.494.54428A113.28289,113.28289,0,0,0,941.982,786.9516Z" transform="translate(-54.85241 -112.99173)" fill="#fff"/><path d="M792.345,786.89955l-.72846-.10125a80.08,80.08,0,0,0-7.20284-46.80693A64.44942,64.44942,0,0,0,773.046,723.40355l.50873-.53063a65.25638,65.25638,0,0,1,11.5181,16.79282A80.814,80.814,0,0,1,792.345,786.89955Z" transform="translate(-54.85241 -112.99173)" fill="#fff"/><rect y="671.85719" width="1070" height="2" fill="#3f3d56"/><path d="M166.96911,786.639l-.50195-1.03125c-.15283-.31347-15.188-31.74316-6.80518-62.73144,8.3833-30.98926,37.21289-50.55274,37.50293-50.7461l.95264-.63769.50195,1.03125c.15283.31347,15.188,31.74316,6.80469,62.73144-8.38281,30.98926-37.2124,50.55274-37.50244,50.7461Zm30.3418-112.16308c-5.04737,3.67187-28.398,21.8623-35.71826,48.92187-7.32569,27.08106,3.67431,54.54492,6.1831,60.25781,5.04737-3.67187,28.398-21.8623,35.71778-48.92187h0C210.8197,707.65263,199.8197,680.18877,197.31091,674.47588Z" transform="translate(-54.85241 -112.99173)" fill="#3f3d56"/><path d="M128.20456,734.99449c8.38218,30.98558,37.093,50.17572,37.093,50.17572s15.12066-31.0474,6.73848-62.033-37.093-50.17573-37.093-50.17573S119.82238,704.00891,128.20456,734.99449Z" transform="translate(-54.85241 -112.99173)" fill="#3f3d56"/><path d="M167.42175,786.20537l-1.14453-.0625c-.34864-.01856-35.12256-2.16211-58.12647-24.55469C85.14782,739.1956,82.07019,704.4915,82.04187,704.14287l-.09327-1.1416,1.14453.0625c.34864.01855,35.12256,2.16211,58.126,24.55468,23.00342,22.39356,26.08106,57.09668,26.10938,57.44532Zm-83.2583-81.04883c.75439,6.19531,5.2959,35.44531,25.38281,54.99805,20.08691,19.55469,49.44678,23.30761,55.66064,23.89551-.75439-6.19629-5.29589-35.44434-25.3833-54.99805h0C119.722,709.48271,90.37438,705.7415,84.16345,705.15654Z" transform="translate(-54.85241 -112.99173)" fill="#3f3d56"/><path d="M192.142,728.33535c-23.00082,22.39038-25.81021,56.8096-25.81021,56.8096s34.48233-1.88275,57.48315-24.27313,25.81021-56.80959,25.81021-56.80959S215.14283,705.945,192.142,728.33535Z" transform="translate(-54.85241 -112.99173)" fill="#3f3d56"/><circle cx="111" cy="539.85719" r="15" fill="#05a5a6"/><path d="M558.746,381.22656c-8.8288-14.91794-26.29587-15.61318-26.29587-15.61318s-17.02066-2.17658-27.93931,20.54362c-10.177,21.17709-24.22268,41.624-2.26123,46.58141l3.96687-12.34669,2.45667,13.26589a85.92919,85.92919,0,0,0,9.39648.16059c23.51894-.75933,45.91718.22216,45.196-8.21743C562.30694,414.38154,567.24112,395.5806,558.746,381.22656Z" transform="translate(-54.85241 -112.99173)" fill="#2f2e41"/><path d="M494.07162,542.6236s-6.68348,16.84117,5.57219,18.70587,8.06125-17.79389,8.06125-17.79389Z" transform="translate(-54.85241 -112.99173)" fill="#ffb8b8"/><path d="M513.294,441.28823l.55845-4.43931c-2.49059-.49952-6.07976,1.63236-7,4-1.68988,4.34785-4.81977,15.63405-7.98082,26.70512-5.12756,17.95847-9.3643,46.26715-9.09705,49.37221a148.29746,148.29746,0,0,0,1.59668,16.12851c1.31585,8.01971,3.03635,6.20333.9731,8.88336a4.89283,4.89283,0,0,0-.58961,5.26418s11.20027-5.5518,17.088,2.28295a10.352,10.352,0,0,0,2.406-3.54368c.85685-2.15912,3.00918-3.80413,1.36417-5.95646s4.03742-6.39508,1.78242-10.78882-2.85819-4.13329-1.22677-6.98469,4.68385-20.36268,4.68385-20.36268Z" transform="translate(-54.85241 -112.99173)" fill="#d0cde1"/><path d="M496.30126,521.2716s-39.12585,3.89677-32.15705,19.69271S471.113,558.154,471.113,558.154l34.37941,61.32542,11.15008-11.61466s-12.54384-27.41061-12.54384-36.23775-13.00843-24.15851-13.00843-24.15851l22.76475-1.85834Z" transform="translate(-54.85241 -112.99173)" fill="#ffb8b8"/><path d="M556.13236,540.96431s-31.59189,10.22091-50.63994,6.50421c0,0,5.575-17.65429-14.40219-25.55226l45.0649-5.575" transform="translate(-54.85241 -112.99173)" fill="#2f2e41"/><path d="M508.27994,611.11689s-12.54384-1.85835-9.29173,9.29173l6.50421,22.30015s-8.36256,22.76475,4.64586,17.65429,21.371-36.70234,21.371-36.70234,5.575-24.1585,0-24.1585-23.22933-3.71669-21.371,0S508.27994,611.11689,508.27994,611.11689Z" transform="translate(-54.85241 -112.99173)" fill="#2f2e41"/><path d="M508.00354,477.11961l-21.15113-7.27069,15.94721-2.27819a126.48188,126.48188,0,0,0-21.09949-27.16156l-38.84772,4.43975L472.178,432.28081c-62.96868-47.36615-148.82562,5.06811-148.82562,5.06811l206,107C524.22558,516.8745,516.88476,494.78105,508.00354,477.11961Z" transform="translate(-54.85241 -112.99173)" fill="#05a5a6"/><path d="M741.98037,542.66884s46.69326-34.07346,95.91048,12.6198,88.3386,0,88.3386,0l31.5495,35.33544-13.88178,15.14375,23.97762-3.78593,23.97762,31.54949S887.10807,689.05851,821.48511,595.672s-155.22354-5.04792-155.22354-5.04792Z" transform="translate(-54.85241 -112.99173)" fill="#05a5a6"/><path d="M455.908,766.78593l-12.55556,18.563s32,3,32-3a42.99831,42.99831,0,0,1,2.24561-12.34055Z" transform="translate(-54.85241 -112.99173)" fill="#2f2e41"/><polygon points="645.5 565.357 578.5 617.357 567.5 653.357 589.5 647.357 612 612.857 683.5 574.357 645.5 565.357" fill="#3f3d56"/><path d="M622.35241,766.34892s-3,20,3,20,25-20,25-20l-3.5-8.5Z" transform="translate(-54.85241 -112.99173)" fill="#2f2e41"/><path d="M409.35241,633.34892l-56,36-19,83,18-6s2-77,36-78,84-2,89-31S409.35241,633.34892,409.35241,633.34892Z" transform="translate(-54.85241 -112.99173)" fill="#3f3d56"/><path d="M338.35241,745.34892l-4,7,2,18s26-10,24-18-8-7-8-7Z" transform="translate(-54.85241 -112.99173)" fill="#2f2e41"/><path d="M641.35241,629.34892s13,47,97,61c0,0,49.5-.5,40.5,38.5s-10.5,42.5-10.5,42.5l21,4,7.5-91.5-50.5-63.5Z" transform="translate(-54.85241 -112.99173)" fill="#3f3d56"/><path d="M769.85241,766.84892s-14.5,15.5-11.5,17.5,29,5,31-1,0-16,0-16Z" transform="translate(-54.85241 -112.99173)" fill="#2f2e41"/><path d="M692.76239,661.29894a71.54241,71.54241,0,0,1-42.94-14.23005c-12.36,5.29-26.68,11.12-42.78,17.21-2.42.91-4.87,1.83-7.37,2.76q-12.09,4.47-25.39,9.06c-2.91,1-5.86,2.01-8.85,3.01q-17.40006,5.83494-36.59,11.62-4.545,1.365-9.2,2.71c-.76.23-1.52.45-2.29.67-85.04,24.56-121.96-60.5-135.15-104.81-.34-1.16-.68-2.30005-.99-3.44a105.73974,105.73974,0,0,1-3.53-33.52c1.29-27.59-11.77-55.1-11.77-55.1a401.30445,401.30445,0,0,1-15.15,69.41c-11.35,35.33-50.48,16.4-44.17,0,6.31-16.41-6.31-51.74-6.31-51.74-21.45-64.36,13.89-73.2,13.89-73.2,111.88-58.96,210.02,88.57,218.93,102.45l125.33-18.02a71.93977,71.93977,0,1,1,34.33,135.16Z" transform="translate(-54.85241 -112.99173)" fill="#3f3d56"/><polygon points="263.103 341.339 258.055 299.693 279.508 329.981 263.103 341.339" fill="#3f3d56"/><polygon points="252.103 344.339 247.055 302.693 268.508 332.981 252.103 344.339" fill="#3f3d56"/><path d="M603.52019,540.03514l13.00842,28.33978s9.75632,9.75632,20.44181,48.78159S649.97884,654.788,649.97884,654.788l-16.26053,3.25211s-18.11887-42.27738-24.1585-45.52948-13.473-32.98565-13.473-32.98565l-21.371-26.946L581.22,538.17679Z" transform="translate(-54.85241 -112.99173)" fill="#ffb8b8"/><path d="M536.15513,516.34122l-1.85834-9.75631,4.64586-9.29174,48.78159,10.22091L607.70147,544.681s-25.08768-11.61466-28.80437,13.9376l-22.76474-17.65429" transform="translate(-54.85241 -112.99173)" fill="#2f2e41"/><path d="M648.58508,648.28381s-16.26053-4.18128-19.97722,2.32293-2.78752,27.8752-2.78752,28.33979,5.575,5.11045,7.43339,5.11045,13.473,20.90639,29.269,13.473S648.58508,648.28381,648.58508,648.28381Z" transform="translate(-54.85241 -112.99173)" fill="#2f2e41"/><circle cx="476.65685" cy="289.06119" r="18.11888" fill="#ffb8b8"/><path d="M546.376,405.76962s3.71669,19.51263,6.9688,22.30015-24.62309,6.9688-24.62309,6.9688,4.18128-13.473-.92918-20.44181S546.376,405.76962,546.376,405.76962Z" transform="translate(-54.85241 -112.99173)" fill="#ffb8b8"/><path d="M595.15763,516.34122c-3.16386,0-11.21978-1.31013-20.25137-2.99659-7.81427-1.4588-16.36738-3.1917-23.11318-4.59476-7.22429-1.50526-12.38584-2.62955-12.38584-2.62955s-1.85835,11.61466-7.898,10.2209c-5.20335-1.19864-20.75305-55.51344-24.95758-70.52423a5.22182,5.22182,0,0,1,2.309-5.86773l21.357-13.041,5.47285,2.09064s9.24528-7.14535,14.61122-7.28937,14.65773-1.53778,14.65773-1.53778,10.68549.92917,12.54384,8.82715,2.78752,57.14415,9.75632,65.97129S603.98477,516.34122,595.15763,516.34122Z" transform="translate(-54.85241 -112.99173)" fill="#d0cde1"/><path d="M563.56574,544.21642s-4.18128,21.371-13.00842,18.11887,0-22.30015,0-22.30015Z" transform="translate(-54.85241 -112.99173)" fill="#ffb8b8"/><path d="M583.07838,493.57648s-4.54832,10.85274-8.17212,19.76815c-7.81427-1.4588-16.36738-3.1917-23.11318-4.59476a13.30244,13.30244,0,0,1,2.01634-3.55872c3.25211-3.7167,1.39376-4.64587,1.39376-4.64587-2.78752-5.575-.46458-13.00842-.46458-13.00842-5.575-14.86677,2.78752-33.45024,2.78752-33.45024Z" transform="translate(-54.85241 -112.99173)" opacity="0.15"/><path d="M558.91988,454.08662s-8.36256,18.58347-2.78752,33.45024c0,0-2.32294,7.43338.46458,13.00842,0,0,1.85835.92917-1.39376,4.64587s-6.03962,16.72511-3.71669,19.51263-3.25211,7.898-1.85835,10.68549-2.32293,6.50422-2.32293,6.50422,13.9376,2.78751,16.26053,6.96879c0,0,2.78752-3.2521,1.39376-6.96879s-.46459-5.11046.92917-7.43339,5.575-7.43339,6.03963-9.75632,12.54384-31.1273,12.54384-31.1273L578.8072,441.0847Z" transform="translate(-54.85241 -112.99173)" fill="#d0cde1"/><circle cx="479.73555" cy="252.69721" r="12.62965" fill="#2f2e41"/><path d="M520.62888,362.36535a12.63013,12.63013,0,0,1,11.30021-12.55865,12.758,12.758,0,0,0-1.32944-.071,12.62965,12.62965,0,1,0,0,25.2593,12.758,12.758,0,0,0,1.32944-.071A12.63013,12.63013,0,0,1,520.62888,362.36535Z" transform="translate(-54.85241 -112.99173)" fill="#2f2e41"/><polygon points="499.99 266.797 482.734 257.758 458.903 261.455 453.973 283.232 466.246 282.76 469.675 274.759 469.675 282.628 475.338 282.41 478.625 269.673 480.679 283.232 500.812 282.821 499.99 266.797" fill="#2f2e41"/><ellipse cx="494.31114" cy="286.09239" rx="2.55523" ry="4.87816" fill="#ffb8b8"/><path d="M574.2824,676.09892c-2.91,1-5.86,2.01-8.85,3.01l-25.58-41.26Z" transform="translate(-54.85241 -112.99173)" fill="#05a5a6"/><path d="M607.04241,664.27892c-2.42.91-4.87,1.83-7.37,2.76l-21.82-35.19Z" transform="translate(-54.85241 -112.99173)" fill="#05a5a6"/><path d="M528.8424,690.72893q-4.545,1.365-9.2,2.71l-25.79-41.59Z" transform="translate(-54.85241 -112.99173)" fill="#05a5a6"/><path d="M539.85241,744.84892" transform="translate(-54.85241 -112.99173)" fill="#3f3d56"/></svg>