<svg width="88" height="50" viewBox="0 0 88 50" fill="none" xmlns="http://www.w3.org/2000/svg">
<path fill-rule="evenodd" clip-rule="evenodd" d="M1.14552 21.2636C1.49179 21.3815 1.86112 21.4485 2.24663 21.4485C2.59289 21.4485 2.92688 21.3954 3.24229 21.2995V30.4156C3.24229 30.7378 3.41423 31.038 3.6916 31.199L12.4106 36.2686C12.823 35.7838 13.4338 35.4752 14.1158 35.4752C14.8581 35.4752 15.515 35.8408 15.9244 36.401C15.9316 36.4113 15.9394 36.4209 15.9466 36.4309C15.9754 36.4719 16.0023 36.5138 16.0284 36.557L16.0583 36.6061C16.0814 36.6459 16.1027 36.6864 16.123 36.7274C16.1341 36.7494 16.1446 36.7717 16.1551 36.7941C16.1725 36.8321 16.1889 36.8707 16.2045 36.9099C16.2156 36.9379 16.2255 36.966 16.2354 36.9944C16.2479 37.0302 16.2602 37.0664 16.2707 37.1029C16.2809 37.1376 16.289 37.1726 16.2977 37.2076L16.3201 37.3063C16.3288 37.35 16.3345 37.3943 16.3405 37.439C16.3438 37.4655 16.3489 37.4915 16.3513 37.518C16.3582 37.5904 16.3624 37.6634 16.3624 37.7376C16.3624 37.8559 16.3507 37.9708 16.333 38.0842L16.3267 38.1264C16.1431 39.1892 15.2226 40 14.1158 40C13.1288 40 12.2904 39.3548 11.9894 38.4619L2.64322 33.0279C1.71614 32.4892 1.14552 31.4931 1.14552 30.4156V21.2636ZM25.6106 15.7171C26.8495 15.7171 27.8571 16.7319 27.8571 17.9795C27.8571 18.6582 27.5576 19.2663 27.0861 19.6814V30.4156C27.0861 31.4931 26.5155 32.4892 25.5884 33.0279L17.5584 37.6966C17.5494 36.9328 17.293 36.2297 16.8677 35.6598L24.5401 31.199C24.8174 31.038 24.9894 30.7378 24.9894 30.4156V20.152C24.0521 19.8799 23.3641 19.0099 23.3641 17.9795C23.3641 17.4778 23.5291 17.0154 23.8047 16.6399C23.8089 16.6338 23.8134 16.6281 23.8176 16.6221C23.8697 16.5527 23.9254 16.4857 23.9847 16.4227L23.9928 16.4139C24.1159 16.2848 24.2537 16.1711 24.4041 16.0743C24.4196 16.064 24.4361 16.0546 24.452 16.0447C24.5116 16.0088 24.5724 15.975 24.6353 15.9445C24.6536 15.9358 24.6719 15.9261 24.6904 15.9177C24.7692 15.8821 24.8495 15.8492 24.9328 15.823C24.9331 15.823 24.9331 15.823 24.9331 15.8227L25.0961 15.7774C25.2614 15.7381 25.4336 15.7171 25.6106 15.7171ZM22.5404 20.5949V28.077C22.5404 28.9633 22.0668 29.7892 21.3048 30.2323V30.2326L15.2999 33.72L14.7458 34.0259L14.7524 33.3858V30.733L19.6948 27.8595V25.2279L15.4877 24.0222L22.5404 20.5949ZM5.69132 20.5904L8.53693 21.9961V27.8593L13.4044 30.6894V33.9985L6.92691 30.2327C6.16489 29.7892 5.69132 28.9633 5.69132 28.0771V20.5904ZM12.8802 15.5377C13.6305 15.1018 14.601 15.1018 15.3514 15.5377L21.9391 19.3865L21.3131 19.6848L18.8691 20.8923L14.1158 18.1286L9.3624 20.8923L6.30231 19.3801L6.89031 19.0236C6.8957 19.0188 6.91098 19.0085 6.92745 18.9992L12.8802 15.5377ZM14.1157 10C14.633 10 15.15 10.1345 15.6134 10.4039L23.6911 15.1006C23.0965 15.5042 22.6364 16.0909 22.3833 16.7781L14.565 12.2328C14.4288 12.1532 14.2733 12.1116 14.1157 12.1116C13.9582 12.1116 13.803 12.1532 13.6664 12.2328L4.45713 17.5874C4.47929 17.715 4.49307 17.8453 4.49307 17.9796C4.49307 18.953 3.87842 19.7822 3.02024 20.1008C3.01365 20.1032 3.00676 20.1059 3.00017 20.108C2.93218 20.1325 2.86329 20.1536 2.79259 20.1714L2.75036 20.1822C2.68566 20.1973 2.61946 20.2091 2.55296 20.2184L2.49875 20.2266C2.41578 20.2359 2.3319 20.242 2.24654 20.242C2.15518 20.242 2.06532 20.2347 1.97635 20.2239C1.95239 20.2208 1.92903 20.2166 1.90536 20.213C1.83707 20.2024 1.76997 20.1889 1.70377 20.1723C1.6834 20.1671 1.66304 20.1623 1.64267 20.1566C1.46744 20.1068 1.30089 20.0377 1.14543 19.9494L1.01191 19.8671C0.403138 19.4621 0 18.7679 0 17.9796C0 16.7319 1.00795 15.7172 2.24654 15.7172C2.56794 15.7172 2.87287 15.7866 3.14934 15.9093L12.618 10.4039C13.0814 10.1345 13.5987 10 14.1157 10Z" fill="#0B0D11"/>
<path d="M34.2857 16.6841H37.2879V23.9286H39.7588V16.6841H42.7609V14.2857H34.2857V16.6841Z" fill="#0B0D11"/>
<path d="M50.4137 14.2857V18.0316H46.4849V14.2857H44.0264V23.9286H46.4849V20.3434H50.4137V23.9286H52.8846V14.2857H50.4137Z" fill="#0B0D11"/>
<path d="M54.7425 23.9286H62.1429V21.5426H57.2134V20.3063H61.2657V18.0687H57.2134V16.6841H62.1429V14.2857H54.7425V23.9286Z" fill="#0B0D11"/>
<path d="M39.0854 32.0952H41.3995V32.3571C40.9465 33 40.2119 33.4166 39.3548 33.4166C37.91 33.4166 36.759 32.2976 36.759 30.8928C36.759 29.4881 37.91 28.369 39.3548 28.369C40.1874 28.369 40.922 28.7381 41.3995 29.3214L43.3953 28.0119C42.477 26.8452 40.9955 26.0714 39.3548 26.0714C36.5876 26.0714 34.2857 28.2381 34.2857 30.8928C34.2857 33.5476 36.5876 35.7143 39.3548 35.7143C40.3343 35.7143 41.3016 35.3571 41.7669 34.6666V35.5357H43.6892V30.119H39.0854V32.0952Z" fill="#0B0D11"/>
<path d="M51.4951 26.25V31.3333C51.4951 32.6786 50.8217 33.4166 49.536 33.4166C48.2626 33.4166 47.6015 32.6786 47.6015 31.3333V26.25H45.1526V31.4762C45.1526 33.869 46.6709 35.7143 49.536 35.7143C52.3889 35.7143 53.9317 33.869 53.9317 31.4762V26.25H51.4951Z" fill="#0B0D11"/>
<path d="M55.6326 26.25V35.5357H58.0815V26.25H55.6326Z" fill="#0B0D11"/>
<path d="M59.9157 35.5357H66.9315V33.2381H62.3523V26.25H59.9157V35.5357Z" fill="#0B0D11"/>
<path d="M68.1924 35.5357H72.6248C75.6123 35.5357 77.1428 33.4286 77.1428 30.8928C77.1428 28.369 75.6123 26.25 72.6248 26.25H68.1924V35.5357ZM72.4411 28.5595C73.8982 28.5595 74.6695 29.5 74.6695 30.8928C74.6695 32.2857 73.8982 33.2381 72.4411 33.2381H70.6412V28.5595H72.4411Z" fill="#0B0D11"/>
</svg>
